<svg xmlns="http://www.w3.org/2000/svg" xmlns:xlink="http://www.w3.org/1999/xlink" width="285" height="340" viewBox="0 0 285 340">
  <defs>
    <style>
      .cls-1 {
        fill: #bf571b;
      }

      .cls-2 {
        fill: url(#linear-gradient);
      }

      .cls-3 {
        fill: url(#linear-gradient-2);
      }

      .cls-4 {
        fill: #488c03;
      }

      .cls-5 {
        fill: #020001;
      }

      .cls-6 {
        fill: #ff87a9;
      }

      .cls-14, .cls-7 {
        fill: #fff;
      }

      .cls-8 {
        fill: url(#linear-gradient-3);
      }

      .cls-9 {
        fill: url(#linear-gradient-4);
      }

      .cls-10 {
        fill: url(#linear-gradient-5);
      }

      .cls-11 {
        fill: url(#linear-gradient-6);
      }

      .cls-12 {
        fill: url(#linear-gradient-7);
      }

      .cls-13 {
        fill: url(#linear-gradient-8);
      }

      .cls-14 {
        opacity: 0.4;
      }

      .cls-15 {
        fill: url(#linear-gradient-9);
      }

      .cls-16 {
        fill: url(#linear-gradient-10);
      }
    </style>
    <linearGradient id="linear-gradient" x1="145.24" y1="-86.29" x2="138.77" y2="500.92" gradientUnits="userSpaceOnUse">
      <stop offset="0" stop-color="#d19752"/>
      <stop offset="0.17" stop-color="#be8649"/>
      <stop offset="0.52" stop-color="#8c5b30"/>
      <stop offset="0.99" stop-color="#40180a"/>
    </linearGradient>
    <linearGradient id="linear-gradient-2" x1="146.16" y1="-83.22" x2="139.83" y2="491.32" gradientUnits="userSpaceOnUse">
      <stop offset="0" stop-color="#d19752"/>
      <stop offset="0.16" stop-color="#cd9350"/>
      <stop offset="0.33" stop-color="#c1894a"/>
      <stop offset="0.49" stop-color="#ad7740"/>
      <stop offset="0.66" stop-color="#905e32"/>
      <stop offset="0.82" stop-color="#6c3f20"/>
      <stop offset="0.99" stop-color="#40180a"/>
    </linearGradient>
    <linearGradient id="linear-gradient-3" x1="187.25" y1="19.76" x2="213.65" y2="19.76" gradientTransform="translate(-70.38 105.62) rotate(4.02)" gradientUnits="userSpaceOnUse">
      <stop offset="0" stop-color="#40180a"/>
      <stop offset="0" stop-color="#850002"/>
      <stop offset="0.04" stop-color="#920002"/>
      <stop offset="0.27" stop-color="#cc0001"/>
      <stop offset="0.43" stop-color="#f10000"/>
      <stop offset="0.52" stop-color="red"/>
    </linearGradient>
    <linearGradient id="linear-gradient-4" x1="-3244.7" y1="-1838.77" x2="-3218.3" y2="-1838.77" gradientTransform="translate(-2932.73 -1921.73) rotate(-175.98)" xlink:href="#linear-gradient-3"/>
    <linearGradient id="linear-gradient-5" x1="217.39" y1="6.7" x2="217.52" y2="37.71" gradientTransform="translate(-70.38 105.62) rotate(4.02)" gradientUnits="userSpaceOnUse">
      <stop offset="0" stop-color="#40180a"/>
      <stop offset="0.04" stop-color="#48170a"/>
      <stop offset="0.11" stop-color="#601408"/>
      <stop offset="0.2" stop-color="#850f06"/>
      <stop offset="0.3" stop-color="#ba0904"/>
      <stop offset="0.41" stop-color="#fc0000"/>
      <stop offset="0.42" stop-color="red"/>
      <stop offset="0.53" stop-color="#d70400"/>
      <stop offset="0.68" stop-color="#a80800"/>
      <stop offset="0.82" stop-color="#860b00"/>
      <stop offset="0.93" stop-color="#720d00"/>
      <stop offset="1" stop-color="#6a0e00"/>
    </linearGradient>
    <linearGradient id="linear-gradient-6" x1="135.33" y1="179.27" x2="151.02" y2="179.27" gradientUnits="userSpaceOnUse">
      <stop offset="0" stop-color="#488c03"/>
      <stop offset="0.23" stop-color="#4e8f03"/>
      <stop offset="0.53" stop-color="#5f9903"/>
      <stop offset="0.87" stop-color="#7aaa02"/>
      <stop offset="0.97" stop-color="#83af02"/>
      <stop offset="1" stop-color="#85c802"/>
    </linearGradient>
    <linearGradient id="linear-gradient-7" x1="134.77" y1="205.61" x2="150.46" y2="205.61" xlink:href="#linear-gradient-6"/>
    <linearGradient id="linear-gradient-8" x1="134.77" y1="231.94" x2="150.46" y2="231.94" xlink:href="#linear-gradient-6"/>
    <linearGradient id="linear-gradient-9" x1="-12.13" y1="168.5" x2="7.75" y2="168.5" gradientTransform="translate(98.49 -149.82) rotate(-5.19)" gradientUnits="userSpaceOnUse">
      <stop offset="0" stop-color="#670000"/>
      <stop offset="0.18" stop-color="#610000"/>
      <stop offset="0.41" stop-color="#500201"/>
      <stop offset="0.67" stop-color="#350301"/>
      <stop offset="0.96" stop-color="#0f0602"/>
      <stop offset="0.97" stop-color="#0e0602"/>
    </linearGradient>
    <linearGradient id="linear-gradient-10" x1="-3312.58" y1="-131.33" x2="-3292.7" y2="-131.33" gradientTransform="matrix(-1, -0.09, -0.09, 1, -3124.73, -149.82)" xlink:href="#linear-gradient-9"/>
  </defs>
  <g id="text">
    <g>
      <ellipse class="cls-1" cx="143.18" cy="145.93" rx="1.68" ry="3.08"/>
      <g>
        <path class="cls-2" d="M215.46,186.56c-4.16.78-12.5,1.31-17.93,1.68,4.83,15,7.69,34.83,8.8,47,3.16,34.83,5.75,95.89-26.09,102-17.94,3.47-29.8-15.8-36.92-37.65-5.29,14.5-14.4,27.57-31.58,34.48C72.41,350,73.41,279.05,79.81,244.67c2.89-15.49,9.9-42.1,16.86-59.8-4.22,2-13.74,7.46-16.81,9-17.81,8.78-62.3,26.37-75.08,1.68s30.07-48,48.19-57.15c9.19-4.63,37.81-11.63,57.15-13.45-1.05-.79-24.48-17.29-30-34.51a81,81,0,0,1-3.1-20.19,67,67,0,1,1,133.92,0c0,24.09-14.53,42.92-33.62,54.7,1.06.46,27.74,1.74,33.24.38,22.06-5.45,66.19-29.87,71.53,6.91S240.9,181.74,215.46,186.56Z"/>
        <path class="cls-3" d="M178.41,331.68c-14.87,0-24.5-21.52-28.92-34.35l-6-17.26L137,297.13c-6.14,15.9-15.73,25.87-30.19,31.36A25,25,0,0,1,98,330.34a12.51,12.51,0,0,1-10-4.66c-5.63-6.4-9.16-19.33-10-36.39a197.86,197.86,0,0,1,3.32-44.76c4.39-22.27,9.3-39.76,15-53.47l6.19-14.85-15.22,6.91-5.48,2.47c-2.35,1-4.57,2-6.51,2.94C61.5,195,41.66,202.76,26.27,202.76c-6.19,0-14.95-1-19.52-9.31a15.78,15.78,0,0,1-.92-13.33c5.71-16.65,32.3-33,45.57-39.29,8.71-4.15,31.13-11.13,51.54-13l17.78-1.57-14.56-9.77C88.9,105,78.6,86.13,78.6,66.15c0-34.06,29.31-61.77,65.34-61.77s65.33,27.71,65.33,61.77c0,21.57-11.6,41.23-31,52.57L167.41,125,179,128.84c.62.26,33.37.45,38.05-.65,4.26-1,9-2.43,14-4,10.62-3.22,22.65-6.87,32.36-6.87,11.24,0,16.55,4.72,18.32,16.27,2.11,13.74-4.46,24.67-20.07,33.42-11.07,6.21-26.52,11.12-45.91,14.59a140.19,140.19,0,0,1-14.88,1.71l-8.47.53,2.61,7.64a199.94,199.94,0,0,1,9.28,42.89c2.46,25.65,2.5,45.71.13,61.3-3.28,21.49-11,33.49-22.83,35.66A17.74,17.74,0,0,1,178.41,331.68Z"/>
      </g>
      <g>
        <ellipse class="cls-4" cx="127.11" cy="53.08" rx="4.54" ry="13.17" transform="translate(-0.3 105.43) rotate(-45)"/>
        <ellipse class="cls-4" cx="156.81" cy="53.08" rx="13.17" ry="4.54" transform="translate(8.39 126.43) rotate(-45)"/>
        <path class="cls-5" d="M110.45,70.78a5.34,5.34,0,0,0-.48,3.84c.13.86,1.11,6.55,6.25,8.65a9.65,9.65,0,0,0,5.77.49,8.68,8.68,0,0,0,5.77-4.33,7.86,7.86,0,0,0,.48-1.92,7.63,7.63,0,0,0,0-1.45c-.26-2.28-5.94-4.93-6.73-5.28-3.76-1.72-5.79-2.61-8.17-1.93A4.94,4.94,0,0,0,110.45,70.78Z"/>
        <path d="M174.76,70.78a5.29,5.29,0,0,1,.48,3.84c-.13.86-1.11,6.55-6.25,8.65a9.64,9.64,0,0,1-5.77.49,8.68,8.68,0,0,1-5.77-4.33,8.44,8.44,0,0,1-.48-1.92,7.63,7.63,0,0,1,0-1.45c.26-2.28,5.95-4.93,6.73-5.28,3.76-1.72,5.8-2.61,8.18-1.93A4.93,4.93,0,0,1,174.76,70.78Z"/>
        <path d="M134.76,95.23a9,9,0,0,0,1.92,6.73c3,3.48,8.95,3.66,12,1,2.56-2.26,2.88-6.29,2.88-6.73v-1"/>
        <circle class="cls-6" cx="181.6" cy="80.87" r="4.81"/>
        <circle class="cls-6" cx="103.72" cy="80.87" r="4.81"/>
        <circle class="cls-7" cx="114.32" cy="73.09" r="1.96"/>
        <circle class="cls-7" cx="170.91" cy="73.09" r="1.96"/>
      </g>
      <path class="cls-7" d="M35.84,150.46a5.27,5.27,0,0,1,2.32,1,6.35,6.35,0,0,1,2.37,3.33,6.59,6.59,0,0,1,.06,3.29c-.2,1-.76,1.45-1,2.83a4,4,0,0,0-.08,1.29,4.24,4.24,0,0,0,2.84,3,5,5,0,0,0,.69.14,6.34,6.34,0,0,1,2,.2,5.92,5.92,0,0,1,3,1.66,5.2,5.2,0,0,1,.92,1.44,3.77,3.77,0,0,1,.46,2.25,3.54,3.54,0,0,1-.93,1.61c-.78,1-1.08.84-1.51,1.46a3.63,3.63,0,0,0-.35,3.27c.83,1.89,3.37,2.16,3.8,2.16.07,0,.52,0,1.14,0l.36,0a4,4,0,0,1,1.73.43,3.49,3.49,0,0,1,1.27,1.22,2.81,2.81,0,0,1,.57,1.67,2.73,2.73,0,0,1-.58,1.39c-.59.94-.79,1.08-1.27,1.82a6.14,6.14,0,0,0-1.05,2.19,2.31,2.31,0,0,0,0,1.52c.35.75,1.29,1,2.77,1.29a10.32,10.32,0,0,0,2.65.35,4.94,4.94,0,0,1,1.5.06,2.27,2.27,0,0,1,1.61,1,1.9,1.9,0,0,1,0,1.52c-.25.67-.75,1-1.51,1.47a8.59,8.59,0,0,1-2.31,1,5.44,5.44,0,0,1-1.25.2,6.73,6.73,0,0,0-.94.18,7,7,0,0,1-4.38-.77c-.64-.37-.81-.57-1.56-1a6.65,6.65,0,0,1-1.67-1,5.68,5.68,0,0,1-2.07-3.25,5.32,5.32,0,0,1,.12-2.11,6,6,0,0,1,.58-1.39c.66-1.13,1.17-1.13,1.28-1.82a2,2,0,0,0-.58-1.67,3.11,3.11,0,0,0-1.38-.64l-1.15-.29-.63-.15-.52-.13a6.25,6.25,0,0,1-1.62-1,6.81,6.81,0,0,1-2.18-2.67,3.91,3.91,0,0,1-.23-1.89,8.5,8.5,0,0,1,2-3.79,3.39,3.39,0,0,0,.71-1.77,1.34,1.34,0,0,0,0-.2,2.4,2.4,0,0,0-.92-1.45c-1.07-.83-1.93-.16-3.81-.62a6,6,0,0,1-3-1.66,6.29,6.29,0,0,1-1.5-3.11,5.14,5.14,0,0,1-.11-2.47c.26-1.06.77-1.08,1-2.19a3.55,3.55,0,0,0-.11-2.47,3,3,0,0,0-2.06-1.69c-.81-.12-1.15.3-1.84,0-.06,0-.82-.4-.88-1.06a1,1,0,0,1,.08-.5c.48-1.1,2.75-2.08,2.75-2.08C33.77,150.85,35,150.33,35.84,150.46Z"/>
      <path class="cls-7" d="M234.54,123.56a7.85,7.85,0,0,0-1.53,2.26,6.53,6.53,0,0,0-1,3.61,3.94,3.94,0,0,0,1,2.7c.77.79,1.51.62,4.08,1.81a4.17,4.17,0,0,1,1.53.9c.82,1.18-.23,3.26-1.53,4.52-1,.95-1.3.63-2.55,1.8a6,6,0,0,0-2,3.16,4.55,4.55,0,0,0,0,1.8,3.54,3.54,0,0,0,1,2.26,4.6,4.6,0,0,0,2,.9c1.46.41,1.69.15,2.55.46a4.05,4.05,0,0,1,2.55,2.7,3.18,3.18,0,0,1-.51,2.71,9.79,9.79,0,0,1-2,1.35c-.8.48-1,.54-1.53.91a4.73,4.73,0,0,0-1.53,1.35,3.27,3.27,0,0,0-.51,1.81,2.59,2.59,0,0,0,.51,1.8,3.38,3.38,0,0,0,1.53.9c1.25.51,1.55.52,2.55.91a7.56,7.56,0,0,1,2.55,1.35c.55.48.95.83,1,1.35.12.86-.71,1.58-2,2.71a12.57,12.57,0,0,1-2.55,1.81,6.43,6.43,0,0,0-1.53.9c-.4.35-1.11,1-1,1.8a2.06,2.06,0,0,0,1,1.36,4.42,4.42,0,0,0,2.55.45,12.49,12.49,0,0,0,3.06-.45c1.29-.34.91-.42,2.55-.9a7.73,7.73,0,0,0,3.06-1.36L248,173a14,14,0,0,0,.79-1.58c1.25-2.51,1.6-2.31,2-3.61a5.15,5.15,0,0,0,0-4.07,5.77,5.77,0,0,0-1.53-1.8,6.93,6.93,0,0,0-1.53-.9c-1.44-.64-2-.35-2.55-.91a1.82,1.82,0,0,1-.51-1.8,3.53,3.53,0,0,1,1-1.35c.14-.14.1-.08,1-.91l.56-.49.46-.41a6.16,6.16,0,0,0,1-1.8,6.29,6.29,0,0,0,.51-3.61,3.23,3.23,0,0,0-1-1.81,6.3,6.3,0,0,0-2-.9c-.29-.11-.29-.14-2.55-1.36-1.59-.86-1.84-1-2-1.35a2.17,2.17,0,0,1,0-1.81c.57-1.34,1.92-1.23,3.57-2.7a6.16,6.16,0,0,0,2-3.16,5.67,5.67,0,0,0-.51-3.61,5.22,5.22,0,0,0-1.53-2.26c-1-.79-1.52-.53-2.55-1.35a3.6,3.6,0,0,1-1-5,19.68,19.68,0,0,1,1.53-2.25c.63-.91.41-1.44,1-1.77a2,2,0,0,1,.61-.19,29,29,0,0,0-5.22,1C237,122.06,235.7,122.44,234.54,123.56Z"/>
      <path class="cls-7" d="M80,290a6,6,0,0,1,2.32-1.71,7.19,7.19,0,0,1,4.66-.38,7.59,7.59,0,0,1,3.27,1.86,16.75,16.75,0,0,1,2.2,2.63c.74,1.06.67,1.2,1,1.39,1.3.72,3.53-.31,4.86-1.56,1-.94.65-1.22,1.89-2.41a6.64,6.64,0,0,1,3.38-2,6.07,6.07,0,0,1,2-.06,4.25,4.25,0,0,1,2.48.87,4.1,4.1,0,0,1,1,1.86c.49,1.34.2,1.56.56,2.35a4.18,4.18,0,0,0,3,2.27,4,4,0,0,0,2.93-.56,9,9,0,0,0,1.41-1.93c.5-.76.56-.92.94-1.44a4.75,4.75,0,0,1,1.43-1.46,4,4,0,0,1,2-.53,3.17,3.17,0,0,1,2,.42c.23.14.51.36,1,1.38s.6,1.42,1,2.33a6.87,6.87,0,0,0,1.54,2.32,2.6,2.6,0,0,0,1.49.9c.94.09,1.7-.71,2.89-2a12.13,12.13,0,0,0,1.89-2.42,6.08,6.08,0,0,1,.94-1.44,2.6,2.6,0,0,1,1.94-1,2.12,2.12,0,0,1,1.49.9,3.56,3.56,0,0,1,.56,2.34,9.86,9.86,0,0,1-.4,2.85c-.34,1.2-.43.86-.92,2.39a6.7,6.7,0,0,1-1.38,2.87l-.24.22a14.63,14.63,0,0,1-1.7.78c-2.68,1.23-2.47,1.56-3.87,2a6.48,6.48,0,0,1-4.41.12,6.12,6.12,0,0,1-2-1.35,6.26,6.26,0,0,1-1-1.39c-.73-1.32-.43-1.82-1-2.33a2.25,2.25,0,0,0-2-.42,3.84,3.84,0,0,0-1.44,1c-.14.13-.08.09-1,1l-.52.53c-.44.45-.4.42-.44.44a7,7,0,0,1-1.93,1,7.8,7.8,0,0,1-3.91.58,3.78,3.78,0,0,1-2-.88,5.65,5.65,0,0,1-1-1.86,25.94,25.94,0,0,0-1.54-2.32c-1-1.45-1.13-1.68-1.53-1.85a2.74,2.74,0,0,0-2,.06c-1.45.57-1.29,1.81-2.84,3.39a6.86,6.86,0,0,1-3.38,2,7.21,7.21,0,0,1-3.94-.36,5.94,5.94,0,0,1-2.49-1.34c-.89-.88-.62-1.39-1.54-2.32a4,4,0,0,0-2.49-1.34,3.41,3.41,0,0,0-2.86,1c-.62.74-.45,1.51-1.12,1.8a1.59,1.59,0,0,1-1.21-.09c-1.17-.58-1.2-2.54-1.22-4C78.76,293.27,78.73,291.56,80,290Z"/>
      <path class="cls-7" d="M202.68,293.34a5.79,5.79,0,0,0-2.09-1.61,6.67,6.67,0,0,0-4.25-.45,6.86,6.86,0,0,0-3,1.63,14.7,14.7,0,0,0-2.07,2.34c-.69.94-.64,1.07-1,1.23-1.21.63-3.22-.36-4.41-1.52-.9-.88-.57-1.12-1.68-2.24a6.16,6.16,0,0,0-3-1.88,5.56,5.56,0,0,0-1.79-.09,4,4,0,0,0-2.29.74,3.67,3.67,0,0,0-1,1.66c-.47,1.2-.22,1.41-.56,2.12a3.84,3.84,0,0,1-2.81,2,3.64,3.64,0,0,1-2.66-.57,8.23,8.23,0,0,1-1.25-1.79c-.44-.7-.49-.85-.83-1.33a4.23,4.23,0,0,0-1.28-1.36,3.74,3.74,0,0,0-1.76-.52,3,3,0,0,0-1.82.33c-.2.13-.46.33-1,1.24s-.59,1.28-1,2.09a6.24,6.24,0,0,1-1.46,2.07,2.43,2.43,0,0,1-1.39.79c-.86.06-1.53-.69-2.6-1.86a11.33,11.33,0,0,1-1.67-2.23,5.42,5.42,0,0,0-.83-1.34,2.42,2.42,0,0,0-1.75-1,2,2,0,0,0-1.39.79,3.26,3.26,0,0,0-.56,2.11,9.25,9.25,0,0,0,.31,2.6c.08.28.18.58.22.69.16.48.33.92.57,1.5a15,15,0,0,0,.72,1.61,6.11,6.11,0,0,0,2.23,2c.8.48,1,.46,1.69.91a7,7,0,0,0,1.8,1,6,6,0,0,0,4,.22,5.48,5.48,0,0,0,1.86-1.19,5.93,5.93,0,0,0,1-1.24c.69-1.18.43-1.64,1-2.09a2,2,0,0,1,1.81-.33,3.48,3.48,0,0,1,1.3.92c.13.13.07.09.85.91l.46.49c.39.41.36.39.39.41a6.56,6.56,0,0,0,1.74.95h0a5.45,5.45,0,0,0,3.55.62,4.88,4.88,0,0,0,2.83-2.42l0-.1c.11-.18.29-.41,1.41-2,.92-1.3,1.06-1.5,1.43-1.65a2.49,2.49,0,0,1,1.79.1c1.31.55,1.15,1.67,2.53,3.14a6.21,6.21,0,0,0,3,1.88,6.64,6.64,0,0,0,3.61-.24,5.47,5.47,0,0,0,2.31-1.16c.83-.78.59-1.25,1.45-2.07a3.71,3.71,0,0,1,2.31-1.17,3.16,3.16,0,0,1,2.6,1c.55.69.38,1.38,1,1.66a1.46,1.46,0,0,0,1.11-.05c1.08-.5,1.15-2.28,1.2-3.59C203.73,296.33,203.8,294.78,202.68,293.34Z"/>
      <path class="cls-8" d="M141.44,138.24c1.26,2.4-13.15,10.9-18.3,11.75s-8.27-5-8.09-11.16,3.11-11.43,8.33-10.93S140.17,135.84,141.44,138.24Z"/>
      <path class="cls-9" d="M148.75,140.07c-1.27-2.4,13.15-10.89,18.29-11.75s8.28,5,8.1,11.16-3.12,11.43-8.34,10.94S150,142.47,148.75,140.07Z"/>
      <circle class="cls-10" cx="145.16" cy="140.34" r="8.68"/>
      <circle class="cls-11" cx="143.18" cy="179.27" r="7.84"/>
      <circle class="cls-12" cx="142.62" cy="205.61" r="7.84"/>
      <circle class="cls-13" cx="142.62" cy="231.94" r="7.84"/>
      <ellipse class="cls-6" cx="143.46" cy="100.27" rx="5.32" ry="2.8"/>
      <path class="cls-14" d="M136.91,179.62a6.61,6.61,0,0,1,6.61-6.62,6.55,6.55,0,0,1,3,.74,6.31,6.31,0,0,0-3.7-1.19,6.37,6.37,0,0,0-5.2,10.08A6.62,6.62,0,0,1,136.91,179.62Z"/>
      <path class="cls-14" d="M136.35,206a6.61,6.61,0,0,1,9.63-5.88,6.38,6.38,0,0,0-8.9,8.9A6.66,6.66,0,0,1,136.35,206Z"/>
      <path class="cls-14" d="M136.35,232.28a6.59,6.59,0,0,1,9.63-5.87,6.38,6.38,0,0,0-8.9,8.89A6.63,6.63,0,0,1,136.35,232.28Z"/>
      <path class="cls-15" d="M117.56,1a20.16,20.16,0,0,0-9.08,5.33,21.26,21.26,0,0,0-4.87,8.32c-.55,1.74-.71,3.63-1,7.4-.52,6.29.09,8.16.86,9.49a6.84,6.84,0,0,0,2.49,2.58,6.94,6.94,0,0,0,4,.77c4.71-.25,7.91-3.59,9.64-5.38s2.26-3,2.43-4.16a5.92,5.92,0,0,0-.25-2.79c-.76-2.1-2.76-3-3.71-3.6-1.81-1.2-3.67-4-3.8-10.91"/>
      <path class="cls-16" d="M170.24,1a20.16,20.16,0,0,1,9.08,5.33,21.26,21.26,0,0,1,4.87,8.32c.55,1.74.71,3.63,1,7.4.52,6.29-.09,8.16-.86,9.49a6.84,6.84,0,0,1-2.49,2.58,6.94,6.94,0,0,1-4,.77c-4.7-.25-7.91-3.59-9.63-5.38s-2.27-3-2.44-4.16A5.92,5.92,0,0,1,166,22.6c.76-2.1,2.76-3,3.71-3.6,1.81-1.2,3.67-4,3.8-10.91"/>
    </g>
  </g>
</svg>
