<svg xmlns="http://www.w3.org/2000/svg" xmlns:xlink="http://www.w3.org/1999/xlink" width="230" height="235" viewBox="0 0 230 235">
  <defs>
    <style>
      .cls-1 {
        fill: url(#linear-gradient);
      }

      .cls-2 {
        fill: #fbb03b;
      }

      .cls-3 {
        fill: #ea881f;
      }

      .cls-4 {
        fill: url(#linear-gradient-2);
      }

      .cls-5 {
        fill: #b64c24;
      }

      .cls-6 {
        fill: #070200;
      }

      .cls-7 {
        fill: #d14a84;
      }

      .cls-8 {
        fill: #fcfcfc;
        stroke: #000;
        stroke-miterlimit: 10;
        stroke-width: 1.5px;
      }

      .cls-9 {
        fill: #f4ff0b;
      }

      .cls-10 {
        fill: #33e2ff;
      }

      .cls-11 {
        fill: #5bf440;
      }

      .cls-12 {
        fill: #f93d3d;
      }

      .cls-13 {
        fill: #ff00ed;
      }

      .cls-14 {
        fill: #f9ff00;
      }

      .cls-15 {
        fill: #a885ff;
      }

      .cls-16 {
        fill: #ff00f3;
      }

      .cls-17 {
        fill: lime;
      }
    </style>
    <linearGradient id="linear-gradient" x1="24.14" y1="164.32" x2="205.55" y2="164.32" gradientUnits="userSpaceOnUse">
      <stop offset="0" stop-color="#603813"/>
      <stop offset="0" stop-color="#f7931e"/>
      <stop offset="0.2" stop-color="#f89f1e"/>
      <stop offset="0.56" stop-color="#f9bf1f"/>
      <stop offset="1" stop-color="#fcee21"/>
    </linearGradient>
    <linearGradient id="linear-gradient-2" x1="66.29" y1="4.05" x2="166" y2="175.35" gradientUnits="userSpaceOnUse">
      <stop offset="0" stop-color="#603813"/>
      <stop offset="0" stop-color="#633b16"/>
      <stop offset="0.19" stop-color="#6f4720"/>
      <stop offset="0.52" stop-color="#8f663c"/>
      <stop offset="0.96" stop-color="#c29869"/>
      <stop offset="1" stop-color="#c69c6d"/>
    </linearGradient>
  </defs>
  <g id="text">
    <g>
      <path class="cls-1" d="M205.55,127.37a31.76,31.76,0,0,1-3.86,10l-7.27,12.16-5.28,8.84-18.37,30.74a31.39,31.39,0,0,1-27.53,15.34l-59.83-1.16a31.42,31.42,0,0,1-26.93-16.4L40.81,158.2l-4.62-8.46L27.56,134a31.59,31.59,0,0,1-3.42-9.75,32.44,32.44,0,0,0,25.68,12.4,34.24,34.24,0,0,0,5.86-.51c6.93,7.41,17.7,12.18,29.8,12.18,12.75,0,24-5.3,30.89-13.42,7,8.15,18,13.42,30.37,13.42A40.06,40.06,0,0,0,176.13,136a33,33,0,0,0,6.57.65A32.49,32.49,0,0,0,205.55,127.37Z"/>
      <path class="cls-2" d="M91.42,203.13c-.79,0-1.57,0-2.36,0l-3.59,7.26c-.76,1.53-1.68,3-2.44,4.51-.09.18-.09.24-.17.41s-.16.37-.26.55a.48.48,0,0,0,0,.12c0,.07-.08.19-.12.3s-.06.16-.11.3-.13.29-.2.49-.13.34-.26.61c0,.08,0-.17-.1.22s-.39.75-.76,1.56c-1,2.26-2.18,3.49-2.46,6.84-.07.83.53,5.28,2.46,6.11,1.4.61,4.08-.5,4.57-.75,2.35-1.19,3.55-4.2,4-5.53,2.49-7.44,4.47-12.89,5.57-20.5.11-.72.2-1.51.3-2.32C94.1,203.27,92.76,203.25,91.42,203.13Z"/>
      <path class="cls-2" d="M131.56,203.13c.79,0,1.58,0,2.36,0l3.59,7.26c.76,1.53,1.68,3,2.44,4.51.09.18.09.24.17.41s.16.37.26.55l.06.12c0,.07.07.19.11.3s.07.16.12.3.12.29.2.49a6.08,6.08,0,0,0,.26.61c0,.08,0-.17.09.22s.39.75.76,1.56c1,2.26,2.18,3.49,2.46,6.84.07.83-.53,5.28-2.46,6.11-1.4.61-4.08-.5-4.57-.75-2.35-1.19-3.55-4.2-4-5.53-2.49-7.44-4.47-12.89-5.57-20.5-.11-.72-.2-1.51-.29-2.32C128.88,203.27,130.23,203.25,131.56,203.13Z"/>
      <path class="cls-3" d="M75.35,188.39h0a.79.79,0,0,1-1-.42L60.67,156.23a.81.81,0,0,1,.42-1.06h0a.8.8,0,0,1,1,.42l13.62,31.74A.81.81,0,0,1,75.35,188.39Z"/>
      <path class="cls-3" d="M102.45,188.83h0a.8.8,0,0,1-1-.55l-8.33-30.09a.8.8,0,0,1,.55-1h0a.8.8,0,0,1,1,.55L103,187.84A.8.8,0,0,1,102.45,188.83Z"/>
      <path class="cls-3" d="M127.17,188.83h0a.8.8,0,0,0,1-.55l8.32-30.09a.8.8,0,0,0-.55-1h0a.8.8,0,0,0-1,.55l-8.33,30.09A.8.8,0,0,0,127.17,188.83Z"/>
      <path class="cls-3" d="M147.55,188.39h0a.78.78,0,0,0,1-.42l13.63-31.74a.81.81,0,0,0-.42-1.06h0a.78.78,0,0,0-1,.42l-13.63,31.74A.82.82,0,0,0,147.55,188.39Z"/>
      <path class="cls-2" d="M41,158.42c-4.12-1.79-10.46-4.52-17.43-7.37-1.95-.8-3.37-1.37-4.41-1.78l-.37-.1a3,3,0,0,1-.53-.18l-.11,0-.28-.08-.29-.08a2.54,2.54,0,0,1-.47-.14,3,3,0,0,1-.58-.18l-.15-.06a12.48,12.48,0,0,1-1.57-.6c-3-1.26-4.39-2-6.6-1.89-.54,0-5.12.26-6.11,3.06-.71,2,.91,4.2,1.24,4.68,1.58,2.34,4.22,3,5.87,3.43,9.25,2.27,13.87,3.4,20.38,3.75,3.14.17,7.49.29,12.73.1Z"/>
      <path class="cls-2" d="M189.7,156.1c4-2.08,10.11-5.26,16.86-8.61,1.89-.93,3.27-1.61,4.28-2.09a2.53,2.53,0,0,0,.36-.12,4.77,4.77,0,0,0,.52-.22l.1-.05.28-.1a2.29,2.29,0,0,0,.28-.09,3.66,3.66,0,0,0,.46-.18,3.43,3.43,0,0,0,.56-.22l.15-.07a13.22,13.22,0,0,0,1.53-.72c2.92-1.47,4.23-2.29,6.44-2.36.54,0,5.13-.11,6.31,2.62.86,2-.61,4.25-.9,4.75-1.41,2.45-4,3.33-5.62,3.85-9.06,2.93-13.59,4.39-20.05,5.2-3.13.4-7.46.84-12.7,1Z"/>
      <g>
        <g>
          <path class="cls-4" d="M205.53,83.87l-.22-.21a32,32,0,0,0,4.62-14.54c0-.22,0-.43,0-.65s0-.36,0-.54,0-.61,0-.91,0-.62,0-.92l0-.83c0-.26,0-.52,0-.78-1.26-17-15.12-30.75-32.75-32.65-2.52-16.61-18-29.39-36.68-29.39a38.82,38.82,0,0,0-24.21,8.3,38.82,38.82,0,0,0-24.21-8.3c-18.7,0-34.16,12.78-36.69,29.39-16.68,1.8-30,14.18-32.41,30,0-.13,0-.25.07-.37-.08.43-.15.86-.21,1.31l0,.21c0,.23-.06.45-.08.67s-.06.59-.08.88l-.06.78v0l0,.8c0,.3,0,.61,0,.92s0,.6,0,.91,0,.36,0,.54c0,.35,0,.7.07,1,0,.19,0,.37.05.56s0,.33,0,.5,0,.29.05.44a.13.13,0,0,0,0,.06c0,.32.08.63.14,1h0A33.74,33.74,0,0,0,27,83.87a30.2,30.2,0,0,0-2.85,40.34,32.44,32.44,0,0,0,25.68,12.4,34.24,34.24,0,0,0,5.86-.51c6.93,7.41,17.7,12.18,29.8,12.18,12.75,0,24-5.3,30.89-13.42,7,8.15,18,13.42,30.37,13.42A40.06,40.06,0,0,0,176.13,136a33,33,0,0,0,6.57.65,32.49,32.49,0,0,0,22.85-9.24,30.22,30.22,0,0,0,0-43.5ZM152.58,35l.09-.28a1.23,1.23,0,0,1,1.54-.85l9.44,2.8a1.26,1.26,0,0,1,.85,1.56l-.09.29a1.25,1.25,0,0,1-1.55.85l-9.43-2.8A1.28,1.28,0,0,1,152.58,35ZM81.88,56.4l0-.29A1.26,1.26,0,0,1,83.33,55l9.74,1.34a1.26,1.26,0,0,1,1.07,1.42l0,.29a1.25,1.25,0,0,1-1.4,1.08L83,57.82A1.27,1.27,0,0,1,81.88,56.4Zm51.23-36.87,9.33-3.17a1.24,1.24,0,0,1,1.57.8l.1.28a1.25,1.25,0,0,1-.79,1.59L134,22.2a1.26,1.26,0,0,1-1.58-.8l-.09-.28A1.26,1.26,0,0,1,133.11,19.53ZM86,19.28l.09-.29a1.24,1.24,0,0,1,1.54-.85l9.44,2.8A1.25,1.25,0,0,1,98,22.5l-.08.28a1.24,1.24,0,0,1-1.55.86l-9.43-2.8A1.27,1.27,0,0,1,86,19.28ZM69.06,40l1.64-.86c.59-.33,1.19-.64,1.81-.93l5.29-2.75a1.23,1.23,0,0,1,1.58.39.54.54,0,0,1,.1.16l.13.26A1.25,1.25,0,0,1,79.07,38l-8.74,4.54A1.24,1.24,0,0,1,68.65,42l-.13-.27a1.23,1.23,0,0,1,0-1.22A1.26,1.26,0,0,1,69.06,40ZM39.19,46.89l.11-.27a1.24,1.24,0,0,1,1.62-.71l9.14,3.66a1.26,1.26,0,0,1,.7,1.64l-.11.27a1.23,1.23,0,0,1-1.61.71l-9.15-3.66A1.28,1.28,0,0,1,39.19,46.89ZM55.91,70.72l-8.51,5a1.25,1.25,0,0,1-1.71-.46L45.54,75A1.28,1.28,0,0,1,46,73.24l8.52-5a1.24,1.24,0,0,1,1.7.46l.14.25A1.27,1.27,0,0,1,55.91,70.72Zm26.57,49.6c-3.45,0-14.14.23-14.13-5s10.68-4.76,14.14-4.74,14.11-.58,14.13,4.71S85.93,120.33,82.48,120.32Zm.41-10.26A15.09,15.09,0,1,1,97.83,95,15,15,0,0,1,82.89,110.06Zm39.62-70.47-9.8.81a1.25,1.25,0,0,1-1.34-1.15l0-.3a1.25,1.25,0,0,1,1.13-1.36l9.8-.81a1.25,1.25,0,0,1,1.35,1.15l0,.3A1.27,1.27,0,0,1,122.51,39.59ZM136,51.51l9.75-1.28a1.25,1.25,0,0,1,1.4,1.09l0,.29A1.25,1.25,0,0,1,146.06,53l-9.75,1.28a1.26,1.26,0,0,1-1.4-1.08l0-.3A1.25,1.25,0,0,1,136,51.51Zm13.87,68.81c-3.45,0-14.14.23-14.14-5s10.69-4.76,14.15-4.74,14.11-.58,14.13,4.71S153.27,120.33,149.82,120.32Zm0-10.26A15.09,15.09,0,1,1,164.77,95,15,15,0,0,1,149.83,110.06ZM175.76,60a1.26,1.26,0,0,1-.76-1.61l.09-.27a1.24,1.24,0,0,1,.8-.78,1.19,1.19,0,0,1,.79,0L186,60.64a1.27,1.27,0,0,1,.75,1.61l-.09.28a1.26,1.26,0,0,1-1.6.77l-7.28-2.61Z"/>
          <path class="cls-5" d="M55.91,70.72l-8.51,5a1.25,1.25,0,0,1-1.71-.46L45.54,75A1.28,1.28,0,0,1,46,73.24l8.52-5a1.24,1.24,0,0,1,1.7.46l.14.25A1.27,1.27,0,0,1,55.91,70.72Z"/>
          <path class="cls-5" d="M79.07,38l-8.74,4.54A1.24,1.24,0,0,1,68.65,42l-.13-.27a1.23,1.23,0,0,1,0-1.22c.69-.47,1.4-.91,2.14-1.33.59-.33,1.19-.64,1.81-.93a30.49,30.49,0,0,1,6.87-2.36.54.54,0,0,1,.1.16l.13.26A1.25,1.25,0,0,1,79.07,38Z"/>
          <ellipse class="cls-5" cx="82.89" cy="94.97" rx="14.94" ry="15.08"/>
          <path class="cls-5" d="M94.14,57.79l0,.29a1.25,1.25,0,0,1-1.4,1.08L83,57.82a1.27,1.27,0,0,1-1.07-1.42l0-.29A1.26,1.26,0,0,1,83.33,55l9.74,1.34A1.26,1.26,0,0,1,94.14,57.79Z"/>
          <path class="cls-5" d="M96.62,115.24c0,5.3-10.69,5.09-14.14,5.08s-14.14.23-14.13-5,10.68-4.76,14.14-4.74S96.6,110,96.62,115.24Z"/>
          <path class="cls-5" d="M123.66,38.23a1.27,1.27,0,0,1-1.15,1.36l-9.8.81a1.25,1.25,0,0,1-1.34-1.15l0-.3a1.25,1.25,0,0,1,1.13-1.36l9.8-.81a1.25,1.25,0,0,1,1.35,1.15Z"/>
          <path class="cls-5" d="M146.06,53l-9.75,1.28a1.26,1.26,0,0,1-1.4-1.08l0-.3A1.25,1.25,0,0,1,136,51.51l9.75-1.28a1.25,1.25,0,0,1,1.4,1.09l0,.29A1.25,1.25,0,0,1,146.06,53Z"/>
          <ellipse class="cls-5" cx="149.83" cy="94.97" rx="14.94" ry="15.08"/>
          <path class="cls-5" d="M164,115.24c0,5.3-10.69,5.09-14.14,5.08s-14.14.23-14.14-5,10.69-4.76,14.15-4.74S163.94,110,164,115.24Z"/>
          <path class="cls-5" d="M177.74,60.69l-2-.71a1.26,1.26,0,0,1-.76-1.61l.09-.27a1.24,1.24,0,0,1,.8-.78Z"/>
          <path class="cls-5" d="M50.76,51.21l-.11.27a1.23,1.23,0,0,1-1.61.71l-9.15-3.66a1.28,1.28,0,0,1-.7-1.64l.11-.27a1.24,1.24,0,0,1,1.62-.71l9.14,3.66A1.26,1.26,0,0,1,50.76,51.21Z"/>
          <path class="cls-5" d="M70.7,39.15c-.74.42-1.45.86-2.14,1.33a1.26,1.26,0,0,1,.5-.47Z"/>
          <path class="cls-5" d="M79.38,35.86a30.49,30.49,0,0,0-6.87,2.36l5.29-2.75A1.23,1.23,0,0,1,79.38,35.86Z"/>
          <path class="cls-5" d="M98,22.5l-.08.28a1.24,1.24,0,0,1-1.55.86l-9.43-2.8A1.27,1.27,0,0,1,86,19.28l.09-.29a1.24,1.24,0,0,1,1.54-.85l9.44,2.8A1.25,1.25,0,0,1,98,22.5Z"/>
          <path class="cls-5" d="M143.32,19,134,22.2a1.26,1.26,0,0,1-1.58-.8l-.09-.28a1.26,1.26,0,0,1,.78-1.59l9.33-3.17a1.24,1.24,0,0,1,1.57.8l.1.28A1.25,1.25,0,0,1,143.32,19Z"/>
          <path class="cls-5" d="M164.5,38.19l-.09.29a1.25,1.25,0,0,1-1.55.85l-9.43-2.8a1.28,1.28,0,0,1-.85-1.57l.09-.28a1.23,1.23,0,0,1,1.54-.85l9.44,2.8A1.26,1.26,0,0,1,164.5,38.19Z"/>
          <path class="cls-5" d="M186.71,62.25l-.09.28a1.26,1.26,0,0,1-1.6.77l-7.28-2.61-1.85-3.37a1.19,1.19,0,0,1,.79,0L186,60.64A1.27,1.27,0,0,1,186.71,62.25Z"/>
        </g>
        <g>
          <ellipse class="cls-6" cx="82.89" cy="94.97" rx="14.94" ry="15.08"/>
          <ellipse class="cls-6" cx="149.83" cy="94.97" rx="14.94" ry="15.08"/>
          <path class="cls-7" d="M96.62,115.24c0,5.3-10.69,5.09-14.14,5.08s-14.14.23-14.13-5,10.68-4.76,14.14-4.74S96.6,110,96.62,115.24Z"/>
          <path class="cls-7" d="M164,115.24c0,5.3-10.69,5.09-14.14,5.08s-14.14.23-14.14-5,10.69-4.76,14.15-4.74S163.94,110,164,115.24Z"/>
          <path d="M106.42,113a10.41,10.41,0,0,0,10.46,10.28,10.76,10.76,0,0,0,10.44-10.57,2.27,2.27,0,0,0-2.25-2.25,2.29,2.29,0,0,0-2.25,2.25A6.31,6.31,0,0,1,121,117a6,6,0,0,1-4.11,1.75,5.86,5.86,0,0,1-6-5.78,2.25,2.25,0,0,0-4.5,0Z"/>
          <ellipse class="cls-8" cx="88.07" cy="90.15" rx="4.18" ry="4.22"/>
          <ellipse class="cls-8" cx="154.21" cy="90.15" rx="4.18" ry="4.22"/>
        </g>
        <g>
          <path class="cls-9" d="M79.07,38l-8.74,4.54A1.24,1.24,0,0,1,68.65,42l-.13-.27a1.23,1.23,0,0,1,0-1.22,1.26,1.26,0,0,1,.5-.47l1.64-.86,1.81-.93,5.29-2.75a1.23,1.23,0,0,1,1.58.39.54.54,0,0,1,.1.16l.13.26A1.25,1.25,0,0,1,79.07,38Z"/>
          <path class="cls-10" d="M164.5,38.19l-.09.29a1.25,1.25,0,0,1-1.55.85l-9.43-2.8a1.28,1.28,0,0,1-.85-1.57l.09-.28a1.23,1.23,0,0,1,1.54-.85l9.44,2.8A1.26,1.26,0,0,1,164.5,38.19Z"/>
          <path class="cls-11" d="M50.76,51.21l-.11.27a1.23,1.23,0,0,1-1.61.71l-9.15-3.66a1.28,1.28,0,0,1-.7-1.64l.11-.27a1.24,1.24,0,0,1,1.62-.71l9.14,3.66A1.26,1.26,0,0,1,50.76,51.21Z"/>
          <path class="cls-12" d="M94.14,57.79l0,.29a1.25,1.25,0,0,1-1.4,1.08L83,57.82a1.27,1.27,0,0,1-1.07-1.42l0-.29A1.26,1.26,0,0,1,83.33,55l9.74,1.34A1.26,1.26,0,0,1,94.14,57.79Z"/>
          <path class="cls-13" d="M146.06,53l-9.75,1.28a1.26,1.26,0,0,1-1.4-1.08l0-.3A1.25,1.25,0,0,1,136,51.51l9.75-1.28a1.25,1.25,0,0,1,1.4,1.09l0,.29A1.25,1.25,0,0,1,146.06,53Z"/>
          <path class="cls-14" d="M186.71,62.25l-.09.28a1.26,1.26,0,0,1-1.6.77l-7.28-2.61-2-.71a1.26,1.26,0,0,1-.76-1.61l.09-.27a1.24,1.24,0,0,1,.8-.78,1.19,1.19,0,0,1,.79,0L186,60.64A1.27,1.27,0,0,1,186.71,62.25Z"/>
          <path class="cls-15" d="M55.91,70.72l-8.51,5a1.25,1.25,0,0,1-1.71-.46L45.54,75A1.28,1.28,0,0,1,46,73.24l8.52-5a1.24,1.24,0,0,1,1.7.46l.14.25A1.27,1.27,0,0,1,55.91,70.72Z"/>
          <path class="cls-12" d="M143.32,19,134,22.2a1.26,1.26,0,0,1-1.58-.8l-.09-.28a1.26,1.26,0,0,1,.78-1.59l9.33-3.17a1.24,1.24,0,0,1,1.57.8l.1.28A1.25,1.25,0,0,1,143.32,19Z"/>
          <path class="cls-16" d="M98,22.5l-.08.28a1.24,1.24,0,0,1-1.55.86l-9.43-2.8A1.27,1.27,0,0,1,86,19.28l.09-.29a1.24,1.24,0,0,1,1.54-.85l9.44,2.8A1.25,1.25,0,0,1,98,22.5Z"/>
          <path class="cls-17" d="M123.66,38.23a1.27,1.27,0,0,1-1.15,1.36l-9.8.81a1.25,1.25,0,0,1-1.34-1.15l0-.3a1.25,1.25,0,0,1,1.13-1.36l9.8-.81a1.25,1.25,0,0,1,1.35,1.15Z"/>
        </g>
      </g>
    </g>
  </g>
</svg>
