<svg xmlns="http://www.w3.org/2000/svg" xmlns:xlink="http://www.w3.org/1999/xlink" width="1920" height="1080" viewBox="0 0 1920 1080">
  <defs>
    <style>
      .cls-1 {
        fill: url(#linear-gradient);
      }

      .cls-2 {
        fill: url(#linear-gradient-2);
      }

      .cls-3 {
        fill: url(#linear-gradient-3);
      }

      .cls-4 {
        fill: url(#linear-gradient-4);
      }

      .cls-5 {
        fill: url(#linear-gradient-5);
      }

      .cls-6 {
        fill: url(#linear-gradient-6);
      }

      .cls-7 {
        fill: url(#linear-gradient-7);
      }

      .cls-8 {
        fill: url(#linear-gradient-8);
      }

      .cls-9 {
        fill: url(#linear-gradient-9);
      }

      .cls-10 {
        fill: url(#linear-gradient-10);
      }

      .cls-11 {
        fill: url(#linear-gradient-11);
      }

      .cls-12 {
        fill: url(#linear-gradient-12);
      }

      .cls-13 {
        fill: url(#linear-gradient-13);
      }

      .cls-14 {
        fill: url(#linear-gradient-14);
      }

      .cls-15 {
        fill: url(#linear-gradient-15);
      }

      .cls-16 {
        fill: url(#linear-gradient-16);
      }

      .cls-17 {
        fill: url(#linear-gradient-17);
      }

      .cls-18 {
        fill: url(#linear-gradient-18);
      }

      .cls-19 {
        fill: url(#linear-gradient-19);
      }

      .cls-20 {
        fill: url(#linear-gradient-20);
      }

      .cls-21 {
        fill: #fff;
        opacity: 0.5;
      }

      .cls-22 {
        fill: url(#linear-gradient-21);
      }

      .cls-23 {
        fill: url(#linear-gradient-22);
      }

      .cls-24 {
        fill: url(#linear-gradient-23);
      }

      .cls-25 {
        fill: url(#linear-gradient-24);
      }

      .cls-26 {
        fill: url(#linear-gradient-25);
      }

      .cls-27 {
        fill: url(#linear-gradient-26);
      }

      .cls-28 {
        fill: url(#linear-gradient-27);
      }

      .cls-29 {
        fill: url(#linear-gradient-28);
      }

      .cls-30 {
        fill: url(#linear-gradient-29);
      }

      .cls-31 {
        fill: url(#linear-gradient-30);
      }

      .cls-32 {
        fill: url(#linear-gradient-31);
      }

      .cls-33 {
        fill: url(#linear-gradient-32);
      }

      .cls-34 {
        fill: url(#linear-gradient-33);
      }

      .cls-35 {
        fill: url(#linear-gradient-34);
      }

      .cls-36 {
        fill: url(#linear-gradient-35);
      }

      .cls-37 {
        fill: url(#linear-gradient-36);
      }

      .cls-38 {
        fill: url(#linear-gradient-37);
      }

      .cls-39 {
        fill: url(#linear-gradient-38);
      }

      .cls-40 {
        fill: url(#linear-gradient-39);
      }

      .cls-41 {
        fill: url(#linear-gradient-40);
      }

      .cls-42 {
        fill: url(#linear-gradient-41);
      }
    </style>
    <linearGradient id="linear-gradient" x1="1196.43" y1="693.06" x2="1196.43" y2="1736.89" gradientUnits="userSpaceOnUse">
      <stop offset="0" stop-color="#2cbe00"/>
      <stop offset="0"/>
      <stop offset="0.41" stop-color="#3e6e16"/>
      <stop offset="0.62" stop-color="#45731a"/>
      <stop offset="1" stop-color="#cadd65"/>
    </linearGradient>
    <linearGradient id="linear-gradient-2" x1="3475.18" y1="-774.68" x2="3474.6" y2="-803.9" gradientTransform="translate(-1636.9 -133.67) rotate(28.92)" gradientUnits="userSpaceOnUse">
      <stop offset="0" stop-color="#d41c00"/>
      <stop offset="0.44" stop-color="#ba110a"/>
      <stop offset="1" stop-color="#92001a"/>
    </linearGradient>
    <linearGradient id="linear-gradient-3" x1="3437.09" y1="-759.45" x2="3447.9" y2="-784.15" gradientTransform="translate(-1636.9 -133.67) rotate(28.92)" gradientUnits="userSpaceOnUse">
      <stop offset="0" stop-color="#d41c00"/>
      <stop offset="1" stop-color="#92001a"/>
    </linearGradient>
    <linearGradient id="linear-gradient-4" x1="3385.53" y1="-784.3" x2="3424.39" y2="-784.96" gradientTransform="translate(-1636.9 -133.67) rotate(28.92)" gradientUnits="userSpaceOnUse">
      <stop offset="0.14" stop-color="#d41c00"/>
      <stop offset="0.96" stop-color="#92001a"/>
    </linearGradient>
    <linearGradient id="linear-gradient-5" x1="3390.13" y1="-839.5" x2="3408.32" y2="-810.06" gradientTransform="translate(-1636.9 -133.67) rotate(28.92)" gradientUnits="userSpaceOnUse">
      <stop offset="0.09" stop-color="#d41c00"/>
      <stop offset="1" stop-color="#92001a"/>
    </linearGradient>
    <linearGradient id="linear-gradient-6" x1="3462.89" y1="-765.84" x2="3460.54" y2="-800.67" gradientTransform="translate(-1636.9 -133.67) rotate(28.92)" gradientUnits="userSpaceOnUse">
      <stop offset="0.12" stop-color="#fff"/>
      <stop offset="0.92" stop-color="#ccc"/>
    </linearGradient>
    <linearGradient id="linear-gradient-7" x1="3410.19" y1="-764.53" x2="3428.93" y2="-780.46" gradientTransform="translate(-1636.9 -133.67) rotate(28.92)" gradientUnits="userSpaceOnUse">
      <stop offset="0" stop-color="#fff"/>
      <stop offset="0.92" stop-color="#ccc"/>
    </linearGradient>
    <linearGradient id="linear-gradient-8" x1="3381.37" y1="-811.16" x2="3409.59" y2="-799.62" gradientTransform="translate(-1636.9 -133.67) rotate(28.92)" gradientUnits="userSpaceOnUse">
      <stop offset="0" stop-color="#fff"/>
      <stop offset="0.92" stop-color="#ccc"/>
    </linearGradient>
    <linearGradient id="linear-gradient-9" x1="3413.62" y1="-857.35" x2="3412.79" y2="-825.79" xlink:href="#linear-gradient-7"/>
    <linearGradient id="linear-gradient-10" x1="3466.29" y1="-842.75" x2="3445.55" y2="-833.72" gradientTransform="translate(-1636.9 -133.67) rotate(28.92)" gradientUnits="userSpaceOnUse">
      <stop offset="0.17" stop-color="#fdfdfd"/>
      <stop offset="0.92" stop-color="#ccc"/>
    </linearGradient>
    <linearGradient id="linear-gradient-11" x1="3442.14" y1="-857.33" x2="3425.81" y2="-835.4" xlink:href="#linear-gradient-3"/>
    <linearGradient id="linear-gradient-12" x1="3477.87" y1="-812.39" x2="3457.63" y2="-823.78" xlink:href="#linear-gradient-3"/>
    <linearGradient id="linear-gradient-13" x1="3434.39" y1="-778.94" x2="3444.87" y2="-815.17" xlink:href="#linear-gradient-3"/>
    <linearGradient id="linear-gradient-14" x1="3415.13" y1="-832.96" x2="3423.36" y2="-823.56" gradientTransform="translate(-1636.9 -133.67) rotate(28.92)" gradientUnits="userSpaceOnUse">
      <stop offset="0.39" stop-color="#d41c00"/>
      <stop offset="1" stop-color="#92001a"/>
    </linearGradient>
    <linearGradient id="linear-gradient-15" x1="3423.34" y1="-805.23" x2="3460.14" y2="-805.23" gradientTransform="translate(-1636.9 -133.67) rotate(28.92)" gradientUnits="userSpaceOnUse">
      <stop offset="0" stop-color="#2cbe00"/>
      <stop offset="0" stop-color="#d41c00"/>
      <stop offset="1" stop-color="#92001a"/>
    </linearGradient>
    <linearGradient id="linear-gradient-16" x1="3462.74" y1="-788.88" x2="3451.96" y2="-814.33" gradientTransform="translate(-1636.9 -133.67) rotate(28.92)" gradientUnits="userSpaceOnUse">
      <stop offset="0" stop-color="#fdfdfd"/>
      <stop offset="0.92" stop-color="#ccc"/>
    </linearGradient>
    <linearGradient id="linear-gradient-17" x1="3410.14" y1="-795.79" x2="3432.1" y2="-807.2" xlink:href="#linear-gradient-8"/>
    <linearGradient id="linear-gradient-18" x1="3452.44" y1="-830.08" x2="3442.29" y2="-816.52" gradientTransform="translate(-1636.9 -133.67) rotate(28.92)" gradientUnits="userSpaceOnUse">
      <stop offset="0" stop-color="#fdfdfd"/>
      <stop offset="0.11" stop-color="#fff"/>
      <stop offset="0.92" stop-color="#ccc"/>
    </linearGradient>
    <linearGradient id="linear-gradient-19" x1="3428.51" y1="-796.2" x2="3433.19" y2="-826.01" xlink:href="#linear-gradient-8"/>
    <linearGradient id="linear-gradient-20" x1="3439.87" y1="-823.45" x2="3426.54" y2="-801.01" xlink:href="#linear-gradient-3"/>
    <linearGradient id="linear-gradient-21" x1="1754.47" y1="926.27" x2="1774.38" y2="926.27" gradientUnits="userSpaceOnUse">
      <stop offset="0" stop-color="#2cbe00"/>
      <stop offset="0" stop-color="#ccc"/>
      <stop offset="0.51" stop-color="#fff"/>
      <stop offset="0.89" stop-color="#d6d6d6"/>
      <stop offset="0.98" stop-color="#ccc"/>
    </linearGradient>
    <linearGradient id="linear-gradient-22" x1="3463.99" y1="-676.44" x2="3463.73" y2="-689.52" xlink:href="#linear-gradient-2"/>
    <linearGradient id="linear-gradient-23" x1="3446.94" y1="-669.62" x2="3451.78" y2="-680.68" xlink:href="#linear-gradient-3"/>
    <linearGradient id="linear-gradient-24" x1="3423.84" y1="-680.74" x2="3441.25" y2="-681.04" xlink:href="#linear-gradient-4"/>
    <linearGradient id="linear-gradient-25" x1="3425.91" y1="-705.47" x2="3434.05" y2="-692.28" xlink:href="#linear-gradient-5"/>
    <linearGradient id="linear-gradient-26" x1="3458.49" y1="-672.48" x2="3457.44" y2="-688.08" xlink:href="#linear-gradient-6"/>
    <linearGradient id="linear-gradient-27" x1="3434.89" y1="-671.89" x2="3443.28" y2="-679.02" xlink:href="#linear-gradient-7"/>
    <linearGradient id="linear-gradient-28" x1="3421.98" y1="-692.77" x2="3434.62" y2="-687.61" xlink:href="#linear-gradient-8"/>
    <linearGradient id="linear-gradient-29" x1="3436.42" y1="-713.46" x2="3436.05" y2="-699.33" xlink:href="#linear-gradient-7"/>
    <linearGradient id="linear-gradient-30" x1="3460.01" y1="-706.92" x2="3450.72" y2="-702.88" xlink:href="#linear-gradient-10"/>
    <linearGradient id="linear-gradient-31" x1="3449.2" y1="-713.45" x2="3441.88" y2="-703.63" xlink:href="#linear-gradient-3"/>
    <linearGradient id="linear-gradient-32" x1="3465.2" y1="-693.33" x2="3456.13" y2="-698.43" xlink:href="#linear-gradient-3"/>
    <linearGradient id="linear-gradient-33" x1="3445.73" y1="-678.34" x2="3450.42" y2="-694.57" xlink:href="#linear-gradient-3"/>
    <linearGradient id="linear-gradient-34" x1="3437.1" y1="-702.54" x2="3440.78" y2="-698.33" xlink:href="#linear-gradient-14"/>
    <linearGradient id="linear-gradient-35" x1="3440.78" y1="-690.12" x2="3457.26" y2="-690.12" xlink:href="#linear-gradient-15"/>
    <linearGradient id="linear-gradient-36" x1="3458.42" y1="-682.8" x2="3453.59" y2="-694.2" xlink:href="#linear-gradient-16"/>
    <linearGradient id="linear-gradient-37" x1="3434.86" y1="-685.89" x2="3444.7" y2="-691" xlink:href="#linear-gradient-8"/>
    <linearGradient id="linear-gradient-38" x1="3453.81" y1="-701.25" x2="3449.26" y2="-695.17" xlink:href="#linear-gradient-18"/>
    <linearGradient id="linear-gradient-39" x1="3443.09" y1="-686.08" x2="3445.19" y2="-699.43" xlink:href="#linear-gradient-8"/>
    <linearGradient id="linear-gradient-40" x1="3448.18" y1="-698.28" x2="3442.21" y2="-688.23" xlink:href="#linear-gradient-3"/>
    <linearGradient id="linear-gradient-41" x1="1710.97" y1="975.24" x2="1719.89" y2="975.24" xlink:href="#linear-gradient-21"/>
  </defs>
  <g id="text">
    <g>
      <polygon class="cls-1" points="1919.73 1079.85 1919.73 804.97 1919.59 804.52 1917.45 810.17 1916.85 797.08 1914.81 801.66 1912.34 812.73 1911.84 796.25 1910.31 793.8 1908.69 792.48 1906.22 805.68 1904.83 800.89 1902.77 808.52 1901.88 792.49 1899.44 809.35 1897.73 811 1896.6 797.39 1894.57 807.66 1893.02 804.32 1891.45 800.93 1890 791.44 1887.87 812.71 1886.37 805.18 1884.64 809.91 1882.98 812.07 1881.51 790.31 1879.78 795.93 1878.09 800.37 1876.41 796.4 1874.77 804.68 1873.1 803.73 1871.53 812.51 1869.85 809.37 1867.9 791.03 1866.5 806.81 1864.52 791.98 1862.91 795.86 1861.67 811.92 1859.82 805.23 1858.41 812.95 1856.07 793.39 1854.44 795.21 1852.8 796.37 1851.17 797.61 1850.18 812.81 1848.09 803.61 1846.22 799.49 1844.52 799.1 1842.97 801.57 1841.47 804.58 1840.1 809.59 1838.53 811.11 1835.78 793.75 1834.91 806.44 1832.94 801.91 1831.35 803.27 1830.2 810.67 1828.68 812.54 1826.43 804.73 1824.09 796.02 1822.75 800.53 1822.25 815.32 1818.91 794.75 1817.71 800.69 1816.04 800.9 1815.25 811.14 1812.58 799.87 1811.48 806.48 1810 808.63 1807.95 804.65 1806.13 803.18 1804.18 800.45 1804.09 816.79 1801.41 806.55 1800.05 809.77 1796.93 795.54 1795.85 801.43 1795.77 816.86 1793.16 807.98 1791.39 807.11 1788.53 796.18 1786.95 797.24 1785.91 803.13 1783.76 799 1783.89 815.23 1781.34 807.49 1780.61 815.84 1778.73 814.09 1776.41 808.55 1774.5 806.61 1774.06 817.09 1771.17 806.99 1768.46 798.51 1769.32 819.5 1766.75 812.21 1764.24 805.56 1763.09 809.85 1761.41 809.9 1760.64 817.22 1757.36 804.58 1756.53 811.33 1753.4 800.05 1752.06 802.83 1751.62 812.54 1749.12 806.29 1747.49 806.76 1745.73 806.25 1745.93 820.65 1742.91 810.52 1741.73 814.36 1739 806.63 1738.8 817.71 1735.98 809.36 1734.51 810.94 1733.42 815.43 1730.02 802.9 1730.71 820.33 1727.81 811.48 1727.71 823.04 1723.64 805.85 1722.66 810.99 1723.03 825.8 1721.21 824.88 1718.92 820.63 1718.02 826.23 1713.96 809.43 1713.66 819.29 1712.43 822.61 1710.97 824.23 1709.87 828.37 1706.67 817.81 1705.31 820.16 1704.41 825.66 1701.19 815.09 1701.47 828.76 1697.66 814.09 1698.28 830.01 1696.64 830.37 1691.86 809.11 1692.02 821.84 1691.55 830.18 1688.53 821.06 1686.49 818.68 1684.49 816.6 1682.13 812.04 1680.28 810.97 1680.71 825.42 1679.59 829.32 1676.43 819.34 1673.53 811.15 1674.36 828.22 1670.47 813.37 1668.53 811.7 1667.7 817.57 1665.52 814.28 1664.06 815.83 1664.21 828.26 1661.27 819.83 1661.18 830.62 1659.02 827.46 1656.32 820.71 1655.22 824.7 1653.33 823.35 1653.03 832.69 1650.56 827.5 1647.47 818.18 1646.05 820.01 1644.11 818.4 1644.2 830.28 1642.33 829.07 1641.61 835.58 1639.17 830.58 1637.05 827.73 1636.58 835.9 1633.58 827.19 1633.45 837.61 1630.91 831.97 1630.32 839.31 1627.07 829 1625.62 830.6 1622.65 822.18 1620.47 818.93 1622.17 841.43 1618.51 828.39 1618.31 838.32 1615.18 828.82 1614.22 833.7 1612.11 830.92 1611.8 840.08 1609.59 836.66 1608.9 843.36 1607.27 843.84 1603.84 832.52 1602.3 833.6 1599.53 826.71 1599.2 835.63 1597.87 837.99 1596.93 842.92 1593.98 834.89 1593.28 841.29 1589.63 828.97 1588.27 831.15 1586.19 828.76 1587.34 846.64 1584.34 838.5 1581.6 832.06 1581.75 843.5 1577.23 826.21 1577.74 839.78 1574.85 832.55 1574.2 838.95 1572.91 841.45 1570.74 838.59 1569.98 844.26 1566.37 832.85 1566.79 845.43 1563.97 838.8 1563.6 846.65 1559.89 834.87 1560.81 850.17 1559.36 851.61 1556.21 843.2 1553.57 837.77 1550.54 830.21 1549.88 836.22 1551.11 852.92 1546.78 838 1544.87 836.86 1542.47 833.01 1544.16 852.04 1541.48 846.54 1537.42 833.47 1536.3 836.75 1537.15 850.82 1533.47 840.01 1531.56 838.88 1532.36 852.5 1529.87 848.25 1526.52 839.37 1525.77 844.5 1523.29 840.42 1523.31 849.58 1519.74 839.71 1518.58 842.61 1519.33 855.55 1516.24 848.28 1514.18 846.43 1511.08 839.17 1509.64 840.61 1508.56 843.83 1508.92 854.43 1506.17 849.11 1505.13 852.5 1501.4 842.25 1500.17 844.72 1501.65 860.76 1496.16 841.8 1494.7 843.09 1496.55 860.79 1494.19 857.54 1492.09 855.61 1489.27 850.14 1488.68 855.64 1488.06 860.93 1484.47 851.81 1485.35 864.33 1479.76 845.68 1480.45 857.19 1479.04 858.64 1475.73 851.05 1475.71 859.03 1475.32 865.24 1470.11 848.86 1471.98 865.59 1467.81 854.13 1465.29 850.43 1465.41 858.92 1463.1 856.17 1462.72 862.3 1459.13 853.74 1458.43 858.35 1458.9 868.25 1454.08 854.22 1453.99 861.54 1450.56 853.9 1449.11 855.09 1447.16 854.1 1445.16 852.88 1447.16 869.23 1443.89 862.41 1443.78 869.44 1440.84 864.08 1437.55 857.3 1436.56 860.46 1436.49 867.53 1432.03 855.81 1431.34 860.22 1428.59 855.85 1428.05 860.88 1429.44 874.03 1426.2 867.62 1425.34 871.2 1421.19 861.07 1420.07 863.58 1419.36 867.78 1416.68 863.84 1417.87 875.81 1415.17 871.76 1415.19 878.87 1410.49 866.75 1408.53 865.78 1407.2 867.38 1406.63 872.01 1402.59 862.78 1405.13 879.8 1400.14 866.79 1398.2 865.98 1399.19 876.7 1399.11 883.13 1397.59 883.9 1395.26 881.5 1394.78 886.34 1390.69 877.15 1390.05 881.35 1387.72 879.03 1386.21 879.9 1381.89 869.98 1384.73 887.4 1381.31 880.99 1380.47 884.36 1375.4 871.77 1374.7 875.65 1376.58 889.18 1375.27 890.72 1369.72 876.54 1370.02 884.07 1369.32 887.89 1365.46 880.03 1367.04 892.2 1362.52 881.99 1359.55 877.49 1357.22 875.36 1360.01 891.77 1355.87 883.08 1357.33 894.61 1354.35 890.13 1350 880.75 1348.04 879.99 1351.34 897.91 1349.82 898.64 1344.77 886.95 1346.29 898.42 1344.2 897.17 1342.84 898.47 1338.85 890.6 1334.17 880.38 1336.25 893.64 1336.89 901.9 1334.64 900.1 1330.73 892.62 1330.78 898.76 1330.66 904.33 1328.48 902.79 1321.15 883.76 1320.6 887.85 1319.07 888.59 1319.6 896.29 1320.69 905.84 1313.75 888.37 1312.57 890.26 1315.77 906.81 1309.64 892.18 1311.81 905.24 1307.26 895.9 1303.97 890.8 1306.71 905.65 1304.75 904.94 1304.15 908.7 1303.29 911.62 1300.07 906.76 1293.73 891.76 1297.29 909.09 1297.2 914.48 1294.18 910.33 1289.39 900.47 1291.27 912.21 1288.79 909.87 1287.61 911.68 1280.91 895.76 1285.6 916.47 1282.08 910.78 1276.87 899.71 1277.92 908.66 1273.68 900.74 1273.43 905.54 1273.2 910.4 1273.18 915.9 1268.44 906.42 1269.71 916 1266.21 910.45 1262.01 902.75 1266.47 922.35 1262.93 916.71 1257.12 903.95 1261.34 922.75 1257.57 916.39 1252.75 906.78 1255.13 919.74 1251.63 914.29 1247.59 907.13 1246.7 909.83 1248.7 921.59 1246.86 921.31 1242.99 914.73 1246.3 930.54 1238.95 913.08 1242.53 929.71 1239.59 926.02 1238.68 928.67 1236.74 928.08 1233.31 922.86 1234.49 932.03 1230.83 926.08 1225.88 916.1 1224.04 915.84 1227.33 931.58 1226.82 935.48 1225.36 936.4 1223.54 936.2 1222.23 937.6 1219.94 935.95 1214.74 925.16 1214.58 930.14 1210.7 923.48 1212.4 934.35 1209.76 931.55 1208.84 934.18 1203.01 921.34 1201.36 921.65 1203.46 933.81 1204.78 943.55 1197.15 924.92 1199.64 938.4 1196.47 933.89 1192.56 927.02 1194.91 940.11 1188.98 926.73 1193.1 945.56 1191.24 945.23 1189.58 945.53 1184.34 934.26 1184.16 939.36 1184.27 945.41 1178.12 931.08 1176.13 930.28 1180.7 950.95 1174.13 935.13 1177.55 952.15 1169.55 931.51 1168.43 933.56 1166.45 932.74 1169.91 950.08 1164.8 938.84 1161.85 934.79 1160.44 935.87 1158.65 935.69 1159.25 943.61 1155.32 936.12 1155.4 942.33 1157.98 957.24 1152.38 943.91 1154.68 957.94 1152.9 957.86 1146.88 942.85 1145.45 943.93 1143.6 943.51 1146 958.24 1139.2 940.11 1138.18 942.65 1141.44 960.72 1139.83 961.23 1138.19 961.63 1133.6 951.15 1130.43 945.79 1131.11 954.78 1130.29 958.21 1127.99 956.1 1124.46 949.23 1122.3 947.53 1120.34 946.61 1121.5 957.76 1118.3 952.02 1117.16 954.3 1114.76 951.61 1114.07 955.7 1110.42 947.91 1111.97 961.19 1111.11 964.72 1109.67 965.97 1105.9 957.45 1107.48 971.36 1102.32 956.83 1102.46 964.77 1099.58 959.8 1096.49 953.82 1098.77 971.31 1093.2 954.33 1093.52 963.38 1089.54 953.13 1088.02 953.91 1086.98 956.93 1085.23 956.71 1083.73 957.63 1085.14 972.45 1084.14 975.93 1079.29 960.79 1078.13 963.45 1077.03 966.48 1077.05 975.15 1073.91 967.99 1071.89 966.41 1071.52 973.37 1067.65 962.07 1066.95 967.33 1064.06 960.97 1063.86 969.05 1063.92 978.85 1061.65 975.79 1058.83 969.5 1058.88 979.59 1055.93 972.45 1052.16 960.22 1053.49 978.21 1052.44 982.28 1050.38 980.2 1047.96 975.82 1043.95 961.18 1042.27 961.12 1041.96 970.01 1041.1 975.52 1040.47 982.79 1037.46 973.93 1035.98 975.41 1034.84 979.38 1031.83 969.94 1032.09 984.16 1029.31 976.29 1026.38 966.92 1026.94 984.16 1023.67 971.92 1023.74 985.88 1021.11 978.42 1018.55 971.29 1016.14 965.13 1015.64 975.16 1013.14 967.94 1012.73 979.32 1011.32 981.92 1009.72 982.86 1008.47 987.12 1005.97 979.42 1004.24 978.99 1001.92 972.6 999.75 967.41 999.85 986.34 997.67 981.09 994.87 968.6 994.04 978.18 992.24 976.8 991.16 984.12 989.58 985.54 987.08 975.32 986.04 983.74 984.75 989.24 982.88 986.84 981.23 987.61 978.88 977.86 977.91 988.88 975.76 981.75 974.17 983.33 972.53 984.15 971.09 988.5 968.34 969.46 967.04 976.3 965.32 975.4 963.66 975.57 962.07 977.3 960.49 979.38 959.3 990.88 957.52 988.96 955.09 970.23 953.62 975.24 951.97 975.83 950.12 970.48 948.47 970.79 946.82 971.25 945.24 974.14 943.92 988.2 942.1 982.82 940.51 987.05 938.79 985.6 937.08 984.82 935.47 989.34 933.53 972.59 931.99 982.55 930.34 985.45 928.65 985.25 926.99 987.74 925.21 971.76 923.63 987.07 921.91 970.88 920.26 974.7 918.6 975.83 916.95 981.25 915.28 981.72 913.62 983.26 911.94 980.7 910.26 976.06 908.63 988.48 906.91 972.86 905.25 976.59 903.63 985.98 901.88 972.63 900.28 982.77 898.58 978 896.83 970.69 895.34 988.85 893.55 978.27 892.02 989.11 890.37 990.63 888.71 990.4 886.88 980.16 885.28 984.19 883.63 985.03 882.03 987.76 880.47 992.44 878.62 984.27 877.16 992.42 874.95 971.66 873.79 990.48 871.76 977.83 870.44 989.3 868.7 986.81 867.16 990.54 864.9 973.68 863.56 983.03 861.44 971.52 860.09 980.01 858.4 979.73 856.36 971.46 855.02 979.31 853.47 982.15 852.12 988.97 850.58 991.49 848.53 984 847.11 988.82 844.6 973.28 843.52 984.28 841.38 976.22 840.43 988.78 838.78 989.2 836.21 974.73 835.46 989.6 833.57 986.18 831.66 982.85 830.77 994.31 828.32 983.25 826.69 983.92 825.85 995.31 823.98 992.46 821.11 976.95 820.24 987.3 818.65 988.41 817.29 992.19 814.2 975.15 812.89 979.76 812.25 991.78 809.3 977.34 808.24 984.43 807.53 994.91 804.01 975.25 804.36 996.65 801.26 981.88 799.82 984.43 798.33 986.34 797.6 995.67 794.13 978.39 794.24 995.48 790.96 980.5 791.21 998.32 788.43 988.27 787.06 991.09 786.14 997.74 783.48 989.25 780.81 980.82 779.83 986.88 779.66 999.39 775.73 981.04 775.33 991.52 774.52 998.4 772.43 995.16 769.31 984.13 768.09 987.75 766.91 991.6 763.74 980.64 764.29 997.16 761.19 986.95 760.47 993.91 758.9 994.75 756.13 987.26 756.21 999.41 752.73 987.25 753.1 1001.16 751.3 1000.32 749.04 996.55 746.56 991.47 745.15 993.31 741.89 983.49 743.12 1001.87 742.01 1005.4 740.19 1004.56 735.06 983.76 736.66 1003.56 732.02 986.12 731.05 990.47 728.66 986.57 727.77 991.34 725.54 988.38 724.64 993 722.3 989.52 722.17 998.22 722.34 1008.42 720.55 1007.88 718.78 1007.45 714.8 995.35 713.14 995.63 714.28 1010.42 708.71 990.49 708.37 997.56 708.34 1006.02 703.9 992.39 705.52 1008.93 702.12 1000.58 702.27 1009.64 700.73 1010.42 698.48 1007.79 693.96 994.51 694.57 1005.46 693.95 1010.51 690.93 1004.48 691.28 1013.87 686.65 1000.66 688.23 1015.46 685.35 1010.24 680.13 994.76 682.01 1010.6 680.3 1010.6 677.68 1006.74 676.12 1007.44 672.33 998.69 671.38 1002 669.88 1003 668.74 1005.48 665.82 1000.64 666.68 1011.21 664.1 1007.82 665.05 1018.6 662.74 1016.27 658.89 1007.92 658.03 1011.4 658.88 1021.44 652.44 1003.28 653.98 1015.88 651.39 1012.66 652.19 1022.22 645.42 1003.34 646.19 1012.78 642.81 1006.72 641.57 1008.63 642.77 1019.4 639.96 1015.5 637.69 1013.63 639.02 1024.67 633.36 1010.7 633.42 1017.12 632.19 1018.94 630.25 1018.28 630.16 1024.06 624.38 1010.08 624.96 1018.13 623.93 1020.63 624.16 1027.36 622.94 1029.13 616.35 1012.81 620.05 1031.13 614.86 1019.63 615.39 1027.23 610.79 1017.8 607.86 1013.97 610.18 1027.35 608.25 1026.77 603.29 1016.39 603.23 1021.91 604.08 1030.3 601.56 1027.83 601.24 1032.4 600.48 1035.52 595.02 1023.86 594.42 1027.54 595.47 1036.31 595.42 1041.61 592.89 1039.2 588.02 1029.61 586.33 1029.85 583.49 1026.59 587.14 1043.07 578.78 1023.08 578.11 1026.42 578.7 1033.53 580.45 1044.05 573.72 1029.27 572.28 1030.28 569.41 1027.05 572.47 1041.28 571.26 1042.92 568.28 1039.37 567.35 1041.79 562.51 1032.9 560.45 1032.12 562.3 1042.55 556.61 1031.31 561.03 1049.02 556.34 1040.73 553 1036.34 554.1 1044.46 548.39 1033.45 547.19 1035.12 551.93 1053.32 545.08 1039.24 543.21 1039.03 541.63 1039.62 545.25 1054.46 540.57 1046.52 536.35 1039.92 538.53 1050.69 535.01 1046.03 538.46 1060.1 529.99 1042.2 533.46 1056.25 531.52 1055.84 531.58 1060.7 528.42 1057.08 528.85 1062.85 521.79 1049.09 520.13 1049.46 520.21 1054.33 523.27 1066.84 521.48 1066.75 518.82 1064.5 517.5 1065.65 516.37 1067.31 512.7 1062.57 509.35 1058.69 508.05 1059.94 504.99 1056.83 506.67 1065.42 503.64 1062.41 501.09 1060.61 501.26 1065.41 496.6 1058.52 494.87 1058.75 495.06 1063.56 494.5 1066.56 494.85 1071.71 487.57 1058.78 492.63 1075.02 491.46 1076.52 488.55 1073.92 481.81 1062.45 480.84 1064.43 478.77 1063.89 480.99 1073.24 478.22 1071.07 473.14 1063.63 478.81 1079.85 1919.73 1079.85"/>
      <g>
        <path class="cls-2" d="M1778.75,866.8a49.13,49.13,0,0,0,6-13.31c.29-1.15.55-2.23.72-3.36a32,32,0,0,0,.32-3.3c0-.55,0-1.08,0-1.61a11.43,11.43,0,0,0-.12-1.55q-.12-.78-.27-1.5a8.74,8.74,0,0,0-.41-1.41c.51,0,1,.1,1.59.19s1,.18,1.55.3a10.3,10.3,0,0,1,3.08,1.21l4.32,2.73a4.65,4.65,0,0,1,2.11,3.45,7.83,7.83,0,0,1,.08,1.3,8.48,8.48,0,0,1-.16,1.37,13.25,13.25,0,0,1-.37,1.51,11.14,11.14,0,0,1-.62,1.53c-.24.52-.52,1-.83,1.59s-.68,1-1.06,1.53l-.61.77a7.89,7.89,0,0,1-.66.74c-.45.48-.94.95-1.45,1.42a16.87,16.87,0,0,1-1.62,1.31c-.57.41-1.17.85-1.78,1.21a25.18,25.18,0,0,1-3.93,1.94c-1,.38-1.95.76-2.93,1S1779.73,866.56,1778.75,866.8Z"/>
        <path class="cls-3" d="M1756.58,844.23a38.21,38.21,0,0,0,15.81-.86,43.88,43.88,0,0,1-7.22,13.38,51.2,51.2,0,0,1-12.43,11.45,54.65,54.65,0,0,1-13-3.73,48.82,48.82,0,0,1-12-7.28,39.23,39.23,0,0,0,16.75-3.88A38.75,38.75,0,0,0,1756.58,844.23Z"/>
        <path class="cls-4" d="M1735.89,826.83a25.29,25.29,0,0,0,3,6.59,21.31,21.31,0,0,0,4.47,5.12,28.9,28.9,0,0,1-14.69,1.42,43.45,43.45,0,0,1-16-6l-.5-1.61-.39-1.61c-.24-1.07-.51-2.14-.72-3.22s-.38-2.18-.53-3.29-.26-2.22-.33-3.36a51.18,51.18,0,0,1,.94-13.84,40.58,40.58,0,0,0,11.18,13c1.06.81,2.19,1.55,3.26,2.23s2.26,1.31,3.37,1.87,2.33,1.07,3.46,1.52c.58.23,1.14.44,1.7.64S1735.31,826.68,1735.89,826.83Z"/>
        <path class="cls-5" d="M1741.64,800.23c-.45.41-.83.86-1.25,1.28l-.58.68-.29.33-.27.35a24.41,24.41,0,0,0-1.93,2.87c-.26.52-.56,1-.78,1.53-.12.26-.25.51-.36.77l-.3.79-.16.4-.13.4-.27.81-.21.83a7.9,7.9,0,0,0-.2.84c-.45-.39-.86-.79-1.27-1.21s-.83-.86-1.23-1.31-.76-.92-1.14-1.41l-.55-.74c-.18-.25-.35-.5-.52-.76-.34-.52-.68-1-1-1.6s-.61-1.11-.9-1.69a32.68,32.68,0,0,1-1.54-3.63,40.63,40.63,0,0,1-1.94-17,51.61,51.61,0,0,1,11-8.11,52.16,52.16,0,0,1,6.24-2.91,45.51,45.51,0,0,1,6.77-2.06,37.93,37.93,0,0,0-4.58,7.73,39.67,39.67,0,0,0-2.59,7.88A34.23,34.23,0,0,0,1741.64,800.23Z"/>
        <path class="cls-6" d="M1752.74,868.2a51.2,51.2,0,0,0,12.43-11.45,43.88,43.88,0,0,0,7.22-13.38c.59-.13,1.14-.35,1.71-.52s1.1-.38,1.64-.59a24.16,24.16,0,0,1,4.88-1.36l1.12-.14a10.23,10.23,0,0,1,1.12-.06,9.19,9.19,0,0,1,1.05,0c.36,0,.75,0,1.07.06a8.74,8.74,0,0,1,.41,1.41q.15.72.27,1.5a11.43,11.43,0,0,1,.12,1.55c0,.53,0,1.06,0,1.61a32,32,0,0,1-.32,3.3c-.17,1.13-.43,2.21-.72,3.36a49.13,49.13,0,0,1-6,13.31,62.82,62.82,0,0,1-12.91,2.07A60.13,60.13,0,0,1,1752.74,868.2Z"/>
        <path class="cls-7" d="M1743.35,838.54a27.61,27.61,0,0,0,13.23,5.69,38.75,38.75,0,0,1-12,9.08,39.23,39.23,0,0,1-16.75,3.88,45.65,45.65,0,0,1-9.37-10.69,49.33,49.33,0,0,1-5.74-12.52,43.45,43.45,0,0,0,16,6A28.9,28.9,0,0,0,1743.35,838.54Z"/>
        <path class="cls-8" d="M1734.91,812.11a26.13,26.13,0,0,0-.46,7.13c0,.62.13,1.26.18,1.89s.22,1.28.31,1.92.3,1.28.44,1.92l.22,1,.29.9c-.58-.15-1.17-.31-1.76-.5s-1.12-.41-1.7-.64c-1.13-.45-2.31-1-3.46-1.52s-2.26-1.19-3.37-1.87-2.2-1.42-3.26-2.23a40.58,40.58,0,0,1-11.18-13,47.08,47.08,0,0,1,5-13.28,48.18,48.18,0,0,1,4-5.87l.54-.69.56-.67c.38-.44.76-.89,1.15-1.33.8-.84,1.58-1.7,2.43-2.48a40.63,40.63,0,0,0,1.94,17,32.68,32.68,0,0,0,1.54,3.63c.29.58.58,1.14.9,1.69s.66,1.08,1,1.6c.17.26.34.51.52.76l.55.74q.57.74,1.14,1.41c.4.45.82.89,1.23,1.31S1734.46,811.72,1734.91,812.11Z"/>
        <path class="cls-9" d="M1754.16,793.35a21.42,21.42,0,0,0-3.3,1,25.39,25.39,0,0,0-3.31,1.54,28,28,0,0,0-5.91,4.32,34.23,34.23,0,0,1,.07-15,39.67,39.67,0,0,1,2.59-7.88,37.93,37.93,0,0,1,4.58-7.73c.58-.14,1.19-.25,1.8-.36l.91-.16.94-.13c.63-.08,1.26-.16,1.86-.2l1.83-.12a45.76,45.76,0,0,1,7.31.3,45,45,0,0,1,13.8,4.12A37,37,0,0,0,1762,781a28.26,28.26,0,0,0-5,5.84,20.19,20.19,0,0,0-1.7,3.2c-.12.27-.22.54-.32.8s-.21.56-.31.83C1754.49,792.25,1754.33,792.78,1754.16,793.35Z"/>
        <path class="cls-10" d="M1777.13,804.41a25.26,25.26,0,0,0-10.34-9.43,27.48,27.48,0,0,1,6.41-3.29,33.82,33.82,0,0,1,7.55-1.75,41.52,41.52,0,0,1,17,1.72,46.91,46.91,0,0,1,5.56,13q.24.87.42,1.77c.11.6.26,1.19.34,1.8s.19,1.22.27,1.82l.17,1.73.15,1.73,0,1.79,0,1.78-.11,1.83c-.46-.64-.93-1.27-1.41-1.86s-1-1.16-1.54-1.7-1-1.08-1.55-1.59-1.1-1-1.65-1.44-1.1-.91-1.64-1.33-1.15-.85-1.73-1.25-1.17-.75-1.75-1.1-1.18-.67-1.79-1A30.82,30.82,0,0,0,1777.13,804.41Z"/>
        <path class="cls-11" d="M1766.79,795a20.53,20.53,0,0,0-6.32-1.91,21.36,21.36,0,0,0-3.2-.13,18,18,0,0,0-3.11.41c.17-.57.33-1.1.52-1.65.1-.27.2-.55.31-.83s.2-.53.32-.8a20.19,20.19,0,0,1,1.7-3.2,28.26,28.26,0,0,1,5-5.84,37,37,0,0,1,15.33-7.93,47,47,0,0,1,6.13,3.54,47.91,47.91,0,0,1,5.48,4.34,50.52,50.52,0,0,1,8.86,10.68,41.52,41.52,0,0,0-17-1.72,33.82,33.82,0,0,0-7.55,1.75A27.48,27.48,0,0,0,1766.79,795Z"/>
        <path class="cls-12" d="M1780.43,817.37l.06-.8,0-.86v-.85l-.09-.89-.07-.9-.12-.79c0-.26-.11-.52-.15-.79s-.12-.52-.19-.79a22.9,22.9,0,0,0-2.71-6.29,30.82,30.82,0,0,1,14.47,3.28c.61.3,1.21.62,1.79,1s1.19.71,1.75,1.1,1.16.81,1.73,1.25,1.09.87,1.64,1.33,1.1.95,1.65,1.44,1,1,1.55,1.59,1,1.11,1.54,1.7,1,1.22,1.41,1.86a38.05,38.05,0,0,1-4,14.91c-.32.6-.68,1.2-1,1.8l-.53.89-.27.44-.31.43c-.41.57-.83,1.13-1.25,1.69-.22.28-.42.56-.65.83l-.71.78c-.48.52-1,1-1.45,1.55s-1,.94-1.57,1.4-1.06.94-1.63,1.34-1.14.79-1.71,1.18c.3-.81.56-1.61.8-2.4s.4-1.63.56-2.42.3-1.57.37-2.36.1-1.58.11-2.34c0-.38,0-.75,0-1.12s0-.75-.09-1.12c-.07-.75-.17-1.46-.29-2.16l-.09-.51-.13-.52c-.09-.35-.19-.69-.28-1-.2-.67-.41-1.3-.65-1.92s-.55-1.24-.84-1.81a16.27,16.27,0,0,0-1-1.67c-.35-.54-.71-1.06-1.07-1.54-.19-.25-.36-.48-.57-.72s-.41-.47-.61-.7c-.42-.45-.84-.88-1.25-1.28s-.9-.81-1.35-1.18-.92-.72-1.37-1S1780.92,817.67,1780.43,817.37Z"/>
        <path class="cls-13" d="M1764.56,827.62a21.68,21.68,0,0,0,6.67.06,12.68,12.68,0,0,0,5-1.8q.09.39.18.81c0,.27.06.53.09.8,0,.54.07,1.11.07,1.69a11,11,0,0,1-.14,1.72c-.08.57-.18,1.17-.31,1.77a24.45,24.45,0,0,1-1.19,3.53,30.47,30.47,0,0,1-7.16,9.92,42,42,0,0,1-7.12,5.47,43.21,43.21,0,0,1-13.91-4.7A33.54,33.54,0,0,1,1740,842a27.85,27.85,0,0,1-5.62-7.5,20.8,20.8,0,0,0,9.81,3.11,21.71,21.71,0,0,0,8.44-1.3,26.43,26.43,0,0,0,6.73-3.69A28.7,28.7,0,0,0,1764.56,827.62Z"/>
        <path class="cls-14" d="M1758.18,818.57l-.21.19a1.9,1.9,0,0,0-.19.21c-.12.15-.26.28-.38.42-.19.31-.46.58-.61.88s-.3.59-.47.86-.23.53-.25.76-.06.42-.14.61,0,.32,0,.42,0,.12,0,.17a.28.28,0,0,1,0,.09.14.14,0,0,1,0,.07,1.92,1.92,0,0,0,.11.27,8.35,8.35,0,0,1-3,.55c-.26,0-.53,0-.8,0l-.79-.12a8.63,8.63,0,0,1-1.57-.48,10.67,10.67,0,0,1-3-1.82,14.47,14.47,0,0,1-2.52-2.88,18.28,18.28,0,0,1-1.92-3.71,23.77,23.77,0,0,1-1.15-4.28,27.67,27.67,0,0,1-.41-4.7c0-.8.06-1.61.12-2.44,0-.42.07-.85.13-1.26s.12-.83.2-1.25a32,32,0,0,1,6.66-5,29.9,29.9,0,0,1,8.14-3.19c.75-.16,1.49-.31,2.26-.44s1.64-.18,2.47-.24,1.66,0,2.49,0,1.66.14,2.49.24a25.93,25.93,0,0,1,9.36,3.3,21,21,0,0,0-10.24,2.71,15.44,15.44,0,0,0-6.11,6.26,16.34,16.34,0,0,0-1.9,7.21A15.4,15.4,0,0,0,1758.18,818.57Z"/>
        <path class="cls-15" d="M1764.74,817.52s.09.06.12.06h-.29l-1,.15h0v0s0-.1,0-.15a1.4,1.4,0,0,0-.67-.87,8.56,8.56,0,0,1,5.26-3.3,11.16,11.16,0,0,1,7.14,1,14.08,14.08,0,0,1,1.77,1,11.94,11.94,0,0,1,1.69,1.4,14.88,14.88,0,0,1,1.49,1.79,15.39,15.39,0,0,1,1.25,2.14,18.47,18.47,0,0,1,1.32,11.17,22.86,22.86,0,0,1-8.77,6.72l-1.29.53c-.44.15-.88.29-1.33.42a23,23,0,0,1-2.7.64,14.58,14.58,0,0,1-1.49.2c-.52,0-1,.1-1.56.1s-1.06,0-1.58,0-1-.09-1.58-.15a21.1,21.1,0,0,1-6-1.73,21.83,21.83,0,0,1-5.25-3.44,21.43,21.43,0,0,1-4-4.86,21,21,0,0,1-2.36-5.84,18.27,18.27,0,0,0,5,4.29,15.28,15.28,0,0,0,5.43,1.89,12.42,12.42,0,0,0,5-.32,9.58,9.58,0,0,0,3.79-2,7.72,7.72,0,0,0,2.11-3.06,7.88,7.88,0,0,0,.5-1.68,8,8,0,0,0,.1-.82,7.69,7.69,0,0,0,0-.83,6.7,6.7,0,0,0-.26-1.56,6.94,6.94,0,0,0-.59-1.43,6.42,6.42,0,0,0-.91-1.23l-.13-.13-.09-.09h0Z"/>
        <path class="cls-16" d="M1776.27,825.88a8.45,8.45,0,0,0,2.85-3.16,14,14,0,0,0,1.31-5.35c.49.3,1,.63,1.47,1s.91.68,1.37,1,.94.78,1.35,1.18.83.83,1.25,1.28c.2.23.41.46.61.7s.38.47.57.72c.36.48.72,1,1.07,1.54a16.27,16.27,0,0,1,1,1.67c.29.57.58,1.18.84,1.81s.45,1.25.65,1.92c.09.33.19.67.28,1l.13.52.09.51c.12.7.22,1.41.29,2.16,0,.37.08.75.09,1.12s0,.74,0,1.12c0,.76,0,1.54-.11,2.34s-.22,1.56-.37,2.36-.32,1.64-.56,2.42-.5,1.59-.8,2.4l-.87.58c-.29.19-.59.34-.89.5l-1.8,1c-.61.33-1.22.57-1.83.83l-1.84.74a9.17,9.17,0,0,1-.92.32l-.93.27-1.85.54c-1.22.3-2.43.51-3.65.74a42,42,0,0,1-7.27.53,49,49,0,0,1-7.06-.6,42,42,0,0,0,7.12-5.47,30.47,30.47,0,0,0,7.16-9.92,24.45,24.45,0,0,0,1.19-3.53c.13-.6.23-1.2.31-1.77a11,11,0,0,0,.14-1.72c0-.58,0-1.15-.07-1.69,0-.27,0-.53-.09-.8S1776.33,826.14,1776.27,825.88Z"/>
        <path class="cls-17" d="M1756.1,823.52a3.53,3.53,0,0,0,.69.88,9.4,9.4,0,0,0,1.78,1.26,19.08,19.08,0,0,0,6,2,28.7,28.7,0,0,1-5.16,5,26.43,26.43,0,0,1-6.73,3.69,21.71,21.71,0,0,1-8.44,1.3,20.8,20.8,0,0,1-9.81-3.11,25.45,25.45,0,0,1-2.66-9.49,27.93,27.93,0,0,1,0-4.84,29.17,29.17,0,0,1,.86-4.56,31.3,31.3,0,0,1,1.46-4.22,34.4,34.4,0,0,1,4.42-7.23c.44-.53.91-1,1.36-1.56.24-.25.46-.52.71-.76l.74-.72c-.08.42-.14.84-.2,1.25s-.09.84-.13,1.26c-.06.83-.11,1.64-.12,2.44a27.67,27.67,0,0,0,.41,4.7,23.77,23.77,0,0,0,1.15,4.28,18.28,18.28,0,0,0,1.92,3.71,14.47,14.47,0,0,0,2.52,2.88,10.67,10.67,0,0,0,3,1.82,8.63,8.63,0,0,0,1.57.48l.79.12c.27,0,.54,0,.8,0A8.35,8.35,0,0,0,1756.1,823.52Z"/>
        <path class="cls-18" d="M1762.85,816.7a1.26,1.26,0,0,0-.53-.19.27.27,0,0,1-.13,0,.26.26,0,0,1-.15,0,.26.26,0,0,1-.15,0l-.33.08a7.39,7.39,0,0,0-3.38,2,15.4,15.4,0,0,1-1.24-6.61,16.34,16.34,0,0,1,1.9-7.21,15.44,15.44,0,0,1,6.11-6.26,21,21,0,0,1,10.24-2.71A25.7,25.7,0,0,1,1787,811.27c.22.8.37,1.61.53,2.42.08.39.13.85.18,1.32s.09.92.12,1.38a25.78,25.78,0,0,1,0,2.78,21.42,21.42,0,0,1-.36,2.77,22.89,22.89,0,0,1-4.64,10,18.47,18.47,0,0,0-1.32-11.17,15.39,15.39,0,0,0-1.25-2.14,14.88,14.88,0,0,0-1.49-1.79,11.94,11.94,0,0,0-1.69-1.4,14.08,14.08,0,0,0-1.77-1,11.16,11.16,0,0,0-7.14-1A8.56,8.56,0,0,0,1762.85,816.7Z"/>
        <path class="cls-19" d="M1773.8,808.75a13.17,13.17,0,0,0-5-.28,12.5,12.5,0,0,0-4.19,1.35c-.31.17-.61.35-.89.54a8.55,8.55,0,0,0-.8.63,7.56,7.56,0,0,0-.69.7,6,6,0,0,0-.53.75,6.34,6.34,0,0,0-1,3.12,4.51,4.51,0,0,0,2.64,4.43s-.08,0,0,0h.18l1.77-.26h0l-.1,0c-.1,0-.14,0-.11,0l.07-.06c0-.07-.05.1,0,.09h0v-.22h0c.07.47-.62-4.18-.33-2.21h0v0l0,.18,0,.07h0a1.09,1.09,0,0,0-.09-.11v0h0l.09.09.13.13a6.42,6.42,0,0,1,.91,1.23,6.94,6.94,0,0,1,.59,1.43,6.7,6.7,0,0,1,.26,1.56,7.69,7.69,0,0,1,0,.83,8,8,0,0,1-.1.82,7.88,7.88,0,0,1-.5,1.68,7.72,7.72,0,0,1-2.11,3.06,9.58,9.58,0,0,1-3.79,2,12.42,12.42,0,0,1-5,.32,15.28,15.28,0,0,1-5.43-1.89,18.27,18.27,0,0,1-5-4.29c-.11-.47-.2-.95-.29-1.42l-.06-.36,0-.41-.08-.82a13.16,13.16,0,0,1-.06-1.66,15.56,15.56,0,0,1,.08-1.67,19,19,0,0,1,1.75-6.41,18.23,18.23,0,0,1,3-4.41,17.38,17.38,0,0,1,4-3.2,18.36,18.36,0,0,1,2.23-1.09,16.43,16.43,0,0,1,2.29-.73l1.14-.24c.38-.06.76-.1,1.13-.14l.56-.05.29,0,.34,0c.45,0,.9,0,1.35,0a14.25,14.25,0,0,1,4.34.91,14,14,0,0,1,3.13,1.67A13.14,13.14,0,0,1,1773.8,808.75Z"/>
        <path class="cls-20" d="M1768.17,820.3l-7.27,1.28-1.41.23-.68.13-.18,0-.36.12-.28.11-.13.08-.21.09a8.9,8.9,0,0,0-.88.53c-.17.11-.31.24-.49.38a4.32,4.32,0,0,0-.52.44,9,9,0,0,0-1.55,1.81c-.26.4,0,.2.27-.88a5.44,5.44,0,0,0,.21-.92,7.91,7.91,0,0,0,.15-1.13,9.39,9.39,0,0,0,0-1.18c0-.19,0-.39-.06-.59v0c.18,1.5-.42-3.37.41,3.37h0v-.06c0-.26-.07-.22,0-.17s.1.08,0,0-.11,0-.07,0h.27l2.54-.45h0l-.15,0,.14,0h0l-2.54.45h-.27c-.06,0,0,0,0,0a6.34,6.34,0,0,1-3.65-6.44,10.63,10.63,0,0,1,2.28-5.76,11.09,11.09,0,0,1,1-1.06,14.38,14.38,0,0,1,1.18-1q.6-.43,1.29-.84a18.46,18.46,0,0,1,13.19-1.87,13.18,13.18,0,0,1,1.46,9.29,6.76,6.76,0,0,1-.65,1.63,5.11,5.11,0,0,1-.91,1.21A4,4,0,0,1,1768.17,820.3Z"/>
        <path class="cls-21" d="M1795.17,803.07A36,36,0,0,0,1738,780.62,44.78,44.78,0,0,1,1795.17,803.07Z"/>
        <path class="cls-21" d="M1780,810.06a19.23,19.23,0,0,0-26.22-14.43,18.89,18.89,0,0,0-4.3,2.45A23.92,23.92,0,0,1,1780,810.06Z"/>
        <path class="cls-22" d="M1758,983.49c-1.18-.5-2.37-1-3.54-1.51,0,0,0,0,0,0,37.89-61.7-1.47-60.39,2.15-112.87,0,0,0,0,0,0l3.82.19s0,0,0,0c-3.69,53.33,34.64,50.55-2.44,114.23C1758.07,983.51,1758.06,983.5,1758,983.49Z"/>
        <path class="cls-21" d="M1771.09,813.63a14.07,14.07,0,0,0-1.23-2.33c-3.68-5.63-10.64-7.58-15.55-4.37a9.61,9.61,0,0,0-2,1.81C1758.19,805,1766.44,807.15,1771.09,813.63Z"/>
      </g>
      <g>
        <path class="cls-23" d="M1721.85,948.6a22.12,22.12,0,0,0,2.69-6,13.86,13.86,0,0,0,.32-1.5,12.74,12.74,0,0,0,.14-1.48q0-.37,0-.72a5.51,5.51,0,0,0-.06-.7c0-.23-.07-.45-.12-.67a5,5,0,0,0-.18-.63l.71.09c.23,0,.46.08.7.13a4.61,4.61,0,0,1,1.37.54l1.94,1.22a2.11,2.11,0,0,1,1,1.55,3.63,3.63,0,0,1,0,.58,4.71,4.71,0,0,1-.07.62,5.76,5.76,0,0,1-.44,1.36c-.11.23-.24.47-.38.71s-.3.45-.47.68l-.28.35a3.11,3.11,0,0,1-.29.33c-.2.21-.42.43-.65.64a5.81,5.81,0,0,1-.73.58c-.25.19-.52.38-.79.55a12,12,0,0,1-1.76.86c-.44.17-.88.34-1.32.48S1722.29,948.5,1721.85,948.6Z"/>
        <path class="cls-24" d="M1711.92,938.49a16.94,16.94,0,0,0,7.08-.38,19.82,19.82,0,0,1-3.23,6,23.14,23.14,0,0,1-5.57,5.13,24.94,24.94,0,0,1-5.81-1.67,22,22,0,0,1-5.36-3.26,17.51,17.51,0,0,0,7.5-1.74A17.3,17.3,0,0,0,1711.92,938.49Z"/>
        <path class="cls-25" d="M1702.65,930.7a11.39,11.39,0,0,0,1.34,2.95,9.8,9.8,0,0,0,2,2.3,13,13,0,0,1-6.58.63,19.22,19.22,0,0,1-7.15-2.68l-.22-.72-.18-.72c-.11-.48-.22-1-.32-1.44s-.17-1-.23-1.47-.12-1-.15-1.51a22.51,22.51,0,0,1,.42-6.2,18.11,18.11,0,0,0,5,5.83,16.6,16.6,0,0,0,1.47,1c.49.31,1,.59,1.5.84s1,.48,1.55.68l.77.29Z"/>
        <path class="cls-26" d="M1705.23,918.79c-.2.18-.38.38-.56.57l-.26.31-.13.15-.12.15a10.8,10.8,0,0,0-.87,1.29c-.11.23-.25.44-.35.68s-.11.23-.16.35l-.13.35-.07.18-.06.18-.12.36-.1.37c0,.13-.07.25-.09.38-.2-.18-.38-.35-.57-.54l-.55-.59c-.17-.2-.34-.41-.5-.63l-.25-.33-.24-.34q-.22-.34-.45-.72c-.14-.25-.27-.49-.4-.75a14.75,14.75,0,0,1-.69-1.63,18.44,18.44,0,0,1-.87-7.63,23.26,23.26,0,0,1,5-3.63,23,23,0,0,1,2.8-1.3,20.92,20.92,0,0,1,3-.93,17,17,0,0,0-2,3.46,18.07,18.07,0,0,0-1.16,3.54A15.3,15.3,0,0,0,1705.23,918.79Z"/>
        <path class="cls-27" d="M1710.2,949.23a23.14,23.14,0,0,0,5.57-5.13,19.82,19.82,0,0,0,3.23-6c.26-.06.51-.16.76-.23s.5-.17.74-.27a10.56,10.56,0,0,1,2.19-.61l.5-.06c.16,0,.33,0,.5,0h.47l.48,0a5,5,0,0,1,.18.63c0,.22.09.44.12.67a5.51,5.51,0,0,1,.06.7q0,.34,0,.72a12.74,12.74,0,0,1-.14,1.48,13.86,13.86,0,0,1-.32,1.5,22.12,22.12,0,0,1-2.69,6,28,28,0,0,1-5.79.93A26.87,26.87,0,0,1,1710.2,949.23Z"/>
        <path class="cls-28" d="M1706,936a12.4,12.4,0,0,0,5.93,2.54,17.3,17.3,0,0,1-5.39,4.07,17.51,17.51,0,0,1-7.5,1.74,20.61,20.61,0,0,1-4.2-4.79,22,22,0,0,1-2.57-5.61,19.22,19.22,0,0,0,7.15,2.68A13,13,0,0,0,1706,936Z"/>
        <path class="cls-29" d="M1702.21,924.11a11.57,11.57,0,0,0-.2,3.19c0,.28.06.57.08.85s.09.57.14.86.13.57.19.86l.1.43.13.4-.78-.22-.77-.29c-.5-.2-1-.43-1.55-.68s-1-.53-1.5-.84a16.6,16.6,0,0,1-1.47-1,18.11,18.11,0,0,1-5-5.83,21.17,21.17,0,0,1,2.25-5.94,21.59,21.59,0,0,1,1.77-2.63l.24-.31.25-.3.52-.6c.35-.37.7-.76,1.08-1.11a18.44,18.44,0,0,0,.87,7.63,14.75,14.75,0,0,0,.69,1.63c.13.26.26.5.4.75s.3.49.45.72l.24.34.25.33c.16.22.33.43.5.63l.55.59C1701.83,923.76,1702,923.93,1702.21,924.11Z"/>
        <path class="cls-30" d="M1710.84,915.71a9.94,9.94,0,0,0-1.48.45,12.51,12.51,0,0,0-1.49.69,12.75,12.75,0,0,0-2.64,1.94,15.3,15.3,0,0,1,0-6.7,18.07,18.07,0,0,1,1.16-3.54,17,17,0,0,1,2-3.46l.81-.16.4-.07.43-.06.83-.09.82-.05a18.8,18.8,0,0,1,3.27.14,20,20,0,0,1,6.18,1.84,16.48,16.48,0,0,0-6.86,3.55,12.43,12.43,0,0,0-2.24,2.62,9,9,0,0,0-.76,1.43l-.15.36-.13.37C1711,915.22,1710.91,915.45,1710.84,915.71Z"/>
        <path class="cls-31" d="M1721.12,920.66a11.31,11.31,0,0,0-4.63-4.22,12,12,0,0,1,2.87-1.47,15.43,15.43,0,0,1,3.38-.79,18.56,18.56,0,0,1,7.64.77,21,21,0,0,1,2.49,5.83c.07.26.13.53.19.8s.11.53.15.8.09.55.12.82l.08.77.06.78,0,.8v.79l0,.82-.63-.83c-.23-.26-.46-.52-.69-.76s-.46-.48-.69-.71l-.74-.65-.74-.59c-.25-.2-.51-.39-.77-.56s-.53-.34-.79-.5-.53-.3-.8-.43A13.68,13.68,0,0,0,1721.12,920.66Z"/>
        <path class="cls-32" d="M1716.49,916.44a9.23,9.23,0,0,0-2.83-.86,9.78,9.78,0,0,0-1.43-.06,8,8,0,0,0-1.39.19c.07-.26.14-.49.23-.74l.13-.37.15-.36a9,9,0,0,1,.76-1.43,12.43,12.43,0,0,1,2.24-2.62,16.48,16.48,0,0,1,6.86-3.55,19,19,0,0,1,2.74,1.59,20.18,20.18,0,0,1,2.46,1.94,22.49,22.49,0,0,1,4,4.78,18.56,18.56,0,0,0-7.64-.77,15.43,15.43,0,0,0-3.38.79A12,12,0,0,0,1716.49,916.44Z"/>
        <path class="cls-33" d="M1722.6,926.47l0-.36v-.77l0-.4,0-.4,0-.35c0-.12,0-.24-.07-.36s-.05-.23-.08-.35a10.39,10.39,0,0,0-1.22-2.82,13.68,13.68,0,0,1,6.48,1.47c.27.13.54.28.8.43s.54.32.79.5.52.36.77.56l.74.59.74.65c.23.23.46.46.69.71s.46.5.69.76l.63.83a16.84,16.84,0,0,1-1.77,6.68c-.14.27-.3.54-.46.81l-.24.4-.12.19-.14.2-.56.75a2.63,2.63,0,0,1-.29.37l-.31.36-.65.69c-.23.22-.47.42-.71.63s-.47.41-.73.59l-.76.53c.13-.36.25-.72.36-1.07s.18-.73.25-1.08.13-.71.16-1.06,0-.71,0-1v-.5a4,4,0,0,0,0-.5c0-.34-.08-.66-.13-1l0-.23-.06-.23-.12-.46c-.09-.3-.18-.58-.29-.86s-.25-.55-.38-.81a7.94,7.94,0,0,0-.42-.75c-.16-.24-.32-.47-.49-.69l-.25-.32a4.12,4.12,0,0,0-.28-.31,7.73,7.73,0,0,0-.56-.58c-.18-.17-.4-.36-.6-.52s-.41-.33-.61-.47S1722.82,926.6,1722.6,926.47Z"/>
        <path class="cls-34" d="M1715.49,931.05a9.7,9.7,0,0,0,3,0,5.49,5.49,0,0,0,2.26-.81c0,.12,0,.24.08.37s0,.24,0,.36,0,.49,0,.75a4.81,4.81,0,0,1-.06.77c0,.26-.08.53-.14.8a11.36,11.36,0,0,1-.54,1.58,14.5,14.5,0,0,1-.82,1.55,15.3,15.3,0,0,1-2.38,2.89,5.67,5.67,0,0,1-9.42.34,14.41,14.41,0,0,1-3-2.2,12,12,0,0,1-2.51-3.36,9.27,9.27,0,0,0,4.39,1.4,9.75,9.75,0,0,0,3.78-.59,11.34,11.34,0,0,0,3-1.65A12.24,12.24,0,0,0,1715.49,931.05Z"/>
        <path class="cls-35" d="M1712.63,927l-.09.09a.34.34,0,0,0-.08.09l-.17.19a4.85,4.85,0,0,0-.28.4c-.09.12-.13.26-.21.38a3.3,3.3,0,0,0-.11.34,2,2,0,0,0-.06.27c0,.07,0,.14,0,.19s0,.06,0,.08v0l0,0a.34.34,0,0,0,0,.12,3.85,3.85,0,0,1-1.35.25l-.36,0-.36-.06a3.73,3.73,0,0,1-.7-.21,5,5,0,0,1-1.36-.81,7.11,7.11,0,0,1-1.13-1.29,8.47,8.47,0,0,1-.86-1.67,10.5,10.5,0,0,1-.51-1.91,13.14,13.14,0,0,1-.19-2.11c0-.36,0-.72.06-1.09,0-.19,0-.38,0-.57l.09-.55a14.42,14.42,0,0,1,3-2.24,13.53,13.53,0,0,1,3.64-1.42c.34-.08.67-.14,1-.2s.74-.08,1.11-.11H1715c.37,0,.74.06,1.11.11a11.36,11.36,0,0,1,4.19,1.48,9.38,9.38,0,0,0-4.58,1.21,7,7,0,0,0-2.74,2.81,7.3,7.3,0,0,0-.85,3.22A6.91,6.91,0,0,0,1712.63,927Z"/>
        <path class="cls-36" d="M1715.57,926.53a.16.16,0,0,0,.06,0h-.13l-.45.07h0s0,0,0-.06a.67.67,0,0,0-.31-.4,3.9,3.9,0,0,1,2.36-1.47,5,5,0,0,1,3.2.45,6.56,6.56,0,0,1,.79.47,4.88,4.88,0,0,1,.76.63,6.75,6.75,0,0,1,.67.8,5.59,5.59,0,0,1,.55,1,8.22,8.22,0,0,1,.6,5,10.31,10.31,0,0,1-3.93,3l-.58.24-.59.19a10.56,10.56,0,0,1-1.21.28,6.05,6.05,0,0,1-.67.09c-.23,0-.46.05-.7.05h-.71l-.7-.07a9.2,9.2,0,0,1-2.72-.77,9.87,9.87,0,0,1-2.34-1.54,9.64,9.64,0,0,1-1.79-2.18,9.46,9.46,0,0,1-1-2.62,8.34,8.34,0,0,0,2.22,1.93,7.08,7.08,0,0,0,2.43.85,5.67,5.67,0,0,0,2.24-.15,4.34,4.34,0,0,0,1.7-.91,3.44,3.44,0,0,0,.94-1.37,3.38,3.38,0,0,0,.22-.75,2.35,2.35,0,0,0,0-.37,2.29,2.29,0,0,0,0-.37,2.76,2.76,0,0,0-.11-.7,3.61,3.61,0,0,0-.27-.64,3.09,3.09,0,0,0-.4-.55l-.06-.06,0,0h0Z"/>
        <path class="cls-37" d="M1720.74,930.27a3.61,3.61,0,0,0,1.27-1.41,6.25,6.25,0,0,0,.59-2.39c.22.13.44.28.66.43s.41.3.61.47.42.35.6.52a7.73,7.73,0,0,1,.56.58,4.12,4.12,0,0,1,.28.31l.25.32c.17.22.33.45.49.69a7.94,7.94,0,0,1,.42.75c.13.26.26.53.38.81s.2.56.29.86l.12.46.06.23,0,.23c.05.31.1.63.13,1a4,4,0,0,1,0,.5v.5c0,.34,0,.69,0,1s-.1.69-.16,1.06-.15.73-.25,1.08-.23.71-.36,1.07l-.39.26c-.13.09-.27.15-.4.23l-.81.43a6.66,6.66,0,0,1-.82.37l-.82.33a3.52,3.52,0,0,1-.42.15l-.41.12-.83.24c-.54.13-1.09.23-1.63.33a18.16,18.16,0,0,1-3.26.24,21,21,0,0,1-3.16-.27,18.83,18.83,0,0,0,3.19-2.45,15.3,15.3,0,0,0,2.38-2.89,14.5,14.5,0,0,0,.82-1.55,11.36,11.36,0,0,0,.54-1.58c.06-.27.1-.54.14-.8a4.81,4.81,0,0,0,.06-.77q0-.39,0-.75c0-.12,0-.24,0-.36S1720.77,930.39,1720.74,930.27Z"/>
        <path class="cls-38" d="M1711.7,929.22a1.53,1.53,0,0,0,.31.39,4.51,4.51,0,0,0,.8.57,8.61,8.61,0,0,0,2.68.87,12.24,12.24,0,0,1-2.31,2.23,11.34,11.34,0,0,1-3,1.65,9.75,9.75,0,0,1-3.78.59,9.27,9.27,0,0,1-4.39-1.4,11.38,11.38,0,0,1-1.2-4.25,12,12,0,0,1,0-2.16,13.51,13.51,0,0,1,.38-2.05,13.19,13.19,0,0,1,.66-1.89,16.15,16.15,0,0,1,.9-1.7,14,14,0,0,1,1.08-1.53c.19-.24.4-.47.61-.7s.2-.23.31-.34l.33-.32-.09.55c0,.19,0,.38,0,.57,0,.37,0,.73-.06,1.09a13.14,13.14,0,0,0,.19,2.11,10.5,10.5,0,0,0,.51,1.91,8.47,8.47,0,0,0,.86,1.67,7.11,7.11,0,0,0,1.13,1.29,5,5,0,0,0,1.36.81,3.73,3.73,0,0,0,.7.21l.36.06.36,0A3.85,3.85,0,0,0,1711.7,929.22Z"/>
        <path class="cls-39" d="M1714.72,926.16a.63.63,0,0,0-.23-.08.07.07,0,0,1-.06,0h-.13l-.15,0a3.5,3.5,0,0,0-1.52.89,6.91,6.91,0,0,1-.55-3,7.3,7.3,0,0,1,.85-3.22,7,7,0,0,1,2.74-2.81,9.38,9.38,0,0,1,4.58-1.21,11.47,11.47,0,0,1,5.28,6.93c.1.36.16.72.23,1.09,0,.17.06.38.09.59s0,.41.05.61c0,.42,0,.84,0,1.25a10,10,0,0,1-.17,1.24,10.17,10.17,0,0,1-2.07,4.49,8.22,8.22,0,0,0-.6-5,5.59,5.59,0,0,0-.55-1,6.75,6.75,0,0,0-.67-.8,4.88,4.88,0,0,0-.76-.63,6.56,6.56,0,0,0-.79-.47,5,5,0,0,0-3.2-.45A3.9,3.9,0,0,0,1714.72,926.16Z"/>
        <path class="cls-40" d="M1719.63,922.6a5.9,5.9,0,0,0-2.23-.12,5.68,5.68,0,0,0-1.88.6,3.73,3.73,0,0,0-.39.25,3.44,3.44,0,0,0-.36.28,3,3,0,0,0-.31.31,3.53,3.53,0,0,0-.24.34,2.94,2.94,0,0,0-.44,1.4,2,2,0,0,0,1.19,2h.07l.79-.12h-.11l0,0s0,0,0,0h0v-.1h0c0,.21-.28-1.87-.15-1h0a.81.81,0,0,1,0,.09v0h0s0-.05,0-.05h0l0,0,.06.06a3.09,3.09,0,0,1,.4.55,3.61,3.61,0,0,1,.27.64,2.76,2.76,0,0,1,.11.7,2.29,2.29,0,0,1,0,.37,2.35,2.35,0,0,1,0,.37,3.38,3.38,0,0,1-.22.75,3.44,3.44,0,0,1-.94,1.37,4.34,4.34,0,0,1-1.7.91,5.67,5.67,0,0,1-2.24.15,7.08,7.08,0,0,1-2.43-.85,8.34,8.34,0,0,1-2.22-1.93c-.05-.21-.09-.42-.13-.63l0-.16,0-.18,0-.37q0-.37,0-.75a6.12,6.12,0,0,1,0-.74,8.34,8.34,0,0,1,.79-2.87,8.18,8.18,0,0,1,1.33-2,7.66,7.66,0,0,1,1.8-1.43,7,7,0,0,1,1-.49,8.2,8.2,0,0,1,1-.33l.51-.1.51-.07.25,0h.88a6.32,6.32,0,0,1,2,.42,6,6,0,0,1,1.4.74A6.07,6.07,0,0,1,1719.63,922.6Z"/>
        <path class="cls-41" d="M1717.11,927.78l-3.26.57-.63.1-.3.06-.09,0-.16.05-.12,0-.06,0-.09,0a2.59,2.59,0,0,0-.39.24l-.23.17a2.11,2.11,0,0,0-.23.19,3.91,3.91,0,0,0-.69.82c-.12.17,0,.08.12-.4a3.62,3.62,0,0,0,.09-.41,2.73,2.73,0,0,0,.07-.51,4.69,4.69,0,0,0,0-.53,2.46,2.46,0,0,0,0-.26h0c.09.67-.18-1.51.19,1.51h0v0c0-.11,0-.09,0-.07s0,0,0,0l0,0h.12l1.14-.2h0l-.07,0,.07,0h0l-1.14.2h-.09a2.83,2.83,0,0,1-1.64-2.88,4.5,4.5,0,0,1,.67-2.08,5.62,5.62,0,0,1,.35-.5,5.16,5.16,0,0,1,.46-.48,5.6,5.6,0,0,1,.52-.42c.18-.13.38-.26.58-.38a8.36,8.36,0,0,1,5.91-.84,5.89,5.89,0,0,1,.65,4.16,2.85,2.85,0,0,1-.29.73,2.39,2.39,0,0,1-.41.55A1.81,1.81,0,0,1,1717.11,927.78Z"/>
        <path class="cls-21" d="M1729.2,920.06a16.63,16.63,0,0,0-1-3.36,16.11,16.11,0,0,0-24.62-6.69A20.05,20.05,0,0,1,1729.2,920.06Z"/>
        <path class="cls-21" d="M1722.4,923.19a8.46,8.46,0,0,0-.52-1.79,8.59,8.59,0,0,0-11.22-4.67,8.41,8.41,0,0,0-1.92,1.1A10.7,10.7,0,0,1,1722.4,923.19Z"/>
        <path class="cls-42" d="M1712.57,1000.86l-1.59-.67s0,0,0,0c17-27.64-.66-27,1-50.55h0l1.71.08h0c-1.66,23.88,15.51,22.64-1.1,51.16Z"/>
        <path class="cls-21" d="M1718.42,924.79a6.09,6.09,0,0,0-.55-1c-1.65-2.52-4.77-3.4-7-2a4.16,4.16,0,0,0-.91.81C1712.64,920.91,1716.33,921.89,1718.42,924.79Z"/>
      </g>
    </g>
  </g>
</svg>
