<svg xmlns="http://www.w3.org/2000/svg" xmlns:xlink="http://www.w3.org/1999/xlink" width="795" height="735" viewBox="0 0 795 735">
  <defs>
    <style>
      .cls-1 {
        fill: url(#linear-gradient);
      }

      .cls-2 {
        fill: url(#linear-gradient-2);
      }

      .cls-3 {
        fill: url(#linear-gradient-3);
      }

      .cls-4 {
        fill: url(#linear-gradient-4);
      }

      .cls-5 {
        fill: #ff55bc;
      }

      .cls-6 {
        fill: #488c03;
      }

      .cls-7 {
        fill: #020001;
      }

      .cls-18, .cls-8 {
        fill: #ff87a9;
      }

      .cls-15, .cls-9 {
        fill: #fff;
      }

      .cls-10 {
        fill: url(#linear-gradient-5);
      }

      .cls-11 {
        fill: url(#linear-gradient-6);
      }

      .cls-12 {
        fill: url(#linear-gradient-7);
      }

      .cls-13 {
        fill: url(#linear-gradient-8);
      }

      .cls-14 {
        fill: url(#linear-gradient-9);
      }

      .cls-15 {
        opacity: 0.4;
      }

      .cls-16 {
        fill: url(#linear-gradient-10);
      }

      .cls-17 {
        fill: url(#linear-gradient-11);
      }

      .cls-18 {
        stroke: #fff;
        stroke-miterlimit: 10;
      }

      .cls-19 {
        fill: url(#linear-gradient-12);
      }

      .cls-20 {
        fill: url(#linear-gradient-19);
      }

      .cls-21 {
        fill: url(#linear-gradient-20);
      }
    </style>
    <linearGradient id="linear-gradient" x1="443.29" y1="-116.95" x2="432.68" y2="846.26" gradientUnits="userSpaceOnUse">
      <stop offset="0" stop-color="#d19752"/>
      <stop offset="0.17" stop-color="#be8649"/>
      <stop offset="0.52" stop-color="#8c5b30"/>
      <stop offset="0.99" stop-color="#40180a"/>
    </linearGradient>
    <linearGradient id="linear-gradient-2" x1="247.24" y1="-118.53" x2="236.62" y2="844.68" xlink:href="#linear-gradient"/>
    <linearGradient id="linear-gradient-3" x1="247.18" y1="-113.52" x2="236.8" y2="828.91" gradientUnits="userSpaceOnUse">
      <stop offset="0" stop-color="#d19752"/>
      <stop offset="0.16" stop-color="#cd9350"/>
      <stop offset="0.33" stop-color="#c1894a"/>
      <stop offset="0.49" stop-color="#ad7740"/>
      <stop offset="0.66" stop-color="#905e32"/>
      <stop offset="0.82" stop-color="#6c3f20"/>
      <stop offset="0.99" stop-color="#40180a"/>
    </linearGradient>
    <linearGradient id="linear-gradient-4" x1="443.92" y1="-111.35" x2="433.54" y2="831.08" xlink:href="#linear-gradient-3"/>
    <linearGradient id="linear-gradient-5" x1="1012.41" y1="-114.21" x2="1001.79" y2="849" gradientTransform="matrix(-1, 0, 0, 1, 1356, 0)" xlink:href="#linear-gradient"/>
    <linearGradient id="linear-gradient-6" x1="1080.56" y1="-113.46" x2="1069.95" y2="849.75" gradientTransform="matrix(-1, 0, 0, 1, 1356, 0)" xlink:href="#linear-gradient"/>
    <linearGradient id="linear-gradient-7" x1="1012.35" y1="-109.2" x2="1001.97" y2="833.23" gradientTransform="matrix(-1, 0, 0, 1, 1356, 0)" xlink:href="#linear-gradient-3"/>
    <linearGradient id="linear-gradient-8" x1="1080.16" y1="-108.45" x2="1069.78" y2="833.98" gradientTransform="matrix(-1, 0, 0, 1, 1356, 0)" xlink:href="#linear-gradient-3"/>
    <linearGradient id="linear-gradient-9" x1="395.31" y1="237.41" x2="399.27" y2="1097.78" gradientUnits="userSpaceOnUse">
      <stop offset="0.1" stop-color="#ffb000"/>
      <stop offset="1" stop-color="#ff0"/>
    </linearGradient>
    <linearGradient id="linear-gradient-10" x1="2448.36" y1="-243.87" x2="2440.06" y2="509.13" gradientTransform="matrix(-0.16, 0.99, 0.99, 0.16, 877.41, -2152.43)" xlink:href="#linear-gradient"/>
    <linearGradient id="linear-gradient-11" x1="2449.45" y1="-221.93" x2="2441.89" y2="463.51" gradientTransform="matrix(-0.16, 0.99, 0.99, 0.16, 877.41, -2152.43)" xlink:href="#linear-gradient-3"/>
    <linearGradient id="linear-gradient-12" x1="394.59" y1="459.43" x2="392.37" y2="684.04" gradientUnits="userSpaceOnUse">
      <stop offset="0" stop-color="#683d1f"/>
      <stop offset="0.21" stop-color="#6c4122"/>
      <stop offset="0.64" stop-color="#c69c6d"/>
    </linearGradient>
    <linearGradient id="linear-gradient-19" x1="240.12" y1="97.55" x2="275.6" y2="97.55" gradientTransform="translate(84.03 -28.15) rotate(-5.19)" gradientUnits="userSpaceOnUse">
      <stop offset="0" stop-color="#670000"/>
      <stop offset="0.18" stop-color="#610000"/>
      <stop offset="0.41" stop-color="#500201"/>
      <stop offset="0.67" stop-color="#350301"/>
      <stop offset="0.96" stop-color="#0f0602"/>
      <stop offset="0.97" stop-color="#0e0602"/>
    </linearGradient>
    <linearGradient id="linear-gradient-20" x1="-911.64" y1="-6.77" x2="-876.15" y2="-6.77" gradientTransform="matrix(-1, -0.09, -0.09, 1, -440.45, -28.15)" xlink:href="#linear-gradient-19"/>
  </defs>
  <g id="text">
    <g>
      <g>
        <path class="cls-1" d="M586.22,257.85c-3.13-2.33-5.26-6.32-3.7-10.09s.26-6.94-.66-10.88c-.8-3.44-1.4-6.92-2.25-10.35a39.09,39.09,0,0,0-4-10.92,17.81,17.81,0,0,1-7.07-7.91c-14.62-1.63-29.4-4.08-41.63,3a5.87,5.87,0,0,1-1.41.63,3.91,3.91,0,0,1-.88.51,16.13,16.13,0,0,0-5,3.45c-.9,2.49-1.83,5.22-2.44,6.83a57.87,57.87,0,0,1-3.47,7.52c-1.59,3.84-13,6.27-57.47-.55,31.32-19.33,55.15-50.22,55.15-89.73a109.83,109.83,0,1,0-219.66,0c0,16.24,5.08,33.12,5.08,33.12,9,28.25,47.42,55.31,49.14,56.61a377.25,377.25,0,0,0-40.42,6.45,41.35,41.35,0,0,1,11,19.49,62.37,62.37,0,0,1,1.26,18c-.39,4.11-1,8.21-1.61,12.3a101.11,101.11,0,0,0-.64,10.39,35.54,35.54,0,0,1,6.2,18.93c.26,5.43-1.63,11.23-4.61,16.21,2.61-1.39,5-2.61,6.75-3.47-11.43,29-22.93,72.67-27.66,98.08-10.5,56.4-12.15,172.71,52.37,146.79,28.18-11.32,43.13-32.76,51.81-56.56,11.67,35.85,31.12,67.45,60.55,61.76,52.23-10.09,48-110.24,42.8-167.38-1.82-20-6.51-52.61-14.44-77.17,8.91-.6,22.59-1.47,29.41-2.76a307.52,307.52,0,0,0,43-11.17c1.6-2,3.39-3.87,5.29-5.91.65-.7,1.29-1.41,1.93-2.12.85-1.55,1.71-3.1,2.61-4.63,1.58-2.79,3.2-5.57,4.78-8.35.77-1.9,1.59-3.8,2.48-5.58.38-.9.74-1.72.85-2,1-2.69,2-5.34,3.14-8a85.83,85.83,0,0,1,5-9.78,38.06,38.06,0,0,1-1.84-10A22.92,22.92,0,0,1,586.22,257.85Z"/>
        <path class="cls-2" d="M243,279.83c-.12.81-.24,1.62-.35,2.44.08-.6.17-1.21.26-1.81Z"/>
        <path class="cls-3" d="M243,279.83c-.12.81-.24,1.62-.35,2.44.08-.6.17-1.21.26-1.81Z"/>
        <path class="cls-4" d="M585.79,257.52c-2.89-2.37-4.76-6.17-3.27-9.76,1.6-3.87.26-6.94-.66-10.88-.8-3.44-1.4-6.92-2.25-10.35a55.89,55.89,0,0,0-2.14-7c-13.37,2.72-34.5,8-43,.28-9.21-8.44-13.93-3.76-15.61,3.47-.64,2.74-2.71,9.38-4.63,9.83a102.38,102.38,0,0,1-20.82,3.47c-15.58.85-33.75-2.74-34.12-2.89l-20-3.84,17.75-10.36C489,200.86,508,168.62,508,133.23c0-55.86-48.08-101.31-107.17-101.31S293.66,77.37,293.66,133.23c0,32.78,16.9,63.68,45.21,82.67l23.88,16L333.6,234.5a262.61,262.61,0,0,0-26.54,3.84,36,36,0,0,1,4.35,6.07A38.69,38.69,0,0,1,316,255.58a62,62,0,0,1,1.26,18c-.39,4.11-1,8.21-1.61,12.3a104,104,0,0,0-.64,10.39,35.54,35.54,0,0,1,6.2,18.93,22.7,22.7,0,0,1-.19,4l12.11-5.5L323,338.12c-9.37,22.5-17.42,51.19-24.62,87.71a324.4,324.4,0,0,0-5.46,73.42c1.31,28,7.11,49.19,16.34,59.69,4.59,5.22,9.78,7.65,16.34,7.65a41.17,41.17,0,0,0,14.33-3c23.72-9,39.46-25.36,49.52-51.45l10.79-28,9.75,28.3c7.25,21,23.05,56.34,47.45,56.34a28.78,28.78,0,0,0,5.23-.49c19.48-3.56,32.08-23.23,37.45-58.48,3.9-25.59,3.83-58.48-.2-100.56a327.93,327.93,0,0,0-15.23-70.36l-4.28-12.52,13.89-.88a221.72,221.72,0,0,0,24.41-2.81c19.56-3.49,36.57-7.91,51.06-13.15.31-.56.65-1.11,1-1.67,1.85-3.31,3.77-6.59,5.64-9.88.77-1.9,1.59-3.8,2.48-5.58.38-.9.74-1.72.85-2,1-2.69,2-5.34,3.14-8a87,87,0,0,1,4.47-9,38.24,38.24,0,0,1-1.93-10.22A23.51,23.51,0,0,1,585.79,257.52Z"/>
      </g>
      <g>
        <path class="cls-5" d="M387.25,185.9a23.6,23.6,0,0,1,1.16,16,45.34,45.34,0,0,0-1.27,4.52,6.56,6.56,0,0,0,.63,4.56,3.3,3.3,0,0,0,3.9,1.52c1.55-.68,2.12-2.69,2.07-4.44s-.51-3.51-.2-5.23,1.8-3.43,3.43-3a3,3,0,0,1,2,2.32,9.33,9.33,0,0,1,0,3.25l-1.53,13.9a14.42,14.42,0,0,0-.05,4.3,4.77,4.77,0,0,0,2.25,3.45c2.22,1.16,5-.65,6-3.06s.53-5.12.11-7.68l-1.95-12.15c-.14-.87-.21-1.94.47-2.46.86-.65,2.13.3,2.31,1.4a7,7,0,0,1-.64,3.22,3.42,3.42,0,0,0,.22,3.17,2.23,2.23,0,0,0,3.14,0,5,5,0,0,0,1.33-3.26,22.91,22.91,0,0,0-.2-4.68l-.81-7.12c.77-.36,1.56.63,1.57,1.51s-.41,1.71-.44,2.59.61,1.93,1.43,1.71.91-1.26.9-2.08l-.1-13.59"/>
        <ellipse class="cls-6" cx="370.93" cy="109.78" rx="7.45" ry="21.6" transform="translate(63.9 345.09) rotate(-53.95)"/>
        <ellipse class="cls-6" cx="429.16" cy="109.78" rx="21.6" ry="7.45" transform="translate(14.86 266.58) rotate(-35.08)"/>
        <path class="cls-7" d="M347.07,139.67c-1.39,2.15-1.06,4.54-.79,6.3.21,1.41,1.82,10.74,10.25,14.2A15.81,15.81,0,0,0,366,161c4.88-1.15,8.46-4.61,9.46-7.1a13.21,13.21,0,0,0,.79-3.15,12.56,12.56,0,0,0,0-2.37c-.42-3.75-9.75-8.09-11-8.67-6.16-2.82-9.5-4.28-13.4-3.16A8.07,8.07,0,0,0,347.07,139.67Z"/>
        <path d="M452.55,139.67c1.39,2.15,1.06,4.54.79,6.3-.21,1.41-1.82,10.74-10.25,14.2a15.83,15.83,0,0,1-9.46.79c-4.88-1.15-8.46-4.61-9.47-7.1a13.21,13.21,0,0,1-.79-3.15,13.6,13.6,0,0,1,0-2.37c.42-3.75,9.75-8.09,11-8.67,6.17-2.82,9.51-4.28,13.41-3.16A8.07,8.07,0,0,1,452.55,139.67Z"/>
        <path d="M386.93,179.77c-.13,1.22-.6,6.75,3.16,11,5,5.72,14.68,6,19.71,1.58,4.2-3.71,4.73-10.32,4.73-11v-1.58"/>
        <circle class="cls-8" cx="463.78" cy="156.23" r="7.89"/>
        <circle class="cls-8" cx="336.03" cy="156.23" r="7.89"/>
        <circle class="cls-9" cx="353.41" cy="143.47" r="3.22"/>
        <circle class="cls-9" cx="446.24" cy="143.47" r="3.22"/>
      </g>
      <ellipse class="cls-8" cx="400.63" cy="188.04" rx="8.73" ry="4.6"/>
      <g>
        <path class="cls-10" d="M349.37,113.63c-.36.59-.73,1.17-1.12,1.74s-.91.9-1.39,1.33c-1.6-2.76-3.05-5.63-4.42-8.53,1.43-.48,2.87-1,4.31-1.53q1.33,2.07,2.55,4.23c.14.42.27.84.39,1.27v.43C349.59,112.92,349.48,113.28,349.37,113.63Z"/>
        <path class="cls-11" d="M178.3,243.54c8.76-60.32,81.14-20.28,117.34-11.32,9,2.23,52.78.12,54.53-.63-.53-.32-1-.66-1.56-1,1,.08,2,.13,3,.13,1.2,0,2.38,0,3.55-.16,3.92.82,7.84,1.6,11.66,2.76,4.85,1.47,9.62,3.19,14.38,5a330.46,330.46,0,0,0-23.94,72c-.65,3.16-1.33,6.32-2,9.48a161.26,161.26,0,0,0-18.53,7.49c-5.82,2.8-11.58,5.71-17.51,8.28-.8.27-1.6.52-2.4.77.09-.3.18-.6.28-.89-8.92-.6-22.59-1.47-29.41-2.76C245.93,324.79,169.54,303.86,178.3,243.54Z"/>
        <path class="cls-12" d="M346.75,106.64q1.33,2.07,2.55,4.23c.14.42.27.84.39,1.27v.43c-.1.35-.21.71-.32,1.06-.36.59-.73,1.17-1.12,1.74s-.91.9-1.39,1.33c-1.6-2.76-3.05-5.63-4.42-8.53C343.87,107.69,345.31,107.18,346.75,106.64Z"/>
        <path class="cls-13" d="M178.93,245.9c2.91-19,11.62-26.69,30-26.69,15.92,0,35.67,6,53.08,11.27C270.27,233,278,235.32,285,237c7.68,1.8,61.39,1.49,62.42,1.07l16.66-5.46c.92.24,1.83.49,2.74.77,4.85,1.47,9.62,3.19,14.38,5a330.46,330.46,0,0,0-23.94,72c-.65,3.16-1.33,6.32-2,9.48a161.26,161.26,0,0,0-18.53,7.49c-4.35,2.09-8.67,4.25-13,6.27l1.79-5.24-13.89-.88a221.72,221.72,0,0,1-24.41-2.81C255.35,319,230,310.9,211.85,300.71,186.24,286.35,175.47,268.42,178.93,245.9Z"/>
      </g>
      <rect class="cls-14" y="257.5" width="793" height="476" rx="44.59"/>
      <path class="cls-15" d="M748.41,264.5H44.59A34.63,34.63,0,0,0,10,299.09v18A34.63,34.63,0,0,1,44.59,282.5H748.41A34.63,34.63,0,0,1,783,317.09v-18A34.63,34.63,0,0,0,748.41,264.5Z"/>
      <g>
        <path class="cls-16" d="M596.27,239v-.1c0-1-.1-2-.19-3,0-.23-.07-.45-.1-.67a59.52,59.52,0,0,0-3.41-11c-1.26-2.94-5.31-8.85-8.35-13h0a4.11,4.11,0,0,1-1.38-1.76c-.29-.34-.52-.71-.81-1.06a2.49,2.49,0,0,1-.35-.5,11.72,11.72,0,0,0-.91-1.05s-5.06-4-8.42-4.73c-1.52-.33-20.24-.94-25.06-.22-2.67.16-14.21,4.06-16.28,5.25-2.6,1.23-9.92,6.44-11.36,7.66-.14.15-.28.28-.43.42a4.28,4.28,0,0,0-1,1.79c-1.33,10.6-3.29,23.26-4.94,27.11-11.58,27.07-52,78.39-6.09,92.88,21.22,6.7,38.18-1.86,51.43-16.12a65.91,65.91,0,0,1,6.14-7.33c2.14-2.81,4.16-5.75,6.07-8.76,1.42-2.49,2.86-5,4.28-7.45.77-1.91,1.59-3.82,2.48-5.6.37-.88.71-1.67.83-2,1-2.69,2-5.33,3.14-8a80.82,80.82,0,0,1,5.3-10.31c.21-.43.42-.86.65-1.28a32.54,32.54,0,0,1,2.09-4.5c.33-.88.65-1.76,1-2.6,1.59-4.38,4.79-19.4,5.72-23.94v-.08h0V239Z"/>
        <path class="cls-17" d="M578.68,214.44c-3.54-3.94-7.07-9.72-14.17-10.47-6.45-.69-13.55,0-20,.93a29.12,29.12,0,0,0-2.85.86,58.72,58.72,0,0,0-10,5c-.66.45-7.46,6.18-9.6,7.26-2,12.58-5.58,33.7-7.2,37.61-2.09,5.08-4.83,10.64-7.72,16.54-6.14,12.52-13.11,26.71-15.07,38.74-2.27,13.94,2.5,21.48,16.48,26,16.6,5.39,31.48-.54,45.5-18.13,9.94-12.48,19.15-30.64,27.38-54a172.71,172.71,0,0,0,5.13-18.11,20.53,20.53,0,0,0,.71-10.35C585.73,227.85,581,217.07,578.68,214.44Z"/>
      </g>
      <g>
        <path class="cls-18" d="M160.14,367.23c-2.2,6.6.44,14.08,5.94,21.89a220.69,220.69,0,0,1,48.84-19c15.62-4,17.05,13.09,16.28,12.87-11.88-1.87-37.73,4-59.07,14.19,7.7,10.34,11,19.36,8.47,31.57-4.07,18.7-23.54,28.6-39.6,22.11-10.34-4.07-18.59-17.71-8.47-33.11,4.84-7.59,12-14.3,20.13-20.13-6.27-10.45-7-22.44-1.54-31.79,7.15-12,20.79-17.6,29.7-13.53,12.87,6.05,9,18.15,2.42,22.66-12.65,8.58-16.06-5.17-16.06-5.17,13.31-3.08,14.19-10.89,10-12.87C169.49,353.37,162.67,359.75,160.14,367.23Zm-2.2,37.84c-5.83,4-10.78,8.25-14.08,12.65-9.13,12.32-5.94,25,1.21,28.16,8.91,4.29,20.13-.22,23.21-12.1C170.7,424.65,167.29,417,157.94,405.07Z"/>
        <path class="cls-18" d="M219.32,390.88c4.73-3.08,11-.44,13.31,8.69C238.13,400,244,400,250,397a.38.38,0,0,0,.22.11c1.87.77,2.09,3.19-1.32,4.62a47.61,47.61,0,0,1-15.51,3.3,50,50,0,0,1-.66,9.46c-1.87,13.31-12.54,30.69-27.39,29.15-11.22-1-19.69-11-17.6-26.73,2.09-16.28,13.75-28.05,27.28-27.06A15.39,15.39,0,0,1,219.32,390.88Zm-17.16,23.54C200.29,426,203.26,433.56,210,434c7.15.44,14.85-7.59,16.83-19.36a27,27,0,0,0-.33-9.9,24.06,24.06,0,0,1-3-.44c-5.28-1-9.46-6.05-7.15-10.34a15.57,15.57,0,0,0-2.2-.44C208.76,393.3,204,402.32,202.16,414.42Z"/>
        <path class="cls-18" d="M259.91,392.2s-2.31,1.87-4.4,14c7.48-14.85,14.74-17.93,20.9-16.94,5.72,1,8.8,5.61,2.86,20-3.52,8.58-16.17,1.65-16.17,1.65,5.39-5.39,8.25-13.31,5.61-14.3-2.75-.77-7.59,5.61-15,23-2.64,21.34-6.6,26-16.83,21.34a13,13,0,0,0,1.76-5.61c2.64-25.08,1.1-41.14,8-45.65C254.08,384.72,259.91,392.2,259.91,392.2Z"/>
        <path class="cls-18" d="M301.38,392.2s-2.31,1.87-4.4,14c7.48-14.85,14.74-17.93,20.9-16.94,5.72,1,8.8,5.61,2.86,20-3.52,8.58-16.17,1.65-16.17,1.65,5.39-5.39,8.25-13.31,5.61-14.3-2.75-.77-7.59,5.61-15,23-2.64,21.34-6.6,26-16.83,21.34a13,13,0,0,0,1.76-5.61c2.64-25.08,1.1-41.14,8-45.65C295.55,384.72,301.38,392.2,301.38,392.2Z"/>
        <path class="cls-18" d="M335.15,433.23c3.3.88,7.92-4.51,11.44-17.16l1.65-10.23c2.42-16.17,12.21-17.6,18.59-11.22,0,0-4.51,3.85-6.82,21.56-1.1,8.58-2.53,17.93-4.07,27.17,23.32-8.25,36.63,11.88,26,32.67-14.85,29.15-54.45,47.63-46.86,6.16,1.54-8.58,2.86-15.84,4.07-22.44-10.56,4.73-23.76,8.8-36.41,4.73-14.19-4.62-12.87-18-6.6-22.66,0,0,2.53,6.49,14,9.9,9.13,2.75,19.91,2.53,30.8-1.43l3.41-20c-3.08,5.72-8.14,11.55-14.63,10.67-9-1.1-11.11-11.55-7.59-25.63,4.29-16.72,2.53-21.12,2.53-21.12,14.41-4.73,16.28,3,11.55,19.47C332.84,425.75,332.29,432.46,335.15,433.23Zm19.36,19.25c-2.2,13-4.62,25.3-6.71,35.09-3.85,18.7,10.78,15,21.78-7.48,6.93-14.08,3.3-35.53-14.85-27.72C354.62,452.37,354.62,452.48,354.51,452.48Z"/>
        <path class="cls-18" d="M421.06,367.23c-2.2,6.6.44,14.08,5.94,21.89a220.69,220.69,0,0,1,48.84-19c15.62-4,17.05,13.09,16.28,12.87-11.88-1.87-37.73,4-59.07,14.19,7.7,10.34,11,19.36,8.47,31.57-4.07,18.7-23.54,28.6-39.6,22.11-10.34-4.07-18.59-17.71-8.47-33.11,4.84-7.59,12-14.3,20.13-20.13-6.27-10.45-7-22.44-1.54-31.79,7.15-12,20.79-17.6,29.7-13.53,12.87,6.05,9,18.15,2.42,22.66-12.65,8.58-16.06-5.17-16.06-5.17,13.31-3.08,14.19-10.89,10-12.87C430.41,353.37,423.59,359.75,421.06,367.23Zm-2.2,37.84c-5.83,4-10.78,8.25-14.08,12.65-9.13,12.32-5.94,25,1.21,28.16,8.91,4.29,20.13-.22,23.21-12.1C431.62,424.65,428.21,417,418.86,405.07Z"/>
        <path class="cls-18" d="M513,416.29c-7.15,21.34-21.23,29.15-29,26.18-4.07-1.65-8.25-7-9.24-17.38-2.53,7.26-8.58,18.81-17.16,17.71-9.13-1.1-11.33-12.54-7.59-27.5,4.4-16.72,2.53-21.12,2.53-21.12,14.52-4.84,16.28,3,11.66,19.47-3.63,13.09-4.18,20.57-1.1,21.45s7.92-5.61,11.55-19a47.75,47.75,0,0,1,.77-6.38c2.09-13.64,14-17.49,20.13-11.22,0,0-4.4,4.07-6.93,17.71-2.09,10.56-1.32,20.79,3.3,21.56,2.86.44,6.27-6.05,9.13-18.37,6.38-29.37,19.91-47.74,38.5-50.82,14.74-2.53,20,9.46,16.83,16.5,0,0-5.39-4.18-17.05-1.76C527.43,385.71,520.83,393.74,513,416.29Z"/>
        <path class="cls-18" d="M538.86,423.66c12.21-5.28,12.87-26.18,8.47-27.39s-9.13,9.79-11.11,17.38c-2.42,9.13-1.76,21.56,6.93,23.32,9.24,1.87,20.24-5.61,23.54-14.74a.11.11,0,0,1,.11-.11c2.09-.66,3.74.77,2.42,4.29-4.51,11.44-18.48,20-32.78,16.94-8.36-1.87-17.49-12.43-14.63-28.05s14.41-26.18,28.71-23.65c20.35,3.74,14.41,27.5-11.88,36.19C538.64,427.84,534.68,425.53,538.86,423.66Z"/>
        <path class="cls-18" d="M581.87,423.66c12.21-5.28,12.87-26.18,8.47-27.39s-9.13,9.79-11.11,17.38c-2.42,9.13-1.76,21.56,6.93,23.32,9.24,1.87,20.24-5.61,23.54-14.74a.11.11,0,0,1,.11-.11c2.09-.66,3.74.77,2.42,4.29-4.51,11.44-18.48,20-32.78,16.94-8.36-1.87-17.49-12.43-14.63-28.05s14.41-26.18,28.71-23.65c20.35,3.74,14.41,27.5-11.88,36.19C581.65,427.84,577.69,425.53,581.87,423.66Z"/>
        <path class="cls-18" d="M627.74,379.11a37.66,37.66,0,0,0,12,.66l1.43-.22c5,2.2,4.51,7.7-2.75,9.13-3.19.66-8,0-13.53-1a165.74,165.74,0,0,0-4,19c-1.76,10.78-2.64,28.16.44,29.37,3.3,1.21,7.92-6,10.78-13.86l.11-.11c2-.66,3.74.88,2.42,4.29-4.18,10.56-13,19.25-20.35,15.95-7-3.08-8.8-20.9-7.15-35.64a159.39,159.39,0,0,1,3.52-22.22c-11.22-2.64-23-5.28-31.24-4-11.66,1.76-15.4,7.26-15.4,7.26-5.39-5.61-4.4-19,10.34-21.12,10.89-1.54,25.41,4.18,39.27,8.69a17,17,0,0,1,3.52-5.5c8.25-7.59,15.07-.44,15.07-.44A53.29,53.29,0,0,0,627.74,379.11Z"/>
        <path class="cls-18" d="M645.12,433.23c3.3.88,7.92-4.51,11.44-17.16l1.65-10.23c2.42-16.17,12.21-17.6,18.59-11.22,0,0-4.51,3.85-6.82,21.56-1.1,8.58-2.53,17.93-4.07,27.17,23.32-8.25,36.63,11.88,26,32.67C677,505.17,637.42,523.65,645,482.18c1.54-8.58,2.86-15.84,4.07-22.44-10.56,4.73-23.76,8.8-36.41,4.73-14.19-4.62-12.87-18-6.6-22.66,0,0,2.53,6.49,14,9.9,9.13,2.75,19.91,2.53,30.8-1.43l3.41-20c-3.08,5.72-8.14,11.55-14.63,10.67-9-1.1-11.11-11.55-7.59-25.63,4.29-16.72,2.53-21.12,2.53-21.12,14.41-4.73,16.28,3,11.55,19.47C642.81,425.75,642.26,432.46,645.12,433.23Zm19.36,19.25c-2.2,13-4.62,25.3-6.71,35.09-3.85,18.7,10.78,15,21.78-7.48,6.93-14.08,3.3-35.53-14.85-27.72C664.59,452.37,664.59,452.48,664.48,452.48Z"/>
      </g>
      <g>
        <g>
          <path class="cls-19" d="M216.83,498.82c2.45.3,4.85,0,6.48.87,2.14,1.11,2.51,3.77,3.55,5.4,1.22,1.92,3.1,3.49,3.34,5.43.44,3.47,1.29,3.6.58,6.7-.55,2.44-2.67,4.4-3.71,6.41a30.12,30.12,0,0,1-4.36,5.58,39.67,39.67,0,0,1-4.84,5.17c-3.28,2.63-4.94.42-6.59,3.58.72,2.42,1.94,5,2.2,7.19a34.31,34.31,0,0,1-.21,7c-.18,2.67.79,5.31.24,7.22-1.19,4.12-1.92,3.17-3.92,6-1.48,2.13-2.8,4.1-4.66,5a15.31,15.31,0,0,1-6.81,1.64,19,19,0,0,1-6.59-1.42c-3.72-1.36-3.94-.79-6.05-3.31-1.57-1.83-1.49-4.75-2.27-7a29.65,29.65,0,0,1-1.56-6.93c-.24-2.56-1.6-5.09-1.46-7.25.26-4.17,4.4-4.29,2.66-7.46-1.85-3.37-4.11-.28-7.76-2.84a38.6,38.6,0,0,1-6.26-4.78c-1.7-1.8-1.76-5-3-7.36-1.14-2.19-3.87-4.11-4.21-6.79-.31-2.46,2.15-4.57,2.44-6.43.38-2.47.72-4.14,1.78-5.73,1.35-2,2.1-4.34,3.78-5.28,3.14-1.76,3.08-2.34,6.31-2.57a20.71,20.71,0,0,1,8.06,1.22c2.6.93,3.79,4,5.6,5.67a23.69,23.69,0,0,1,4.26,6.1c2.21,3.83.78,4.69,4.27,6.43.68-2.56.22-5.31,1.11-7.19,1.16-2.48,3.69-3.84,5-5.35,1.88-2.09,3.41-4.42,5.21-5.19C213.31,496.92,213.34,498.24,216.83,498.82Z"/>
          <path class="cls-19" d="M267.63,570.58c-5.19,2.2-4.64,2.91-9.65,2.91-2.57,0-4.79-1.43-6.91-1.82-2.55-.47-5.06-.17-7-1.07-2.32-1.06-4.77-2-6.4-3.46-1.87-1.68-2.71-4.27-3.84-6.17a26.56,26.56,0,0,1-2.44-6.59c-1.15-3.94-1.4-3.33-1.4-6.86a39,39,0,0,1,1.16-7.44c.5-2.75.68-5.26,1.66-7.33a21.65,21.65,0,0,1,4.53-6c1.89-1.92,3.46-4.25,5.59-5.29,2.47-1.21,5.34-1.12,7.56-1.53,4.28-.79,3.77-1.11,7.54-.9a31.58,31.58,0,0,1,6.68.53,23.37,23.37,0,0,1,6.22,2.56,22.23,22.23,0,0,1,5.53,3.9c1.56,1.71,1.93,4.21,2.87,6.09a30.84,30.84,0,0,1,2.32,6.12c.91,3.74,1.91,3.17,1.91,6.48,0,2.78-1.55,5.18-2,7.42-.51,2.76-.28,5.48-1.29,7.52a26,26,0,0,1-5.06,7C271.7,569.85,271.5,568.93,267.63,570.58Zm-14.22-22.75c.2,2.8,1.88,3.12,4,3.12s4.4-.83,4.4-3.13c0-2.1-2-3.81-4.4-3.81C255.2,544,253.22,545.73,253.41,547.83Z"/>
          <path class="cls-19" d="M314,532.62c0,2,.79,4.38,1,6.57.28,2.94.36,6.14,2.24,6.14s2.19-2.38,2.4-6c.11-1.75-.54-4-.5-6.69,0-2.54,1.46-4.59,2.13-6.24a10.15,10.15,0,0,1,4.12-4.62c2.89-2,2.6-2.11,5.78-2.19a13.76,13.76,0,0,1,6.27,1.44c2.35.93,4.27,1.82,5.42,3.37,2.16,2.9,1.72,2.83,2.25,6.09.46,2.32,1.86,4.55,1.92,6.77.06,2.4-1,4.73-1.27,6.88A62.3,62.3,0,0,1,345,551a35,35,0,0,1-1.93,6.66c-1.38,3.57-1.36,3.12-4.21,6.54a24.73,24.73,0,0,1-5.6,5.46c-2,1.23-4.79,1.27-7.53,1.94a28,28,0,0,1-7.51.88c-2.58-.07-5.05.79-7.17.45-2.61-.42-4.54-2.41-6.5-3.1-2.63-.94-5.23-1-6.85-2.09-3.69-2.5-3.66-1.88-5.45-4.93-1.18-1.81-.74-4.44-1.44-6.51s-2.7-3.86-3-6,1.44-4.57,1.39-6.65c0-2.37-.22-4.51-.06-6.42.31-3.86-.92-3.4-.24-6.58.57-2.65,1.23-5.08,2.35-6.64a12.9,12.9,0,0,1,5.72-4.31c3.48-1.34,3.47.27,6.85.71,3,.4,2.3.29,5,2.35,1.37,1,3.39,1.7,4.29,3.93A17.12,17.12,0,0,1,314,532.62Z"/>
          <path class="cls-19" d="M450.44,550.45c.27,1.27,1.27,4.44.14,7.78-.73,2.13-3.32,3.57-5.3,5.68-1.56,1.65-2.71,4.27-5.34,5.53-2.05,1-4.43,2.62-7.26,3.18-2.27.44-5.06-.52-7.89-.43a33.86,33.86,0,0,1-7.41-1,28.33,28.33,0,0,1-7.19-1.94c-2.44-1.19-4-3.17-5.69-4.73-2-1.89-4.16-3.34-5.31-5.22-2.28-3.74-1.61-3.36-2.6-7-.74-2.17-2.69-4.32-3-6.81s.62-5,.52-7.39-.66-5-.59-7.27c.09-2.65,0-5.18.24-7.3.39-4.32.57-3.63,1.16-7.2.53-3.13.95-6,2-8.05,1.47-2.94,4.42-4.07,6.24-5.34,3.83-2.69,3.24-2.6,7.28-2.51,2.75-.09,5.58-.68,7.47.48s2.39,4.3,3.61,6.52c1.09,2,3.26,3.78,3.84,6.24a51.53,51.53,0,0,1,1.53,7.21c.21,2.44-1.6,5-1.62,7.32,0,2.62,1.79,5.2,1.62,7.32-.34,4.28-5.41,5.34-2.87,7.91A47.73,47.73,0,0,1,431,540.7c2.4-.84,4.22-2.58,6.09-2.64,2.55-.08,5.13.08,6.83,1a14.68,14.68,0,0,1,5,4.88C450.86,546.9,449.84,547.24,450.44,550.45Z"/>
          <path class="cls-19" d="M493,570.58c-5.19,2.2-4.65,2.91-9.65,2.91-2.58,0-4.79-1.43-6.92-1.82-2.54-.47-5.06-.17-7-1.07-2.32-1.06-4.77-2-6.4-3.46-1.88-1.68-2.71-4.27-3.84-6.17a26.61,26.61,0,0,1-2.45-6.59c-1.14-3.94-1.39-3.33-1.39-6.86a39,39,0,0,1,1.15-7.44c.51-2.75.69-5.26,1.67-7.33a21.65,21.65,0,0,1,4.53-6c1.89-1.92,3.46-4.25,5.59-5.29,2.47-1.21,5.34-1.12,7.56-1.53,4.28-.79,3.76-1.11,7.54-.9a31.49,31.49,0,0,1,6.67.53,23.23,23.23,0,0,1,6.22,2.56,21.87,21.87,0,0,1,5.53,3.9c1.57,1.71,1.94,4.21,2.87,6.09a29.65,29.65,0,0,1,2.32,6.12c.91,3.74,1.92,3.17,1.92,6.48,0,2.78-1.55,5.18-2,7.42-.52,2.76-.29,5.48-1.29,7.52a25.81,25.81,0,0,1-5.07,7C497,569.85,496.82,568.93,493,570.58Zm-14.22-22.75c.19,2.8,1.88,3.12,4,3.12s4.41-.83,4.41-3.13c0-2.1-2-3.81-4.41-3.81C480.51,544,478.54,545.73,478.73,547.83Z"/>
          <path class="cls-19" d="M560.59,556c0,3,.1,5.68-.89,7.75-1.18,2.48-3.89,3.57-5.87,5-2.18,1.61-4.09,3.64-6.35,4.35-4.1,1.29-3.8,1.91-7.65,2-2.39.1-4.6-.89-6.59-1a46.49,46.49,0,0,1-6.45-1.05,30.18,30.18,0,0,1-6.32-1.53,13,13,0,0,1-4.91-4c-2.64-3-3-2.29-2.82-5.56a10.33,10.33,0,0,1,1.75-5.93c1.11-1.85,2.11-4.11,4-5.13s4.44-.91,6.36-1.33c3.43-.77,6.48,2.37,5.87-.74a34.15,34.15,0,0,1-7.28-2.22,19.34,19.34,0,0,1-6.2-5.06c-3.07-3.73-3.53-3.51-3.29-7.44.11-2.45,1.76-4.31,2.69-6.09a14.13,14.13,0,0,1,4.09-4.88c1.77-1.32,3.34-3.27,5.37-4,2.19-.79,4.77,0,6.73-.26,3.73-.6,3.17-1.76,6.45-1.68,2.59.06,5-.1,7,.14,2.7.33,4.63,2.26,6.45,2.88,2.75,1,5.5,1.07,6.66,2.55,1.47,1.87.2,4.64.1,7s-.58,3.87-2,5.24-2.85,3.23-5,3.82a30.59,30.59,0,0,1-6.33,1.33c-3.53.15-3.85,1-6.67-.42a43.53,43.53,0,0,1,7.31,1.63,23,23,0,0,1,6.33,3.21c2.48,1.63,4.7,2.56,5.75,4.3C561.11,552.7,560.79,552.33,560.59,556Z"/>
          <path class="cls-19" d="M595,495.43c2.53,0,4.94-.52,6.64.23,2.19,1,2.64,3.71,3.77,5.38,1.26,1.88,3.3,3.38,3.67,5.34.67,3.49-1.5,3.23.78,5.52s1.93.6,5.45,1.19a17.8,17.8,0,0,1,5.86,2.56,10.62,10.62,0,0,1,4.55,4.3c.83,1.68.57,3.72.57,6.27,0,3.32-.06,5.83-1.47,7.65-1.76,2.27-4.45,3.14-6.91,3.86-4.09,1.19-4.06-.53-7.16,2.09s-.43,2.43-.38,7c0,2.4.55,5.19.26,8a41.84,41.84,0,0,1-1.35,7.93,18,18,0,0,1-4.24,6.92c-1.79,1.81-4.43,3.59-7.44,3.59-2.78,0-4.83-1.92-6.68-2.76a10,10,0,0,1-5-4.43c-1.06-1.89-3.12-3.81-3.52-6.36-.33-2.17,1.42-4.71,1.41-7.22,0-2.25-1.51-4.66-1.38-7.11.12-2.29.4-3.59.57-6-2.8-1.79-2.29-1.22-5.92-1.48-2.08-.15-5,1.38-7,.4s-2-4.09-3.13-6.21a11,11,0,0,1-1.65-5.83c0-3.3-.4-6.19,1.12-8.11a16,16,0,0,1,6.94-5.2c2.8-.93,5.31-.71,7.72-.71,1.72-2.7,1.29-2.27,1.76-5.73a12.52,12.52,0,0,1,2.27-5.36c1.07-1.65,1.41-3.92,3.64-4.85A16.49,16.49,0,0,1,595,495.43Z"/>
        </g>
        <path class="cls-9" d="M226.37,511.29a10.56,10.56,0,0,0-5.48-8,9.94,9.94,0,0,0-9-.35c-6.28,3.19-6.35,12.51-13.53,14.56a9.19,9.19,0,0,1-10.14-3.73c-2.22-3.36-1.85-7.75-4.07-11.14a8,8,0,0,0-1.33-1.56.44.44,0,0,0-.15-.68c-3.62-1.8-7.81-.7-10.76,1.84a17.49,17.49,0,0,0-5.54,10.24,18.65,18.65,0,0,0,1.52,11.26,19,19,0,0,0,7.23,7.94,31.79,31.79,0,0,0,5,2.21,7.52,7.52,0,0,1,4.23,3.15c1,1.82.79,4,.82,6a49.46,49.46,0,0,0,.57,6.66,47.28,47.28,0,0,0,3.77,12.63,11.78,11.78,0,0,0,3.29,4.5,7.72,7.72,0,0,0,5.15,1.54,10.11,10.11,0,0,0,8.47-6.13c1.85-3.94,1.59-8.42.61-12.55-1-4.3-2.85-8.86-.76-13.14,1.69-3.47,5-5.82,8.14-7.84s6.82-4.09,9.26-7.23A13.82,13.82,0,0,0,226.37,511.29Zm-1.15,4.22c-.79,3.8-3.22,6.7-6.28,9-5.57,4.09-13.85,7.35-14.69,15.22-.47,4.37,1.59,8.55,2.21,12.8.6,4,.15,8.41-2.51,11.65-2.34,2.85-6.6,4.3-10,2.34a9.5,9.5,0,0,1-3.53-4.31,42,42,0,0,1-2.27-5.92,47.71,47.71,0,0,1-2.1-12.77,21.45,21.45,0,0,0-.47-5.77,6.58,6.58,0,0,0-3.07-3.78,39,39,0,0,0-4.66-2,17.42,17.42,0,0,1-4.56-2.81,17.58,17.58,0,0,1-4.89-20.41c1.46-3.48,4.2-6.87,7.95-7.94a8.56,8.56,0,0,1,3.59-.25.47.47,0,0,0,.14.08c3.72,1.09,4.53,5.56,5.32,8.79a14.37,14.37,0,0,0,2.26,5.36,10.14,10.14,0,0,0,14.11,2.08c2.61-1.94,4-4.93,5.62-7.67s3.54-5.38,6.78-6.05a9.65,9.65,0,0,1,8.54,2.71A10.66,10.66,0,0,1,225.22,515.51Z"/>
        <path class="cls-9" d="M278.65,544.13a25.71,25.71,0,0,0-4.22-13.84A17.8,17.8,0,0,0,263.81,523a15.08,15.08,0,0,0-2.68-.31.5.5,0,0,0-.47-.44c-4.87-.33-10-.25-14.46,2.07-4.22,2.22-7.23,6.3-9.33,10.47a28.42,28.42,0,0,0-3.21,14.46,21.58,21.58,0,0,0,4.49,11.92,18.12,18.12,0,0,0,11.31,6.72,35.22,35.22,0,0,0,7.75.34,33.6,33.6,0,0,0,7.33-1.06,18.07,18.07,0,0,0,10.84-8.35A27,27,0,0,0,278.65,544.13Zm-11.46,21c-4.29,2-9.46,2.33-14.14,2.12s-8.92-1.52-12.29-4.7A20,20,0,0,1,235,552a25.26,25.26,0,0,1,1.4-13.78,26.93,26.93,0,0,1,7.68-11.35c3.7-3,8.46-3.83,13.12-3.8,1,0,2,.05,3,.11a.46.46,0,0,0,.47.44,15.73,15.73,0,0,1,11.17,5.06,22,22,0,0,1,5.56,12.3C278.65,550,276.09,560.91,267.19,565.09Z"/>
        <path class="cls-9" d="M259.2,540.55a.47.47,0,0,0-.43.7,18.07,18.07,0,0,0-4.45.6,9.54,9.54,0,0,0-4.35,2c-2.19,2.22-.57,5.88,1.31,7.73a8.23,8.23,0,0,0,8.39,1.95,7.62,7.62,0,0,0,5.32-6.7A6.26,6.26,0,0,0,259.2,540.55Zm.69,11.86a7.23,7.23,0,0,1-7.27-.94c-1.73-1.36-3.84-4.66-2.07-6.75,1-1.12,2.77-1.59,4.14-1.94a18,18,0,0,1,5.22-.52.44.44,0,0,0,.48-.45,5.27,5.27,0,0,1,3.58,4.27A6.41,6.41,0,0,1,259.89,552.41Z"/>
        <path class="cls-9" d="M333.7,524.17a8.29,8.29,0,0,0-7.54.2c-2.65,1.6-3.05,4.64-3.05,7.47a36.42,36.42,0,0,1-.21,5.12,24.86,24.86,0,0,1-1.29,5.18c-.81,2.21-2.72,6-5.71,4.84a5.41,5.41,0,0,1-2.61-3,26.51,26.51,0,0,1-1.49-4.86c-.76-3.15-1.39-6.38-2.9-9.28a11.86,11.86,0,0,0-5.83-5.77,8.08,8.08,0,0,0-7,.52,6,6,0,0,0-2.24,2.44.53.53,0,0,0,.32.73,75.32,75.32,0,0,0,1.27,20.76,53.72,53.72,0,0,0,2.68,9.51,16.17,16.17,0,0,0,5,7,17.43,17.43,0,0,0,8.77,3,35.68,35.68,0,0,0,10.47-.33c6.1-1.16,11.79-4.48,15-9.94a28.62,28.62,0,0,0,3.16-8.8,49.6,49.6,0,0,0,1.1-9.93C341.53,533.27,339.42,526.69,333.7,524.17Zm6.54,19.56a46.14,46.14,0,0,1-1.82,9,20.69,20.69,0,0,1-4.34,7.73,20.11,20.11,0,0,1-7.39,5,28,28,0,0,1-9.66,1.85,29.4,29.4,0,0,1-9.7-1.13,12.33,12.33,0,0,1-6.77-5.33,30.59,30.59,0,0,1-3.23-8.38,73.94,73.94,0,0,1-2.43-20.57c0-1.66.14-3.32.28-5a.32.32,0,0,0,0-.14,6.24,6.24,0,0,1,5.41-2.2,8.73,8.73,0,0,1,6.38,4,24.3,24.3,0,0,1,3.34,8.55c.68,2.87,1.15,6.12,2.81,8.63a5.27,5.27,0,0,0,2.67,2.24,4,4,0,0,0,3.41-.52c2.3-1.54,3.33-4.53,4-7.07a26.63,26.63,0,0,0,.85-4.93c.11-1.55,0-3.1.07-4.65a8,8,0,0,1,1-4.05,5.16,5.16,0,0,1,3.24-2.22c5.7-1.42,10.28,4.07,11.57,9A28.15,28.15,0,0,1,340.24,543.73Z"/>
        <path class="cls-9" d="M443.16,547.59a9.57,9.57,0,0,0-5.67-4.15,8.66,8.66,0,0,0-3.51-.18,15.09,15.09,0,0,0-4.28,1.61,10.22,10.22,0,0,1-4.62,1.35,4.07,4.07,0,0,1-3.49-2.1,13.13,13.13,0,0,1-1.4-4.28,33,33,0,0,1-.53-5.06c-.1-3.3.16-6.59.34-9.88a54.12,54.12,0,0,0-.16-9.86c-.34-2.63-1-5.44-2.85-7.44a6.56,6.56,0,0,0-6.91-1.7,10.36,10.36,0,0,0-6,5.33,35.69,35.69,0,0,0-2.87,8.93,63,63,0,0,0-1.4,10.14,53.63,53.63,0,0,0,10.24,34.24c.84,1.15,1.74,2.27,2.67,3.35.42.49,1.13-.22.71-.71l-.18-.21c6.26.95,12.84,1.51,18.93-.57,5.13-1.76,9.94-5.44,11.64-10.77A9.75,9.75,0,0,0,443.16,547.59Zm-7.69,16.26c-5.39,3-11.71,3.31-17.73,2.7-1.61-.16-3.22-.39-4.83-.64a.51.51,0,0,0-.42.12,52.76,52.76,0,0,1-11.67-30.35,59.56,59.56,0,0,1,2.41-19.36c.77-2.7,1.8-5.5,3.85-7.5,1.8-1.77,4.62-2.85,7.09-2s3.67,3.52,4.25,5.89a34.71,34.71,0,0,1,.7,9.27c-.17,6.24-1.12,12.58.24,18.76.54,2.41,1.46,5.2,4,6.14,2.79,1,5.6-.64,8.06-1.77a9.16,9.16,0,0,1,4-1,8.18,8.18,0,0,1,3.46.89,8,8,0,0,1,4.31,5.34C444.44,556,440.07,561.27,435.47,563.85Z"/>
        <path class="cls-9" d="M486.36,542.08a7.31,7.31,0,0,0-7.84-.22c-2.39,1.39-4,4.38-3.2,7.15.9,3,4.17,4.21,7,4.15a18.41,18.41,0,0,0,2.87-.33,7.87,7.87,0,0,0,2.38-.75,2.85,2.85,0,0,0,1.51-3.15A7,7,0,0,0,486.36,542.08Zm.06,9.43a13.67,13.67,0,0,1-4,.64c-2.36.08-5.25-.76-6.12-3.23-.8-2.27.52-4.83,2.45-6.06a6.43,6.43,0,0,1,6.48-.3,6,6,0,0,1,2.93,5.6.44.44,0,0,0-.24.68C488.79,550,487.47,551.16,486.42,551.51Z"/>
        <path class="cls-9" d="M503.26,541.08a21.93,21.93,0,0,0-4.8-13.13,16.58,16.58,0,0,0-11.87-6,14,14,0,0,0-2.43.15,15.17,15.17,0,0,0-11.33,1.21,19.74,19.74,0,0,0-8.83,9.31,33.54,33.54,0,0,0-2.8,14.15c0,4.64.29,9.84,3.67,13.38a17.45,17.45,0,0,0,5.49,3.67,68.73,68.73,0,0,0,6.79,2.59,25,25,0,0,0,7.88,1.52,13.44,13.44,0,0,0,6.66-1.8c3.77-2.19,6.41-6,8.21-9.84A33.27,33.27,0,0,0,503.26,541.08Zm-3,11.77a25.9,25.9,0,0,1-6.73,10.73,13.15,13.15,0,0,1-5.3,2.94,15.52,15.52,0,0,1-7.51-.13,56.2,56.2,0,0,1-7-2.28,29.82,29.82,0,0,1-5.76-2.74,11.48,11.48,0,0,1-4.21-4.64,18.52,18.52,0,0,1-1.43-6.94,38.19,38.19,0,0,1,1.38-13.54,20.28,20.28,0,0,1,7-10.45,15.64,15.64,0,0,1,11.21-3.22c.34,0,.67.13,1,.2a.52.52,0,0,0,.61.41c.19,0,.38,0,.57-.07l.56.18a.42.42,0,0,0,.58-.32,15.06,15.06,0,0,1,10.48,3.61A19.41,19.41,0,0,1,502,538.21,29,29,0,0,1,500.24,552.85Z"/>
        <path class="cls-9" d="M554.42,554.75a13,13,0,0,0-6-6.11c-2.86-1.55-6-2.57-8.66-4.48a6,6,0,0,1-2.68-3.7,2.42,2.42,0,0,1,2.17-2.71,8.79,8.79,0,0,1,3.9.45.48.48,0,0,0,.61-.45c2.65-.06,5.33-.5,7.45-2.19a6.32,6.32,0,0,0,2.17-7.46c-1.25-2.93-4.15-4.51-7.08-5.32a36.11,36.11,0,0,0-10.59-1.36c-5.87.19-12.44,2.9-14.54,8.85a10.37,10.37,0,0,0,.34,7.72c1.33,2.82,4,4.17,6.83,5.14s6.57,2,7.55,5.21a3.5,3.5,0,0,1-1,3.9,7.91,7.91,0,0,1-4.13,1.12c-3.15.28-6.55.68-8.93,3a5.87,5.87,0,0,0-1.15,7.37c1.45,2.36,4.07,3.76,6.61,4.63a25.5,25.5,0,0,0,9.21,1.32,26.21,26.21,0,0,0,9.08-2,19.32,19.32,0,0,0,7.35-5A7.6,7.6,0,0,0,554.42,554.75ZM544,567.21A24.93,24.93,0,0,1,526.4,567c-2.34-1-5-2.71-5.55-5.36-.64-3.11,2.13-5.52,4.8-6.4a22.11,22.11,0,0,1,4.84-.84,12.69,12.69,0,0,0,3.92-.76c2.64-1.14,3.23-4.07,2-6.51-1.29-2.62-4.28-3.74-6.87-4.61-2.81-1-5.69-2-7.11-4.79a9.27,9.27,0,0,1-.2-7.58,12,12,0,0,1,5.75-5.87,19.32,19.32,0,0,1,9.56-1.83,39.29,39.29,0,0,1,5.3.62,27,27,0,0,1,4.68,1.19c2.75,1,5.64,3.5,5.28,6.75-.34,3-3.22,4.84-5.91,5.44a20.06,20.06,0,0,1-4.89.32.53.53,0,0,0-.29.09c-1.84-.33-3.88-.28-5,1.26-1.7,2.24.17,5.1,2,6.55,4.63,3.61,11.93,4.35,14.65,10.15C556.23,560.93,548.76,565.49,544,567.21Z"/>
        <path class="cls-9" d="M616.42,518.43c-2.29-1.95-5.16-3-7.5-4.85a9.26,9.26,0,0,1-1.93-2.07,13.83,13.83,0,0,0-12.23-12c-2.78-.3-5.94.25-8,2.28a5.56,5.56,0,0,0-1.65,3.77c-.1,1.72.41,3.52-.19,5.19-.95,2.67-4,4-6.28,5.21a17,17,0,0,0-7,6.24c-1.55,2.72-2,6.25-.31,9a7.18,7.18,0,0,0,3.11,2.84,7.27,7.27,0,0,0,4.42.37c1.64-.27,3.45-.81,5,.1a5.38,5.38,0,0,1,2.18,3.21,18.26,18.26,0,0,1,.6,4.6c.07,2,.06,3.94.11,5.91.18,6.14,1.44,13.71,7.59,16.71a9.08,9.08,0,0,0,8.11.2,9.61,9.61,0,0,0,4.58-6.8c1.38-6.78-2.77-13.49-.8-20.22a8.73,8.73,0,0,1,2.29-3.91,15.91,15.91,0,0,1,4.21-2.57c2.64-1.24,5.65-2.74,6.64-5.71S618.57,520.26,616.42,518.43Zm2,7.06a6.65,6.65,0,0,1-2.67,3.36c-2.47,1.75-5.56,2.46-7.83,4.52-5,4.49-3,11.88-2.05,17.56.51,3.05.72,6.2-.42,9.14a7.27,7.27,0,0,1-6.18,4.93,9.47,9.47,0,0,1-7.58-3.31,16.45,16.45,0,0,1-3.56-8.37c-.59-3.63-.39-7.34-.53-11-.11-2.62-.3-5.61-2.11-7.69a4.73,4.73,0,0,0-3.38-1.62c-1.67-.09-3.27.54-4.92.59a6,6,0,0,1-5.86-5.12c-.6-3.29,1.13-6.52,3.47-8.7,2.18-2,4.91-3.14,7.39-4.72,2.27-1.46,4-3.39,4-6.21,0-1.65-.42-3.43.28-5a5.52,5.52,0,0,1,2.85-2.64,11.48,11.48,0,0,1,8.84.13,12.69,12.69,0,0,1,6.67,6.27,12.28,12.28,0,0,1,.83,2.29.44.44,0,0,0-.34.59,8.75,8.75,0,0,0,.71,1.4.51.51,0,0,0,.22.35c2.82,4,8.8,4.89,11.5,9.19A5,5,0,0,1,618.46,525.49Z"/>
      </g>
    </g>
    <path class="cls-20" d="M360.37,15.08a36,36,0,0,0-16.21,9.5,38.29,38.29,0,0,0-8.69,14.85c-1,3.11-1.25,6.48-1.81,13.22-.92,11.22.16,14.55,1.54,16.93a12.4,12.4,0,0,0,4.43,4.62,12.54,12.54,0,0,0,7.16,1.35c8.4-.44,14.12-6.39,17.2-9.59s4-5.4,4.34-7.43a10.26,10.26,0,0,0-.45-5c-1.34-3.75-4.92-5.32-6.61-6.43C358,45,354.71,40,354.48,27.66"/>
    <path class="cls-21" d="M439.67,15.39a36,36,0,0,1,16.21,9.5,38.16,38.16,0,0,1,8.69,14.85c1,3.11,1.26,6.48,1.81,13.22.93,11.22-.15,14.55-1.53,16.93a12.24,12.24,0,0,1-4.44,4.61,12.43,12.43,0,0,1-7.15,1.36c-8.41-.44-14.13-6.4-17.2-9.59s-4-5.4-4.35-7.43a10.46,10.46,0,0,1,.45-5c1.34-3.74,4.92-5.31,6.61-6.42,3.24-2.15,6.56-7.09,6.79-19.47"/>
  </g>
</svg>
