<svg xmlns="http://www.w3.org/2000/svg" width="360" height="40" viewBox="0 0 360 40">
  <defs>
    <style>
      .cls-1 {
        fill: #fff;
      }
    </style>
  </defs>
  <g id="text">
    <g>
      <rect class="cls-1" x="2.92" y="2.3" width="354.16" height="35.4" rx="13.49"/>
      <path d="M343.59,3.8a12,12,0,0,1,12,12v8.42a12,12,0,0,1-12,12H16.41a12,12,0,0,1-12-12V15.79a12,12,0,0,1,12-12H343.59m0-3H16.41a15,15,0,0,0-15,15v8.42a15,15,0,0,0,15,15H343.59a15,15,0,0,0,15-15V15.79a15,15,0,0,0-15-15Z"/>
    </g>
  </g>
</svg>
