<svg xmlns="http://www.w3.org/2000/svg" xmlns:xlink="http://www.w3.org/1999/xlink" viewBox="0 0 795 480"><defs><style>.cls-1{fill:#fff;opacity:0.4;}.cls-2{fill:url(#linear-gradient);}.cls-3{font-size:65px;fill:#ff87a9;stroke:#fff;stroke-miterlimit:10;font-family:No.SevenRegular, "No. Seven Regular";}.cls-4{font-size:40px;fill:#991146;font-family:Sniglet-Regular, Sniglet;}.cls-5{letter-spacing:-0.01em;}.cls-6{letter-spacing:0em;}.cls-7{letter-spacing:0.01em;}.cls-8{letter-spacing:-0.01em;}.cls-9{letter-spacing:0em;}.cls-10{letter-spacing:-0.01em;}.cls-11{letter-spacing:0.01em;}.cls-12{letter-spacing:0em;}.cls-13{letter-spacing:0em;}.cls-14{letter-spacing:-0.08em;}.cls-15{letter-spacing:-0.01em;}</style><linearGradient id="linear-gradient" x1="396.31" y1="-18.09" x2="400.27" y2="842.28" gradientUnits="userSpaceOnUse"><stop offset="0.1" stop-color="#ffb000"/><stop offset="1" stop-color="#ff0"/></linearGradient></defs><g id="text"><path class="cls-1" d="M749.41,9H45.59A34.63,34.63,0,0,0,11,43.59v18A34.63,34.63,0,0,1,45.59,27H749.41A34.63,34.63,0,0,1,784,61.59v-18A34.63,34.63,0,0,0,749.41,9Z"/><rect class="cls-2" x="1" y="2" width="793" height="476" rx="44.59"/><text class="cls-3" transform="translate(251.81 123.98)">How to play:</text><text/><path class="cls-1" d="M750.41,9H46.59A34.63,34.63,0,0,0,12,43.59v18A34.63,34.63,0,0,1,46.59,27H750.41A34.63,34.63,0,0,1,785,61.59v-18A34.63,34.63,0,0,0,750.41,9Z"/><text class="cls-4" transform="translate(50.34 212.71) scale(0.74 1)"><tspan class="cls-5">T</tspan><tspan class="cls-6" x="21.4" y="0">he c</tspan><tspan class="cls-7" x="93.24" y="0">o</tspan><tspan class="cls-6" x="116.2" y="0">okie mons</tspan><tspan class="cls-8" x="297.24" y="0">t</tspan><tspan x="312.72" y="0">ers are attacking! Get ready </tspan><tspan class="cls-5" x="815.31" y="0">t</tspan><tspan x="830.79" y="0">o </tspan><tspan class="cls-9" x="861.71" y="0">d</tspan><tspan x="884.47" y="0">efend </tspan><tspan class="cls-10" x="0" y="48">y</tspan><tspan x="20.52" y="48">our c</tspan><tspan class="cls-11" x="108.12" y="48">o</tspan><tspan x="131.08" y="48">okie stash </tspan><tspan class="cls-12" x="319.72" y="48">b</tspan><tspan x="343.16" y="48">y killing them with kindness.</tspan><tspan x="0" y="96">But </tspan><tspan class="cls-7" x="69.24" y="96">b</tspan><tspan class="cls-13" x="93.28" y="96">e careful! </tspan><tspan class="cls-14" x="262.08" y="96">T</tspan><tspan x="280.68" y="96">ry n</tspan><tspan class="cls-15" x="347.12" y="96">o</tspan><tspan class="cls-13" x="369.28" y="96">t </tspan><tspan class="cls-5" x="393.52" y="96">t</tspan><tspan class="cls-6" x="409" y="96">o kill the s</tspan><tspan class="cls-5" x="582.59" y="96">w</tspan><tspan class="cls-13" x="610.31" y="96">eet muffinmen. </tspan></text></g></svg>