<svg xmlns="http://www.w3.org/2000/svg" width="120" height="65" viewBox="0 0 120 65">
  <defs>
    <style>
      .cls-1 {
        fill: #fff;
        stroke: #382c2e;
        stroke-linecap: round;
        stroke-miterlimit: 10;
      }
    </style>
  </defs>
  <g id="text">
    <g>
      <path class="cls-1" d="M9.26,11.85c4.5-5.1,9.78-1.26,9.72,1.2,0,0-3.66,3.72-7.5,27.54,11.46-6.84,18.06-21.42,17.7-29.52,0,0,6.72-.54,7.8,3.6,1.56,5.82-8.34,19.62-19.8,26.4C19,47.31,22,53.55,24.44,53.85s6.12-3.48,7.62-7.68a.19.19,0,0,0,.12-.06c1.08-.42,2,.48,1.32,2.28-2.28,5.88-7.86,10-11.88,9.48-4.2-.54-8.4-5.76-10.8-13-2,13.2-6,16.2-10,13.38a14.84,14.84,0,0,0,.84-2.88C4.82,40.17,4.94,16.83,9.26,11.85Z"/>
      <path class="cls-1" d="M46.16,46.35c1.08-.42,2,.42,1.32,2.34-2.28,5.7-6.42,10.44-11.1,9.24-4.5-1.2-6.12-9.42-3.84-19,1.74-7.44,6.54-11,11.52-7.56,0,0-2.4,2.58-4.56,11.28-1.5,6.06-1.2,11.46.6,11.82s4.44-3.78,6-8.1ZM42.44,24.87c-3.06-.9-4-3.66-3.36-6.24.78-3.72,4.14-4.74,7.32-3.36,3.84,1.68,3.84,3.9,2.16,6.78A5.72,5.72,0,0,1,42.44,24.87Z"/>
      <path class="cls-1" d="M52.82,39.81C52,46.53,52.7,53,55.22,53.91c1.8.72,4.32-3.24,5.82-7.56h.12c1.08-.42,2,.42,1.26,2.34-2.22,5.7-7,10.44-11,8.7-5-2.22-6.42-9.66-5.34-19.5,1.86-16,11.16-39.42,19-36.54C70.52,3.39,65.18,21.21,52.82,39.81ZM54,33.09c7.38-12.54,11.22-23.88,9.42-25.5C61.22,5.67,56.6,20.37,54,33.09Z"/>
      <path class="cls-1" d="M62.18,36.27c-1.5-1.5-2.7-3.36-2.16-5.52.48-2.4,5.58-5.4,6.84-4.08,1,1,.72,4.08.36,6.18a.6.6,0,0,0-.06.24,6.3,6.3,0,0,0,1.26.72c3.72,2,8.7,6.42,10.08,11.58,2.4-1.08,4.32-2.52,5.28-5.16h.12c1.08-.42,2,.42,1.26,2.28a12.64,12.64,0,0,1-6.3,6.42A6.52,6.52,0,0,1,78.8,50c-1.68,9.6-11.22,12.48-15.6,9.66C59.66,57.33,60,52.11,66,49.59A42.52,42.52,0,0,1,70.34,48a12.07,12.07,0,0,0-4.74-9.24A111.26,111.26,0,0,1,60.26,50c-.9,1.8-2.16,1.62-2.52.54l-.06-.06A53.65,53.65,0,0,0,62.18,36.27Zm7.38,16.14a18.41,18.41,0,0,0-3.42,1.38c-2.58,1.38-2.22,3.72-.66,3.78C66.8,57.63,68.36,56.13,69.56,52.41Z"/>
      <path class="cls-1" d="M83.84,36.27c-1.5-1.5-2.7-3.36-2.16-5.52.48-2.4,5.58-5.4,6.84-4.08,1,1,.72,4.08.36,6.18a.6.6,0,0,0-.06.24,6.3,6.3,0,0,0,1.26.72c3.72,2,8.7,6.42,10.08,11.58,2.4-1.08,4.32-2.52,5.28-5.16h.12c1.08-.42,2,.42,1.26,2.28a12.64,12.64,0,0,1-6.3,6.42,6.52,6.52,0,0,1-.06,1.08c-1.68,9.6-11.22,12.48-15.6,9.66-3.54-2.34-3.18-7.56,2.76-10.08A42.52,42.52,0,0,1,92,48a12.07,12.07,0,0,0-4.74-9.24A111.26,111.26,0,0,1,81.92,50c-.9,1.8-2.16,1.62-2.52.54l-.06-.06A53.65,53.65,0,0,0,83.84,36.27Zm7.38,16.14a18.41,18.41,0,0,0-3.42,1.38c-2.58,1.38-2.22,3.72-.66,3.78C88.46,57.63,90,56.13,91.22,52.41Z"/>
      <path class="cls-1" d="M107.36,57.75c-2.88-.84-3.72-3.48-3.18-5.94.78-3.54,3.42-4.44,6.48-3.18,3.36,1.38,4.08,4,2.58,6.42A5.57,5.57,0,0,1,107.36,57.75Zm2.58-17.1c-2.82-.78-3.72-3.48-3.12-5.94.72-3.54,3.42-4.44,6.48-3.18,3.36,1.38,4.08,4,2.52,6.42A5.4,5.4,0,0,1,109.94,40.65Z"/>
    </g>
  </g>
</svg>
