<svg xmlns="http://www.w3.org/2000/svg" xmlns:xlink="http://www.w3.org/1999/xlink" width="795" height="480" viewBox="0 0 795 480">
  <defs>
    <style>
      .cls-1 {
        fill: url(#linear-gradient);
      }

      .cls-2, .cls-7 {
        fill: #fff;
      }

      .cls-2 {
        opacity: 0.4;
      }

      .cls-3 {
        clip-path: url(#clip-path);
      }

      .cls-4, .cls-5 {
        fill: #ff87a9;
        stroke: #fff;
        stroke-miterlimit: 10;
      }

      .cls-5 {
        stroke-linecap: round;
      }

      .cls-6 {
        fill: url(#linear-gradient-3);
      }
    </style>
    <linearGradient id="linear-gradient" x1="396.31" y1="-18.09" x2="400.27" y2="842.28" gradientUnits="userSpaceOnUse">
      <stop offset="0.1" stop-color="#ffb000"/>
      <stop offset="1" stop-color="#ff0"/>
    </linearGradient>
    <clipPath id="clip-path">
      <rect class="cls-1" x="1" y="2" width="793" height="476" rx="44.59"/>
    </clipPath>
    <linearGradient id="linear-gradient-3" x1="402.13" y1="120.1" x2="399.42" y2="393.77" gradientUnits="userSpaceOnUse">
      <stop offset="0" stop-color="#683d1f"/>
      <stop offset="0.21" stop-color="#6c4122"/>
      <stop offset="0.64" stop-color="#c69c6d"/>
    </linearGradient>
  </defs>
  <g id="text">
    <path class="cls-2" d="M749.41,9H45.59A34.63,34.63,0,0,0,11,43.59v18A34.63,34.63,0,0,1,45.59,27H749.41A34.63,34.63,0,0,1,784,61.59v-18A34.63,34.63,0,0,0,749.41,9Z"/>
    <g>
      <g>
        <rect class="cls-1" x="1" y="2" width="793" height="476" rx="44.59"/>
        <g class="cls-3">
          <path class="cls-4" d="M-113.8,128.08A100.18,100.18,0,0,1-39.95,143,100.21,100.21,0,0,1,2,205.61c1.7,8.4,2.32,17.09,5.31,25.13s9,15.62,17.33,17.56c15,3.48,28.09-13.59,27.65-29s-9.36-29.1-16.19-42.94c-3.47-7-6.5-15-4.24-22.49s12.33-12.68,18.26-7.59c6.15,5.27,3.24,16.31,8.9,22.09,7,7.14,20.06-1.29,21.08-11.21s-5-19-9.66-27.79-8.18-20-2.64-28.31c3.8-7.92,16.16-6.8,22.62-.85s9.48,14.71,14.93,21.6,15.87,11.73,22.84,6.4c7.7-5.89,4.51-18.07-.07-26.62s-9.81-19.2-4.33-27.19c6.61-7.78,19.56-5.46,27.74.63s14,15,22.58,20.59,22.11,6.07,27.12-2.82c4.25-7.54,0-16.81-3.76-24.62S190.9,50,197,43.89c9.85-9.93,27.79,4.12,40.36-2,6.57-3.19,9.54-11.31,8.85-18.58s-4.29-13.9-7.91-20.24a723.07,723.07,0,0,0-108.64-144.5"/>
          <path class="cls-5" d="M775.42,581.89c-37.8-58.2-110.22-91.86-179.07-83.25-7.63.95-15.42,2.37-22.94.78s-14.86-7.13-15.75-14.77c-1.31-11.26,11.57-19.31,22.89-19.71s22.56,3.67,33.84,2.5,23.2-11.38,19.64-22.14c-2.48-7.52-10.86-10.95-17.78-14.8s-13.87-11.45-10.78-18.74c3.35-7.91,15-7.3,22.67-3.47s15.58,9.68,24,7.81c10.49-2.35,14.67-15.92,11.78-26.27s-10.41-18.66-16-27.86-9.1-21.22-3.59-30.45c6.37-10.57,23.42-5,31.06,4.72s12.34,22.73,23.51,28c15.7,7.39,34.71-6.64,39.14-23.42s-1.19-34.39-6.75-50.82c.41-10.25,16.87-11.62,23.63-3.9S762,305,764.44,315s9.71,20.85,19.93,19.92c6.57-.6,11.8-6.24,14-12.47s1.87-13,1.56-19.61L794.41,188c-.32-6.72-.6-13.71,2-19.91s9-11.35,15.66-10.21c8,1.37,12,10.39,14.29,18.21a395.79,395.79,0,0,1,15.1,141.43"/>
        </g>
      </g>
      <g>
        <path class="cls-4" d="M163,308.64c4.87-5.53,10.59-1.37,10.53,1.3,0,0-4,4-8.13,29.84,12.42-7.42,19.57-23.21,19.18-32,0,0,7.28-.58,8.45,3.9,1.69,6.31-9,21.26-21.45,28.6,2,6.76,5.2,13.53,7.86,13.85s6.63-3.77,8.26-8.32a.2.2,0,0,0,.13-.07c1.17-.45,2.21.53,1.43,2.48-2.47,6.37-8.52,10.85-12.87,10.27-4.55-.59-9.1-6.24-11.7-14.11-2.21,14.3-6.5,17.55-10.86,14.5a15.78,15.78,0,0,0,.91-3.12C158.17,339.32,158.3,314,163,308.64Z"/>
        <path class="cls-4" d="M203,346c1.17-.46,2.21.45,1.43,2.53-2.47,6.18-6.95,11.31-12,10-4.88-1.3-6.63-10.2-4.16-20.6,1.88-8.07,7.08-12,12.48-8.2,0,0-2.6,2.8-4.94,12.23-1.63,6.56-1.3,12.41.65,12.8s4.81-4.09,6.5-8.77Zm-4-23.28c-3.31-1-4.29-4-3.64-6.76.85-4,4.49-5.13,7.93-3.64,4.16,1.82,4.16,4.23,2.34,7.35A6.19,6.19,0,0,1,198.92,322.74Z"/>
        <path class="cls-4" d="M210.17,338.93c-.91,7.28-.13,14.24,2.6,15.28,1.95.78,4.68-3.51,6.3-8.19h.13c1.17-.46,2.21.45,1.37,2.53-2.41,6.18-7.61,11.31-12,9.43-5.4-2.41-7-10.47-5.79-21.13,2-17.29,12.09-42.71,20.61-39.59C229.34,299.47,223.56,318.78,210.17,338.93Zm1.23-7.28c8-13.59,12.16-25.87,10.21-27.63C219.27,301.94,214.26,317.87,211.4,331.65Z"/>
        <path class="cls-4" d="M224.73,338.93c-.91,7.28-.13,14.24,2.6,15.28,1.95.78,4.68-3.51,6.3-8.19h.13c1.17-.46,2.21.45,1.37,2.53-2.41,6.18-7.61,11.31-12,9.43-5.4-2.41-7-10.47-5.79-21.13,2-17.29,12.09-42.71,20.61-39.59C243.9,299.47,238.12,318.78,224.73,338.93Zm1.23-7.28c8-13.59,12.16-25.87,10.21-27.63C233.83,301.94,228.82,317.87,226,331.65Z"/>
        <path class="cls-4" d="M262.88,313.58c-1.3,3.9.26,8.32,3.51,12.93a130.27,130.27,0,0,1,28.86-11.24c9.23-2.34,10.08,7.73,9.62,7.6-7-1.1-22.29,2.34-34.9,8.39,4.55,6.11,6.5,11.44,5,18.66-2.4,11.05-13.91,16.9-23.4,13.06-6.11-2.4-11-10.46-5-19.56a44.82,44.82,0,0,1,11.89-11.9c-3.7-6.18-4.16-13.26-.91-18.79,4.23-7.08,12.29-10.4,17.55-8,7.61,3.57,5.33,10.72,1.43,13.39-7.47,5.07-9.49-3.06-9.49-3.06,7.87-1.82,8.39-6.43,5.92-7.6C268.41,305.39,264.38,309.16,262.88,313.58Zm-1.3,22.36a35,35,0,0,0-8.32,7.48c-5.39,7.28-3.51,14.75.72,16.64,5.26,2.53,11.89-.13,13.71-7.15C269.12,347.51,267.11,343,261.58,335.94Z"/>
        <path class="cls-4" d="M295.77,342c-4.68-.33-3.44-6.57-3.44-6.57,3.12,1.82,4.55.13,5-1.69s-.39-3.51-2.34-3.71c-2.6-.32-5.53,4.62-7.22,10.93-1.69,6.63-.39,13.06,3.25,13.78,4.82,1,11.71-4.69,13.14-8.71h.13c1.1-.46,2.21.39,1.36,2.47-2.21,5.59-10.79,11.7-18.65,10-4.88-1-9.43-7.35-7.74-16.51,1.82-9.63,10.07-15.74,17-14.05,4.22,1.11,6.5,4.23,5.91,8.13C301.69,339.51,299,342.31,295.77,342Z"/>
        <path class="cls-4" d="M322.68,327.55c2.79-1.82,6.5-.26,7.86,5.14,3.25.26,6.7.26,10.27-1.5a.24.24,0,0,0,.14.07c1.1.45,1.23,1.88-.78,2.73a28,28,0,0,1-9.17,1.95,29.62,29.62,0,0,1-.39,5.59c-1.11,7.87-7.41,18.14-16.19,17.23-6.63-.59-11.63-6.5-10.4-15.8,1.24-9.62,8.13-16.58,16.12-16A9.32,9.32,0,0,1,322.68,327.55Zm-10.14,13.91c-1.11,6.83.65,11.32,4.61,11.58,4.23.25,8.78-4.49,10-11.45a16,16,0,0,0-.2-5.84,13.09,13.09,0,0,1-1.75-.27c-3.12-.58-5.59-3.57-4.23-6.1a8.34,8.34,0,0,0-1.3-.27C316.44,329,313.64,334.31,312.54,341.46Z"/>
        <path class="cls-4" d="M346.66,328.33s-1.36,1.11-2.6,8.26c4.42-8.78,8.71-10.6,12.35-10,3.38.58,5.2,3.31,1.69,11.83-2.08,5.07-9.55,1-9.55,1,3.18-3.18,4.87-7.86,3.31-8.45s-4.48,3.32-8.84,13.59c-1.56,12.61-3.9,15.34-9.94,12.61a7.64,7.64,0,0,0,1-3.31c1.56-14.82.65-24.32,4.74-27C343.22,323.91,346.66,328.33,346.66,328.33Z"/>
        <path class="cls-4" d="M369.09,346.92c7.21-3.12,7.6-15.46,5-16.18s-5.39,5.78-6.56,10.27c-1.43,5.4-1,12.74,4.09,13.78,5.46,1.11,12-3.31,13.91-8.71a.06.06,0,0,1,.07-.06c1.23-.4,2.21.45,1.43,2.53-2.67,6.76-10.92,11.83-19.37,10-4.94-1.1-10.34-7.35-8.65-16.57s8.52-15.48,17-14c12,2.21,8.51,16.25-7,21.39C369,349.4,366.62,348,369.09,346.92Z"/>
        <path class="cls-4" d="M389.37,358.37c-3.12-.91-4-3.77-3.45-6.44.85-3.83,3.71-4.81,7-3.44,3.64,1.49,4.42,4.29,2.8,6.95A6,6,0,0,1,389.37,358.37Zm2.79-18.53c-3.05-.84-4-3.77-3.38-6.44.78-3.83,3.71-4.81,7-3.44,3.64,1.5,4.42,4.29,2.73,7A5.85,5.85,0,0,1,392.16,339.84Z"/>
      </g>
      <g>
        <g>
          <path class="cls-6" d="M202.44,167.12c3.05.37,6,0,8.05,1.08,2.66,1.38,3.12,4.69,4.41,6.71,1.52,2.39,3.86,4.34,4.16,6.74.54,4.31,1.59,4.47.72,8.33-.54,2.4-2.89,4.3-3.83,6.36-1,2.23-2.74,3.94-4,5.78a44.62,44.62,0,0,1-4.21,5.65c-1.85,1.85-4.23,2.66-5.89,3.89-3.41,2.53-3.7,1.43-5.33,4.57a47.17,47.17,0,0,1,1,6.81c.4,2.45,2.42,4.68,2.44,6.84,0,2.52-1.64,4.84-2,6.94-.39,2.61-.29,5.1-.92,7-1.39,4.06-.81,3.74-2.79,6.59a17.67,17.67,0,0,1-6.66,5.58,19,19,0,0,1-8.42,2.4c-3.2,0-5.65-2.33-7.79-3.11-4.62-1.69-4.07-.92-6.68-4.05-1.57-1.82-4.3-3.14-5.21-5.35s.61-5.21.2-7.56-2.47-4.65-2.53-6.95c-.06-2.6-.46-5.21-.27-7.32.38-4.22,5-4.27,3.29-7.41-1.84-3.35-4.55.52-8.34-1.94-1.89-1.23-2.17-5.17-4.26-7a37.09,37.09,0,0,1-5.38-5.08c-1.52-2-4.35-3.21-5.4-5.6s-2.41-4.81-2.74-7.45a30.42,30.42,0,0,1,.21-8.37c.47-3.06,3.64-4.65,5-6.62,1.67-2.49,3.63-3.4,5.71-4.56,3.91-2.19,2.76-3.73,6.78-4,2.82-.18,5.81-1.51,8.12-.91,2.65.7,4.56,3.46,6.6,4.85,2.22,1.52,5.19,2.46,6.76,4.38,1.77,2.16.77,6,1.83,8.06,2.05,4,.14,5.9,3.64,7.58.66-2.49.41-6.37,1.23-8.34,1-2.41,3.35-4,4.52-5.74a25.7,25.7,0,0,1,4.56-5.51,21.79,21.79,0,0,1,6.2-3.92C199.16,165.17,199,166.56,202.44,167.12Z"/>
          <path class="cls-6" d="M265.55,256.27c-2.12.9-3.91,2.36-5.68,2.77-3.61.83-3.19-.68-6.3-.68-2.71,0-5.27,1.11-7.58.76-2.68-.41-5.45-.36-7.64-1.16-2.53-.93-4.36-3.19-6.3-4.51a27.49,27.49,0,0,1-5.26-5.31,31.11,31.11,0,0,1-4.36-6.06c-1.22-2.48-1.4-5.07-2-7.21-1.09-4.29-1.83-3.49-1.83-7.25a51.74,51.74,0,0,1,.82-7c.32-2.52-.47-5.15.18-7.24.75-2.42,2.73-4.23,3.82-6.13,1.25-2.18,2.29-4.4,3.86-6a28.54,28.54,0,0,1,5.55-4.56,31.46,31.46,0,0,1,6.65-2.65,42,42,0,0,1,6.9-2c4.13-.51,3.59.89,7.12,1.08a39.27,39.27,0,0,1,7,.46c2.5.46,5.18,0,7.18.88,2.28,1,3.43,3.69,5.14,5.11,1.89,1.57,4.45,2.41,5.75,4.26a34.15,34.15,0,0,1,3.79,6.16c1,2.38,0,5.24.44,7.27.87,4.06,2.65,3.31,2.65,6.84,0,2.23-2.33,4.18-2.55,6.13a42.59,42.59,0,0,1-.83,6.07c-.59,2.16-.13,4.54-1,6.29a31.11,31.11,0,0,1-3.68,6.14,36.19,36.19,0,0,1-5.36,4.72C268.79,255.94,268.76,254.89,265.55,256.27ZM247.89,228c.24,3.48,2.34,3.87,5,3.87s5.48-1,5.48-3.89c0-2.61-2.49-4.73-5.48-4.73C250.11,223.26,247.66,225.4,247.89,228Z"/>
          <path class="cls-6" d="M323.2,209.11c.05,2.44,1,5.44,1.24,8.16.34,3.65.45,7.63,2.78,7.63,2.5,0,2.72-3,3-7.49.13-2.18-.67-4.92-.63-8.32,0-3.14,1.82-5.69,2.65-7.74a12.57,12.57,0,0,1,5.12-5.74c3.59-2.44,3.23-2.63,7.18-2.73,3.23-.18,5.61.94,7.78,1.8,2.93,1.15,5.31,2.26,6.75,4.18,2.68,3.61,2.15,3.52,2.79,7.57.45,2.29,2.18,4.44,2.31,6.66s-1.06,4.7-1.2,6.89c-.15,2.4.14,4.77-.22,6.88-.42,2.51-.75,4.87-1.27,6.77-1.1,4-1.24,3.25-2.47,6.44-1.37,3.55-.68,3.4-3.35,7-1.32,1.79-4.09,2.8-6.27,4.6a27.67,27.67,0,0,1-6.27,4.11c-2.14,1-4.22,3.08-6.92,3.58-2.31.42-5-1.14-7.76-1.21-2.52-.07-5,1.22-7.11.94a60.93,60.93,0,0,1-7.09-1c-2.52-.68-4.1-3.26-6-4.13-2.5-1.16-5.52-.79-7.07-2-3.51-2.71-1.23-3.62-3-6.64a28.78,28.78,0,0,1-3.26-5.7c-.8-2.1-2.72-3.87-3.16-6.06a59,59,0,0,1-1.44-6.7c-.18-2.33-.09-4.7-.05-6.82,0-2.49,2.05-4.66,2.24-6.62.4-4,.6-3.18,1.3-6.47.51-2.36-.11-4.62.78-6.26,1.14-2.12,1.74-4.73,3.23-5.89,1.86-1.46,4.69-1.22,6.52-1.65,3.47-.82,3.29-1.79,6.43-1.4,3.75.46,2.73,2.27,6.08,4.84a11.72,11.72,0,0,1,4.31,5.4C322,204.06,323.13,206.14,323.2,209.11Z"/>
          <path class="cls-6" d="M477.8,231.37c-.11,1,.91,4.45-.18,8-.69,2.25-4,3.74-5.32,6.16-1.21,2.22-.94,5.62-2.84,7.47s-3.74,4.57-6.27,5.57c-2.21.88-5.5-.44-8.37-.44s-5.26-1.3-7.62-2.3a24.81,24.81,0,0,1-7-3.85c-2.16-1.91-3-4.67-4.44-6.66-2.69-3.78-3.51-2.54-5.07-6.27-1-2.32-1.24-4.89-2-7.25s-3.66-4.25-4.26-6.63.6-5.41.16-7.78c-.5-2.61-1.78-5-2.09-7.29-.37-2.79-1-5.34-1.15-7.49-.37-4.62.18-3.81.1-7.57-.13-2.7-.83-5.31-.59-7.5.31-2.75,3-4.68,3.78-6.71a19.78,19.78,0,0,1,3.37-6.23c1.83-2.1,2.81-5.26,4.73-6.18,3.79-1.8,4.07.81,7.73.83,2.62,0,5.35-1.8,7.44-1,2.34.85,5.16,1.85,6.92,3.42s1.12,5.39,2.39,7.45,5,3,5.84,5.22-2,5.68-1.51,8c.57,2.49,1.46,4.65,1.73,6.84.37,2.91,1,5.17,1.08,6.9.06-3-.22-5.9.42-7.92a16.2,16.2,0,0,1,4.69-6.9c3.32-2.79,4-.14,7.83,0,2.5,0,3.54.92,5.2,1.91,1.94,1.14,4.48,1,5.53,2.82s3.77,3.7,4.19,5.66c.76,3.53-.56,3.73-1.34,6.87,0-2.53-1.7-5-1.54-7.26.18-2.55,3.94-4.5,4.3-6.67a56.89,56.89,0,0,1,1.21-6.84c.75-2.53-1.51-6-.55-7.94,1.21-2.41,4-3.73,5.4-5.3a23.52,23.52,0,0,1,5.38-4.95c3.75-2.12,3.56-2.8,7.13-2.83,2.92,0,5.64,1.31,7.82,2.11,2.6,1,5.72,1.79,7.43,3.56s1.22,5.66,2.25,8c1.12,2.51,1.2,5,1.65,7.33.85,4.34,3.32,3.54,3.27,7.42,0,2.64-.83,5.21-1,7.67-.17,2.66-.43,5.22-.73,7.65-.32,2.68-2.46,4.9-2.9,7.27-.5,2.71,1.14,5.67.56,7.94-.71,2.83-.44,5.69-1.12,7.74a42.26,42.26,0,0,1-3,7.24c-1.19,2.72-4.42,4.06-5.89,6a25.54,25.54,0,0,1-5.8,5.3c-2.44,1.83-4.33,3.86-6.53,4.63-4.5,1.56-3.92,1.23-7.95,1.12-2.92,0-6,1.34-8.2.6a21.49,21.49,0,0,1-7.11-4.44,24.94,24.94,0,0,1-5.2-6.51,35.67,35.67,0,0,1-2.91-7.71C476.05,235.74,477.8,232.07,477.8,231.37Z"/>
          <path class="cls-6" d="M562,258.41c-2.76.1-5.45.94-7.42.25-2.6-.91-3.4-4.12-4.86-5.6-2.87-2.89-4.23-1.55-5.34-5-.75-2.15-2.41-4.23-2.85-6.45s.91-4.85.73-7.09.37-4.61.39-6.81c0-2.39-.33-4.68-.15-6.8.22-2.53,1.45-4.67,1.75-6.62.65-4.1-.62-3.56.24-6.85a21.38,21.38,0,0,1,3.65-7c1.75-2.56,2.74-5.77,4.72-6.85,4-2.17,4.34-.59,8.31-.6,3.26-.19,6.24-.28,8.45.8a18.09,18.09,0,0,1,6.69,5.57c2.57,3.77,2.14,4,3.07,8.06.81,3.6,1.38,2.52,1.86,7.28.2,2-1.51,4.63-1.46,7.49,0,2.22.21,4.64.07,7.33-.11,2.28,1.5,4.91,1.22,7.51-.26,2.32-2.94,4.45-3.35,7-.51,3.12.25,6.26-1.06,8.17-1.73,2.51-4.08,4.94-6.22,6C566.45,260.14,566,258.41,562,258.41Zm-1.46-69.2c-2.58.28-5.39,1.15-7.57.3-2.35-.91-3.07-4.09-4.58-6s-4.12-3.37-4.4-5.91-.61-5.85.5-8,4.33-3.29,6.42-4.68,4.42-1.59,7-1.87a14.66,14.66,0,0,1,7.11.48c2.32.92,3.57,3,5.08,4.86s3.36,3.52,3.6,6.05-.78,4.73-1.88,6.9-1.52,5.45-3.58,6.85S563.08,188.93,560.55,189.21Z"/>
          <path class="cls-6" d="M650.3,257.22a13.7,13.7,0,0,1-7.72.62c-2.27-.51-3.93-3-6.09-4.76-1.79-1.43-4.53-2.42-5.61-5.11-.83-2-2.3-4.64-2.42-7.6s1.22-2.86.82-6.21c-.24-2,0-4.28-.46-6.21-.64-2.95-2-5.2-3.12-5.2.18,2.24-.48,4.34-.41,6.18.09,2.39,1,4.41,1,6.11-.06,4-.48,3-.79,6.08-.34,3.34,1.25,3.53-.31,7-.83,1.84-3.19,3.24-4.93,4.95-1.47,1.45-3.06,3.29-5.39,4.14a20.63,20.63,0,0,1-6.76,1.42,17.92,17.92,0,0,1-6.9-1.54c-2.29-.91-4.7-2-6.18-3.59-1.68-1.79-1.66-4.74-2.54-6.63-1.62-3.51-1.51-3-2.17-6.37-.69-3.52-2.14-2.33-2.66-6.87-.24-2,1.51-4.57,1.39-7.32-.09-2.18-1.75-4.56-1.69-7.16,0-2.25-.29-4.72-.09-7.25.29-3.58,2.26-2.79,3.67-6.58.75-2,0-5.37,1.62-7.38,1.4-1.79,4.83-1.42,7.1-2.59a14.61,14.61,0,0,1,6.35-2c3-.19,5.57-1.57,7.69-1.2,3.11.54,5.94,1.24,7.63,2.49,2.49,1.84,3.12,4.07,4.13,5.87,3.56.18,2.89.36,6.74-1.16a38.76,38.76,0,0,1,6.73-1.58c2.27-.45,4.4-2.18,6.83-2s5.28-.64,7.51.39c2,.94,3.36,3.62,5.13,5.51,1.47,1.58,3.92,3,5.11,5.35,1,1.93-.5,5,.22,7.57a54.91,54.91,0,0,1,1.69,6.8c.34,2.19,3,4.29,3.17,6.84.28,3.69-.85,3.29-1.32,7.53A39.28,39.28,0,0,1,666,243a27.81,27.81,0,0,1-2.83,7.08c-1.34,2-3.66,3.56-5.81,5C655.5,256.32,653,256.73,650.3,257.22Z"/>
        </g>
        <path class="cls-7" d="M214.29,182.61a13.11,13.11,0,0,0-6.8-10,12.38,12.38,0,0,0-11.25-.43c-7.79,4-7.88,15.54-16.81,18.09a11.42,11.42,0,0,1-12.59-4.63c-2.76-4.18-2.3-9.64-5.06-13.84a10,10,0,0,0-1.65-1.95.54.54,0,0,0-.19-.84c-4.49-2.24-9.69-.86-13.36,2.29A21.71,21.71,0,0,0,139.69,184a23.25,23.25,0,0,0,1.9,14,23.74,23.74,0,0,0,9,9.87,40.29,40.29,0,0,0,6.15,2.74c2.06.81,4.18,1.86,5.26,3.9,1.21,2.27,1,5,1,7.49a60.47,60.47,0,0,0,.71,8.28A58.46,58.46,0,0,0,168.38,246a14.75,14.75,0,0,0,4.08,5.6,9.66,9.66,0,0,0,6.4,1.91c4.73-.24,8.57-3.44,10.53-7.62,2.29-4.89,2-10.46.75-15.6-1.26-5.34-3.53-11-.94-16.32,2.1-4.3,6.17-7.23,10.11-9.73,4.11-2.6,8.47-5.09,11.51-9A17.14,17.14,0,0,0,214.29,182.61Zm-1.42,5.24c-1,4.72-4,8.33-7.81,11.12-6.91,5.09-17.2,9.13-18.25,18.91-.58,5.43,2,10.62,2.76,15.91.73,5,.18,10.44-3.12,14.46-2.92,3.54-8.2,5.35-12.4,2.91a11.93,11.93,0,0,1-4.38-5.36,50.21,50.21,0,0,1-2.82-7.35,59.26,59.26,0,0,1-2.61-15.86c-.06-2.38.13-4.86-.58-7.17a8.12,8.12,0,0,0-3.82-4.69,45.47,45.47,0,0,0-5.79-2.45,21.94,21.94,0,0,1-5.67-3.49,21.86,21.86,0,0,1-6.06-25.36c1.81-4.33,5.21-8.53,9.87-9.86a10.52,10.52,0,0,1,4.46-.31.61.61,0,0,0,.18.1c4.62,1.35,5.63,6.9,6.61,10.91a17.47,17.47,0,0,0,2.8,6.66,12.57,12.57,0,0,0,17.53,2.58c3.24-2.4,5-6.12,7-9.52s4.4-6.68,8.43-7.52a12,12,0,0,1,10.6,3.37C212.87,179,213.74,183.66,212.87,187.85Z"/>
        <path class="cls-7" d="M279.25,223.4A32.13,32.13,0,0,0,274,206.21a22.23,22.23,0,0,0-13.2-9.12,18.78,18.78,0,0,0-3.34-.38.61.61,0,0,0-.58-.55c-6-.4-12.47-.3-18,2.58-5.24,2.75-9,7.82-11.59,13a35.15,35.15,0,0,0-4,17.95,26.72,26.72,0,0,0,5.58,14.81,22.49,22.49,0,0,0,14,8.35,43.6,43.6,0,0,0,9.62.43,41.24,41.24,0,0,0,9.12-1.33,22.39,22.39,0,0,0,13.46-10.37C278.39,236.15,279.47,229.65,279.25,223.4Zm-14.24,26c-5.34,2.5-11.76,2.89-17.57,2.63s-11.08-1.88-15.27-5.84a24.87,24.87,0,0,1-7.12-13.07,31.19,31.19,0,0,1,1.74-17.11c2-5.27,5.14-10.51,9.53-14.11,4.6-3.76,10.51-4.76,16.3-4.72,1.23,0,2.45.07,3.68.14a.57.57,0,0,0,.59.55,19.53,19.53,0,0,1,13.87,6.28,27.41,27.41,0,0,1,6.91,15.29C279.25,230.64,276.06,244.26,265,249.45Z"/>
        <path class="cls-7" d="M255.07,219c-.52,0-.69.49-.52.87a23,23,0,0,0-5.54.73c-1.84.49-4,1.13-5.39,2.52-2.73,2.77-.71,7.32,1.62,9.62a10.25,10.25,0,0,0,10.42,2.42,9.48,9.48,0,0,0,6.62-8.33A7.77,7.77,0,0,0,255.07,219Zm.87,14.73a9,9,0,0,1-9-1.17c-2.15-1.69-4.77-5.8-2.57-8.39,1.19-1.39,3.44-2,5.14-2.4a21.78,21.78,0,0,1,6.48-.65.55.55,0,0,0,.6-.56,6.56,6.56,0,0,1,4.45,5.3C261.39,229.24,259,232.42,255.94,233.7Z"/>
        <path class="cls-7" d="M347.63,198.61a10.3,10.3,0,0,0-9.36.25c-3.29,2-3.8,5.77-3.79,9.29a44.85,44.85,0,0,1-.26,6.35,31,31,0,0,1-1.61,6.44c-1,2.74-3.38,7.5-7.09,6a6.78,6.78,0,0,1-3.25-3.69,33.18,33.18,0,0,1-1.84-6c-.94-3.92-1.73-7.92-3.61-11.53-1.58-3-4-5.87-7.24-7.16a10,10,0,0,0-8.73.65,7.26,7.26,0,0,0-2.78,3,.65.65,0,0,0,.39.9,93.86,93.86,0,0,0,1.58,25.8,67.3,67.3,0,0,0,3.33,11.81,20.06,20.06,0,0,0,6.21,8.74c3.13,2.36,7.06,3.28,10.89,3.69a44.33,44.33,0,0,0,13-.41c7.59-1.44,14.65-5.56,18.59-12.34A35.55,35.55,0,0,0,356,229.46a61.06,61.06,0,0,0,1.37-12.34C357.36,209.92,354.74,201.75,347.63,198.61Zm8.13,24.3a57,57,0,0,1-2.26,11.2,25.93,25.93,0,0,1-5.39,9.6,25.08,25.08,0,0,1-9.19,6.18,34.92,34.92,0,0,1-12,2.29,36.32,36.32,0,0,1-12.05-1.41,15.23,15.23,0,0,1-8.4-6.62,37.78,37.78,0,0,1-4-10.4,92.17,92.17,0,0,1-3-25.56q.07-3.1.35-6.19a.47.47,0,0,0,0-.17,7.77,7.77,0,0,1,6.73-2.74c3.31.21,6.07,2.37,7.92,5,2.22,3.16,3.27,6.9,4.15,10.61s1.43,7.6,3.49,10.72a6.62,6.62,0,0,0,3.32,2.79,5,5,0,0,0,4.24-.65c2.85-1.91,4.13-5.63,5-8.78a31.83,31.83,0,0,0,1-6.13c.15-1.92,0-3.84.09-5.77a10,10,0,0,1,1.2-5,6.52,6.52,0,0,1,4-2.76c7.08-1.75,12.78,5.07,14.37,11.21A34.71,34.71,0,0,1,355.76,222.91Z"/>
        <path class="cls-7" d="M575,211.65a35.8,35.8,0,0,0-1.49-7c-1.39-4-4.37-7.7-8.83-8.21a7.49,7.49,0,0,0-3,.28.59.59,0,0,0-.27.18c-3.22,1-5.68,3.64-7.47,6.5a42.67,42.67,0,0,0-5.1,12.8,47.28,47.28,0,0,0,1.9,28c1.65,4.09,4.5,8.18,9.13,9.06,4.26.8,7.6-1.9,9.61-5.42a34.21,34.21,0,0,0,2.56-6,65.56,65.56,0,0,0,2.06-7.5,67.06,67.06,0,0,0,1.45-15.21A64.76,64.76,0,0,0,575,211.65Zm-5.09,32.48c-1.31,3.36-3.47,7.36-7.38,8-4.46.77-8-2.95-9.84-6.59a39.52,39.52,0,0,1-3.5-12.54,46.92,46.92,0,0,1,.24-13.23A45.84,45.84,0,0,1,553.93,206c1.92-3.69,5-7.81,9.45-8.22a.66.66,0,0,0,.26-.08c3.54-.15,6.6,2.71,8.06,5.83a24.24,24.24,0,0,1,1.76,6.25,63,63,0,0,1,.76,6.84A65.18,65.18,0,0,1,569.9,244.13Z"/>
        <path class="cls-7" d="M567.44,170.28a11.68,11.68,0,0,0-4.35-2.92.58.58,0,0,0-.42-.68,10.55,10.55,0,0,0-10.78,3.16,9,9,0,0,0-.63,10.6c4.71,6.6,17.12,4.52,18.25-3.94A7.76,7.76,0,0,0,567.44,170.28Zm-5.63,12.59a9.41,9.41,0,0,1-8.83-2.29,7.51,7.51,0,0,1-.76-9.05,8.73,8.73,0,0,1,8-3.94.54.54,0,0,0,.29.18c3.5,1,7.55,3.23,7.82,7.34C568.58,179,565.37,182,561.81,182.87Z"/>
        <path class="cls-7" d="M660.2,227a49.39,49.39,0,0,0-.8-6.42,19.43,19.43,0,0,0-5-10.07,11.83,11.83,0,0,0-9.54-3.72c-4.06.46-7.81,3-12,2.37-8.08-1.31-12.58-10.77-21.18-10.72-8.18,0-10.87,9.8-12.37,16.19a71,71,0,0,0-1.83,13.46,56.45,56.45,0,0,0,.7,12.59c.64,3.35,2,6.77,5,8.67a10.66,10.66,0,0,0,9.91.34,13.94,13.94,0,0,0,7-8,26,26,0,0,0,1.06-12.52c-.28-2.27-.71-4.51-1.14-6.76a.51.51,0,0,0-.3-.4.58.58,0,0,0,0-.29,4.29,4.29,0,0,1,1.77-4.59,5.68,5.68,0,0,1,5.37-.39c4,1.56,5.85,6.06,7.13,9.85,2.47,7.29,4.36,16.91,12.68,19.72a9.51,9.51,0,0,0,9.9-2c2.81-2.79,3.72-6.81,3.81-10.65C660.51,231.42,660.36,229.21,660.2,227Zm-4.12,16.05c-2.59,2.84-6.56,3.23-10,1.68-7.74-3.53-8.83-13.38-11.54-20.4-1.31-3.41-3.22-7-6.7-8.54-3-1.37-6.71-.93-8.61,2a5.17,5.17,0,0,0-.66,4.24.58.58,0,0,0,.33.38.65.65,0,0,0,0,.31c1.48,7.69,3.12,17.3-3,23.53a10.47,10.47,0,0,1-9.51,3c-3.56-.8-5.62-3.8-6.56-7.14a43.23,43.23,0,0,1-1.13-11.74,69.31,69.31,0,0,1,1.34-13.17,46.88,46.88,0,0,1,3.38-11.2c1.5-3.06,3.92-6,7.54-6.33,4-.38,7.7,2.06,10.69,4.39s5.86,4.82,9.48,5.92a11.49,11.49,0,0,0,5.31.29,46.94,46.94,0,0,0,5.55-1.62,11.77,11.77,0,0,1,5.79-.56,10.84,10.84,0,0,1,4.56,2.18,16.69,16.69,0,0,1,5.55,9.26,56.41,56.41,0,0,1,1.31,12.56C659.28,236,658.78,240.12,656.08,243.06Z"/>
      </g>
      <path class="cls-7" d="M522.56,194.86c-.7-5.66-2.21-11.93-7.48-15.05a9.27,9.27,0,0,0-7.46-1,12.6,12.6,0,0,0-6.15,4.57,21.49,21.49,0,0,0-3.47,8.15c-.67,2.9-.92,5.93-1.77,8.8-.62,2.09-1.74,4.67-3.93,5.54-1.93.76-3.74-.23-5.06-1.61-2.53-2.66-4.59-7.44-9-7-2.94.27-5.05,2.57-6.63,4.84s-3.32,5.43-6.36,6.29a3.89,3.89,0,0,1-2.89-.21.43.43,0,0,0-.05-.35,14.85,14.85,0,0,1-.9-1.6l-.06-.19a.47.47,0,0,0,.14-.45c-.43-2-1-4-1.57-6l0-.09a.73.73,0,0,0-.09-.26,65.84,65.84,0,0,0-5-11.75c-2.41-4.36-6.22-9.35-11.59-9.83a9,9,0,0,0-6.94,2.61,13.69,13.69,0,0,0-3.81,7.35,39.68,39.68,0,0,0-.34,9.74c.17,3.29.49,6.57.94,9.84a113.74,113.74,0,0,0,4.46,19.45q1.52,4.67,3.43,9.2a31,31,0,0,0,3.76,6.78,13.28,13.28,0,0,0,5.47,4.43,9.53,9.53,0,0,0,7.3-.25c5.21-2.27,8.1-7.5,12.18-11.15,2-1.82,4.51-3.47,7.31-3.61a9.65,9.65,0,0,1,7.31,3.31c3.88,4,5.64,9.75,10.36,12.92,4.43,3,10.29,2.21,14.67-.45,4.88-3,7.76-8.19,9.58-13.44a82.58,82.58,0,0,0,3.92-19.06A93.22,93.22,0,0,0,522.56,194.86ZM521,221.32a88.66,88.66,0,0,1-2.1,9.54,41,41,0,0,1-3.08,8.12c-2.54,4.83-6.57,8.83-12.06,10a11.64,11.64,0,0,1-7.51-.86,16.21,16.21,0,0,1-5.77-5.72c-2.84-4.23-5.57-9.74-11-11.08s-10.11,2.81-13.44,6.57-7.2,8.94-12.79,8.82c-5.21-.1-8.54-5.07-10.57-9.28a82.86,82.86,0,0,1-3.44-8.6c-1.06-3-2-6.11-2.79-9.22a112.62,112.62,0,0,1-3.19-19.21,65.23,65.23,0,0,1-.25-9.68,15.5,15.5,0,0,1,2.75-8.43,8.54,8.54,0,0,1,6.68-3.63,10.25,10.25,0,0,1,6.81,3.14,25.55,25.55,0,0,1,4.78,6.52,62.36,62.36,0,0,1,3.91,8.66c.35,1,.66,1.94,1,2.92l.63,4.74c-.58,2.12,1.14,4.23,3.13,4.83,2.58.77,5.23-.95,6.87-2.8,2-2.26,3.21-5.29,5.71-7.1a5.52,5.52,0,0,1,4.1-1.22,5.18,5.18,0,0,1,2.4,1.16,29.25,29.25,0,0,1,3.75,4.41,8.1,8.1,0,0,0,4.16,3.16c4.89,1.18,7.23-4.61,7.95-8.39,1.09-5.74,1.69-12.22,6.22-16.43a9.42,9.42,0,0,1,7.1-2.74,10.07,10.07,0,0,1,6.67,3.9,18.32,18.32,0,0,1,3.38,8.15,70.8,70.8,0,0,1,1.09,9.74A92.91,92.91,0,0,1,521,221.32Z"/>
    </g>
    <path class="cls-2" d="M750.41,9H46.59A34.63,34.63,0,0,0,12,43.59v18A34.63,34.63,0,0,1,46.59,27H750.41A34.63,34.63,0,0,1,785,61.59v-18A34.63,34.63,0,0,0,750.41,9Z"/>
  </g>
</svg>
