<svg xmlns="http://www.w3.org/2000/svg" xmlns:xlink="http://www.w3.org/1999/xlink" width="1920" height="1080" viewBox="0 0 1920 1080">
  <defs>
    <style>
      .cls-1 {
        opacity: 0.6;
      }

      .cls-2 {
        fill: #ef0000;
      }

      .cls-3 {
        fill: #ffbd00;
      }

      .cls-4 {
        fill: #ffff17;
      }

      .cls-5 {
        fill: #0c0;
      }

      .cls-6 {
        fill: #45d9ff;
      }

      .cls-7 {
        fill: #a600e7;
      }

      .cls-8 {
        fill: url(#linear-gradient);
      }

      .cls-9 {
        fill: url(#linear-gradient-2);
      }

      .cls-10 {
        fill: url(#linear-gradient-3);
      }

      .cls-11 {
        fill: url(#linear-gradient-4);
      }

      .cls-12 {
        fill: url(#linear-gradient-5);
      }

      .cls-13 {
        fill: url(#linear-gradient-6);
      }

      .cls-14 {
        fill: url(#linear-gradient-7);
      }

      .cls-15 {
        fill: url(#linear-gradient-8);
      }

      .cls-16 {
        fill: url(#linear-gradient-9);
      }

      .cls-17 {
        fill: url(#linear-gradient-10);
      }

      .cls-18 {
        fill: url(#linear-gradient-11);
      }

      .cls-19 {
        fill: url(#linear-gradient-12);
      }

      .cls-20 {
        fill: url(#linear-gradient-13);
      }

      .cls-21 {
        fill: url(#linear-gradient-14);
      }

      .cls-22 {
        fill: url(#linear-gradient-15);
      }

      .cls-23 {
        fill: url(#linear-gradient-16);
      }

      .cls-24 {
        fill: url(#linear-gradient-17);
      }

      .cls-25 {
        fill: url(#linear-gradient-18);
      }

      .cls-26 {
        fill: url(#linear-gradient-19);
      }

      .cls-27 {
        fill: url(#linear-gradient-20);
      }

      .cls-28 {
        fill: url(#linear-gradient-21);
      }

      .cls-29 {
        fill: #fff;
        opacity: 0.5;
      }

      .cls-30 {
        fill: url(#linear-gradient-22);
      }

      .cls-31 {
        fill: url(#linear-gradient-23);
      }

      .cls-32 {
        fill: url(#linear-gradient-24);
      }

      .cls-33 {
        fill: url(#linear-gradient-25);
      }

      .cls-34 {
        fill: url(#linear-gradient-26);
      }

      .cls-35 {
        fill: url(#linear-gradient-27);
      }

      .cls-36 {
        fill: url(#linear-gradient-28);
      }

      .cls-37 {
        fill: url(#linear-gradient-29);
      }

      .cls-38 {
        fill: url(#linear-gradient-30);
      }

      .cls-39 {
        fill: url(#linear-gradient-31);
      }

      .cls-40 {
        fill: url(#linear-gradient-32);
      }

      .cls-41 {
        fill: url(#linear-gradient-33);
      }

      .cls-42 {
        fill: url(#linear-gradient-34);
      }

      .cls-43 {
        fill: url(#linear-gradient-35);
      }

      .cls-44 {
        fill: url(#linear-gradient-36);
      }

      .cls-45 {
        fill: url(#linear-gradient-37);
      }

      .cls-46 {
        fill: url(#linear-gradient-38);
      }

      .cls-47 {
        fill: url(#linear-gradient-39);
      }

      .cls-48 {
        fill: url(#linear-gradient-40);
      }

      .cls-49 {
        fill: url(#linear-gradient-41);
      }

      .cls-50 {
        fill: url(#linear-gradient-42);
      }

      .cls-51 {
        fill: url(#linear-gradient-43);
      }

      .cls-52 {
        fill: url(#linear-gradient-44);
      }

      .cls-53 {
        fill: url(#linear-gradient-45);
      }

      .cls-54 {
        fill: url(#linear-gradient-46);
      }

      .cls-55 {
        fill: url(#linear-gradient-47);
      }

      .cls-56 {
        fill: url(#linear-gradient-48);
      }

      .cls-57 {
        fill: url(#linear-gradient-49);
      }

      .cls-58 {
        fill: url(#linear-gradient-50);
      }

      .cls-59 {
        fill: url(#linear-gradient-51);
      }

      .cls-60 {
        fill: url(#linear-gradient-52);
      }

      .cls-61 {
        fill: url(#linear-gradient-53);
      }

      .cls-62 {
        fill: url(#linear-gradient-54);
      }

      .cls-63 {
        fill: url(#linear-gradient-55);
      }

      .cls-64 {
        fill: url(#linear-gradient-56);
      }

      .cls-65 {
        fill: url(#linear-gradient-57);
      }

      .cls-66 {
        fill: url(#linear-gradient-58);
      }

      .cls-67 {
        fill: url(#linear-gradient-59);
      }

      .cls-68 {
        fill: url(#linear-gradient-60);
      }

      .cls-69 {
        fill: url(#linear-gradient-61);
      }

      .cls-70 {
        fill: url(#linear-gradient-62);
      }
    </style>
    <linearGradient id="linear-gradient" x1="1088.46" y1="443.99" x2="1088.46" y2="1496.61" gradientUnits="userSpaceOnUse">
      <stop offset="0" stop-color="#2c7900"/>
      <stop offset="0" stop-color="#201605"/>
      <stop offset="0.3" stop-color="#427c21"/>
      <stop offset="0.56" stop-color="#8db522"/>
      <stop offset="0.99" stop-color="#f2d1c4"/>
    </linearGradient>
    <linearGradient id="linear-gradient-2" x1="619.9" y1="526.84" x2="619.9" y2="1642.77" gradientUnits="userSpaceOnUse">
      <stop offset="0.02" stop-color="#001805"/>
      <stop offset="0.58" stop-color="#8db522"/>
      <stop offset="1" stop-color="#93b929"/>
    </linearGradient>
    <linearGradient id="linear-gradient-3" x1="3569.51" y1="1383.26" x2="3569.06" y2="1360.83" gradientTransform="translate(-2204.45 -2164.05) rotate(28.92)" gradientUnits="userSpaceOnUse">
      <stop offset="0" stop-color="#d41c00"/>
      <stop offset="0.44" stop-color="#ba110a"/>
      <stop offset="1" stop-color="#92001a"/>
    </linearGradient>
    <linearGradient id="linear-gradient-4" x1="3540.27" y1="1394.95" x2="3548.57" y2="1376" gradientTransform="translate(-2204.45 -2164.05) rotate(28.92)" gradientUnits="userSpaceOnUse">
      <stop offset="0" stop-color="#d41c00"/>
      <stop offset="1" stop-color="#92001a"/>
    </linearGradient>
    <linearGradient id="linear-gradient-5" x1="3500.68" y1="1375.88" x2="3530.52" y2="1375.38" gradientTransform="translate(-2204.45 -2164.05) rotate(28.92)" gradientUnits="userSpaceOnUse">
      <stop offset="0.14" stop-color="#d41c00"/>
      <stop offset="0.96" stop-color="#92001a"/>
    </linearGradient>
    <linearGradient id="linear-gradient-6" x1="3504.22" y1="1333.5" x2="3518.18" y2="1356.1" gradientTransform="translate(-2204.45 -2164.05) rotate(28.92)" gradientUnits="userSpaceOnUse">
      <stop offset="0.09" stop-color="#d41c00"/>
      <stop offset="1" stop-color="#92001a"/>
    </linearGradient>
    <linearGradient id="linear-gradient-7" x1="3560.07" y1="1390.05" x2="3558.27" y2="1363.31" gradientTransform="translate(-2204.45 -2164.05) rotate(28.92)" gradientUnits="userSpaceOnUse">
      <stop offset="0.12" stop-color="#fff"/>
      <stop offset="0.92" stop-color="#ccc"/>
    </linearGradient>
    <linearGradient id="linear-gradient-8" x1="3519.61" y1="1391.06" x2="3534" y2="1378.83" gradientTransform="translate(-2204.45 -2164.05) rotate(28.92)" gradientUnits="userSpaceOnUse">
      <stop offset="0" stop-color="#fff"/>
      <stop offset="0.92" stop-color="#ccc"/>
    </linearGradient>
    <linearGradient id="linear-gradient-9" x1="3497.48" y1="1355.26" x2="3519.15" y2="1364.11" gradientTransform="translate(-2204.45 -2164.05) rotate(28.92)" gradientUnits="userSpaceOnUse">
      <stop offset="0" stop-color="#fff"/>
      <stop offset="0.92" stop-color="#ccc"/>
    </linearGradient>
    <linearGradient id="linear-gradient-10" x1="3522.25" y1="1319.79" x2="3521.61" y2="1344.02" xlink:href="#linear-gradient-8"/>
    <linearGradient id="linear-gradient-11" x1="3562.68" y1="1331" x2="3546.76" y2="1337.94" gradientTransform="translate(-2204.45 -2164.05) rotate(28.92)" gradientUnits="userSpaceOnUse">
      <stop offset="0.17" stop-color="#fdfdfd"/>
      <stop offset="0.92" stop-color="#ccc"/>
    </linearGradient>
    <linearGradient id="linear-gradient-12" x1="3544.15" y1="1319.81" x2="3531.6" y2="1336.65" xlink:href="#linear-gradient-4"/>
    <linearGradient id="linear-gradient-13" x1="3571.57" y1="1354.31" x2="3556.04" y2="1345.57" xlink:href="#linear-gradient-4"/>
    <linearGradient id="linear-gradient-14" x1="3538.2" y1="1380" x2="3546.24" y2="1352.18" xlink:href="#linear-gradient-4"/>
    <linearGradient id="linear-gradient-15" x1="3523.41" y1="1338.52" x2="3529.72" y2="1345.74" gradientTransform="translate(-2204.45 -2164.05) rotate(28.92)" gradientUnits="userSpaceOnUse">
      <stop offset="0.39" stop-color="#d41c00"/>
      <stop offset="1" stop-color="#92001a"/>
    </linearGradient>
    <linearGradient id="linear-gradient-16" x1="3529.71" y1="1359.81" x2="3557.96" y2="1359.81" gradientTransform="translate(-2204.45 -2164.05) rotate(28.92)" gradientUnits="userSpaceOnUse">
      <stop offset="0" stop-color="#2cbe00"/>
      <stop offset="0" stop-color="#d41c00"/>
      <stop offset="1" stop-color="#92001a"/>
    </linearGradient>
    <linearGradient id="linear-gradient-17" x1="3559.96" y1="1372.36" x2="3551.68" y2="1352.82" gradientTransform="translate(-2204.45 -2164.05) rotate(28.92)" gradientUnits="userSpaceOnUse">
      <stop offset="0" stop-color="#fdfdfd"/>
      <stop offset="0.92" stop-color="#ccc"/>
    </linearGradient>
    <linearGradient id="linear-gradient-18" x1="3519.57" y1="1367.06" x2="3536.43" y2="1358.29" xlink:href="#linear-gradient-9"/>
    <linearGradient id="linear-gradient-19" x1="3552.05" y1="1340.74" x2="3544.26" y2="1351.14" gradientTransform="translate(-2204.45 -2164.05) rotate(28.92)" gradientUnits="userSpaceOnUse">
      <stop offset="0" stop-color="#fdfdfd"/>
      <stop offset="0.11" stop-color="#fff"/>
      <stop offset="0.92" stop-color="#ccc"/>
    </linearGradient>
    <linearGradient id="linear-gradient-20" x1="3533.68" y1="1366.74" x2="3537.27" y2="1343.85" xlink:href="#linear-gradient-9"/>
    <linearGradient id="linear-gradient-21" x1="3542.4" y1="1345.82" x2="3532.17" y2="1363.05" xlink:href="#linear-gradient-4"/>
    <linearGradient id="linear-gradient-22" x1="231.62" y1="817" x2="246.9" y2="817" gradientUnits="userSpaceOnUse">
      <stop offset="0" stop-color="#2cbe00"/>
      <stop offset="0" stop-color="#ccc"/>
      <stop offset="0.51" stop-color="#fff"/>
      <stop offset="0.89" stop-color="#d6d6d6"/>
      <stop offset="0.98" stop-color="#ccc"/>
    </linearGradient>
    <linearGradient id="linear-gradient-23" x1="3447.78" y1="1377.76" x2="3447.19" y2="1348.54" xlink:href="#linear-gradient-3"/>
    <linearGradient id="linear-gradient-24" x1="3409.69" y1="1392.99" x2="3420.5" y2="1368.3" xlink:href="#linear-gradient-4"/>
    <linearGradient id="linear-gradient-25" x1="3358.12" y1="1368.15" x2="3396.99" y2="1367.49" xlink:href="#linear-gradient-5"/>
    <linearGradient id="linear-gradient-26" x1="3362.73" y1="1312.95" x2="3380.92" y2="1342.39" xlink:href="#linear-gradient-6"/>
    <linearGradient id="linear-gradient-27" x1="3435.49" y1="1386.6" x2="3433.14" y2="1351.78" xlink:href="#linear-gradient-7"/>
    <linearGradient id="linear-gradient-28" x1="3382.79" y1="1387.92" x2="3401.53" y2="1371.99" xlink:href="#linear-gradient-8"/>
    <linearGradient id="linear-gradient-29" x1="3353.96" y1="1341.29" x2="3382.19" y2="1352.82" xlink:href="#linear-gradient-9"/>
    <linearGradient id="linear-gradient-30" x1="3386.22" y1="1295.09" x2="3385.38" y2="1326.65" xlink:href="#linear-gradient-8"/>
    <linearGradient id="linear-gradient-31" x1="3438.89" y1="1309.69" x2="3418.15" y2="1318.73" xlink:href="#linear-gradient-11"/>
    <linearGradient id="linear-gradient-32" x1="3414.74" y1="1295.12" x2="3398.41" y2="1317.05" xlink:href="#linear-gradient-4"/>
    <linearGradient id="linear-gradient-33" x1="3450.47" y1="1340.05" x2="3430.23" y2="1328.67" xlink:href="#linear-gradient-4"/>
    <linearGradient id="linear-gradient-34" x1="3406.99" y1="1373.51" x2="3417.47" y2="1337.28" xlink:href="#linear-gradient-4"/>
    <linearGradient id="linear-gradient-35" x1="3387.73" y1="1319.49" x2="3395.95" y2="1328.88" xlink:href="#linear-gradient-15"/>
    <linearGradient id="linear-gradient-36" x1="3395.94" y1="1347.21" x2="3432.74" y2="1347.21" xlink:href="#linear-gradient-16"/>
    <linearGradient id="linear-gradient-37" x1="3435.34" y1="1363.56" x2="3424.55" y2="1338.11" xlink:href="#linear-gradient-17"/>
    <linearGradient id="linear-gradient-38" x1="3382.73" y1="1356.66" x2="3404.7" y2="1345.24" xlink:href="#linear-gradient-9"/>
    <linearGradient id="linear-gradient-39" x1="3425.04" y1="1322.37" x2="3414.89" y2="1335.93" xlink:href="#linear-gradient-19"/>
    <linearGradient id="linear-gradient-40" x1="3401.11" y1="1356.24" x2="3405.79" y2="1326.43" xlink:href="#linear-gradient-9"/>
    <linearGradient id="linear-gradient-41" x1="3412.47" y1="1328.99" x2="3399.14" y2="1351.43" xlink:href="#linear-gradient-4"/>
    <linearGradient id="linear-gradient-42" x1="121.92" y1="766.6" x2="141.83" y2="766.6" xlink:href="#linear-gradient-22"/>
    <linearGradient id="linear-gradient-43" x1="3544.26" y1="1468.12" x2="3544" y2="1455.03" xlink:href="#linear-gradient-3"/>
    <linearGradient id="linear-gradient-44" x1="3527.2" y1="1474.94" x2="3532.04" y2="1463.88" xlink:href="#linear-gradient-4"/>
    <linearGradient id="linear-gradient-45" x1="3504.1" y1="1463.81" x2="3521.51" y2="1463.52" xlink:href="#linear-gradient-5"/>
    <linearGradient id="linear-gradient-46" x1="3506.17" y1="1439.09" x2="3514.31" y2="1452.28" xlink:href="#linear-gradient-6"/>
    <linearGradient id="linear-gradient-47" x1="3538.75" y1="1472.08" x2="3537.7" y2="1456.48" xlink:href="#linear-gradient-7"/>
    <linearGradient id="linear-gradient-48" x1="3515.15" y1="1472.67" x2="3523.54" y2="1465.53" xlink:href="#linear-gradient-8"/>
    <linearGradient id="linear-gradient-49" x1="3502.24" y1="1451.78" x2="3514.88" y2="1456.95" xlink:href="#linear-gradient-9"/>
    <linearGradient id="linear-gradient-50" x1="3516.69" y1="1431.09" x2="3516.31" y2="1445.23" xlink:href="#linear-gradient-8"/>
    <linearGradient id="linear-gradient-51" x1="3540.27" y1="1437.63" x2="3530.99" y2="1441.68" xlink:href="#linear-gradient-11"/>
    <linearGradient id="linear-gradient-52" x1="3529.46" y1="1431.11" x2="3522.15" y2="1440.93" xlink:href="#linear-gradient-4"/>
    <linearGradient id="linear-gradient-53" x1="3545.46" y1="1451.23" x2="3536.4" y2="1446.13" xlink:href="#linear-gradient-4"/>
    <linearGradient id="linear-gradient-54" x1="3525.99" y1="1466.21" x2="3530.68" y2="1449.99" xlink:href="#linear-gradient-4"/>
    <linearGradient id="linear-gradient-55" x1="3517.36" y1="1442.02" x2="3521.05" y2="1446.23" xlink:href="#linear-gradient-15"/>
    <linearGradient id="linear-gradient-56" x1="3521.04" y1="1454.44" x2="3537.52" y2="1454.44" xlink:href="#linear-gradient-16"/>
    <linearGradient id="linear-gradient-57" x1="3538.69" y1="1461.76" x2="3533.86" y2="1450.36" xlink:href="#linear-gradient-17"/>
    <linearGradient id="linear-gradient-58" x1="3515.13" y1="1458.67" x2="3524.96" y2="1453.55" xlink:href="#linear-gradient-9"/>
    <linearGradient id="linear-gradient-59" x1="3534.07" y1="1443.31" x2="3529.53" y2="1449.38" xlink:href="#linear-gradient-19"/>
    <linearGradient id="linear-gradient-60" x1="3523.36" y1="1458.48" x2="3525.45" y2="1445.13" xlink:href="#linear-gradient-9"/>
    <linearGradient id="linear-gradient-61" x1="3528.44" y1="1446.28" x2="3522.47" y2="1456.33" xlink:href="#linear-gradient-4"/>
    <linearGradient id="linear-gradient-62" x1="176.47" y1="860.74" x2="185.39" y2="860.74" xlink:href="#linear-gradient-22"/>
  </defs>
  <g id="text">
    <g class="cls-1">
      <path class="cls-2" d="M818.23,684.83H805.85a182.62,182.62,0,0,0-365.24,0H428.23a195,195,0,0,1,390,0Z"/>
      <path class="cls-3" d="M805.85,684.83H793.47a170.24,170.24,0,0,0-340.48,0H440.61a182.62,182.62,0,0,1,365.24,0Z"/>
      <path class="cls-4" d="M793.47,684.83H781.09a157.86,157.86,0,1,0-315.71,0H453a170.24,170.24,0,0,1,340.48,0Z"/>
      <path class="cls-5" d="M781.09,684.83H768.71a145.48,145.48,0,0,0-291,0H465.38a157.86,157.86,0,0,1,315.71,0Z"/>
      <path class="cls-6" d="M768.71,684.83H756.33a133.1,133.1,0,1,0-266.19,0H477.76a145.48,145.48,0,0,1,291,0Z"/>
      <path class="cls-7" d="M756.33,684.83H744a120.72,120.72,0,0,0-241.43,0H490.14a133.1,133.1,0,1,1,266.19,0Z"/>
    </g>
    <polygon class="cls-8" points="260.34 1080.16 1922.69 1080.16 1922.69 562.2 1922.01 562.73 1920.38 564.85 1920.01 562.84 1919.88 559.99 1920.11 555.89 1917.16 562.5 1915.81 563.74 1916.59 557.64 1915.41 558.29 1915.59 554.15 1914.47 554.6 1912.93 556.61 1911.78 557.21 1912.56 550.63 1911.06 552.51 1909.04 556.47 1909.74 549.98 1907.43 555.15 1906.26 555.92 1905.78 553.96 1905.91 549.41 1904.02 553.15 1903.88 549.61 1901.08 557.39 1900.85 554.21 1900.9 549.69 1898.55 555.87 1898.13 553.41 1898.01 549.43 1896.73 550.86 1895.24 553.4 1895.72 546.28 1892.32 558.47 1891.98 555.4 1892.58 547.29 1889.85 556.74 1890.98 545.36 1888.48 553.89 1888.45 548.58 1887.59 547.92 1885.1 557.14 1884.96 552.24 1883.29 556.87 1883.83 547.21 1882.8 547.6 1881.11 552.7 1881.29 544.64 1879.67 549.38 1878.02 554.8 1878.09 546.79 1876.51 551.96 1876.24 546.13 1875.59 543.34 1874.6 543.52 1873.68 542.92 1872.13 548.81 1871.22 548.51 1870.46 546.3 1869.71 543.79 1868.06 552.6 1867.67 545.28 1866.19 552.87 1865.68 546.29 1864.38 552.18 1863.38 553.55 1862.97 543.25 1862.04 542.47 1860.97 545.05 1860.1 542.39 1859.09 543.78 1858.02 548.08 1857.19 542.05 1856.2 543.21 1855.16 550.2 1854.2 554.63 1853.3 546.65 1852.34 545.82 1851.45 553.43 1850.51 551.71 1849.53 548.7 1848.6 549.27 1847.47 542.15 1846.65 546.97 1845.68 546.33 1844.83 549.01 1843.66 544 1842.67 543.48 1842.1 550.66 1840.92 546.51 1840.4 553.33 1838.89 544.88 1838.15 547.91 1836.95 544.63 1836.46 550.5 1835.3 547.93 1835.03 555.6 1833.6 550.07 1832.77 551.32 1832.09 553.86 1831.03 552.64 1829.4 546.28 1829.31 554.07 1827.37 545.37 1826.91 549.64 1825.84 548.69 1825.86 556.44 1824.22 551 1823.58 553.29 1822.22 550.22 1821.06 548.79 1820.27 549.96 1819.15 548.88 1817.88 546.77 1817.68 551.87 1815.81 545.95 1815.84 552.35 1815.13 553.91 1814.26 554.37 1812.59 550.05 1813.02 558.4 1810.04 546.34 1809.27 547.53 1809.74 555.85 1808.24 552.75 1807.4 553.45 1805.86 550.22 1806.1 556.88 1805.01 556.16 1804.71 559.73 1802.28 551.81 1802.84 559.97 1801.88 559.93 1800.68 558.65 1797.95 549.45 1798.06 555.04 1796.5 552 1795.19 550.31 1795.12 554.86 1793 549.06 1793.55 556.73 1793.56 561.58 1791.38 555.55 1791.38 560.32 1789.35 555.06 1788.78 557.03 1788.73 561.53 1786.08 553.26 1785.14 553.4 1785.8 561.33 1783.77 556.16 1782.46 554.48 1781.14 552.8 1780.68 555.24 1780.42 558.66 1779.77 560.2 1778.59 559.19 1776.75 555.01 1775.46 553.45 1776.93 565.21 1775.89 564.85 1774.97 565.1 1772.4 557.35 1773.14 565.62 1772.12 565.4 1769.85 559.07 1767.94 554.51 1768.04 559.7 1766.13 555.1 1766.28 560.57 1764.62 557.15 1765.19 564.73 1764.26 564.9 1762.11 559.08 1761.39 560.33 1760.25 559.48 1759.12 558.64 1758.75 561.64 1757.39 559.67 1756.74 561.28 1754.99 557.35 1755.75 566.03 1754.73 565.8 1754.41 569.07 1752.69 565.28 1751.8 565.69 1751.25 567.85 1750.42 568.56 1748.87 565.57 1747.38 562.86 1747.96 570.94 1744.95 560.23 1745.24 566.88 1743 560.09 1744.04 570.82 1741.85 564.29 1740.3 561.13 1741.05 570.43 1739.08 564.96 1737.78 563.1 1737.16 565.02 1736.22 565.1 1735.32 565.47 1734.27 564.93 1733.64 566.82 1732.4 565.25 1732.74 572.65 1731.45 570.81 1729.35 564.27 1728.81 566.71 1727.35 563.77 1726.53 564.59 1725.83 566.1 1725.18 567.93 1724.79 571.37 1722.52 563.5 1721.63 563.88 1721.54 569.17 1721.17 572.82 1719.42 567.96 1717.88 564.31 1717.88 570.31 1717.27 572.56 1716.83 575.9 1715.48 573.43 1714.87 575.7 1713.53 573.25 1713.14 577.03 1711.35 571.54 1710.11 569.7 1709.77 573.89 1709.33 577.43 1708.09 575.57 1706.88 573.85 1705.79 572.93 1704.35 569.54 1703.59 570.98 1702.43 569.53 1702.05 573.62 1701.27 574.98 1700.59 576.99 1699.64 577.1 1697.63 569.36 1697.09 572.43 1696.54 575.53 1695.12 572.04 1694 570.72 1694.19 579.61 1691.74 567.97 1690.85 568.46 1690.67 574.66 1689.49 572.84 1689.43 580.12 1687.92 575.62 1687.03 576.17 1686.25 577.72 1684.41 570.29 1684.32 577.63 1683 574.52 1682.15 575.47 1681.31 576.51 1680.43 577.14 1678.8 571.13 1677.9 571.62 1677.92 580.54 1675.77 569.58 1675.49 575.81 1674.41 574.66 1673.99 579.67 1672.96 579.02 1672.06 579.54 1670.46 573.34 1669.79 576.1 1668.25 570.25 1667.78 575.16 1667.58 582.85 1665.85 574.91 1664.94 575.36 1663.61 571.32 1663.23 577.43 1661.71 571.33 1661.34 577.64 1660.38 577.61 1659.06 573.5 1658.66 579.74 1657.87 581.73 1657.08 583.63 1655.58 577.37 1655 581.73 1653.97 580.96 1652.51 574.79 1652.31 584.01 1650.6 574.8 1650 579.15 1649.25 581.81 1647.68 573.85 1646.69 573.4 1646.6 584.8 1644.79 573.34 1644.16 577.65 1643.05 575.49 1642.39 579.55 1641.29 577.56 1640.17 575.12 1639.5 579.22 1638.14 573.32 1637.83 582.8 1636.83 582.21 1636.09 585.51 1634.74 579.42 1633.65 577.24 1632.63 576.14 1631.93 580.27 1631.14 583.08 1629.76 575.93 1628.72 574.43 1627.78 574.59 1627.32 583.18 1626.2 580.23 1625.32 581.52 1624.28 580.04 1623.65 586.1 1622.21 577.15 1621.23 576.73 1620.66 584.34 1619.46 579.49 1618.32 575.78 1617.64 581.46 1616.91 586.2 1615.91 585.43 1614.74 580.67 1613.63 577.16 1613.06 585.97 1611.61 574.37 1610.78 577.07 1610.12 584.43 1608.91 577.82 1608.26 585.77 1607.24 583.8 1606.29 583.99 1605.3 582.96 1604.15 577.26 1603.15 575.9 1602.24 576.86 1601.23 574.8 1600.5 581.98 1599.48 579.71 1598.58 581.37 1597.66 582.34 1596.62 578.95 1595.86 586.52 1594.72 578.62 1593.71 575.86 1592.82 578.39 1592.07 587.5 1590.98 580.68 1589.97 577.22 1589.18 586.34 1588.19 583.98 1587.27 586.39 1586.31 585.71 1585.37 587.04 1584.3 576.76 1583.45 585.92 1582.44 579.81 1581.53 584.09 1580.57 583.76 1579.64 586.96 1578.63 575.8 1577.7 578.82 1576.77 585.35 1575.81 576.85 1574.87 574.7 1573.92 579.18 1572.99 576.87 1572.05 575.29 1571.06 586.25 1570.13 582.34 1569.23 575.7 1568.3 575.09 1567.23 587.58 1566.31 585.31 1565.42 580.25 1564.51 577.57 1563.55 579.28 1562.59 579.89 1561.73 575.41 1560.61 585.05 1559.69 583.36 1558.68 586.18 1557.84 581.59 1557.06 575.08 1556.07 577 1555.13 577.07 1554.04 582.21 1553.19 578.75 1552.1 583.55 1551.21 581.68 1550.1 586.47 1549.52 575.92 1548.56 576.52 1547.23 586.46 1546.36 584.37 1545.73 576.5 1544.89 574.17 1543.39 586.86 1542.48 585.93 1542.05 574.69 1540.83 580.47 1540.06 577.06 1538.99 579.39 1538.21 576.47 1537.02 580.9 1535.9 583.91 1535.5 574.43 1534.12 581.94 1533.65 573.95 1532.05 584.6 1531.51 578.16 1530.43 580.13 1529.91 573.73 1528.35 582.91 1527.66 579.07 1526.61 580.61 1525.87 577.71 1524.77 579.86 1523.7 581.4 1522.58 583.6 1522.09 577.8 1520.67 583.5 1519.73 583.35 1519.21 578.21 1517.87 582.84 1517.54 575.68 1516.16 580.57 1515.83 573.85 1514.79 574.89 1513.32 580.41 1512.49 579.2 1512.15 573.03 1511.02 574.91 1509.26 582.92 1508.29 583.07 1507.49 581.55 1507.56 571.99 1506.41 573.89 1504.98 578.35 1504.18 577.01 1502.66 582 1502.91 571.52 1502.04 570.96 1499.62 583.41 1499.39 577.37 1499.11 571.93 1498.37 570.25 1496.35 578.82 1495.37 579.03 1494.46 578.73 1494.04 574.62 1492.68 577.73 1492.05 575.29 1491.62 571.49 1489.24 581.9 1489.04 576.5 1488.8 571.4 1487.14 576.4 1486.16 576.59 1485.58 574.04 1484.27 576.46 1484.2 570.53 1483.6 568.28 1481.48 575.99 1480.89 573.61 1479.59 575.85 1479.7 569.1 1477.84 574.79 1476.61 576.53 1476.41 571.87 1475.46 571.84 1474.99 568.92 1473.29 573.46 1472.98 569.61 1471.82 570.84 1470.18 574.84 1468.75 577.52 1469.78 566.16 1467.93 571.29 1467.82 566.55 1465.89 572.02 1465.61 568.24 1465.22 565.17 1464.15 565.82 1462.61 569.05 1461.29 571.01 1459.9 573.28 1458.75 574.3 1458.53 570.35 1458.61 564.93 1457.61 565.2 1455.59 570.69 1454.39 571.9 1453.35 572.35 1452.07 573.95 1451.62 571.35 1451.41 567.55 1450.17 568.95 1448.1 574.47 1448.43 568.04 1448.09 565.03 1445.47 573.18 1445.11 570.19 1443.87 571.53 1443.23 570 1442.85 567.16 1440.88 572.02 1442.01 561.93 1440.58 564.19 1438.37 570.17 1437.6 569.24 1438.28 561.39 1437.46 560.72 1435.18 566.98 1435.8 559.46 1433.29 566.79 1431.37 571.36 1432.65 560.72 1429.48 571.18 1428.67 570.43 1427.98 569.12 1427.37 567.47 1426.29 568.02 1427.17 559.28 1425.86 560.91 1423.53 567.41 1423.56 562.69 1421.47 568.02 1422.02 560.79 1421.05 560.85 1419.74 562.48 1418.88 561.96 1417.09 565.95 1416.21 565.57 1416.4 559.99 1416.29 555.83 1412.9 567.67 1412.66 564.13 1412.61 559.64 1410.27 566.44 1410.71 559.45 1410.56 555.4 1408.43 561.2 1407.04 563.38 1406.36 561.94 1407 553.73 1405.89 554.44 1403.26 563.04 1402.33 562.91 1401.4 562.74 1400.83 560.71 1400.16 559.16 1399.49 557.58 1398.5 557.69 1397.29 559.04 1395.69 562.53 1394.76 562.39 1395.09 555.19 1392.94 561.94 1392.76 557.47 1391.8 557.5 1390.15 561.51 1390.98 550.96 1388.68 558.94 1389.14 550.36 1387.5 554.45 1387.21 550.23 1385.99 551.84 1385.33 549.87 1382.95 558.95 1381.8 560.27 1380.75 560.94 1380.91 553.46 1380.59 549.07 1378.94 553.76 1377.78 555.19 1376.95 554.29 1375.65 556.75 1375.57 550.34 1374.48 551.24 1372.88 556.06 1372.35 552.83 1371.87 549.07 1370.13 555.22 1369.72 550.81 1367.82 558.57 1367.48 553.41 1366.52 553.49 1365.93 550.28 1364.74 552.33 1363.24 557.34 1362.91 551.47 1362.24 548.66 1360.8 553.38 1360.4 547.75 1359.25 549.7 1358.61 546.26 1357.35 549.44 1356.67 546.28 1355.72 546.09 1354.38 550.55 1353.66 547.67 1352.36 551.94 1351.01 557.03 1350.23 554.94 1349.11 557.26 1348.72 549.62 1347.59 552.14 1346.53 553.88 1345.78 550.78 1344.89 549.77 1343.65 554.51 1342.62 556.04 1342.08 548.91 1340.94 552.41 1339.86 554.97 1339.14 550.35 1338.11 552.04 1337 555.89 1336.01 556.96 1335.15 555.2 1334.26 553.8 1333.25 555.75 1332.29 556.19 1331.55 549.94 1330.46 554.64 1329.64 550.17 1328.66 551.22 1327.77 548.81 1326.77 551.27 1325.85 549.32 1324.97 544.76 1323.92 551.41 1322.99 549.54 1322.01 553.21 1321.05 554.04 1320.12 552.08 1319.18 550.77 1318.24 547.13 1317.28 550.86 1316.33 549.99 1315.37 546.15 1314.4 544.43 1313.44 544.88 1312.5 547.5 1311.54 547.04 1310.71 556.76 1309.65 548.62 1308.83 556.55 1307.88 555.98 1306.76 547.39 1305.79 546.67 1304.88 548.64 1303.83 545.15 1302.92 546.86 1301.93 545.79 1301.11 550.12 1300.32 555.07 1299.01 544.51 1298.44 555.27 1297.12 545.39 1296.39 551.39 1295.64 556.09 1294.35 548.2 1293.29 545.78 1292.78 555.36 1291.39 546.2 1290.72 552.01 1289.74 551.53 1289.03 556.08 1287.94 553.44 1287.09 555.15 1286.24 556.91 1284.94 550.92 1284.2 554.35 1282.79 546.98 1281.81 546.71 1280.88 547.26 1280.57 556.87 1278.93 546.75 1278.61 555.94 1277.02 547.03 1276.3 550.24 1275.26 549.14 1274.11 546.71 1273.8 555.09 1272.87 555.4 1271.8 553.83 1270.55 550.2 1269.99 555.09 1269.34 558.64 1268.04 554.52 1267.14 555.22 1266.48 558.46 1265.62 559.48 1263.92 551.24 1263.08 552.42 1262.23 553.68 1261.37 554.63 1260.17 552.1 1259.29 552.95 1258.26 552.17 1257.97 558.9 1256.17 550.47 1255.11 549.52 1255.02 557.98 1253.28 550.39 1253.39 560.52 1251.31 549.97 1250.78 553.97 1250.14 556.84 1248.93 554.53 1248.66 560.59 1246.7 551.69 1245.63 550.64 1244.96 553.1 1244.64 558.56 1242.91 551.86 1241.8 550.49 1241.58 556.59 1239.94 550.83 1239.27 553.15 1238.96 558.37 1237.7 555.88 1236.24 551.7 1236.29 559.7 1235.61 561.79 1233.99 556.45 1232.31 550.78 1232.16 556.99 1230.71 553.16 1230.21 556.6 1229.99 562.02 1228.96 561.38 1228.27 563.28 1226.32 555.91 1225.12 554.17 1224.74 558.27 1223.78 558.17 1223.18 560.65 1222.09 559.64 1221.63 563.07 1219.83 557.17 1219.14 558.98 1217.8 556.34 1216.72 555.53 1216.96 563.53 1215.71 561.5 1214.63 560.64 1213.59 560.07 1213 562.45 1212.31 564.13 1211.52 565.17 1209.56 558.65 1209.5 564.35 1207.01 554.66 1207.89 566.22 1205.93 559.92 1205.29 561.83 1204.25 561.33 1202.9 558.92 1202.6 562.95 1200.89 558.35 1199.59 556.35 1200.07 564.91 1198.11 559 1197.82 562.94 1196.29 559.62 1195.08 558.16 1195.61 566.8 1194.77 567.47 1193.01 562.83 1191.32 558.67 1191.01 562.4 1191.02 567.8 1190.09 567.99 1189.06 567.53 1188.22 568.19 1187.27 568.23 1185.89 565.88 1184.15 561.65 1184.76 570.17 1183.13 566.52 1182.54 568.55 1181.4 567.58 1180.19 566.24 1178.35 561.54 1177.16 560.38 1178.37 571.84 1176.76 568.41 1175.67 567.76 1175.36 571.11 1173.93 568.72 1172.71 567.36 1171.05 563.8 1171.13 569.17 1169.71 566.84 1168.08 563.49 1167.13 563.57 1167.5 570.3 1167.3 574.13 1165.67 570.78 1164.76 571.06 1163.72 570.67 1163.53 574.49 1161.62 569.82 1160.56 569.35 1160 571.34 1158.07 566.64 1158.13 571.59 1157.38 572.65 1156.24 571.82 1156.15 576.01 1152.75 564.32 1153.58 572.92 1151.91 569.56 1151.15 570.57 1149.76 568.55 1150.36 575.97 1148.29 570.77 1147.89 573.41 1146.85 573.1 1145.47 571.18 1144.89 572.96 1143.65 571.72 1143.76 576.69 1143.21 578.61 1141.56 575.49 1141.31 578.77 1138.83 571.84 1139.59 579.72 1138.37 578.58 1136.81 575.91 1134.15 568.29 1135.15 577.19 1133.95 576.14 1133.06 576.49 1130.44 569.12 1131.28 577.21 1130.74 579.13 1129.26 576.87 1127.03 571.28 1126.79 574.55 1125.51 573.2 1124.51 573.08 1125.11 580 1123.08 575.36 1121.87 574.35 1120.67 573.33 1121.61 581.7 1118.56 572.64 1117.45 572.08 1118.67 581.62 1117.13 579.13 1114.71 572.93 1114.08 574.42 1115.45 584.51 1114.06 582.69 1111.65 576.52 1112.09 582.59 1110.39 579.46 1110.82 585.43 1109.57 584.27 1108.24 582.73 1105.53 575.35 1105.83 580.75 1105.65 584.13 1104.93 585.17 1102.35 578.39 1103.32 586.61 1100.23 577.69 1100.64 583.52 1099.5 582.8 1098.67 583.41 1098.59 587.16 1095.39 577.84 1094.72 579.15 1094.59 582.67 1095.24 589.42 1093.17 584.87 1092.78 587.29 1090.45 581.68 1089.79 582.98 1090.47 589.83 1088.97 587.64 1086.94 583.28 1085.86 582.88 1086.71 590.4 1084.47 585.19 1084.14 587.85 1082.44 584.88 1081.79 586.21 1082.17 591.75 1079.48 584.74 1078.5 584.73 1078.45 588.54 1076.28 583.67 1076.73 589.5 1076.6 592.92 1075.45 592.21 1073.2 587.06 1072.85 589.59 1072.36 591.58 1069.59 584.31 1071.01 594.03 1067.6 584.15 1067.7 588.52 1068.25 594.71 1065.68 588.28 1065.88 593.03 1063.94 589.13 1062.03 585.38 1061.1 585.6 1062.03 593.28 1060.35 590.45 1058.63 587.5 1057.96 588.72 1056.49 586.75 1057.51 594.77 1056.05 592.83 1054.25 589.55 1054.07 592.73 1053.85 595.78 1052.92 595.97 1051.4 593.81 1050.13 592.66 1050.4 597.65 1049.18 596.69 1048.81 599.12 1047.9 599.37 1045.78 594.86 1044.34 593 1042.61 590.05 1044.25 600.44 1042.71 598.23 1042.53 601.4 1039.83 594.57 1039.8 598.36 1038.59 597.43 1037.28 596.13 1037.43 600.61 1035.84 598.19 1034.22 595.65 1032.56 592.98 1034.43 604.25 1032.72 601.37 1029.88 594.04 1031.83 605.6 1029.6 600.67 1027.21 595.1 1027.17 598.84 1026.26 599.12 1025.59 600.32 1023.5 595.96 1024.6 604.15 1021.91 597.45 1023.53 607.67 1020.2 598.45 1019.16 598.21 1019.34 602.77 1019.44 607.02 1016.83 600.63 1018.03 609.2 1017.17 609.66 1015.3 606.14 1014.78 607.96 1011.46 598.77 1010.58 599.16 1011.32 605.89 1011.65 611.05 1010.46 610.2 1008.45 606.16 1008.34 609.58 1005.49 602.24 1004.27 601.28 1004.75 606.99 1002.78 603.14 1001.39 601.54 1002.09 608.1 1001.63 610.12 999.94 607.36 998.52 605.61 997.9 607.04 997.39 608.88 995.99 607.23 994.9 606.79 994.15 607.7 995.1 615.23 992.99 610.8 991.39 608.38 990.43 608.48 989.81 609.87 987.56 604.9 987.06 606.78 986.28 607.56 987.23 615.11 984.83 609.56 982.77 605.33 984.51 615.96 982.64 612.48 981.34 611.26 982.07 617.91 979.92 613.34 978.64 612.18 978.27 614.56 977.05 613.63 974.49 607.45 973.92 609.05 975.09 617.43 972.87 612.62 971.72 611.94 972.47 618.7 969.58 611.24 970.83 619.95 968.63 615.21 968.03 616.67 965.93 612.29 966.91 619.95 965.83 619.55 962.95 612.16 961.9 611.88 963.13 620.49 962.49 621.84 960.01 616 958.82 615.16 958.24 616.79 956.74 614.78 957.44 621.31 955.7 618.35 953.93 615.32 953.82 618.68 953.38 620.79 951.9 618.8 952.6 625.33 950.59 621.35 948.09 615.44 948.52 620.9 947.31 619.99 947.55 624.69 946.96 626.15 944.12 618.96 945.06 626.34 943.87 625.51 942.76 625.02 940.66 620.71 939.23 618.99 940.68 628.25 938.75 624.61 939.13 629.78 937.76 628.27 934.05 617.84 935.71 627.88 934.11 625.52 932.9 624.62 932.87 628.19 931.51 626.73 929.32 622.1 929.83 627.75 927.01 620.73 928.17 628.85 927.85 631.29 925.81 627.27 923.64 622.75 922.91 623.67 921.96 623.75 921.36 625.2 920.7 626.37 920.95 631 918.99 627.31 917.66 625.95 919.04 634.84 916.74 629.84 915.7 629.61 915.5 632.52 914.85 633.77 911.3 624.01 910.57 624.94 909.81 625.75 911.29 635.04 908.9 629.7 909.55 635.81 908.42 635.23 907.07 633.81 904.47 627.67 905.29 634.47 902.49 627.54 901.24 626.5 901.17 629.91 901.47 634.72 900.5 634.74 898.42 630.55 899.8 639.48 895.77 627.88 896.63 634.84 897.1 640.33 896.22 640.68 893.33 633.41 892.12 632.51 892.01 635.8 891.42 637.26 890.72 638.27 890.28 640.32 889.57 641.32 887.4 636.77 885.43 632.95 884.07 631.47 884.51 636.88 883.5 636.73 884.41 643.98 882.98 642.2 879.68 633.28 879.48 636.25 880.44 643.71 879.07 642.17 877.12 638.38 876.75 640.73 875.53 639.78 874.64 640.12 872.9 637.12 874.16 645.81 870.75 636.32 871.56 643.27 869.6 639.41 869.63 643.33 868.72 643.61 865.76 635.77 866.4 642.13 867 648.36 864.41 641.96 864.84 647.54 863.73 647.01 860.68 638.75 859.73 638.84 858.64 638.36 859.02 643.78 858.53 645.76 858.56 649.78 856.78 646.54 856.71 650.2 855.09 647.62 852.43 640.77 853.58 649.41 850.84 642.2 850.15 643.35 848.63 641.1 849.42 648.34 847.11 642.86 847.16 647.05 846.49 648.32 846.49 652.36 845.36 651.7 844.41 651.82 842.4 647.49 840.65 644.24 839.89 645.15 838.71 644.24 837.76 644.35 836.88 644.74 836.11 645.58 837.54 655.81 836.55 655.75 835.63 656 832.67 647.5 833.18 653.87 830.18 645.13 830.33 649.97 829.58 650.96 828.5 650.48 827.44 650.12 826.16 648.75 826.4 654.07 825.6 654.83 822.87 647.07 824.35 657.89 822.13 652.38 822.35 657.65 820.35 653.08 818.92 651.03 817.45 648.76 817.42 652.97 818.09 660.35 816.72 658.57 815.69 658.32 814.64 657.97 812.07 650.68 811.35 651.82 812.41 661.1 811.2 660 808.56 652.3 808.31 655.66 806.58 652.13 806.11 654.43 805.38 655.54 804.12 654.18 802.87 652.84 801.66 651.69 801.21 654.13 801.3 659.14 799.57 655.52 797.89 652.16 797.33 654.1 797.12 657.72 795.98 656.87 795.2 657.79 795.32 663.03 793.18 657.38 793.48 663.56 790.84 655.41 789.57 653.96 789.51 658.39 788.99 660.59 789.18 666.25 786.28 656.79 785.46 657.49 786.39 666.91 783.36 656.67 784.28 666.07 783.27 665.88 782.23 665.52 779.97 659.07 778.78 657.93 779.59 666.9 777.19 659.85 775.43 656.06 775.21 659.81 774.7 662.05 775.19 669.08 773.59 666.07 773.24 668.98 771.85 667 769.26 659.52 768.38 659.99 769.44 669.32 767.77 666.17 767.71 670.25 766.75 670.27 765.63 669.63 764.26 667.84 761.4 659.64 763.21 671.69 761.59 668.92 759.58 664.53 757.72 660.81 759.17 671.04 756.36 663.38 755.96 665.8 756.47 671.91 752.95 661.58 752.44 663.53 753.67 672.36 751.03 665.75 749.34 662.98 750.5 671.41 749.05 669.58 746.74 664.44 746.86 668.69 747.62 675.29 746.17 673.5 743.77 668.17 743.25 669.92 743.54 674.61 740.69 667.76 741.8 675.42 738.38 666.6 737.27 666.21 736.27 666.2 736.87 671.85 735.48 670.43 733.75 667.89 735.29 676.64 733.23 672.95 732.56 674.04 731.26 672.99 730.92 675.16 729.48 673.66 730.11 679.03 727.71 674.38 728.33 679.64 726.74 677.68 726.87 681.28 724.37 676.43 724.84 681.06 721.07 672.27 723 681.47 718.62 670.91 717.96 672.01 720.5 682.87 719.19 681.87 718.42 682.53 716.58 679.98 713.96 675.14 712.86 674.89 711.63 674.24 714.06 684.28 713.61 685.86 711.83 683.6 708.56 677.12 710.15 684.51 707.24 679.11 709.03 686.94 704.14 676.16 707.08 687.07 703.62 680.34 705.05 686.97 700.66 677.86 700.59 680.4 701.97 686.77 701.86 689.14 700.7 688.73 698.68 686.09 696.81 683.88 694.69 681.07 695.61 686.04 694.7 686.3 692.93 684.42 693.04 687.26 693 689.67 690.3 685.57 691.27 690.43 691.05 692.35 687.71 686.77 685.26 683.41 687.6 691.39 687.12 692.66 684.3 688.49 685.34 693.27 685.13 695.13 682.96 692.52 683.21 695.4 682.28 695.61 677.28 686.83 676.51 687.46 677.97 692.93 677.59 694.38 675.86 692.9 674.63 692.52 674.33 694.1 672.89 693.28 670.97 691.5 674.8 701.55 672.63 699.25 672.62 701.33 670.36 698.89 667.74 695.78 668.11 698.63 664.29 693.27 668.83 704.12 667.7 703.96 667.03 704.68 664.09 701.14 660.82 697.08 663.77 704.5 662.69 704.47 663.19 707.29 656.73 697.68 657.01 700.15 659.55 706.51 655.56 701.5 656.2 704.49 656.73 707.23 653.33 703.4 656.11 709.81 651.91 704.75 649.38 702.5 653.43 710.75 652.04 710.29 648.42 706.42 646.48 705.22 647.35 708.28 649.04 712.5 643.79 706.48 643.08 707.18 648.69 716.81 643 710.44 645.84 715.96 646.1 717.85 638.52 709.3 642.78 716.48 639.67 714.01 643.38 720.2 636.88 713.63 637.26 715.62 639.89 720.19 637.46 718.78 634.97 717.39 632.61 716.25 638.83 724.34 636.67 723.34 636.74 724.67 630.93 720.23 633.47 723.98 633.65 725.38 627.19 720.92 630.72 725.24 627.27 723.68 630.19 727.18 631.86 729.49 628.97 728.54 625.53 727.46 632.19 732.5 628.58 731.4 621.67 729.07 623.45 731.09 626.04 733.15 629.96 735.2 630.12 735.85 630.92 736.49 629.71 736.84 624.06 737.6 624.79 738.5 622.12 740.17 628.44 739.12 628.14 739.92 628 740.79 628.18 741.58 628.93 741.95 627.61 744.5 627.23 746.52 626.21 749.23 630.94 745 632.62 744.52 635.5 742.7 634.47 745.36 636.93 744.12 634.99 747.69 633.31 750.85 630.52 755.03 633.11 753.67 639.46 748.72 640.08 749.51 637.46 753.3 634.27 757.45 634.97 757.98 635.54 758.64 641.48 754.86 641.06 756.44 638.82 759.37 646.72 754.59 637.34 762.63 646.14 757.55 639.56 763.14 642.77 762.11 643.64 762.64 645.41 762.68 650.04 761.21 649.01 762.95 648.73 764.23 643.41 767.81 644.94 768.08 652.43 765.99 648.64 768.57 642.28 771.8 652.77 769.29 651.94 770.64 643.11 773.97 646.16 774.08 646.29 774.92 651.86 774.87 643.24 777.05 651.78 776.92 651.43 777.95 648.23 779.08 650.17 779.95 648.63 780.87 648.17 781.76 644.01 782.34 645.83 783.31 648.79 784.54 647.49 785.26 644.81 785.66 648.47 787.3 652.74 789.3 647.88 789.06 643.05 788.57 652.62 792.55 648.1 792.07 650.93 794.16 644.4 792.63 647.09 794.74 650.72 797.43 641.5 794.17 642.46 795.6 645.26 798.07 644.18 798.55 641.43 798.06 643.91 800.56 641.82 800.39 638.32 799.24 639.73 801.2 642.63 804.26 645.35 807.33 642.94 806.84 639.01 805.16 639.62 806.78 642.89 810.52 637.17 807.26 634.51 806.28 634.33 807.3 634.73 808.83 638 812.88 638.83 814.92 634.24 812.11 634.28 813.42 634.89 815.3 634.27 816.03 628.59 811.88 634.68 819.13 626.84 812.69 632.97 820.2 626.17 814.6 627.99 817.82 631.51 822.92 623.25 815.49 626.22 820.05 624.87 819.97 624.36 820.8 623.41 821.15 622.95 822.04 622.02 822.4 622.35 824.22 625.6 829.53 617.5 821.38 620.48 826.42 617.88 824.75 621.68 830.91 621.07 831.69 619.28 831 613.33 825.02 613.25 826.43 616.45 832.07 614.52 831.13 616.74 835.61 616.68 837.13 609.93 829.75 609.1 830.21 612.05 835.77 606.58 829.92 612.59 839.76 610.89 839.07 608.45 837.32 609.9 841 607.26 838.95 604.45 836.6 601.77 834.41 601.51 835.69 603.3 839.93 604.31 843.09 600.82 839.67 597.68 836.72 602.74 845.91 597.94 840.47 595.19 838.04 598.13 844.18 593.13 838.31 599.27 849.41 594.27 843.5 591.71 841.28 592.89 844.85 595.97 851.4 589.73 843.41 587.53 841.71 589.12 845.96 589.98 849.11 589.66 850.39 587.04 848 584.6 845.85 584.24 847.07 587.78 854.62 587.6 856.17 586.17 855.67 583.24 852.68 583.71 855.29 581.37 853.27 580.71 854.01 577.94 851.23 576.26 850.26 579.89 858.21 576.77 854.81 577.63 858.13 574.15 854.11 577.36 861.45 576.91 862.59 572.61 857.1 569.95 854.4 571.13 858.33 568 854.8 570.47 860.99 566.57 856.08 571.01 865.78 567.53 861.6 564.77 858.66 568.78 867.66 563.38 860.04 561.01 857.76 563.18 863.56 563.84 866.67 559.71 861.23 559.38 862.58 562.82 870.72 560.25 868.05 558.21 866.33 560.1 871.73 558.92 871.57 552.92 862.63 554.66 867.77 555.45 871.19 552.66 868.07 554.54 873.51 553.53 873.64 552.33 873.43 547.47 866.45 550.43 873.93 548.69 872.7 548.68 874.7 545.42 870.64 545.52 872.82 545.97 875.68 546.05 877.85 545.43 878.71 543.24 876.63 540.42 873.35 542.65 879.58 541.65 879.74 537.61 874.11 538.32 877.5 536.21 875.53 536.13 877.42 538.3 883.59 531.92 873.46 536.92 885.08 533.53 880.64 531.1 878.03 533.79 885.25 528.28 876.71 532.44 886.78 527.63 879.59 525.67 877.87 527.61 883.68 523.88 878.53 528.44 889.42 523.92 882.74 521.28 879.68 522.24 883.62 522.91 887 521.17 885.7 521.85 889.1 519.83 887.24 518.73 887.18 517.74 887.33 517.67 889.28 516.37 888.82 513.88 886.02 516.66 893.58 512.68 887.85 514.28 893.08 512.11 890.91 510.11 889.07 511.38 893.69 511.5 896.02 506.98 889.2 510.13 897.51 509.83 899.02 508.37 898.25 504.81 893.33 503.2 892.24 501.86 891.69 500.45 891.01 500.55 893.3 499.47 893.26 501.63 899.67 497.39 893.37 500.13 900.9 497.43 897.65 498.23 901.35 493.05 893.19 497.84 904.81 493.65 898.59 495.8 904.99 491.29 898.13 490.11 897.88 493.49 906.74 490.7 903.3 489.32 902.65 487.07 900.29 488.02 904.3 485.96 902.31 487.62 907.75 486.42 907.46 482.04 900.85 482.75 904.39 481.43 903.87 482.02 907.16 479.93 905.11 478.96 905.3 478.94 907.37 477.37 906.35 479.2 912.13 478.55 912.93 478.18 914.32 477.28 914.63 471.82 905.88 471.91 908.17 471.04 908.55 468.85 906.31 468.14 907 466.88 906.61 470.35 915.63 469.87 916.79 467.78 914.75 466.23 913.78 465.45 914.35 463.36 912.29 462.25 912.2 465.56 920.9 459.48 910.93 459.73 913.54 457.7 911.62 460.74 919.76 458.78 917.99 458.6 919.73 456.97 918.6 457.2 921.16 456.93 922.72 452.4 915.88 453.27 919.69 452.63 920.54 452.91 923.19 448.33 916.25 450.71 923.03 449.65 923.04 446.86 919.66 446.35 920.75 447.24 924.58 446.56 925.32 447 928.27 443 922.52 441.75 922.16 445.35 931.29 442.37 927.53 440.04 925.07 442.18 931.32 436.57 922.47 440.4 932 439.83 932.95 436.24 928.05 435.97 929.59 435.14 930.06 435.32 932.45 431.5 927.13 431.56 929.31 428.99 926.42 430.07 930.56 431.85 936.03 428.95 932.52 426.81 930.46 425.29 929.59 427.19 935.29 423.62 930.49 424.59 934.39 426.77 940.6 424.06 937.46 423.07 937.61 424.32 942.02 420.24 936.29 421.32 940.37 418.16 936.41 419.95 941.83 417.06 938.38 418.12 942.41 415.65 939.77 416.2 942.82 415.94 944.34 412.2 939.33 412.51 941.93 412.53 943.96 412.61 946.12 410.07 943.38 406.29 938.34 408.33 944.13 405.93 941.67 406.42 944.58 406.75 947.17 403.89 943.88 405.93 949.62 403.22 946.6 403.07 948.32 398.73 942.32 402.86 951.87 401.52 951.39 398.6 948.01 398.39 949.61 395.37 946.08 393.42 944.49 393.89 947.33 394.06 949.59 394.41 952.17 392.08 949.92 393.18 953.84 394.68 958.47 388.74 949.78 390.72 955.26 388.19 952.69 388.32 954.85 387.77 955.79 388.09 958.28 383.7 952.46 382.14 951.63 383.92 956.67 383.92 958.59 380.31 954.18 384.24 962.95 382.32 961.49 382.19 963.15 378.7 959 375.3 955.02 376.52 959.02 379.7 966.37 377.85 965.06 376.28 964.24 375.39 964.59 372.53 961.58 374.52 966.83 371.02 962.76 370.58 963.87 371.43 967.15 368.5 964.08 371.26 970.55 370.99 971.92 366.73 966.66 368.21 970.95 368.2 972.75 365.88 970.73 364.92 970.96 360.64 965.76 362.73 971 364.75 976.1 358.26 967.34 360.44 972.68 361.14 975.61 360.29 976.01 357.8 973.79 354.86 970.87 356.98 976.03 357.65 978.87 354.91 976.28 354.41 977.26 352.17 975.49 355.01 981.7 350.88 976.98 350.24 977.74 351.85 981.97 345.54 973.96 345.86 976.21 350.3 984.74 343.54 976.13 348.73 985.76 345.55 982.63 346.81 986.24 340.85 978.97 339.12 978.09 343.51 986.36 341.68 985.31 342.06 987.55 341.2 987.96 340.01 987.88 336.35 984.2 338.94 989.63 337.51 989.22 333.47 985.03 336.49 991.02 333.55 988.46 332.53 988.66 331.53 988.88 332.39 991.72 327.99 987.17 331.45 993.64 330.48 993.9 330.59 995.65 329.05 995.13 325.31 991.59 325.66 993.67 322.6 991.12 324.82 995.72 325.02 997.56 324.95 999.04 319.35 993.15 322.96 999.5 322.13 999.96 322.33 1001.77 319.9 1000.13 315.72 996.28 316.23 998.49 316.01 999.75 314 998.73 315.99 1002.77 317.71 1006.44 314.91 1004.43 310.73 1000.75 310.04 1001.43 310.13 1003.05 307.81 1001.73 314.41 1011.21 307.84 1004.77 309.28 1007.98 304.57 1003.87 306.8 1007.97 309.36 1012.41 303.64 1007.22 304.29 1009.43 305.63 1012.4 304.56 1012.61 303.69 1013.05 299.27 1009.52 305.55 1017.92 304.67 1018.33 297.04 1011.37 301.76 1017.9 301.16 1018.63 299.71 1018.45 293.46 1013.21 293.24 1014.39 299.98 1022.78 298.9 1022.98 293 1018.29 296.99 1023.69 298.03 1026.04 296.29 1025.6 296.1 1026.71 287.64 1019.76 294.07 1027.31 286.14 1021.02 289.52 1025.55 286.42 1023.95 292.03 1030.44 284.66 1024.95 290.55 1031.58 285.48 1028.28 286.54 1030.49 283.65 1029.21 284.79 1031.46 283.71 1031.78 280.47 1030.28 283.67 1034.21 282.14 1034.17 284.21 1037.06 284.9 1038.79 278.72 1035.08 276.7 1034.71 278.72 1037.49 279.82 1039.52 276.48 1038.19 273.23 1036.99 275.55 1039.88 274.14 1040.05 277.4 1043.52 277.08 1044.43 270.23 1040.9 276.48 1046.26 269.29 1042.65 273.59 1046.6 276.85 1049.77 269.6 1046.33 276.08 1051.41 266.89 1046.98 272.64 1051.48 269.83 1050.94 273.95 1054.34 272.37 1054.5 266.36 1052.32 273.26 1057.02 270.24 1056.48 271.67 1058.22 264.18 1055.59 261.25 1055.29 272.15 1061.4 266.31 1059.76 266.74 1060.97 270.41 1063.52 264.19 1061.94 267.9 1064.42 266.25 1064.76 268.88 1066.71 267.31 1067.09 263.44 1066.72 262.75 1067.49 268.19 1070.18 256.58 1067.62 258.46 1069.22 264.42 1071.86 261.71 1072.11 259.25 1072.48 266.24 1075.08 263.77 1075.44 258.12 1075.23 259.43 1076.48 254.95 1076.68 265.45 1079.38 254.23 1078.64 260.34 1080.16"/>
    <path class="cls-9" d="M25.3,1080.16H1141.54l2.11-.29L1140,1078l1.84-.42-3.15-2.74,2.15-.11,4,1.44.47-.75,3.71,1.79-3.78-4.2,2.15.63-2.15-3.22-2.34-3.62,2.15.65,1.56.14,6.3,5.22-4-5.6,1.57.29-2.3-4,6.67,6.16h1.23l-3.17-5.21,0-1.56,2.78,1.87-3-5.21,4.56,4.15,3.43,2.82-6.68-10.11,2.68,1.85,2.55,1.72.23-1.29-1.4-3.48,7.11,7.9-4.57-7.76.91-.41-.2-1.93,5.22,5.52-3-5.74,1.24,0,5.52,6-5.17-8.89,1.6.58.28-1.29,5.64,6.31-4-7.38,1.91,1,.39-1.14.66-.75,4.19,4.33-2.52-5.33,1.14,0,4.15,4.3,2,1.18.72-.65-2.42-5.21,4.48,4.81-1.13-3.34-3.55-6.87,7.09,8.61-4.08-7.65-.53-2.46,1.21,0,2.64,2.14,3.07,2.77-.06-1.8-.14-1.9-1.65-4.1,3.13,2.85-.49-2.41,2.07,1.31,2.63,2.1,2.19,1.46,1-.24-3.46-6.65,3.92,3.94-.19-2,2.71,2.19-6.13-10.4,6.43,7.47-4.43-7.94,6.77,7.9-5.2-9,.51-.92,7.65,9-5.34-9.06.84-.46,4.38,4.41-3.46-6.37.48-.94,7.31,8.31-.26-2-4.83-8.08,5.84,6.2-.42-2.15-2-4.17,6.78,7.28-2.17-4.4-.32-2-1.71-3.73,6.7,7,.67-.73-1.65-3.62-2.2-4.22.59-.76-.13-1.62,4.81,4.28-.69-2.29,4.43,3.68-.64-2.23,1-.38.12-1.33,2.21,1,1.08-.3,1.16-.24-1.38-2.89-.21-1.62-3.64-5,2.72,1.39-2.23-3.39,9.63,7.69-7.36-8,8.49,6.19-.48-1.79-4.19-4.7.63-.67-1.9-2.53,9.64,5.7-7.87-6.51,5,2.07,4.32,1.28-2.15-2.43-4.93-3.43,3.29.45-2.23-1.73,8,1.27-7-2.63,7.61-.06-8-1.45-.12-.67,6.75-2.1L1230,992.3l2.63-1.49,5.36-3.87-8.24,4.41,3.17-3.32,1.21-2.41-5.56,4.85,2.71-4.48.48-2.28,1.86-4.89-1.52.23-1.14-.29-1.44.42-4,6.33-.54-1-1.7,1.94,2.68-9.91-.6-1.52-4.12,9.38-1.07.44-.14-2.74.69-6.14-.39-2.59-3.26,9.1.29-5.4-.23-3.55-3.16,10.24-.71-1.13.2-6-.26-4.08-2.39,8,.15-6.4-.85-.56-.82-.67-.56-1.92-2.3,6.58.49-6.82-1.21,1.21-2.11,5,.56-6.5-1.78,3.39-2.84,7.36.6-6.24-2.1,4.12.54-5.63-.94-.15-.4-2-.79-.61-2.74,5.72,0-3.4-2.12,3.48.4-4.33-2.55,4.54,1.48-7.27-1.41,1.18-2.91,5.25-1.34.76-.68-1-1.14.2,1.87-7.48-3.07,5.13,2.06-7.64-.75-.61-2.29,3-2.46,3.28-1.28.49-.3-1.73,2.76-8.43-1,0-3.63,5.54,1.71-5.79-4.19,6.48,1.6-5.43.59-3.26-5,7.83.34-2.81,2.22-6.28-1.49.82-3.62,4.76.17-2.32,1.4-4.48L1166.8,959l-1.5.72-1.59.86-1.75,1.1-.47-1.12,1.8-4.88.37-2.44-2.11,1.68-6,7.91.51-2.67,4.51-8.95-4.44,5.2-2.68,2.38,4-7.87-2.28,1.75.26-2.09-4.48,4.94,1.7-4.2-.86-.44-2.71,2.23,3-5.94-1.43.39-4.65,4.9.55-2.42-.27-1.27-1.34.19-.85-.46-3.81,3.5,4.28-7.33,1.45-3.49-5.9,6.2-.23-1.3,1.74-3.82-.46-.95,1.27-3.15-2.26,1.33-4.85,4.58-1.53.35-.27-1.21-2.57,1.62-.66-.74,5.7-8.44-4.62,4.08,3.57-5.78-6.73,6.54,4.73-7.12-5.81,5.39-1-.37,3.19-5.21,2.29-4.12-4.06,3.25-5,4.31,3.87-5.91-5.58,4.91.88-2.47,3.18-5,.32-1.79-4.32,3.39,3.58-5.42-2.4,1.24-1.47.2-.76-.57-2.26,1.05-.14-1.27-3.57,2.46-1-.31,1-2.53-1.2-.13,4.2-5.92-7.66,6.8,1.31-2.81.52-2-3.46,2.28,1.19-2.67-1.35,0,4.19-5.82-1.08-.24-1.46.14,2.36-3.86-6.14,5-3.47,2.23,2.14-3.62-2,.7,4.11-5.65-6.73,5.6.54-2,.29-1.68,2.71-4.18-2.63,1.34,0-1.36,2.26-3.7-2.55,1.25-5.62,4.4-1.15-.2-1-.39,2.65-4.09-2.84,1.53.69-2.08,4.84-6.34-6.48,5.27-.29-1.08-3,1.69,6.87-8.42-2.39,1.07-3.23,1.94-4.14,2.88.46-1.85v-1.39l4.68-6.2-.33-1-4.65,3.42,1.51-2.94.66-2.07-.65-.72-8,7,6.2-7.82-2.94,1.67-2.88,1.61-1-.37-3.44,2.21,4.42-6-2.16.87,1.24-2.7-1.58.28.87-2.32-.31-1.07-7.08,6.1,4.91-6.61-4.1,3-3.4,2.25,3.77-5.44-2.54,1.32-1.65.38,4.14-5.89.67-2.16-6.29,5.43,5.16-7.06-2.87,1.71L1062,879l1.44-3,.6-2.09,1.31-2.9.37-1.86-.84-.51-1.23-.07-2.17,1,.81-2.37-3,2-2.51,1.43,4.9-7.11-4.06,3.21-2.63,1.59.17-1.68h-1.24l-.52-.87-.13-1.33,0-1.55-2.46,1.44,2.52-4.53.3-1.89-5.69,5.4,1.87-3.79-.6-.8-4.07,3.52.49-2.13,1.66-3.62-3.94,3.42-.95-.33,1.11-3-.8-.54,1.15-3.06-2.25,1.35-3,2.35,1.8-4,.9-2.8-3,2.41,1.46-3.59-2.06,1.16-4.35,4.34,3.85-7-4.08,4-2.06,1.25-.78-.53,3.81-7.09.33-2.18-7.67,9.4,4.62-8.42-1.67.74,1.79-4.41-5.54,6.54-.5-1-2.5,2.09,2.05-4.9,1.74-4.49-4.88,5.84-2.61,2.36-.78-.51,1.2-3.73-2.79,2.74,2.23-5.49.71-3-5.17,6.82v-1.85l.26-2.31,2.4-6.09-2.29,2,0-2.06v-2l-3.71,4.7-2.9,3.33-.35-1.33.25-2.49,1.07-4.07-1.58.92.5-3.08-1.85,1.48-3.27,4.36,2.3-6.77-4,5.92,2.12-6.57-5.11,8.49,1.72-5.86-.31-1.63-.57-1.07-.71-.78-1.91,1.92-.38-1.54-1.71,1.55-2.17,2.68,1.43-5.85-.3-1.82.19-3.07-2.82,4.4,1.15-5.58L990,822.08l-4.11,8.06,2.92-10.46-2.43,3.76L987,819l-2.73,4.64-.08-2.6-2.61,4.34-2,2.54,3-10.86L979,823.89l-.67-.93,1.42-6.64-2.35,3.6,1-5.45-4,8.13,1-5.46-1.66,1.74-.26-2L970.52,822l1.72-7.42-.14-2.37L970.44,814l-4.33,8.94,1.65-7.2-.36-1.79-1.75,2,.66-4.53-2.6,4.27.7-4.64-3.49,6.64,1.41-6.53-1.39,1-1.42,1.07-.09-2.49-2.28,3.39.81-4.92-.66-.94-1.76,2-2.74,4.62,2.16-8.51-2.25,3.28.64-4.42-4.55,9.43.06-2.87-.83-.51-1.89,2.33-1.27.67-1-.17.21-3.3,1.76-7.37-2.69,4.43-2.74,4.56,3.09-10.89-3.36,6.2-1.4,1,1.22-5.93-3.49,6.51,2.57-9.48-4.91,10.27-.34-1.79,1.51-6.68-1.39,1-3.42,6.32,1.38-6.33-.18-2.19-.35-1.78-4.6,9.39,3.44-11.7-5.08,10.65-.23-2.09-.29-1.9-.9-.32.82-4.8L922.32,801l-1.76,1.92-2,2.46.69-4.48-1.22.52,1.77-7.25-2.59,4.05-1.65,1.64,0-2.8.5-3.92L912.43,800l1.74-7.14L911.93,796l-2.78,4.5,1.7-7,.38-3.61-4.43,8.74,2-7.67-2.59,4-.72-.78.61-4.2-2,2.48L901.25,797l-.91-.31.85-4.8-.25-2-1.72,1.74-1.17.35-.71-.81.93-5-.53-1.26-5,10,.45-3.75-.85-.46-1.88,2.16,2.82-9.73L888.79,792l-.52-1.3-1-.14.59-4.1L886,788.68l-1.5,1.16.86-4.76.42-3.64-3.32,5.74-1.65,1.53,2.61-9.12-2.23,3-.38-1.62.08-2.8-4.06,7.55-1.71,1.7-.18-2.15,1.91-7.34-4,7.28-1.24.5,2.79-9.49-.5-1.35-.95-.22-3.65,6.5,1.38-6-.21-2-4,7.45-1.11.17-1.35.77,1.65-6.64-.92-.3-.56-1.16.25-3.17-1.46,1-2.09,2.59-1-.18.2-3-4.61,8.79-.94-.25,2.31-8.22-1.63,1.46-2.28,3.05-.89-.36,1.69-6.69-4.58,8.69h-1l1.61-6.48,1.37-5.89-1.12.18-2.64,3.93-.38-1.61-.48-1.37-4.58,8.66.32-3.33L843.7,765l-.77-.65-3.18,5.23-1.84,1.92,1.13-5.26.78-4.45-3,4.68-2.31,3.09.2-3,2-7.35-3.22,5.3-.64-1-1.82,1.89-1.83,1.91,1.79-6.85-1.33.7-1.39.84-1-.13-1.21.41-1.18.34,1.65-6.52-.73-.75-2.22,2.84-3,4.66,1.79-6.84-.36-1.66-3.73,6.49.79-4.42.24-3.09-4.75,8.95-1.25.49,1.39-5.89,1.58-6.3-1.84,1.91L811,758.56l1.23-5.48-1.18.32-3.56,6.06,1.2-5.4-3,4.78,1.29-5.63.69-4.15-1.46,1,.47-3.63-5.19,10,.91-4.7-1.47,1.05-.74-.74-1.67,1.53-.12-2.22-.66-.91-1.57,1.27,1.74-6.69-4.77,9,2.79-9.21-4.19,7.56-1.06.05,2-7.37-3.93,6.92,2.43-8.32-4.48,8.23,2.79-9.17-.88-.41v-2.5l-4.21,7.6,1.64-6.42-2.86,4.35-2.65,3.86,3-9.78-.28-1.84-2.57,3.66-2.35,3.14-2.2,2.77,3.57-11-4.94,9.34,3.42-10.68-1.68,1.52-1.72,1.63-3.28,5.34,1-4.77L770,741.7l2.64-8.79-3,4.56,1.4-5.83-3.73,6.41-2.38,3.2,1.94-7.13-.06-2.35-3.68,6.3.71-4.18-1.95,2.17.36-3.35-1.18.31-2.78,4.13-1.84,1.92,1.53-6.14,1.34-5.7-3.68,6.29,1.31-5.61-2.1,2.52-1.46,1-2.25,2.87,2.54-8.54L749.62,733l.82-4.44-3.15,5,1.35-5.73-2.11,2.55-.1-2.25-.64-1-1.59,1.3.69-4.13-3.66,6.23,3-9.67-5.39,10.35.69-4.13-2.15,2.63,2.62-8.74L737.34,725l-2.85,4.3,2.9-9.41-4.06,7.2,2.57-8.6-4.18,7.44-.88-.39,1.79-6.74-1.86,1.94-.51-1.29-4,7.06,2.1-7.5-3.12,4.94,2.47-8.38-4.28,7.71.76-4.31-1.09.08,1.08-5.08-3,4.61-.08-2.33-2,2.21,1.73-6.7-3.67,6.36,1.4-5.92-3.77,6.67-1.42,1,.27-3.2-.15-2.17.37-3.48-2.55,3.75-.34-1.7-.57-1.17-3.16,5.33,3.21-10.62-1.85,2.05L705,715.24l.46-3.75-1.66,1.62.91-5-2.24,3.1,1.85-7.39-4.21,8.2-1.68,1.71,1.64-6.94-2.33,3.42-1.3.73.5-4-2.79,4.69-.33-1.82.43-3.86-1.16.37.14-3.1-3.31,6.19.73-4.75-.11-2.48-.28-2-1.63,1.68-2,2.86.43-4,.09-3.12-1.62,1.69L681.73,707l.33-3.81.33-3.84-1.33.92-2.25,3.58,1.7-7.89-1.85,2.42-1.36,1v-3l-.39-1.85-4.78,11.25,2.55-10.68-.54-1.44-2.51,4.56-2.9,5.8,1.86-8.81-2.31,4.06-.34-2.08-1.72,2.24-1.28.92-.27-2.34-.89-.32-1.44,1.43-1.42,1.36-.61-1.23-1,.07,2-10-1.32,1-.44-1.9-4.52,11.92-.78-.7,1.81-9.64-1.55,1.89-.35-2.26-2.83,6.44,1-7.24-2.56,5.56.32-4.68-3.09,7.57-1,.23,1.22-8.12-2.93,7.19-.64-1.29.49-5.56-.76-.86-2.1,4.21.12-4.27L639,694.54l1.2-8.55L637,694.52l1.83-11.24-3.54,10.23,1.43-9.77L634.23,690l-1.5,2.15.58-6.53-.6-1.64-2.24,5.3-1.77,3.38.51-6.41-1.06.35-1.24,1.12-.3-3-.82-.73-.33-3-1.64,3,0-4.35-2.51,7,.31-6-2.86,8.77,1.14-10-.79-1-1.46,2.24-2.19,5.9-1.16.91-.2-3.84v-4.93l-.93-.29-2.33,6.83-.17-4.14-2.52,8-.06-4.78-.07-4.76-1.15.88-2.32,7.18-.38-3.2.11-5.9-1,0-2,5.81-1.38,2.3,1-11.49-1.76,4.41-1.53,3.25.25-7.13-.81-1-1.24,1.52-2.6,9.69-.52-2.67-.46-3.09-1.82,5.24-.7-1.68-1.26,1.86-.65-2-1.17,1.34-.66-2-1.16,1.26-.33-4.17,0-6.78-1.16,1.25-1.18,1.39-1,.06-.47-3.46-1.37,2.74-.93-.31-2,7.31-.48-3.47-.67-2.16-.56-2.94-1.38,2.9-.77-1.42-.91-.51-1.49,3.91L569,680l-.1-6.58-1.61,4.91-1.42,3.51-.18-6.17-1.73,6-.59-2.93L562,681.72l-.71-2.06-.67-2.38-1.23,2.14-.12-7-2,8.82-.56-3.36v-8.25l-.87-.87-1.46,4.15-.47-4.26-2.35,12-.11-7.55L550,677.67l.09-9.45-1.57,5.4-.83-1.27-1.17,1.78-.35-5.72-1.56,5.47-.23-6.9-1.81,7.9-1.35,3.65-1.07,1-.54-4.12-1.15,1.85-.52-4.46-.49-4.63-1.89,9-1,.47-.42-5.51-.77-2-1.17,2L530.8,676l-.3-6.88-1.58,6.39-.95-.26-.11-9-2.05,11.49.14-11.79-1.32,3.84h-1l-.92-.58-1,.27-1.5,6-.09-9.76-1.91,10.52-.91-.53-.34-7.13-.88-1L515,669.84l-1.08,1.3-.53-5L511.87,672l-1.15,2.18-.8-1.88-1.06,1.05-.23-8.73-1.45,5.77-.58-4.62-1.74,9.43-.24-8.89-.87-1.25L502.39,670l-1,.71-.86-1.32-.9-.8-1.28,3.93-.88-1-.61-4.63-1.44,6.2-.75-2.83-1.35,5.09-.06-12-1.81,11.26-.65-4.22-.67-4-.69-3.68-1.7,9.87-.89-.94-.53-5.93-.85-1.58-1.07,1.42-1,0-.85-1.54-.85-1.67-1.35,5.38-.72-3.39-1.1,1.87-1.18,3-1.27,4.36-.39-8.21-1.17,3-.59-5.46-1.67,10.26-.21-11-1.23,3.77-.78-2.71-1.55,8.73-.46-7.53-1.31,5.07-1,.29-.38-8.86-1.44,7.25L462.7,672l-.35-9.23-.82-2.26-1.44,7.22-.47-7.62-1.12,2.28-1.29,5.07-.79-2.73-.95-.26-1.24,4.39-.75-3.52-.66-4.76-1.61,10.26-.46-8-.78-3-1.4,6.93-1.28,5-.78-2.86-.71-4.13-1.1,2.18-.94-.43-.52-7.4-1.32,5.83-1.21,4-1,1.26-.57-6.54-1-.09-1,.57-1.24,4.49-1.07,1.74-.26-11.87-1.67,11.92-1-.32-.79-3.22-1.06,1.51-.74-3.76-.83-2.4-1.29,5.34-.85-2-1.27,5-.53-7.35-1,.16-1.2,3.86-.88-1.42-.78-3.2-.85-1.8-.84-2.08-1.3,5.52-1.12,2.6-.4-9.37-1.53,9.2-.79-2.87-.61-5.79L411.66,669l-.93-.45-.49-7.88-1.43,7.6-.89-1.19-1,1.22-.76-3.25-.68-4.72-1,.58-1.23,4.39-.75-3.49L401.3,665l-.92-.59-.89-1.22-.61-5.77-.93-.49-1.44,7.58-1.09,2.11-.91-.92-.52-7.1-.95-.24-.92-.66-1,.43-1,.66-1.42,7.31-1.07,1.68-.94-.35-.84-1.91-.47-7.77L384,664.5l-.4-9L382.22,662,381.13,664l-1.21,3.91-.38-9.11-.75-3.37-1.21,3.88-1,.63-1.37,6.35-.94-.25L374,655.62l-1.38,6.57-1.17,3.2-.81-2.38-.76-3.09-1.15,3-.87-1.47-.78-2.69-1.16,3-1.16,3-1,.19-.5-7-.71-3.82-1.56,9-.7-3.88-.83-2.07-1.06,1.55-1,0-1.06,1.44-.51-6.67-1.14,2.63-1,1.21-1.17,3-1.1,2.2L350.36,664l-.35-9.16-1.22,4-1.34,5.47-.35-8.89-1.67,10.4-.6-5.36-.94-.33-1.32,5.28L341.7,664l-1,1.11-.3-9.53L339,660.94l-1,.2-.84-1.66-1.07,1.57-1.2,3.37-.8-2.26-.61-5.09-.73-3.24-1,.2-1.34,5.34-.87-1.24-1.1,2-.53-6-1.61,9.14-.18-11-1.06,1.49-1.06,1.4-1.22,3.65-1.34,5.36-.8-2.27-.76-2.71-.64-4.48-1,.88-1.3,4.76-.94-.36-1.12,2.29-.72-3.33-1,1.14-.83-1.69-.67-4-1.19,3.18-1,.62-.5-6.19-1,.54-1,.72-1.57,8.24-.92-.52-.57-5.19-1,.61-.48-6.48-1.07,1.58-.83-1.74-1,.41-1.84,11.71-.16-10.56-1.3,4.56-.74-2.94-1.57,8.2-.88-1.06-.77-2.42-1,1-.55-5.33-.64-4.2-1.93,12.59-.57-5L286.42,659l-.63-4.25-.83-1.72-1,.43-.63-4.34-1.11,2-.9-.79-1.05,1.26L278.82,658l-1,1-.94-.29-.31-8.35-.85-1.31-1-.09-1,1-1,.64-.71-3.16-1.59,7.86-.64-4-.8-2-.82-1.75-1.82,10.77-.9-.81-1,.54-.76-2.53-.76-2.43-1.26,3.73-.79-2.09-.4-7-1.61,8-.65-3.81-1.32,4.49-.29-8.3-1.15,2.35L254,656.19l-.87-1.21-.88-1-1.16,2.5-.52-5.48-1.37,5.06-.75-2.55-.38-7.16-1.34,4.7-1,.88-1.34,4.54-.31-7.86-1.66,8.47-.65-3.8-.36-7.24L240,651.62l-1.37,5-.41-6.66-.64-3.91-1.59,7.77-.25-8.67-1.37,5.05-1.25,3.55-.26-8.55-1.15,2.41L230,656.34l-.24-8.82-.78-2.2-1.17,2.54-1,.58-1.23,3.29-.59-4.57-1.34,4.7-1.15,2.47-.93-.45-.25-8.89-1.38,5.33-1.21,3.18-1,.78-.31-8.19L215.8,654l-.82-1.79-.25-9-1.55,7.43-.56-5.09-1.45,6.28-.32-8.37-.88-1.06-1.31,4.52-1.43,6-.9-.82-1,0-.25-9.4-1.58,8.11L203,645l-1.38,5.58-.83-1.82-.9-.83-.89-1.11-.89-1-1.58,8.46-.83-1.8-1.06,1.35-.58-5.32-.9-.85-1,1.09-.74-3.2-1.15,2.69-1.08,1.55-1.11,2.08-.25-10.16-.92-.6-1,.2-1.66,10.11-.92-.69-.36-8.83-1,1.13-1.16,2.9-1.12,2.18-.78-2.77-.82-2.21-1.53,8.64-1-.18-.88-1.26-.45-8-.91-.82-1,.59-1.29,5-.58-6-1.26,4.7-.86-1.66-.86-1.79-1.09,2.1-1.23,4.23-1,.24-.89-1.24-.46-8.32-1.09,2.1-1.07,1.75-.91-.8-1.17,3.36-1,.09-1,1.33-.73-4-.77-3.39-1.14,3.13-1.22,4.45-.81-2.7-1,1.52-1.07,1.8-.54-7.41-1.05,1.49-.94-.45L146,646.27,145,647.94l-.66-5.57-1.08,2.09-.88-1.56-1,.07-.87-1.6-1.19,4.11-1,.73-.76-4h-1l-.75-4.07-1.2,4.42-.95-.23-.87-1.8-1.44,9.17-.55-8.12-.85-2.23-.94-.64-1.13,3.37-1,.41L125.67,648l-.61-7.12-.85-2.31-1,.51-1.24,5.6-.67-6.16L120,646.24l-.85-2.32-.69-5.7-1.2,4.7-.81-3.1-1.08,2.25-1.28,6.77-.74-4.79-.95-.46-1.2,5.08-.71-5.49-.94-.51L108.44,645l-.66-6.49-1.42,9.77-1,.76L105,636.89l-1.07,2.38-.89-1.88-1,1.38-.92-1-1,.61L98.83,644l-1,.8-.64-7.45-1.46,11.11-.82-3.23-.66-6.9-1.07,2.33L92,645.07l-1,.32L90.39,638l-1.14,3.89L88.15,645l-.88-1.82-1.17,4.68-.47-11.63-1,1.65-1.07,2.56-1,1.16-1,.52-.84-2.87-.85-2.88-1,.83-1-.29-1.26,7.15L76,635l-1,1.78-1,.07-1.23,6.59-.63-8.14-1.32,8.58L70,641.69l-.9-1.57L67.9,645.4l-.68-7-.93-.77-1.21,6.2L64.35,638l-1.16,4.64-.76-5.19-1.33,9.05L60.22,644l-.86-2.58-.9-1.62-.83-3.55-1.22,6.51-1.14,4.12-.83-3.22-.77-5.11-1,.81-1.13,4.22-.71-6.41-1.34,9.46-.71-6.48-1-.19-1.19,5.7-.68-7.3-1.2,6-.82-3.78-1,1.25-1.14,4.44-.53-11.06-.93-1.08-1,1.66-.93-.69-1,1.36L36,645.88,35.13,644l-.59-9.5-1,1.8-1,1.39-.84-3.24-1,.25-1.15,4.61-1.1,3.77-.89-2-1,.08-.73-6.1-1.36,10.62-.64-8.59L22.69,642l-.91-1.29-1,1.19-.66-8.34L19,637.45,17.8,644.1l-.91-1.24-1,2.13L15,642l-1.08,3.23-.78-4.91-.87-2.57-1,1.15-.81-4.36L9.19,643l-.68-8L7.23,644l-.84-3.31-.87-2.87-1,1.43-.95-.3-.84-3.53-1,1.08-1,2.23-.79-5.14-1,1.23-.75-.68v445.64C7.14,1079.72,16.19,1079.82,25.3,1080.16Z"/>
    <g>
      <path class="cls-10" d="M250.26,771.33a37.58,37.58,0,0,0,4.61-10.21c.22-.89.42-1.71.55-2.58a22.79,22.79,0,0,0,.25-2.53c0-.43,0-.84,0-1.24a9.39,9.39,0,0,0-.1-1.19c-.06-.4-.13-.78-.21-1.15a6.12,6.12,0,0,0-.31-1.09c.39,0,.8.08,1.22.15s.79.14,1.19.23a8,8,0,0,1,2.37.93l3.31,2.09a3.61,3.61,0,0,1,1.63,2.66,7.74,7.74,0,0,1,.06,1,8.27,8.27,0,0,1-.13,1.06,9.82,9.82,0,0,1-.29,1.16,7.73,7.73,0,0,1-.47,1.17,13.05,13.05,0,0,1-.64,1.22c-.24.4-.52.78-.81,1.17-.15.2-.31.4-.47.59a7.2,7.2,0,0,1-.5.58c-.35.36-.72.72-1.12,1.08a11,11,0,0,1-1.25,1,16.28,16.28,0,0,1-1.36.93,20.18,20.18,0,0,1-3,1.49c-.75.29-1.49.58-2.25.81S251,771.15,250.26,771.33Z"/>
      <path class="cls-11" d="M233.24,754a29.25,29.25,0,0,0,12.13-.67,33.53,33.53,0,0,1-5.54,10.28,39,39,0,0,1-9.54,8.79,42.4,42.4,0,0,1-10-2.86,37.31,37.31,0,0,1-9.19-5.6,29.76,29.76,0,0,0,22.1-9.94Z"/>
      <path class="cls-12" d="M217.35,740.65a19.2,19.2,0,0,0,2.3,5.06,16.36,16.36,0,0,0,3.43,3.93,22.28,22.28,0,0,1-11.28,1.09,33.29,33.29,0,0,1-12.26-4.59l-.39-1.24-.29-1.23c-.19-.83-.4-1.65-.56-2.48s-.29-1.67-.4-2.52-.2-1.71-.25-2.58a38.72,38.72,0,0,1,.72-10.63,31.13,31.13,0,0,0,8.58,10c.81.62,1.68,1.19,2.5,1.71s1.74,1,2.59,1.44,1.79.82,2.66,1.17l1.3.49C216.45,740.41,216.91,740.53,217.35,740.65Z"/>
      <path class="cls-13" d="M221.77,720.23c-.35.31-.64.66-1,1l-.44.52-.22.26-.21.26a18.51,18.51,0,0,0-1.48,2.21c-.2.39-.43.77-.6,1.17-.09.2-.19.39-.27.59l-.24.61-.12.3-.1.32-.2.62-.17.63c-.05.22-.12.43-.15.65-.35-.3-.66-.61-1-.93s-.63-.66-.94-1-.59-.7-.87-1.08l-.43-.57c-.14-.19-.27-.38-.4-.58-.26-.4-.52-.81-.77-1.23s-.46-.85-.69-1.29a25,25,0,0,1-1.18-2.8,31.3,31.3,0,0,1-1.49-13.07,39.9,39.9,0,0,1,8.49-6.23,39.44,39.44,0,0,1,4.79-2.23,35.33,35.33,0,0,1,5.2-1.58,28.92,28.92,0,0,0-3.52,5.93,30.24,30.24,0,0,0-2,6.06A26.21,26.21,0,0,0,221.77,720.23Z"/>
      <path class="cls-14" d="M230.29,772.41a39,39,0,0,0,9.54-8.79,33.53,33.53,0,0,0,5.54-10.28c.46-.1.88-.26,1.31-.39s.85-.29,1.27-.45a18.23,18.23,0,0,1,3.74-1l.86-.11a8.12,8.12,0,0,1,.86,0c.26,0,.53,0,.81,0l.82.05a6.12,6.12,0,0,1,.31,1.09c.08.37.15.75.21,1.15a9.39,9.39,0,0,1,.1,1.19c0,.4,0,.81,0,1.24a22.79,22.79,0,0,1-.25,2.53c-.13.87-.33,1.69-.55,2.58a37.58,37.58,0,0,1-4.61,10.21,48.17,48.17,0,0,1-9.92,1.6A45.91,45.91,0,0,1,230.29,772.41Z"/>
      <path class="cls-15" d="M223.08,749.64A21.21,21.21,0,0,0,233.24,754a29.76,29.76,0,0,1-22.1,9.94,34.68,34.68,0,0,1-7.19-8.2,37.64,37.64,0,0,1-4.41-9.61,33.29,33.29,0,0,0,12.26,4.59A22.28,22.28,0,0,0,223.08,749.64Z"/>
      <path class="cls-16" d="M216.6,729.35a20.49,20.49,0,0,0-.36,5.47c0,.48.11,1,.15,1.45s.16,1,.23,1.48.23,1,.34,1.47l.17.74.22.69c-.44-.12-.9-.24-1.35-.38l-1.3-.49c-.87-.35-1.78-.74-2.66-1.17s-1.73-.91-2.59-1.44-1.69-1.09-2.5-1.71a31.13,31.13,0,0,1-8.58-10,35.66,35.66,0,0,1,3.86-10.19,36.62,36.62,0,0,1,3-4.51l.41-.53.44-.51c.29-.34.58-.69.88-1,.61-.65,1.21-1.31,1.86-1.91a31.3,31.3,0,0,0,1.49,13.07,25,25,0,0,0,1.18,2.8c.23.44.45.87.69,1.29s.51.83.77,1.23c.13.2.26.39.4.58l.43.57c.28.38.58.74.87,1.08s.63.69.94,1S216.25,729.05,216.6,729.35Z"/>
      <path class="cls-17" d="M231.38,715a16.61,16.61,0,0,0-2.54.77,20.8,20.8,0,0,0-2.54,1.19,21.4,21.4,0,0,0-4.53,3.32,26.21,26.21,0,0,1,0-11.49,30.24,30.24,0,0,1,2-6.06,28.92,28.92,0,0,1,3.52-5.93c.44-.11.91-.19,1.38-.28l.7-.12.72-.1c.48-.06,1-.12,1.42-.15s.94-.08,1.41-.1a35.2,35.2,0,0,1,5.62.24,34.53,34.53,0,0,1,10.59,3.16,28.47,28.47,0,0,0-11.77,6.08,22.24,22.24,0,0,0-3.84,4.49,16.1,16.1,0,0,0-1.3,2.45c-.09.21-.17.42-.25.62s-.16.43-.23.64C231.63,714.1,231.5,714.51,231.38,715Z"/>
      <path class="cls-18" d="M249,723.43a19.54,19.54,0,0,0-8-7.24,21,21,0,0,1,4.93-2.52,25.58,25.58,0,0,1,5.8-1.34,31.68,31.68,0,0,1,13.08,1.32,36,36,0,0,1,4.27,10c.12.45.23.9.32,1.36s.2.92.27,1.38l.21,1.4.12,1.33.12,1.33,0,1.37v1.37l-.08,1.4c-.36-.49-.72-1-1.08-1.43s-.79-.88-1.18-1.3-.79-.83-1.19-1.22-.85-.75-1.27-1.1-.84-.7-1.26-1-.89-.65-1.33-1-.9-.59-1.35-.85-.9-.52-1.37-.75A23.76,23.76,0,0,0,249,723.43Z"/>
      <path class="cls-19" d="M241.07,716.19a16,16,0,0,0-4.84-1.46,17,17,0,0,0-2.47-.1,13.62,13.62,0,0,0-2.38.32c.12-.44.25-.85.4-1.27.07-.21.15-.43.23-.64s.16-.41.25-.62a16.1,16.1,0,0,1,1.3-2.45,22.24,22.24,0,0,1,3.84-4.49,28.47,28.47,0,0,1,11.77-6.08,35.26,35.26,0,0,1,4.7,2.72,35.82,35.82,0,0,1,4.21,3.33,38.55,38.55,0,0,1,6.8,8.2,31.68,31.68,0,0,0-13.08-1.32,25.58,25.58,0,0,0-5.8,1.34A21,21,0,0,0,241.07,716.19Z"/>
      <path class="cls-20" d="M251.55,733.39l0-.62,0-.66v-.65l-.07-.69-.05-.68-.09-.61c0-.2-.09-.4-.12-.6a6,6,0,0,0-.15-.61,17.46,17.46,0,0,0-2.07-4.84,23.76,23.76,0,0,1,11.1,2.52c.47.23.93.48,1.37.75s.92.54,1.35.85.89.62,1.33,1,.84.67,1.26,1,.84.72,1.27,1.1.79.8,1.19,1.22.79.85,1.18,1.3.72.94,1.08,1.43a29.21,29.21,0,0,1-3,11.45c-.25.46-.53.92-.79,1.38l-.41.68-.21.34-.23.33c-.32.44-.64.87-1,1.3-.16.22-.32.43-.49.64l-.55.6c-.36.4-.74.8-1.11,1.19s-.8.72-1.21,1.08-.81.71-1.25,1-.87.61-1.32.91c.23-.62.44-1.24.62-1.84s.31-1.26.43-1.86a16.92,16.92,0,0,0,.28-1.81q.07-.93.09-1.8c0-.29,0-.58,0-.86s0-.58-.07-.86c-.06-.57-.13-1.13-.22-1.66l-.07-.39-.1-.4c-.07-.27-.14-.53-.22-.79-.15-.51-.31-1-.49-1.47s-.42-1-.65-1.39a11.68,11.68,0,0,0-.73-1.28c-.27-.42-.54-.81-.82-1.18-.15-.19-.28-.37-.44-.55s-.31-.37-.47-.54q-.48-.52-1-1c-.31-.3-.69-.62-1-.9s-.71-.56-1.06-.81S251.92,733.62,251.55,733.39Z"/>
      <path class="cls-21" d="M239.36,741.25a16.39,16.39,0,0,0,5.13,0,9.67,9.67,0,0,0,3.86-1.38c.05.2.1.41.14.62s0,.41.07.62a10.87,10.87,0,0,1,.05,1.29,8.2,8.2,0,0,1-.1,1.32c-.06.44-.14.9-.24,1.36a18.17,18.17,0,0,1-.92,2.72,24.54,24.54,0,0,1-1.41,2.66,25.8,25.8,0,0,1-4.08,5,32.43,32.43,0,0,1-5.47,4.2,33.1,33.1,0,0,1-10.68-3.61,25.77,25.77,0,0,1-5.17-3.77,21.42,21.42,0,0,1-4.32-5.77,15.87,15.87,0,0,0,7.53,2.39,16.47,16.47,0,0,0,6.49-1,20.21,20.21,0,0,0,5.16-2.83A21.46,21.46,0,0,0,239.36,741.25Z"/>
      <path class="cls-22" d="M234.46,734.3l-.16.15-.14.16c-.09.12-.2.22-.29.33a5.91,5.91,0,0,0-.47.68,6.11,6.11,0,0,0-.36.65,4.43,4.43,0,0,0-.19.59c-.08.18,0,.32-.11.46s0,.25,0,.33,0,.09,0,.13,0,0,0,.07,0,0,0,0a1,1,0,0,0,.07.21,6.45,6.45,0,0,1-2.32.42l-.61,0c-.2,0-.4-.06-.61-.1a5.79,5.79,0,0,1-1.21-.36,8.45,8.45,0,0,1-2.33-1.4,10.94,10.94,0,0,1-1.93-2.21,13.94,13.94,0,0,1-1.48-2.85,18.56,18.56,0,0,1-.88-3.28,21.27,21.27,0,0,1-.31-3.61c0-.62,0-1.24.09-1.88,0-.32,0-.65.1-1s.09-.64.15-1a24.91,24.91,0,0,1,5.11-3.83,22.8,22.8,0,0,1,6.26-2.44c.57-.13,1.14-.24,1.73-.34s1.26-.14,1.89-.19,1.28,0,1.92,0,1.27.11,1.91.19a19.88,19.88,0,0,1,7.18,2.53,16.09,16.09,0,0,0-7.86,2.08A11.92,11.92,0,0,0,235,723.7a12.55,12.55,0,0,0-1.46,5.53A12,12,0,0,0,234.46,734.3Z"/>
      <path class="cls-23" d="M239.5,733.5a.22.22,0,0,0,.1,0h-.23l-.77.12h0a.5.5,0,0,1,0-.12,1.1,1.1,0,0,0-.52-.67,6.59,6.59,0,0,1,4-2.53,8.55,8.55,0,0,1,5.48.78,10.05,10.05,0,0,1,1.36.8,9.69,9.69,0,0,1,1.3,1.07,11.48,11.48,0,0,1,2.1,3,14.3,14.3,0,0,1,1,8.58,17.54,17.54,0,0,1-6.74,5.15c-.33.15-.66.28-1,.41l-1,.33a18.83,18.83,0,0,1-2.07.49c-.33.06-.75.11-1.15.15a11.89,11.89,0,0,1-1.2.08H239c-.4,0-.81-.07-1.21-.12a15.6,15.6,0,0,1-4.65-1.33,16.07,16.07,0,0,1-7.09-6.37,16.27,16.27,0,0,1-1.81-4.48,14.13,14.13,0,0,0,3.82,3.29,11.72,11.72,0,0,0,4.17,1.46,9.64,9.64,0,0,0,3.83-.25,7.33,7.33,0,0,0,2.91-1.56,5.9,5.9,0,0,0,1.62-2.35,6.22,6.22,0,0,0,.38-1.28,4.94,4.94,0,0,0,.08-.63c0-.22,0-.44,0-.64a5.28,5.28,0,0,0-.2-1.2,5.11,5.11,0,0,0-.46-1.1,4.55,4.55,0,0,0-.69-.94l-.1-.11-.07-.07h0Z"/>
      <path class="cls-24" d="M248.35,739.92a6.4,6.4,0,0,0,2.19-2.42,10.77,10.77,0,0,0,1-4.11c.37.23.76.48,1.12.73s.71.52,1.06.81.72.6,1,.9.64.64,1,1c.16.17.32.35.47.54s.29.36.44.55c.28.37.55.76.82,1.18a11.68,11.68,0,0,1,.73,1.28c.23.44.44.91.65,1.39s.34,1,.49,1.47c.08.26.15.52.22.79l.1.4.07.39c.09.53.16,1.09.22,1.66,0,.28.06.57.07.86s0,.57,0,.86q0,.87-.09,1.8a16.92,16.92,0,0,1-.28,1.81c-.12.6-.25,1.25-.43,1.86s-.39,1.22-.62,1.84l-.66.44c-.23.15-.46.26-.68.39-.46.25-.92.5-1.39.74a13.46,13.46,0,0,1-1.4.64l-1.42.57a6.44,6.44,0,0,1-.7.24l-.71.21-1.42.41c-.94.23-1.87.39-2.81.57a32.19,32.19,0,0,1-5.58.41,37.87,37.87,0,0,1-5.42-.46,32.43,32.43,0,0,0,5.47-4.2,25.8,25.8,0,0,0,4.08-5,24.54,24.54,0,0,0,1.41-2.66,18.17,18.17,0,0,0,.92-2.72c.1-.46.18-.92.24-1.36a8.2,8.2,0,0,0,.1-1.32,10.87,10.87,0,0,0-.05-1.29c0-.21,0-.41-.07-.62S248.4,740.12,248.35,739.92Z"/>
      <path class="cls-25" d="M232.86,738.11a2.77,2.77,0,0,0,.54.67,7.09,7.09,0,0,0,1.36,1,14.55,14.55,0,0,0,4.6,1.5,21.46,21.46,0,0,1-4,3.82,20.21,20.21,0,0,1-5.16,2.83,16.47,16.47,0,0,1-6.49,1,15.87,15.87,0,0,1-7.53-2.39,19.5,19.5,0,0,1-2-7.28,19.85,19.85,0,0,1,.67-7.22,22.92,22.92,0,0,1,1.12-3.24,25.17,25.17,0,0,1,1.55-2.91,24.9,24.9,0,0,1,1.85-2.64c.33-.41.69-.8,1-1.2.18-.19.35-.39.54-.58l.57-.55q-.09.48-.15,1c-.05.31-.07.64-.1,1-.05.64-.09,1.26-.09,1.88a21.27,21.27,0,0,0,.31,3.61,18.56,18.56,0,0,0,.88,3.28,13.94,13.94,0,0,0,1.48,2.85,10.94,10.94,0,0,0,1.93,2.21,8.45,8.45,0,0,0,2.33,1.4,5.79,5.79,0,0,0,1.21.36c.21,0,.41.08.61.1l.61,0A6.45,6.45,0,0,0,232.86,738.11Z"/>
      <path class="cls-26" d="M238.05,732.87a1.14,1.14,0,0,0-.41-.15s-.06,0-.1,0a.14.14,0,0,1-.11,0,.17.17,0,0,1-.12,0,1.14,1.14,0,0,1-.25.06,5.87,5.87,0,0,0-2.6,1.52,12,12,0,0,1-1-5.07A12.55,12.55,0,0,1,235,723.7a11.92,11.92,0,0,1,4.69-4.81,16.09,16.09,0,0,1,7.86-2.08,19.83,19.83,0,0,1,9,11.89c.17.61.28,1.24.4,1.86a9.47,9.47,0,0,1,.14,1c0,.35.07.71.1,1.06a19.1,19.1,0,0,1,0,2.14,15.33,15.33,0,0,1-.28,2.13,17.62,17.62,0,0,1-3.55,7.69,14.3,14.3,0,0,0-1-8.58,11.48,11.48,0,0,0-2.1-3,9.69,9.69,0,0,0-1.3-1.07,10.05,10.05,0,0,0-1.36-.8,8.55,8.55,0,0,0-5.48-.78A6.59,6.59,0,0,0,238.05,732.87Z"/>
      <path class="cls-27" d="M246.46,726.76a10.1,10.1,0,0,0-3.83-.2,9.24,9.24,0,0,0-3.21,1c-.24.13-.47.27-.69.41a7.68,7.68,0,0,0-.61.49,5.3,5.3,0,0,0-.53.53,5.15,5.15,0,0,0-.41.58,5.09,5.09,0,0,0-.75,2.4,3.48,3.48,0,0,0,2,3.4s-.06,0,0,0h.14l1.36-.2h0l-.08,0c-.08,0-.11,0-.09,0l.06,0s0,.08,0,.07h0v-.17h0c0,.37-.48-3.2-.25-1.69h0v0a.75.75,0,0,0,0,.15l0,.05h0s-.06-.08-.07-.08h0l.07.07.1.11a4.55,4.55,0,0,1,.69.94,5.11,5.11,0,0,1,.46,1.1,5.28,5.28,0,0,1,.2,1.2c0,.2,0,.42,0,.64a4.94,4.94,0,0,1-.08.63,6.22,6.22,0,0,1-.38,1.28,5.9,5.9,0,0,1-1.62,2.35,7.33,7.33,0,0,1-2.91,1.56,9.64,9.64,0,0,1-3.83.25,11.72,11.72,0,0,1-4.17-1.46,14.13,14.13,0,0,1-3.82-3.29c-.08-.36-.15-.73-.22-1.09l0-.28,0-.31-.06-.63a9.08,9.08,0,0,1,0-1.28,11.07,11.07,0,0,1,.06-1.28,14.77,14.77,0,0,1,1.35-4.92,13.69,13.69,0,0,1,2.29-3.38,13.29,13.29,0,0,1,3.07-2.46,15,15,0,0,1,1.71-.84,13.27,13.27,0,0,1,1.76-.56l.88-.18c.29,0,.58-.08.87-.11l.43,0h.22l.26,0c.35,0,.69,0,1,0a11.11,11.11,0,0,1,3.34.7,10.64,10.64,0,0,1,2.4,1.28A10.36,10.36,0,0,1,246.46,726.76Z"/>
      <path class="cls-28" d="M242.14,735.64l-5.59,1-1.08.17-.53.11-.13,0-.28.09-.21.08-.1.06-.16.07a6.44,6.44,0,0,0-.68.41c-.13.09-.23.18-.37.29a4.35,4.35,0,0,0-.41.34,7.43,7.43,0,0,0-1.19,1.39c-.19.3,0,.15.21-.68a4.15,4.15,0,0,0,.16-.71,4.57,4.57,0,0,0,.12-.86c0-.28,0-.64,0-.91a3.75,3.75,0,0,0,0-.45h0c.15,1.15-.32-2.59.32,2.58h0v-.05c0-.2-.06-.17,0-.13s.07.06,0,0-.08,0-.05,0h.21l1.95-.34h0l-.12,0,.11,0h0l-1.95.34h-.21s0,0,0,0a4.88,4.88,0,0,1-2.8-5,7.57,7.57,0,0,1,1.15-3.56,7.85,7.85,0,0,1,.59-.87c.24-.27.5-.55.78-.81a11.61,11.61,0,0,1,.91-.73c.31-.22.64-.43,1-.64a14.18,14.18,0,0,1,10.12-1.44,10.19,10.19,0,0,1,1.13,7.13,5.61,5.61,0,0,1-.5,1.26,4.35,4.35,0,0,1-.7.93A3.22,3.22,0,0,1,242.14,735.64Z"/>
      <path class="cls-29" d="M262.87,722.4a28.29,28.29,0,0,0-1.68-5.75,27.59,27.59,0,0,0-36-15,28.07,28.07,0,0,0-6.17,3.52A34.4,34.4,0,0,1,262.87,722.4Z"/>
      <path class="cls-29" d="M251.21,727.78a14.42,14.42,0,0,0-.9-3.08,14.74,14.74,0,0,0-19.24-8,15,15,0,0,0-3.29,1.89A18.36,18.36,0,0,1,251.21,727.78Z"/>
      <path class="cls-30" d="M234.36,860.93l-2.72-1.16s0,0,0,0c29.09-47.38-1.12-46.37,1.66-86.66,0,0,0,0,0,0l2.93.14s0,0,0,0c-2.83,40.94,26.6,38.81-1.87,87.7C234.38,860.94,234.37,860.93,234.36,860.93Z"/>
      <path class="cls-29" d="M244.38,730.52a11.09,11.09,0,0,0-.95-1.8c-2.82-4.31-8.16-5.82-11.93-3.35a7,7,0,0,0-1.58,1.39C234.47,723.86,240.81,725.54,244.38,730.52Z"/>
    </g>
    <g>
      <path class="cls-31" d="M146.2,707.13a49,49,0,0,0,6-13.31c.29-1.15.55-2.23.72-3.36a31.46,31.46,0,0,0,.32-3.3c0-.54,0-1.08,0-1.61a11.68,11.68,0,0,0-.12-1.55c-.08-.51-.17-1-.28-1.5a7.8,7.8,0,0,0-.4-1.41c.51,0,1,.11,1.59.19s1,.18,1.55.31a10,10,0,0,1,3.08,1.2l4.32,2.73a4.65,4.65,0,0,1,2.11,3.46,7.64,7.64,0,0,1,.08,1.29,8.6,8.6,0,0,1-.16,1.38,14.36,14.36,0,0,1-.37,1.51,12.26,12.26,0,0,1-.62,1.53c-.24.51-.52,1-.83,1.59s-.68,1-1.06,1.52c-.2.26-.4.52-.61.77a8,8,0,0,1-.66.75c-.45.47-.94.94-1.45,1.41a17,17,0,0,1-1.62,1.32c-.57.41-1.17.84-1.78,1.21a26.06,26.06,0,0,1-3.93,1.93c-1,.38-1.95.76-2.93,1.06S147.18,706.9,146.2,707.13Z"/>
      <path class="cls-32" d="M124,684.56a38.21,38.21,0,0,0,15.81-.86,43.77,43.77,0,0,1-7.22,13.38,51.23,51.23,0,0,1-12.43,11.46,55.15,55.15,0,0,1-13-3.74,48.82,48.82,0,0,1-12-7.28A39.38,39.38,0,0,0,112,693.65,38.77,38.77,0,0,0,124,684.56Z"/>
      <path class="cls-33" d="M103.34,667.16a25.14,25.14,0,0,0,3,6.59,21.12,21.12,0,0,0,4.47,5.12,28.8,28.8,0,0,1-14.69,1.42,43.27,43.27,0,0,1-16-6l-.5-1.61-.39-1.61c-.24-1.07-.51-2.14-.73-3.22s-.37-2.18-.52-3.29-.26-2.22-.33-3.35a51.23,51.23,0,0,1,.94-13.85,40.58,40.58,0,0,0,11.18,13c1.06.81,2.18,1.55,3.26,2.23s2.26,1.31,3.37,1.88,2.33,1.06,3.46,1.52l1.7.63C102.17,666.85,102.76,667,103.34,667.16Z"/>
      <path class="cls-34" d="M109.09,640.57c-.45.4-.83.85-1.25,1.28l-.58.67-.29.33-.27.35a24.52,24.52,0,0,0-1.93,2.88c-.26.51-.57,1-.78,1.52-.12.26-.25.51-.36.77l-.31.79-.15.4L103,650l-.27.81-.21.83a7.18,7.18,0,0,0-.2.83c-.45-.39-.86-.79-1.27-1.21s-.83-.85-1.23-1.31-.76-.92-1.14-1.4l-.55-.75c-.18-.25-.35-.5-.52-.76-.34-.51-.68-1-1-1.6s-.61-1.1-.9-1.68a32.05,32.05,0,0,1-1.54-3.64,40.63,40.63,0,0,1-1.94-17,52,52,0,0,1,11-8.11,50.6,50.6,0,0,1,6.24-2.9,45.51,45.51,0,0,1,6.77-2.06,37.6,37.6,0,0,0-4.58,7.72,39.55,39.55,0,0,0-2.59,7.89A34.23,34.23,0,0,0,109.09,640.57Z"/>
      <path class="cls-35" d="M120.19,708.54a51.23,51.23,0,0,0,12.43-11.46,43.77,43.77,0,0,0,7.22-13.38c.59-.13,1.14-.34,1.71-.52s1.1-.38,1.64-.59a24.83,24.83,0,0,1,4.88-1.36l1.12-.14c.36,0,.74-.05,1.12-.06h1.05c.36,0,.75,0,1.07.06a7.8,7.8,0,0,1,.4,1.41c.11.49.2,1,.28,1.5a11.68,11.68,0,0,1,.12,1.55c0,.53,0,1.07,0,1.61a31.46,31.46,0,0,1-.32,3.3c-.17,1.13-.43,2.21-.72,3.36a49,49,0,0,1-6,13.31,62.15,62.15,0,0,1-12.91,2.07A60.12,60.12,0,0,1,120.19,708.54Z"/>
      <path class="cls-36" d="M110.8,678.87A27.52,27.52,0,0,0,124,684.56a38.77,38.77,0,0,1-12,9.09,39.38,39.38,0,0,1-16.75,3.87,45.61,45.61,0,0,1-9.37-10.68,49.4,49.4,0,0,1-5.74-12.53,43.27,43.27,0,0,0,16,6A28.8,28.8,0,0,0,110.8,678.87Z"/>
      <path class="cls-37" d="M102.36,652.44a26.15,26.15,0,0,0-.46,7.13c0,.63.13,1.26.18,1.89s.21,1.28.31,1.93.3,1.27.44,1.91l.22,1,.29.9c-.58-.15-1.17-.31-1.76-.5l-1.7-.63c-1.13-.46-2.31-1-3.46-1.52s-2.26-1.19-3.37-1.88-2.2-1.42-3.26-2.23a40.58,40.58,0,0,1-11.18-13,47.08,47.08,0,0,1,5-13.28,49,49,0,0,1,4-5.87l.54-.69.56-.67c.38-.44.76-.89,1.15-1.32.8-.84,1.58-1.71,2.43-2.49a40.63,40.63,0,0,0,1.94,17,32.05,32.05,0,0,0,1.54,3.64c.29.58.58,1.13.9,1.68s.66,1.09,1,1.6c.17.26.34.51.52.76l.55.75c.38.48.76,1,1.14,1.4s.82.9,1.23,1.31S101.91,652.05,102.36,652.44Z"/>
      <path class="cls-38" d="M121.61,633.68a21.42,21.42,0,0,0-3.3,1,25.39,25.39,0,0,0-3.31,1.54,27.67,27.67,0,0,0-5.91,4.33,34.23,34.23,0,0,1,.07-15,39.55,39.55,0,0,1,2.59-7.89,37.6,37.6,0,0,1,4.58-7.72c.58-.15,1.19-.25,1.8-.37l.91-.16.94-.12c.63-.09,1.26-.17,1.86-.2s1.22-.1,1.83-.13a44,44,0,0,1,21.11,4.43,36.92,36.92,0,0,0-15.33,7.92,28.52,28.52,0,0,0-5,5.84,20.19,20.19,0,0,0-1.7,3.2c-.12.27-.22.54-.32.8s-.21.56-.31.83C121.94,632.58,121.78,633.12,121.61,633.68Z"/>
      <path class="cls-39" d="M144.58,644.74a25.39,25.39,0,0,0-10.34-9.43,27.07,27.07,0,0,1,6.41-3.28,33.28,33.28,0,0,1,7.55-1.75A41.5,41.5,0,0,1,165.25,632a47,47,0,0,1,5.56,13c.16.59.3,1.17.42,1.77s.26,1.19.34,1.8.19,1.22.27,1.82l.17,1.73.15,1.74,0,1.78,0,1.78-.11,1.83q-.69-1-1.41-1.86c-.51-.59-1-1.15-1.54-1.7s-1-1.08-1.55-1.58-1.1-1-1.65-1.44-1.1-.91-1.64-1.34-1.15-.85-1.73-1.24-1.17-.76-1.75-1.11-1.18-.67-1.79-1A30.82,30.82,0,0,0,144.58,644.74Z"/>
      <path class="cls-40" d="M134.24,635.31a20.8,20.8,0,0,0-6.32-1.91,21.36,21.36,0,0,0-3.2-.13,19.05,19.05,0,0,0-3.11.41c.17-.56.33-1.1.52-1.65.1-.27.2-.55.31-.83s.2-.53.32-.8a20.19,20.19,0,0,1,1.7-3.2,28.52,28.52,0,0,1,5-5.84,36.92,36.92,0,0,1,15.33-7.92,44.79,44.79,0,0,1,6.13,3.54,47.83,47.83,0,0,1,5.48,4.33A50.52,50.52,0,0,1,165.25,632a41.5,41.5,0,0,0-17.05-1.71,33.28,33.28,0,0,0-7.55,1.75A27.07,27.07,0,0,0,134.24,635.31Z"/>
      <path class="cls-41" d="M147.88,657.7l.06-.8,0-.85v-.86l-.09-.89-.07-.89-.12-.79c0-.26-.11-.53-.15-.79s-.12-.53-.19-.8a23,23,0,0,0-2.71-6.29A30.82,30.82,0,0,1,159.05,648c.61.3,1.21.62,1.79,1s1.19.71,1.75,1.11,1.15.81,1.73,1.24,1.09.87,1.64,1.34,1.1.94,1.65,1.44,1,1,1.55,1.58,1,1.11,1.54,1.7,1,1.22,1.41,1.86a38,38,0,0,1-4,14.91c-.32.61-.68,1.2-1,1.8l-.53.89-.27.44-.31.43c-.41.57-.83,1.14-1.25,1.69-.22.28-.42.57-.65.83l-.71.79c-.48.52-1,1-1.45,1.54s-1,.94-1.57,1.41-1.06.93-1.63,1.33l-1.71,1.19c.3-.82.56-1.62.8-2.4s.4-1.64.56-2.43.3-1.56.37-2.36.1-1.58.11-2.33c0-.38,0-.76,0-1.12s0-.76-.09-1.13c-.07-.74-.17-1.46-.29-2.15l-.09-.52-.13-.52c-.09-.35-.19-.69-.28-1-.2-.67-.41-1.3-.65-1.92s-.55-1.23-.84-1.81a16.27,16.27,0,0,0-1-1.67c-.35-.54-.71-1-1.07-1.54-.19-.25-.36-.48-.57-.72s-.41-.47-.61-.7c-.42-.45-.84-.88-1.25-1.28s-.9-.81-1.35-1.18-.92-.72-1.37-1S148.37,658,147.88,657.7Z"/>
      <path class="cls-42" d="M132,668a21.37,21.37,0,0,0,6.67.06,12.38,12.38,0,0,0,5-1.8l.18.81c0,.28.06.53.09.81,0,.54.07,1.1.07,1.68a10.89,10.89,0,0,1-.14,1.72c-.08.58-.18,1.17-.31,1.77a25,25,0,0,1-1.19,3.54,30.63,30.63,0,0,1-7.16,9.91,41.54,41.54,0,0,1-7.12,5.47,43,43,0,0,1-13.91-4.7,33.87,33.87,0,0,1-6.74-4.91,28.07,28.07,0,0,1-5.62-7.51,20.8,20.8,0,0,0,9.81,3.11,21.71,21.71,0,0,0,8.44-1.3,26.1,26.1,0,0,0,6.73-3.68A28.74,28.74,0,0,0,132,668Z"/>
      <path class="cls-43" d="M125.63,658.9l-.21.19a1.9,1.9,0,0,0-.19.21c-.12.15-.26.28-.38.42-.19.31-.46.58-.61.89s-.3.58-.47.85-.23.54-.25.76-.06.42-.14.61,0,.32,0,.42,0,.13,0,.18a.19.19,0,0,1,0,.08.19.19,0,0,1,0,.07,1.53,1.53,0,0,0,.11.27,8.35,8.35,0,0,1-3,.55,7.26,7.26,0,0,1-.8,0l-.79-.12a8.59,8.59,0,0,1-1.57-.47,11.15,11.15,0,0,1-3-1.82,15.05,15.05,0,0,1-2.52-2.88,18.82,18.82,0,0,1-1.92-3.71,24,24,0,0,1-1.15-4.28,27.7,27.7,0,0,1-.41-4.71c0-.8.06-1.61.12-2.44,0-.41.07-.84.13-1.26s.12-.82.2-1.24a31.67,31.67,0,0,1,6.66-5,29.88,29.88,0,0,1,8.14-3.18c.75-.16,1.49-.32,2.26-.45s1.64-.18,2.47-.24,1.66,0,2.49,0,1.66.15,2.49.24a26,26,0,0,1,9.36,3.31,20.92,20.92,0,0,0-10.24,2.7,15.52,15.52,0,0,0-6.11,6.27,16.27,16.27,0,0,0-1.9,7.2A15.4,15.4,0,0,0,125.63,658.9Z"/>
      <path class="cls-44" d="M132.19,657.86l.12.06H132l-1,.14h0s0-.11,0-.15a1.37,1.37,0,0,0-.68-.88,8.61,8.61,0,0,1,5.27-3.3,11.16,11.16,0,0,1,7.14,1,15.4,15.4,0,0,1,1.77,1,12.66,12.66,0,0,1,1.69,1.4,15.71,15.71,0,0,1,1.49,1.79,16,16,0,0,1,1.25,2.14,18.48,18.48,0,0,1,1.32,11.17,22.86,22.86,0,0,1-8.77,6.72l-1.29.53-1.33.43a21.13,21.13,0,0,1-2.7.63,14.58,14.58,0,0,1-1.49.2,13.47,13.47,0,0,1-1.56.1c-.53,0-1.06,0-1.58,0s-1.05-.09-1.58-.15a20.78,20.78,0,0,1-6-1.73,20.7,20.7,0,0,1-9.23-8.3,20.83,20.83,0,0,1-2.36-5.84,18.27,18.27,0,0,0,5,4.29,15.3,15.3,0,0,0,5.43,1.9,12.79,12.79,0,0,0,5-.32,9.72,9.72,0,0,0,3.79-2,7.65,7.65,0,0,0,2.11-3.06,8,8,0,0,0,.5-1.67c.05-.28.08-.56.1-.82a7.75,7.75,0,0,0,0-.83,6.78,6.78,0,0,0-.26-1.57,6.63,6.63,0,0,0-.59-1.42,6.12,6.12,0,0,0-.91-1.23l-.13-.14-.09-.09h0Z"/>
      <path class="cls-45" d="M143.72,666.21a8.42,8.42,0,0,0,2.85-3.15,14.05,14.05,0,0,0,1.31-5.36c.49.3,1,.63,1.47,1s.91.67,1.37,1,.94.78,1.35,1.18.83.83,1.25,1.28c.2.23.41.46.61.7s.38.47.57.72c.36.49.72,1,1.07,1.54a16.27,16.27,0,0,1,1,1.67c.29.58.58,1.18.84,1.81s.45,1.25.65,1.92c.09.33.19.67.28,1l.13.52.09.52c.12.69.22,1.41.29,2.15,0,.37.08.75.09,1.13s0,.74,0,1.12c0,.75,0,1.54-.11,2.33s-.22,1.56-.37,2.36-.32,1.64-.56,2.43-.5,1.58-.8,2.4l-.87.57c-.29.19-.59.34-.89.51l-1.8,1c-.61.33-1.22.57-1.83.83l-1.84.74a9.17,9.17,0,0,1-.92.32l-.93.28-1.85.53c-1.22.3-2.43.51-3.65.75a43,43,0,0,1-7.27.52,49,49,0,0,1-7.06-.6,41.54,41.54,0,0,0,7.12-5.47,30.63,30.63,0,0,0,7.16-9.91,25,25,0,0,0,1.19-3.54c.13-.6.23-1.19.31-1.77a10.89,10.89,0,0,0,.14-1.72c0-.58,0-1.14-.07-1.68,0-.28,0-.53-.09-.81Z"/>
      <path class="cls-46" d="M123.55,663.85a3.36,3.36,0,0,0,.69.88A9.85,9.85,0,0,0,126,666a19.08,19.08,0,0,0,6,2,28.74,28.74,0,0,1-5.16,5,26.1,26.1,0,0,1-6.73,3.68,21.71,21.71,0,0,1-8.44,1.3,20.8,20.8,0,0,1-9.81-3.11,25.39,25.39,0,0,1-2.66-9.49,27,27,0,0,1,0-4.84,29.17,29.17,0,0,1,.86-4.56,31.79,31.79,0,0,1,1.46-4.22,34.93,34.93,0,0,1,2-3.79,33.91,33.91,0,0,1,2.41-3.43c.44-.54.91-1.05,1.36-1.57.24-.25.46-.51.7-.76l.75-.71c-.08.42-.14.83-.2,1.24s-.09.85-.13,1.26c-.06.83-.11,1.64-.12,2.44a27.7,27.7,0,0,0,.41,4.71,24,24,0,0,0,1.15,4.28,18.82,18.82,0,0,0,1.92,3.71,15.05,15.05,0,0,0,2.52,2.88,11.15,11.15,0,0,0,3,1.82,8.59,8.59,0,0,0,1.57.47l.79.12a7.26,7.26,0,0,0,.8,0A8.35,8.35,0,0,0,123.55,663.85Z"/>
      <path class="cls-47" d="M130.29,657a1.56,1.56,0,0,0-.52-.19.19.19,0,0,1-.13,0,.26.26,0,0,1-.15,0,.2.2,0,0,1-.15,0,1.77,1.77,0,0,1-.33.08,7.58,7.58,0,0,0-3.38,2,15.4,15.4,0,0,1-1.24-6.61,16.27,16.27,0,0,1,1.9-7.2,15.52,15.52,0,0,1,6.11-6.27,20.92,20.92,0,0,1,10.24-2.7,25.64,25.64,0,0,1,11.78,15.48c.22.8.37,1.61.53,2.42.08.39.13.86.18,1.32s.09.92.12,1.38a26,26,0,0,1,0,2.79,20,20,0,0,1-.37,2.77,22.78,22.78,0,0,1-4.63,10,18.48,18.48,0,0,0-1.32-11.17,16,16,0,0,0-1.25-2.14,15.71,15.71,0,0,0-1.49-1.79,12.66,12.66,0,0,0-1.69-1.4,15.4,15.4,0,0,0-1.77-1,11.16,11.16,0,0,0-7.14-1A8.61,8.61,0,0,0,130.29,657Z"/>
      <path class="cls-48" d="M141.25,649.08a13,13,0,0,0-5-.27,12.27,12.27,0,0,0-4.19,1.34c-.31.17-.61.36-.89.54s-.55.42-.8.63a7.56,7.56,0,0,0-.69.7,6.13,6.13,0,0,0-.53.76,6.28,6.28,0,0,0-1,3.12,4.5,4.5,0,0,0,2.64,4.42H131l1.77-.26h0l-.1,0c-.1,0-.14.05-.11,0l.07-.06c0-.06-.05.11,0,.09h0v-.22h0c.07.48-.62-4.17-.33-2.2h0v0l0,.19a.24.24,0,0,1,0,.07h0s-.08-.11-.09-.1h0l.09.09.13.14a6.12,6.12,0,0,1,.91,1.23,6.63,6.63,0,0,1,.59,1.42,6.78,6.78,0,0,1,.26,1.57,7.75,7.75,0,0,1,0,.83c0,.26,0,.54-.1.82a8,8,0,0,1-.5,1.67,7.65,7.65,0,0,1-2.11,3.06,9.72,9.72,0,0,1-3.79,2,12.79,12.79,0,0,1-5,.32,15.3,15.3,0,0,1-5.43-1.9,18.27,18.27,0,0,1-5-4.29c-.11-.47-.2-.94-.29-1.42l-.06-.36-.05-.41-.08-.82a13.09,13.09,0,0,1-.06-1.66,15.56,15.56,0,0,1,.08-1.67,19,19,0,0,1,1.75-6.41,18,18,0,0,1,3-4.4,17.69,17.69,0,0,1,4-3.21,18.36,18.36,0,0,1,2.23-1.09,17.88,17.88,0,0,1,2.29-.73q.57-.13,1.14-.24c.38-.06.76-.1,1.13-.14l.56,0,.29,0h.34q.68,0,1.35,0a14.36,14.36,0,0,1,7.47,2.58A13.24,13.24,0,0,1,141.25,649.08Z"/>
      <path class="cls-49" d="M135.62,660.64l-7.27,1.27-1.41.23-.69.13-.18.05-.35.11-.28.12-.13.07-.21.09a8.9,8.9,0,0,0-.88.53c-.17.11-.31.24-.49.38a4.41,4.41,0,0,0-.52.45,8.75,8.75,0,0,0-1.55,1.81c-.26.39,0,.19.27-.89a5.44,5.44,0,0,0,.21-.92,8,8,0,0,0,.15-1.12,9.51,9.51,0,0,0,0-1.19c0-.19,0-.38-.06-.58v0c.18,1.5-.42-3.38.41,3.36h0v-.06c0-.26-.07-.22,0-.17s.1.08,0,0l-.07,0s0,0,0,0h.26l2.54-.45h0l-.15,0,.14,0h0l-2.54.45h-.27c-.06,0,0,0,0,0a6.36,6.36,0,0,1-3.65-6.45,10.8,10.8,0,0,1,2.28-5.76,12.42,12.42,0,0,1,1-1.06c.36-.32.76-.64,1.18-.95s.83-.56,1.29-.83a18.39,18.39,0,0,1,13.19-1.88,13.19,13.19,0,0,1,1.46,9.29,6.76,6.76,0,0,1-.65,1.63,5.11,5.11,0,0,1-.91,1.21A4.12,4.12,0,0,1,135.62,660.64Z"/>
      <path class="cls-29" d="M162.62,643.4a35.46,35.46,0,0,0-2.18-7.49,36,36,0,0,0-55-15A44.78,44.78,0,0,1,162.62,643.4Z"/>
      <path class="cls-29" d="M147.44,650.4a18.81,18.81,0,0,0-1.17-4A19.18,19.18,0,0,0,121.22,636a19.67,19.67,0,0,0-4.3,2.45A23.92,23.92,0,0,1,147.44,650.4Z"/>
      <path class="cls-50" d="M125.49,823.82c-1.18-.49-2.37-1-3.55-1.51,0,0,0,0,0,0,37.89-61.71-1.47-60.4,2.15-112.88,0,0,0,0,0,0,1.27,0,2.55.11,3.82.18,0,0,0,0,0,0-3.68,53.32,34.65,50.54-2.43,114.22C125.52,823.85,125.51,823.83,125.49,823.82Z"/>
      <path class="cls-29" d="M138.54,654a14.48,14.48,0,0,0-1.23-2.33c-3.68-5.62-10.64-7.58-15.55-4.37a9.39,9.39,0,0,0-2.05,1.82C125.64,645.3,133.89,647.49,138.54,654Z"/>
    </g>
    <g>
      <path class="cls-51" d="M187.35,834.1a22.12,22.12,0,0,0,2.69-6,13.86,13.86,0,0,0,.32-1.5,12.74,12.74,0,0,0,.14-1.48q0-.37,0-.72a5.51,5.51,0,0,0-.06-.7c0-.23-.07-.45-.12-.67a5,5,0,0,0-.18-.63l.71.09c.23,0,.46.08.7.13a4.61,4.61,0,0,1,1.37.54l1.94,1.22a2.11,2.11,0,0,1,.95,1.55,3.63,3.63,0,0,1,0,.58,4.71,4.71,0,0,1-.07.62,5.76,5.76,0,0,1-.44,1.36c-.11.23-.24.47-.38.71s-.3.45-.47.68l-.28.35a3.11,3.11,0,0,1-.29.33c-.2.21-.42.43-.65.64a5.81,5.81,0,0,1-.73.58c-.25.19-.52.38-.79.55a12,12,0,0,1-1.76.86c-.44.17-.88.34-1.32.48S187.79,834,187.35,834.1Z"/>
      <path class="cls-52" d="M177.42,824a16.94,16.94,0,0,0,7.08-.38,19.82,19.82,0,0,1-3.23,6,23.14,23.14,0,0,1-5.57,5.13,24.94,24.94,0,0,1-5.81-1.67,22,22,0,0,1-5.36-3.26,17.51,17.51,0,0,0,7.5-1.74A17.3,17.3,0,0,0,177.42,824Z"/>
      <path class="cls-53" d="M168.15,816.2a11.39,11.39,0,0,0,1.34,2.95,9.8,9.8,0,0,0,2,2.3,13,13,0,0,1-6.58.63,19.22,19.22,0,0,1-7.15-2.68l-.22-.72-.18-.72c-.11-.48-.22-1-.32-1.44s-.17-1-.23-1.47-.12-1-.15-1.51a22.51,22.51,0,0,1,.42-6.2,18.11,18.11,0,0,0,5,5.83,16.6,16.6,0,0,0,1.47,1c.49.31,1,.59,1.5.84s1,.48,1.55.68l.77.29Z"/>
      <path class="cls-54" d="M170.73,804.29c-.2.18-.38.38-.56.57l-.26.31-.13.15-.12.15a10.8,10.8,0,0,0-.87,1.29c-.11.23-.25.44-.35.68s-.11.23-.16.35l-.13.35-.07.18-.06.18-.12.36-.1.37c0,.13-.07.25-.09.38l-.57-.54-.55-.59c-.17-.2-.34-.41-.5-.63l-.25-.33-.24-.34q-.22-.34-.45-.72c-.14-.25-.27-.49-.4-.75a14.75,14.75,0,0,1-.69-1.63,18.44,18.44,0,0,1-.87-7.63,23.26,23.26,0,0,1,4.95-3.63,23,23,0,0,1,2.8-1.3,20.92,20.92,0,0,1,3-.93,17,17,0,0,0-2.05,3.46,18.07,18.07,0,0,0-1.16,3.54A15.3,15.3,0,0,0,170.73,804.29Z"/>
      <path class="cls-55" d="M175.7,834.73a23.14,23.14,0,0,0,5.57-5.13,19.82,19.82,0,0,0,3.23-6c.26-.06.51-.16.76-.23s.5-.17.74-.27a10.56,10.56,0,0,1,2.19-.61l.5-.06c.16,0,.33,0,.5,0h.47l.48,0a5,5,0,0,1,.18.63c.05.22.09.44.12.67a5.51,5.51,0,0,1,.06.7q0,.34,0,.72a12.74,12.74,0,0,1-.14,1.48,13.86,13.86,0,0,1-.32,1.5,22.12,22.12,0,0,1-2.69,6,28,28,0,0,1-5.79.93A26.87,26.87,0,0,1,175.7,834.73Z"/>
      <path class="cls-56" d="M171.49,821.45a12.4,12.4,0,0,0,5.93,2.54,17.3,17.3,0,0,1-5.39,4.07,17.51,17.51,0,0,1-7.5,1.74,20.61,20.61,0,0,1-4.2-4.79,22,22,0,0,1-2.57-5.61,19.22,19.22,0,0,0,7.15,2.68A13,13,0,0,0,171.49,821.45Z"/>
      <path class="cls-57" d="M167.71,809.61a11.57,11.57,0,0,0-.2,3.19c0,.28.06.57.08.85s.09.57.14.86.13.57.19.86l.1.43.13.4-.78-.22-.77-.29c-.5-.2-1-.43-1.55-.68s-1-.53-1.5-.84a16.6,16.6,0,0,1-1.47-1,18.11,18.11,0,0,1-5-5.83,21.17,21.17,0,0,1,2.25-5.94,21.59,21.59,0,0,1,1.77-2.63l.24-.31.25-.3.52-.6c.35-.37.7-.76,1.08-1.11a18.44,18.44,0,0,0,.87,7.63,14.75,14.75,0,0,0,.69,1.63c.13.26.26.5.4.75s.3.49.45.72l.24.34.25.33c.16.22.33.43.5.63l.55.59Z"/>
      <path class="cls-58" d="M176.34,801.21a9.94,9.94,0,0,0-1.48.45,12.51,12.51,0,0,0-1.49.69,12.75,12.75,0,0,0-2.64,1.94,15.3,15.3,0,0,1,0-6.7,18.07,18.07,0,0,1,1.16-3.54,17,17,0,0,1,2.05-3.46l.81-.16.4-.07.43-.06.83-.09.82-.05a18.8,18.8,0,0,1,3.27.14,20,20,0,0,1,6.18,1.84,16.48,16.48,0,0,0-6.86,3.55,12.43,12.43,0,0,0-2.24,2.62,9,9,0,0,0-.76,1.43l-.15.36-.13.37C176.48,800.72,176.41,801,176.34,801.21Z"/>
      <path class="cls-59" d="M186.62,806.16a11.31,11.31,0,0,0-4.63-4.22,12,12,0,0,1,2.87-1.47,15.43,15.43,0,0,1,3.38-.79,18.56,18.56,0,0,1,7.64.77,21,21,0,0,1,2.49,5.83c.07.26.13.53.19.8s.11.53.15.8.09.55.12.82l.08.77.06.78,0,.8v.79l-.05.82-.63-.83c-.23-.26-.46-.52-.69-.76s-.46-.48-.69-.71l-.74-.65-.74-.59c-.25-.2-.51-.39-.77-.56s-.53-.34-.79-.5-.53-.3-.8-.43A13.68,13.68,0,0,0,186.62,806.16Z"/>
      <path class="cls-60" d="M182,801.94a9.23,9.23,0,0,0-2.83-.86,9.78,9.78,0,0,0-1.43-.06,8,8,0,0,0-1.39.19c.07-.26.14-.49.23-.74l.13-.37.15-.36a9,9,0,0,1,.76-1.43,12.43,12.43,0,0,1,2.24-2.62,16.48,16.48,0,0,1,6.86-3.55,19,19,0,0,1,2.74,1.59,20.18,20.18,0,0,1,2.46,1.94,22.49,22.49,0,0,1,4,4.78,18.56,18.56,0,0,0-7.64-.77,15.43,15.43,0,0,0-3.38.79A12,12,0,0,0,182,801.94Z"/>
      <path class="cls-61" d="M188.1,812l0-.36v-.77l0-.4,0-.4,0-.35c0-.12-.05-.24-.07-.36s0-.23-.08-.35a10.39,10.39,0,0,0-1.22-2.82,13.68,13.68,0,0,1,6.48,1.47c.27.13.54.28.8.43s.54.32.79.5.52.36.77.56l.74.59.74.65c.23.23.46.46.69.71s.46.5.69.76l.63.83a16.84,16.84,0,0,1-1.77,6.68c-.14.27-.3.54-.46.81l-.24.4-.12.19-.14.2-.56.75a2.63,2.63,0,0,1-.29.37l-.31.36-.65.69c-.23.22-.47.42-.71.63s-.47.41-.73.59l-.76.53c.13-.36.25-.72.36-1.07s.18-.73.25-1.08.13-.71.16-1.06.05-.71.05-1v-.5a4,4,0,0,0,0-.5c0-.34-.08-.66-.13-1l0-.23-.06-.23-.12-.46c-.09-.3-.18-.58-.29-.86s-.25-.55-.38-.81a7.94,7.94,0,0,0-.42-.75c-.16-.24-.32-.47-.49-.69l-.25-.32a4.12,4.12,0,0,0-.28-.31,7.73,7.73,0,0,0-.56-.58c-.18-.17-.4-.36-.6-.52s-.41-.33-.61-.47S188.32,812.1,188.1,812Z"/>
      <path class="cls-62" d="M181,816.55a9.7,9.7,0,0,0,3,0,5.49,5.49,0,0,0,2.26-.81c0,.12,0,.24.08.37s0,.24,0,.36,0,.49,0,.75a4.81,4.81,0,0,1-.06.77c0,.26-.08.53-.14.8a11.36,11.36,0,0,1-.54,1.58,14.5,14.5,0,0,1-.82,1.55,15.3,15.3,0,0,1-2.38,2.89,18.83,18.83,0,0,1-3.19,2.45,18.93,18.93,0,0,1-6.23-2.11,14.41,14.41,0,0,1-3-2.2,12,12,0,0,1-2.51-3.36,9.27,9.27,0,0,0,4.39,1.4,9.75,9.75,0,0,0,3.78-.59,11.34,11.34,0,0,0,3-1.65A12.24,12.24,0,0,0,181,816.55Z"/>
      <path class="cls-63" d="M178.13,812.5l-.09.09a.34.34,0,0,0-.08.09l-.17.19a4.85,4.85,0,0,0-.28.4c-.09.12-.13.26-.21.38a3.3,3.3,0,0,0-.11.34,2,2,0,0,0-.06.27c0,.07,0,.14,0,.19s0,.06,0,.08v0l0,0a.34.34,0,0,0,0,.12,3.85,3.85,0,0,1-1.35.25l-.36,0-.36-.06a3.73,3.73,0,0,1-.7-.21,5,5,0,0,1-1.36-.81,7.11,7.11,0,0,1-1.13-1.29,8.47,8.47,0,0,1-.86-1.67,10.5,10.5,0,0,1-.51-1.91,13.14,13.14,0,0,1-.19-2.11c0-.36,0-.72.06-1.09,0-.19,0-.38.05-.57l.09-.55a14.42,14.42,0,0,1,3-2.24,13.53,13.53,0,0,1,3.64-1.42c.34-.08.67-.14,1-.2s.74-.08,1.11-.11h1.12c.37,0,.74.06,1.11.11a11.36,11.36,0,0,1,4.19,1.48,9.38,9.38,0,0,0-4.58,1.21,7,7,0,0,0-2.74,2.81,7.3,7.3,0,0,0-.85,3.22A6.91,6.91,0,0,0,178.13,812.5Z"/>
      <path class="cls-64" d="M181.07,812l.06,0H181l-.45.07h0s0,0,0-.06a.67.67,0,0,0-.31-.4,3.9,3.9,0,0,1,2.36-1.47,5,5,0,0,1,3.2.45,6.56,6.56,0,0,1,.79.47,4.88,4.88,0,0,1,.76.63,6.75,6.75,0,0,1,.67.8,5.59,5.59,0,0,1,.55,1,8.22,8.22,0,0,1,.6,5,10.31,10.31,0,0,1-3.93,3l-.58.24-.59.19a10.56,10.56,0,0,1-1.21.28,6.05,6.05,0,0,1-.67.09c-.23,0-.46.05-.7.05h-.71l-.7-.07a9.2,9.2,0,0,1-2.72-.77A9.87,9.87,0,0,1,175,820a9.64,9.64,0,0,1-1.79-2.18,9.46,9.46,0,0,1-1.05-2.62,8.34,8.34,0,0,0,2.22,1.93,7.08,7.08,0,0,0,2.43.85,5.67,5.67,0,0,0,2.24-.15,4.34,4.34,0,0,0,1.7-.91,3.44,3.44,0,0,0,.94-1.37,3.38,3.38,0,0,0,.22-.75,2.35,2.35,0,0,0,.05-.37,2.29,2.29,0,0,0,0-.37,2.76,2.76,0,0,0-.11-.7,3.61,3.61,0,0,0-.27-.64,3.09,3.09,0,0,0-.4-.55l-.06-.06,0,0h0Z"/>
      <path class="cls-65" d="M186.24,815.77a3.61,3.61,0,0,0,1.27-1.41,6.25,6.25,0,0,0,.59-2.39c.22.13.44.28.66.43s.41.3.61.47.42.35.6.52a7.73,7.73,0,0,1,.56.58,4.12,4.12,0,0,1,.28.31l.25.32c.17.22.33.45.49.69a7.94,7.94,0,0,1,.42.75c.13.26.26.53.38.81s.2.56.29.86l.12.46.06.23,0,.23c0,.31.1.63.13,1a4,4,0,0,1,0,.5v.5c0,.34,0,.69-.05,1s-.1.69-.16,1.06-.15.73-.25,1.08-.23.71-.36,1.07l-.39.26c-.13.09-.27.15-.4.23l-.81.43a6.66,6.66,0,0,1-.82.37l-.82.33-.42.15-.41.12-.83.24c-.54.13-1.09.23-1.63.33a18.16,18.16,0,0,1-3.26.24,21,21,0,0,1-3.16-.27,18.83,18.83,0,0,0,3.19-2.45,15.3,15.3,0,0,0,2.38-2.89,14.5,14.5,0,0,0,.82-1.55,11.36,11.36,0,0,0,.54-1.58c.06-.27.1-.54.14-.8a4.81,4.81,0,0,0,.06-.77q0-.39,0-.75c0-.12,0-.24,0-.36S186.27,815.89,186.24,815.77Z"/>
      <path class="cls-66" d="M177.2,814.72a1.53,1.53,0,0,0,.31.39,4.51,4.51,0,0,0,.8.57,8.61,8.61,0,0,0,2.68.87,12.24,12.24,0,0,1-2.31,2.23,11.34,11.34,0,0,1-3,1.65,9.75,9.75,0,0,1-3.78.59,9.27,9.27,0,0,1-4.39-1.4,11.38,11.38,0,0,1-1.2-4.25,12,12,0,0,1,0-2.16,13.51,13.51,0,0,1,.38-2.05,13.19,13.19,0,0,1,.66-1.89,16.15,16.15,0,0,1,.9-1.7,14,14,0,0,1,1.08-1.53c.19-.24.4-.47.61-.7s.2-.23.31-.34l.33-.32-.09.55c0,.19,0,.38-.05.57,0,.37-.05.73-.06,1.09a13.14,13.14,0,0,0,.19,2.11,10.5,10.5,0,0,0,.51,1.91,8.47,8.47,0,0,0,.86,1.67,7.11,7.11,0,0,0,1.13,1.29,5,5,0,0,0,1.36.81,3.73,3.73,0,0,0,.7.21l.36.06.36,0A3.85,3.85,0,0,0,177.2,814.72Z"/>
      <path class="cls-67" d="M180.22,811.66a.63.63,0,0,0-.23-.08.07.07,0,0,1-.06,0h-.13l-.15,0a3.5,3.5,0,0,0-1.52.89,6.91,6.91,0,0,1-.55-3,7.3,7.3,0,0,1,.85-3.22,7,7,0,0,1,2.74-2.81,9.38,9.38,0,0,1,4.58-1.21,11.47,11.47,0,0,1,5.28,6.93c.1.36.16.72.23,1.09,0,.17.06.38.09.59s0,.41.05.61c0,.42,0,.84,0,1.25a10,10,0,0,1-.17,1.24,10.17,10.17,0,0,1-2.07,4.49,8.22,8.22,0,0,0-.6-5,5.59,5.59,0,0,0-.55-1,6.75,6.75,0,0,0-.67-.8,4.88,4.88,0,0,0-.76-.63,6.56,6.56,0,0,0-.79-.47,5,5,0,0,0-3.2-.45A3.9,3.9,0,0,0,180.22,811.66Z"/>
      <path class="cls-68" d="M185.13,808.1a5.9,5.9,0,0,0-2.23-.12,5.68,5.68,0,0,0-1.88.6,3.73,3.73,0,0,0-.39.25,3.44,3.44,0,0,0-.36.28,3,3,0,0,0-.31.31,3.53,3.53,0,0,0-.24.34,2.94,2.94,0,0,0-.44,1.4,2,2,0,0,0,1.19,2h.07l.79-.12h-.11l0,0s0,0,0,0h0v-.1h0c0,.21-.28-1.87-.15-1h0a.81.81,0,0,1,0,.09v0h0s0-.05,0-.05h0l0,0,.06.06a3.09,3.09,0,0,1,.4.55,3.61,3.61,0,0,1,.27.64,2.76,2.76,0,0,1,.11.7,2.29,2.29,0,0,1,0,.37,2.35,2.35,0,0,1-.05.37,3.38,3.38,0,0,1-.22.75,3.44,3.44,0,0,1-.94,1.37,4.34,4.34,0,0,1-1.7.91,5.67,5.67,0,0,1-2.24.15,7.08,7.08,0,0,1-2.43-.85,8.34,8.34,0,0,1-2.22-1.93c0-.21-.09-.42-.13-.63l0-.16,0-.18,0-.37q0-.37,0-.75a6.12,6.12,0,0,1,0-.74,8.34,8.34,0,0,1,.79-2.87,8.18,8.18,0,0,1,1.33-2,7.66,7.66,0,0,1,1.8-1.43,7,7,0,0,1,1-.49,8.2,8.2,0,0,1,1-.33l.51-.1.51-.07.25,0H180a6.32,6.32,0,0,1,2,.42,6,6,0,0,1,1.4.74A6.07,6.07,0,0,1,185.13,808.1Z"/>
      <path class="cls-69" d="M182.61,813.28l-3.26.57-.63.1-.3.06-.09,0-.16.05-.12,0-.06,0-.09,0a2.59,2.59,0,0,0-.39.24l-.23.17a2.11,2.11,0,0,0-.23.19,3.91,3.91,0,0,0-.69.82c-.12.17,0,.08.12-.4a3.62,3.62,0,0,0,.09-.41,2.73,2.73,0,0,0,.07-.51,4.69,4.69,0,0,0,0-.53,2.46,2.46,0,0,0,0-.26h0c.09.67-.18-1.51.19,1.51h0v0c0-.11,0-.09,0-.07s0,0,0,0l0,0h.12l1.14-.2h0l-.07,0,.07,0h0l-1.14.2h-.09a2.83,2.83,0,0,1-1.64-2.88,4.5,4.5,0,0,1,.67-2.08,5.62,5.62,0,0,1,.35-.5,5.16,5.16,0,0,1,.46-.48,5.6,5.6,0,0,1,.52-.42c.18-.13.38-.26.58-.38a8.36,8.36,0,0,1,5.91-.84,5.89,5.89,0,0,1,.65,4.16,2.85,2.85,0,0,1-.29.73,2.39,2.39,0,0,1-.41.55A1.81,1.81,0,0,1,182.61,813.28Z"/>
      <path class="cls-29" d="M194.7,805.56a16.63,16.63,0,0,0-1-3.36,16.11,16.11,0,0,0-24.62-6.69A20.05,20.05,0,0,1,194.7,805.56Z"/>
      <path class="cls-29" d="M187.9,808.69a8.46,8.46,0,0,0-.52-1.79,8.59,8.59,0,0,0-11.22-4.67,8.41,8.41,0,0,0-1.92,1.1A10.7,10.7,0,0,1,187.9,808.69Z"/>
      <path class="cls-70" d="M178.07,886.36l-1.59-.67s0,0,0,0c17-27.64-.66-27,1-50.55h0l1.71.08h0c-1.66,23.88,15.51,22.64-1.1,51.16Z"/>
      <path class="cls-29" d="M183.92,810.29a6.09,6.09,0,0,0-.55-1c-1.65-2.52-4.77-3.4-7-2a4.16,4.16,0,0,0-.91.81C178.14,806.41,181.83,807.39,183.92,810.29Z"/>
    </g>
  </g>
</svg>
