<svg xmlns="http://www.w3.org/2000/svg" xmlns:xlink="http://www.w3.org/1999/xlink" width="300" height="125" viewBox="0 0 300 125">
  <defs>
    <style>
      .cls-1 {
        fill: #fff;
      }

      .cls-2 {
        stroke-miterlimit: 10;
        stroke-width: 2px;
        fill: url(#linear-gradient);
        stroke: url(#linear-gradient-2);
      }

      .cls-3 {
        fill: url(#linear-gradient-3);
      }
    </style>
    <linearGradient id="linear-gradient" x1="150" y1="123.66" x2="150" y2="1.34" gradientUnits="userSpaceOnUse">
      <stop offset="0" stop-color="#ff667e"/>
      <stop offset="1" stop-color="#ffa1a1"/>
    </linearGradient>
    <linearGradient id="linear-gradient-2" x1="1.82" y1="62.5" x2="298.18" y2="62.5" gradientUnits="userSpaceOnUse">
      <stop offset="0" stop-color="#ff667e"/>
      <stop offset="0" stop-color="#ff9da1"/>
    </linearGradient>
    <linearGradient id="linear-gradient-3" x1="151.75" y1="18.97" x2="150.41" y2="155.14" gradientUnits="userSpaceOnUse">
      <stop offset="0" stop-color="#683d1f"/>
      <stop offset="0.21" stop-color="#6c4122"/>
      <stop offset="0.64" stop-color="#c69c6d"/>
    </linearGradient>
  </defs>
  <g id="text">
    <path class="cls-1" d="M97.71,48.26a23.33,23.33,0,0,0-11.36-4,25.13,25.13,0,0,0-13.53,2.58c-.47.23-.16.88.29.84-3.67,7.43-3.29,15.94-2.61,24,.32,3.78.45,8.22,3.48,11,2.61,2.36,6.33,1.89,8.92-.26,3.26-2.7,3.67-7.27,3.15-11.23,4.1-.91,8.37-1.9,11.81-4.42,3-2.17,5.37-5.61,5.34-9.42S100.68,50.37,97.71,48.26Zm.36,17.16c-3.52,3-8.27,4-12.65,4.94a.48.48,0,0,0-.32.57c.53,3.44.37,7.54-2.19,10.19-2.19,2.29-5.85,3.13-8.34.82-2.83-2.61-2.87-6.89-3.17-10.45A83.59,83.59,0,0,1,71,60.3a30.7,30.7,0,0,1,2.89-12.18.46.46,0,0,0-.23-.64,24.18,24.18,0,0,1,22,.59c3,1.71,5.81,4.39,6.46,7.91S100.77,63.14,98.07,65.42Z"/>
    <path class="cls-1" d="M90.45,55.57c-2.14-1.52-4.91-1.1-7.25-.31a.46.46,0,0,0-.3.56s0,0,0,0A5.62,5.62,0,0,0,83.15,61a5.22,5.22,0,0,0,4.74,2.58,4.61,4.61,0,0,0,4.2-3.11A4.27,4.27,0,0,0,90.45,55.57Zm.93,3.91a3.64,3.64,0,0,1-3,3.13A4.29,4.29,0,0,1,84.25,61a4.72,4.72,0,0,1-.58-4.69.49.49,0,0,0,0-.26,7.65,7.65,0,0,1,5.43-.17A3.46,3.46,0,0,1,91.38,59.48Z"/>
    <rect class="cls-2" x="2.82" y="1.34" width="294.36" height="122.32" rx="24.26"/>
    <g>
      <path class="cls-3" d="M87.27,74.11c.22,1-.19,1.88,0,2.76.16,1,.88,2,.89,2.82,0,1.1-.85,1.91-1.15,2.69A11.24,11.24,0,0,1,85.78,85a3,3,0,0,1-2.33,1.58c-.77.06-1.7.21-2.94.3A25.06,25.06,0,0,1,77.7,87c-1,0-1.86-.69-2.7-.89a5.67,5.67,0,0,1-2.31-1.2c-1-.78-2-1-2.62-1.5-.87-.72-1.8-1.15-2.27-2.08-.34-.7-.26-1.76-.61-3a11.53,11.53,0,0,1-.7-2.13c0-.74.69-1.5.68-2.22A19.6,19.6,0,0,0,67,71.76c-.14-1.09-.87-2.14-.86-3.18s.41-2.17.43-3.2-.07-2.2,0-3.21a30.06,30.06,0,0,1,.11-3.23,13.56,13.56,0,0,1,.83-3.12c.27-.78.38-1.36.94-3,.3-.88,1.09-1.54,1.39-2.32A17.74,17.74,0,0,1,71,48.15c.45-.8.54-1.81,1.14-2.42a13.31,13.31,0,0,1,2.18-1.57,16.77,16.77,0,0,1,2.36-1.25c.84-.36,1.8-.3,2.6-.57a14.44,14.44,0,0,0,2.41-1.4,11.94,11.94,0,0,1,2.58-1.13,13.86,13.86,0,0,1,2.81,0,10.89,10.89,0,0,1,2.27.79,19.61,19.61,0,0,1,2.2.79c.77.29,1.57.38,2.27.6s1.49.56,2.19.83a22.78,22.78,0,0,1,2.31.61,11.47,11.47,0,0,1,2,1.37,20,20,0,0,1,1.78,1.64,17.56,17.56,0,0,1,1.55,1.86,14.63,14.63,0,0,1,1,2.21c.44.94.16,1.87.38,2.43.36.9.87,1.31.92,2.14,0,.59-.3,1.32-.28,2.39,0,.85.37,1.67.36,2.46a24.53,24.53,0,0,1,.12,2.5,11.62,11.62,0,0,1-.59,2.44,7.58,7.58,0,0,1-1.43,2A13.82,13.82,0,0,1,102.69,69c-.65.56-1.66.65-2.26,1.14s-1,1.42-1.66,1.8a17.61,17.61,0,0,1-2.2,1,16.56,16.56,0,0,1-2.33.66,6.91,6.91,0,0,1-2.73.16c-1-.2-1.72-.7-2.45-.76S88.07,73.08,87.27,74.11ZM84.66,58.88c.13,1.8.88,2.15,2.24,2.15.65,0,1.2-.69,1.77-1s1.6-.41,1.6-1.18a2.86,2.86,0,0,0-1.23-2c-.55-.38-1.41-.21-2.14-.21a2.45,2.45,0,0,0-1.62.72A1.42,1.42,0,0,0,84.66,58.88Z"/>
      <path class="cls-3" d="M147.33,74c.11.52-.34,1.6-.38,2.85,0,.84.46,1.92.16,2.89s-1.35,1.34-1.93,2.16a5.72,5.72,0,0,1-1.89,1.79A16.45,16.45,0,0,1,141,85.26c-.81.32-1.63.79-2.54,1.12s-1.65.62-2.56,1-1.86,0-2.8.27a12.39,12.39,0,0,1-2.66.25c-.95,0-1.86.51-2.76.5s-2,.37-2.82.27a11.72,11.72,0,0,1-2.64-1,10.31,10.31,0,0,1-2.64-1c-.77-.57-1-1.77-1.57-2.42s-1.33-1.39-1.89-2c-.8-.89-1.91-1.08-2.31-1.61a6.53,6.53,0,0,1-.9-2.65c-.17-.64-.43-1.42-.75-2.58-.27-.8-.64-1.6-.86-2.46s-.22-1.72-.37-2.59-.48-1.69-.54-2.56.48-1.75.53-2.61.25-1.72.34-2.56-.36-1.8-.32-2.62c.06-1.14.22-1.95.21-2.59,0-1.09-.12-1.71-.09-2.6,0-.63.47-1.35.67-2.53a18.94,18.94,0,0,1,.16-2.61,16,16,0,0,1,.87-2.51,15.17,15.17,0,0,1,1.55-2.14c.74-.91,1.63-1.34,2.08-1.92a4.22,4.22,0,0,1,2.09-1.65,7.23,7.23,0,0,1,2.71-.44,5.68,5.68,0,0,1,2.2.43,8.49,8.49,0,0,1,2.19.78,16,16,0,0,1,1.69,1.57,15.16,15.16,0,0,1,1.51,1.67,12.37,12.37,0,0,1,1.23,1.9,12.55,12.55,0,0,1,.57,2.19c.19.69-.27,1.55-.11,2.29s.7,1.34.81,2.07-.16,1.48-.11,2.2.39,1.44.37,2.17.24,1.49.19,2.2-.16,1.49-.19,2.18a5.61,5.61,0,0,1-.81,2.13,19.63,19.63,0,0,0-.68,2.16c-.23.58-.42,1.15.68,1.85.71-.39,1.3-1.21,1.92-1.41a13.25,13.25,0,0,1,2.19-.49c.75-.11,1.46-.12,2.16-.23a13.71,13.71,0,0,1,2.33-.26,8.25,8.25,0,0,1,2.3.55c.75.26,1.14,1.11,1.72,1.57.8.64,1.6.83,2,1.25.63.63.54,1.32.78,2.16C146.32,72.42,147.15,73,147.33,74Z"/>
      <path class="cls-3" d="M177.14,86.21c-.87-.54-1.39-1.6-2.15-2.19s-2.08-1-2.56-1.76c-.39-.63,0-1.65-.16-2.33a13.93,13.93,0,0,1-.57-2.08c-.15-1-.45-1.61-.49-2a9,9,0,0,1,0,2,16.19,16.19,0,0,1-.58,2.15c-.22.67-1.07,1.09-1.45,1.73s-1.09,1.63-1.75,2.52-1,1.87-1.87,2.42a23.39,23.39,0,0,1-2.16,1.6,5.51,5.51,0,0,1-2.71,0A9.58,9.58,0,0,1,158.1,88c-.7-.26-1.24-1.28-2.18-1.62A5.39,5.39,0,0,1,154,85.31c-.59-.54-1.64-.74-2-1.42a14.55,14.55,0,0,1-.67-2.34c-.35-1-.7-1.65-.88-2.23a7.46,7.46,0,0,1-.54-2.39c0-.6.22-1.35.3-2.39a20.12,20.12,0,0,1,0-2.33c.13-.76.82-1.41,1-2.14s.46-1.49.58-2.22-.31-1.61-.22-2.36.33-1.51.45-2.25a14.48,14.48,0,0,1,.51-2.23c.25-.74.88-1.31,1.18-2s.21-1.6.55-2.26.5-1.47.83-2.14a15.88,15.88,0,0,0,.92-2.08c.27-.75.94-1.33,1.21-2a9.82,9.82,0,0,1,1.07-2,12,12,0,0,1,1.52-2.14,16,16,0,0,1,2.09-1.61c.78-.54,1.31-1.33,2-1.78a19.66,19.66,0,0,1,2.32-1.29,18.56,18.56,0,0,1,2.43-1.06,13.73,13.73,0,0,1,2.66-.59c.15,0,1.21.22,2.68.54.75.16,1.38,1,2.31,1.43a13.31,13.31,0,0,1,2.51.89,17,17,0,0,1,1.77,1.93,20.25,20.25,0,0,1,2,1.72c.52.66,1.28,1.21,1.79,2s.8,1.27,1.27,1.93.62,1.4,1,2.07,1.2,1.08,1.55,1.79,0,1.61.23,2.39.85,1.38,1,2.15a19.23,19.23,0,0,0,.54,2.21c.23.71.41,1.45.63,2.2s.51,1.43.69,2.18.21,1.51.34,2.28-.18,1.6.05,2.36.8,1.36,1,2.12a11.39,11.39,0,0,1-.1,2.32,14.08,14.08,0,0,1,.31,2.44,8.72,8.72,0,0,1-1,2.22c-.29.58-.13,1.46-.48,2.44-.26.72-1,1.35-1.29,2.11a7.58,7.58,0,0,1-1.43,1.91,4.21,4.21,0,0,1-1.89,1.28c-1,.34-1.61,1-2.29,1.12a7.05,7.05,0,0,1-2.6.43,8.34,8.34,0,0,1-2.45-1C178.72,87.17,178,86.73,177.14,86.21Zm-7.91-20c.13,1.8.87,2.15,2.23,2.15.65,0,1.2-.7,1.76-1s1.62-.4,1.62-1.17a2.88,2.88,0,0,0-1.24-2c-.54-.38-1.41-.19-2.14-.19a2.38,2.38,0,0,0-1.61.72A1.4,1.4,0,0,0,169.23,66.22Z"/>
      <path class="cls-3" d="M228,40.44c1,.12,1.8.9,2.63,1.13,1,.28,2.12,0,2.85.47.88.52,1,1.7,1.51,2.43a8.42,8.42,0,0,1,1.25,2.41,5.07,5.07,0,0,1,.18,2.77c-.21.73-.33,1.62-.58,2.76s-.39,2-.56,3a7.88,7.88,0,0,1-1.51,2.68c-.56.9-1.21,1.75-1.77,2.6s-.89,2.06-1.6,2.7-1.19,1.35-1.74,1.51c-.82.24-1.63-.25-2.26-.08s-.68.54-1.17,1.47c.3,1-.28,2-.18,2.93s.22,2,.28,2.94.83,2,.82,3a14.53,14.53,0,0,1-.62,3,14.39,14.39,0,0,1-.73,2.92,19.25,19.25,0,0,1-1.64,2.52,12.92,12.92,0,0,1-2,2.09,7.4,7.4,0,0,1-2.35,1.75c-.82.3-1.85-.07-2.92-.07-1.25,0-2.17-.12-2.89-.15-1.34-.07-2.14.2-2.85-.46-.5-.46-.94-1.28-1.8-2.32-.67-.77-1.42-1.57-2.07-2.42a7.3,7.3,0,0,1-1.12-2.91,10.07,10.07,0,0,1-.59-3.1c.09-1.1,0-2.18,0-3.15a8.12,8.12,0,0,1,.72-3.15c.33-.84.92-1.38.09-2.88A3.7,3.7,0,0,0,204,65.07c-.63-.28-1.38,0-2.25-.33a6.52,6.52,0,0,1-1.92-1.15,16.4,16.4,0,0,1-1.93-1.23c-.5-.53-1-1.15-1.46-1.75s-1-1.17-1.39-1.79-.87-1.25-1.25-1.94a16.87,16.87,0,0,1-.75-2.21c-.26-.7.18-1.56.09-2.32a10.61,10.61,0,0,1-.38-2.76,9.48,9.48,0,0,1,1.17-2.53A23.43,23.43,0,0,1,195,44.5c.68-1,1-1.92,1.42-2.46a4,4,0,0,1,2.47-1.46c.68-.14,1.6.08,2.83,0,.78,0,1.53-.56,2.27-.59s1.57.5,2.29.57,1.72-.24,2.38.11a6.47,6.47,0,0,1,1.83,1.58,14.67,14.67,0,0,1,1.24,2c.4.7.84,1.3,1.25,1.88a8.18,8.18,0,0,1,1,2.07c.31.86-.12,1.71.27,2.28s.94.61,1.88,1.1c.27-1,.78-1.83.91-2.69.17-1,0-2,.45-2.82A6.12,6.12,0,0,1,219.76,44c1-.6,1.73-1.44,2.48-1.91A13.37,13.37,0,0,1,225,40.83,4.28,4.28,0,0,1,228,40.44Z"/>
    </g>
    <path class="cls-1" d="M141.76,72.86c-2.92-2.89-7.3-.73-10.82-1.24a4.35,4.35,0,0,1-3.79-3.32,14.81,14.81,0,0,1,.06-5.59l1-7.18a16.43,16.43,0,0,0,.15-6.13c-1-4-5.34-5.38-9-5.29-1.15,0-2.3.16-3.45.29a.29.29,0,0,0-.1,0,.39.39,0,0,0-.52.31,102.56,102.56,0,0,0-1.65,14.09c-.11,2.34-.14,4.69-.08,7a34.47,34.47,0,0,0,.62,6.49,15.43,15.43,0,0,0,6.16,9.35A19.45,19.45,0,0,0,132,85.09c3.57-.07,7.61-1,9.92-3.92C143.68,78.87,144,75,141.76,72.86ZM134.6,84c-7.5,1.2-16.26-2.13-19-9.69-1.42-3.94-1.29-8.4-1.21-12.53a99.06,99.06,0,0,1,1.14-13.44c.15-1,.33-2,.51-3,3.61-.4,8.38-.77,10.68,2.69,1.13,1.69,1,3.82.77,5.75-.27,2.24-.6,4.47-.9,6.71-.43,3.16-1.52,7.37.63,10.15,2.39,3.08,6.58,1.7,9.85,1.65a5.08,5.08,0,0,1,4.53,1.87,5.42,5.42,0,0,1,.62,4.18C141.42,81.79,137.85,83.43,134.6,84Z"/>
    <path class="cls-1" d="M188.9,77.31a78.32,78.32,0,0,0-2-15.24c-1.06-4.51-2.34-9.31-5.08-13.13-2.39-3.34-6.29-6-10.56-5.71s-7.31,3.39-9.6,6.62a48.05,48.05,0,0,0-6.24,12.49,49.65,49.65,0,0,0-1.77,6.91,21.53,21.53,0,0,0-.35,6.79,9.7,9.7,0,0,0,2.53,5.58A7.81,7.81,0,0,0,160.58,84a5.64,5.64,0,0,0,2-.19l-.08.1c-.35.48.45.94.8.46.79-1.09,1.59-2.17,2.39-3.26a28.27,28.27,0,0,1,2.07-2.69,4.1,4.1,0,0,1,2.76-1.54,4.23,4.23,0,0,1,2.91,1.23c1.71,1.55,2.51,3.85,4.12,5.5A7.77,7.77,0,0,0,183,86.05a5.83,5.83,0,0,0,4.91-2.64C189,81.61,189,79.35,188.9,77.31Zm-1.33,4.63A4.82,4.82,0,0,1,183,85.13a7,7,0,0,1-5.31-2.73c-1.39-1.66-2.2-3.79-3.91-5.19a4.5,4.5,0,0,0-5.14-.72c-1.75,1-2.88,2.93-4,4.51l-1.3,1.77a.39.39,0,0,0-.4-.06,5.54,5.54,0,0,1-5-.6,7.76,7.76,0,0,1-3.34-4.53,15.84,15.84,0,0,1-.26-6.61,44.35,44.35,0,0,1,1.43-6.54,49.36,49.36,0,0,1,5.54-12.33c2-3.25,4.72-6.74,8.63-7.72,4.08-1,8.18,1.29,10.67,4.41,2.8,3.51,4.08,8.07,5.16,12.35a77.94,77.94,0,0,1,2.2,14.41C188,77.63,188.26,79.93,187.57,81.94Z"/>
    <path class="cls-1" d="M178,64.53a6.36,6.36,0,0,0-4.68-3.17,7.35,7.35,0,0,0-5.92,1.57.43.43,0,0,0,.25.75c0,1.31-.05,2.63,0,3.94,0,.92.39,1.86,1.46,1.86a9.83,9.83,0,0,0,1.52-.34,5.45,5.45,0,0,1,2,.34,5.79,5.79,0,0,0,3.47-.12A3.42,3.42,0,0,0,178,64.53Zm-1.83,3.79a4.32,4.32,0,0,1-2.92.35,7.63,7.63,0,0,0-2.87-.41c-.42.08-1,.43-1.45.28s-.37-.89-.37-1.26c0-1.22,0-2.43,0-3.65a.39.39,0,0,0-.13-.31,6.33,6.33,0,0,1,8,.64,3.3,3.3,0,0,1,1,2.42A2.49,2.49,0,0,1,176.13,68.32Z"/>
    <path class="cls-1" d="M232.66,47.64a5.91,5.91,0,0,0-3.19-4.26c-2.08-.91-4.34,0-6,1.37-1.9,1.64-2.94,4-4.54,5.88-1.38,1.61-3.41,3.08-5.6,2.43a.16.16,0,0,0,0-.09.49.49,0,0,0,.22-.77c-1.81-2.1-3.54-4.32-5.5-6.28-1.54-1.54-3.49-2.74-5.74-2.46a7.19,7.19,0,0,0-4.87,3,7.89,7.89,0,0,0-1.18,6.09,11.8,11.8,0,0,0,3.32,6c1.63,1.63,3.65,2.8,5.35,4.34A9.74,9.74,0,0,1,207,65.59a10.47,10.47,0,0,1,1.06,3.8c.28,2.66-.07,5.34.19,8A9.82,9.82,0,0,0,211,83.62a5.59,5.59,0,0,0,5.54,1.52,7.44,7.44,0,0,0,4.4-4.18c1.07-2.44,1-5.19.86-7.8s-.41-5.56.53-8.19c.84-2.36,2.65-4.21,4.4-5.93C229.73,56.06,233.67,52.37,232.66,47.64Zm-3.53,7.58c-3,3.47-7.14,6.16-8.13,10.91a29.88,29.88,0,0,0-.14,7.56c.12,2.47.15,5.17-1.06,7.41a5.82,5.82,0,0,1-5,3.35c-2.08,0-3.74-1.63-4.65-3.38-1.18-2.3-1.12-5-1.08-7.53a20.2,20.2,0,0,0-.73-7.14,11.27,11.27,0,0,0-3.88-5,32.58,32.58,0,0,1-5-4.18c-2.81-3.3-3.8-8.61,0-11.61a5.24,5.24,0,0,1,5.54-.8c2.13,1,3.64,3.17,5.14,4.92l1.16,1.34-.24-.23a.47.47,0,0,0-.77.45,4.13,4.13,0,0,0,4,2.84c2.09.08,3.92-1.29,5.22-2.79,1.54-1.79,2.55-4,4.26-5.64,1.54-1.48,3.91-2.47,5.87-1.18a5.62,5.62,0,0,1,2.22,4.71C231.88,51.5,230.56,53.57,229.13,55.22Z"/>
    <path class="cls-1" d="M97.93,49a23.34,23.34,0,0,0-11.36-4A25.23,25.23,0,0,0,73,47.61c-.47.24-.15.88.29.84-3.67,7.43-3.29,15.94-2.61,24,.32,3.78.45,8.22,3.48,11,2.62,2.37,6.33,1.89,8.92-.25,3.27-2.71,3.68-7.28,3.16-11.23,4.09-.91,8.36-1.91,11.8-4.42,3-2.18,5.38-5.62,5.35-9.43S100.9,51.1,97.93,49Zm.36,17.15c-3.52,3-8.26,4-12.64,4.95a.45.45,0,0,0-.32.56c.52,3.44.36,7.54-2.19,10.2-2.2,2.29-5.85,3.12-8.35.81-2.83-2.61-2.87-6.89-3.17-10.45A83.44,83.44,0,0,1,71.26,61a30.59,30.59,0,0,1,2.9-12.19.47.47,0,0,0-.24-.64,24.15,24.15,0,0,1,22,.6c3,1.7,5.82,4.38,6.46,7.91S101,63.88,98.29,66.15Z"/>
    <path class="cls-1" d="M90.35,53.27c-2.77-1.2-5.82-.53-8.42.77a.46.46,0,0,0-.06.79s0,0,0,.07c0,1.53,0,3.06-.08,4.6,0,1.14-.17,2.47.78,3.31a4.82,4.82,0,0,0,3.09.79,13.79,13.79,0,0,0,4.25-.31A5.14,5.14,0,0,0,94,58.55,5.76,5.76,0,0,0,90.35,53.27ZM90,62.21a10,10,0,0,1-3.36.42,7.81,7.81,0,0,1-3.08-.34c-1.16-.53-.81-2.19-.79-3.21,0-1.39,0-2.79.07-4.18a.36.36,0,0,0,0-.18A9.26,9.26,0,0,1,89,53.84a5.12,5.12,0,0,1,4,3.9A4,4,0,0,1,90,62.21Z"/>
  </g>
</svg>
