<svg xmlns="http://www.w3.org/2000/svg" width="215" height="200" viewBox="0 0 215 200">
  <defs>
    <style>
      .cls-1 {
        fill: #ccc;
      }

      .cls-2 {
        fill: #f2f2f2;
      }
    </style>
  </defs>
  <g id="text">
    <g>
      <ellipse class="cls-1" cx="56.63" cy="176.86" rx="12.25" ry="13.09"/>
      <ellipse class="cls-1" cx="51.55" cy="162.18" rx="9.78" ry="10.45"/>
      <ellipse class="cls-1" cx="45.36" cy="166.67" rx="9.53" ry="10.18"/>
      <ellipse class="cls-1" cx="45.3" cy="154.84" rx="8.35" ry="8.93"/>
      <ellipse class="cls-1" cx="191.9" cy="73.15" rx="14.81" ry="16.59" transform="translate(-12.27 95.34) rotate(-27.07)"/>
      <ellipse class="cls-1" cx="194.06" cy="106.44" rx="16.45" ry="18.44" transform="translate(-27.18 99.97) rotate(-27.07)"/>
      <ellipse class="cls-1" cx="193.45" cy="109.17" rx="0.29" ry="5.4" transform="translate(-22.41 161.59) rotate(-43.09)"/>
      <ellipse class="cls-1" cx="180.04" cy="83.63" rx="11.16" ry="12.5" transform="translate(-18.34 91.09) rotate(-27.07)"/>
      <ellipse class="cls-1" cx="203.71" cy="90.21" rx="9.8" ry="10.98" transform="translate(-18.74 102.59) rotate(-27.07)"/>
      <ellipse class="cls-1" cx="197.63" cy="69.23" rx="11.3" ry="12.66" transform="translate(-9.86 97.52) rotate(-27.07)"/>
      <ellipse class="cls-1" cx="96.82" cy="19.72" rx="9.71" ry="8.76"/>
      <ellipse class="cls-1" cx="101.15" cy="11.26" rx="8.95" ry="9.57"/>
      <ellipse class="cls-1" cx="110.77" cy="21.13" rx="6.88" ry="7.35"/>
      <ellipse class="cls-1" cx="118.21" cy="13.78" rx="9.05" ry="8.26"/>
      <ellipse class="cls-1" cx="120.1" cy="23.85" rx="5.28" ry="4.63"/>
      <ellipse class="cls-1" cx="129.32" cy="26.48" rx="5.84" ry="6.25"/>
      <ellipse class="cls-1" cx="177.97" cy="143.85" rx="9.74" ry="10.41"/>
      <ellipse class="cls-1" cx="161.96" cy="166.36" rx="4.9" ry="5.23"/>
      <path class="cls-1" d="M168.45,170.19a5.92,5.92,0,0,0,8.49-2,6.72,6.72,0,0,0,.95-3.27,7,7,0,0,0,6.59-3.51,7.93,7.93,0,0,0-2.2-10.5,6.75,6.75,0,0,0-7.62,0,8.64,8.64,0,0,0-1.75-1.6A7.89,7.89,0,0,0,161.6,152a9.13,9.13,0,0,0,2.52,12.1,8.16,8.16,0,0,0,1.48.79A6.67,6.67,0,0,0,168.45,170.19Z"/>
      <ellipse class="cls-1" cx="41.71" cy="90.57" rx="6.7" ry="7.16"/>
      <ellipse class="cls-1" cx="38.08" cy="72.88" rx="11.05" ry="11.81"/>
      <ellipse class="cls-1" cx="28.97" cy="82" rx="4.68" ry="5"/>
      <path class="cls-1" d="M20,85.05a10,10,0,0,0-6.33,2.6,11.7,11.7,0,0,0-1.32,15.73,10.39,10.39,0,0,0,4.92,3.51l-.24.2A8.85,8.85,0,0,0,16,119,7.56,7.56,0,0,0,27.15,120,8.61,8.61,0,0,0,30,114a8.89,8.89,0,0,0,11.52-.41,10.49,10.49,0,0,0,1.18-14.1,9.45,9.45,0,0,0-3.14-2.6,9.93,9.93,0,0,0-2.08-5.7l-.09-.11a10,10,0,0,0,1.1-.87A13.1,13.1,0,0,0,39.92,72.6,11.2,11.2,0,0,0,23.43,71,13.11,13.11,0,0,0,20,85.05Zm6,20.58.06,0a1.18,1.18,0,0,0,.07.2v.46c-.2-.13-.42-.25-.63-.36C25.66,105.85,25.83,105.75,26,105.63Z"/>
      <ellipse class="cls-1" cx="24.84" cy="62.03" rx="7.41" ry="7.91"/>
      <ellipse class="cls-1" cx="16.05" cy="83.08" rx="10.56" ry="11.29"/>
      <ellipse class="cls-1" cx="18.96" cy="69.48" rx="7.9" ry="8.44"/>
      <ellipse class="cls-1" cx="11.74" cy="99.44" rx="10.51" ry="11.23"/>
      <path class="cls-2" d="M45.88,74.43a13.12,13.12,0,0,0-1.16-3.66A9.35,9.35,0,0,0,42,66.91a5.38,5.38,0,0,0-3.84-1.07,10.39,10.39,0,0,0-4-1.45,9.07,9.07,0,0,0-3.36.22l-.25.06c0-.22.07-.44.12-.66a4.74,4.74,0,0,0-1-3.32,4.29,4.29,0,0,0-2.88-1.61,6.69,6.69,0,0,0-6.14,3.23c-.06.09-.11.18-.16.27l-.36.08a9.18,9.18,0,0,0-.89.28,2.34,2.34,0,0,0-1.57-.56c-2,0-2.77,1.94-2.4,3.52-.13.2-.26.4-.38.62a9.31,9.31,0,0,0-.76,7c-.16.21-.32.42-.47.65-2.38.13-2.93,3.21-1.64,4.7h0c-2.22.44-2.56,3.64-1,4.92a11.18,11.18,0,0,0-.47,4.42,7.81,7.81,0,0,0,.33,1.68,3.16,3.16,0,0,0-.33,3.78A7.54,7.54,0,0,0,7,99.19a7.35,7.35,0,0,0,6.6,8,8.76,8.76,0,0,0,3.29-.4,12.65,12.65,0,0,0,.82,3,6.34,6.34,0,0,0,6.43,3.9,5.67,5.67,0,0,0,4.66-4.54l.14.08a2.33,2.33,0,0,0,2.19,1.37A2.36,2.36,0,0,0,33.4,109a2.34,2.34,0,0,0,2.3,1.68c3.16,0,3.31-5,.46-5.46a5.23,5.23,0,0,0,.37-1.18c2.73-.59,2.55-5.44-.57-5.44h-.19c0-.13-.05-.26-.09-.39a19.25,19.25,0,0,0,.74-1.82,13.92,13.92,0,0,0,.84-6.43,6.42,6.42,0,0,0-2.53-4.31,5.37,5.37,0,0,0-5.39-.37c-2,1-3,3.07-4.4,4.8-.38.42-.78.82-1.2,1.21a11.4,11.4,0,0,0-2.1.13,3.59,3.59,0,0,0-1.29.47,4.27,4.27,0,0,0,.19-1.7,2.19,2.19,0,0,0,1.92-1.61h0a4.44,4.44,0,0,0,3.29-2.94A4.7,4.7,0,0,0,25,81.16a9.62,9.62,0,0,0-2.75-2.11v0a2.26,2.26,0,0,0,0-.26,4.62,4.62,0,0,0,2.2-3.58,5.92,5.92,0,0,0-.36-2.29,4.2,4.2,0,0,0-.4-.76,3.37,3.37,0,0,0,.55,0,6.9,6.9,0,0,0,1.48,1.11,7.27,7.27,0,0,0,4.93.68l.5-.11a2.6,2.6,0,0,0,2.3,3.09,4.62,4.62,0,0,0,0,1,5.91,5.91,0,0,0,2.66,4.35,6,6,0,0,0,5.59.57C45,81.66,46.33,77.76,45.88,74.43Z"/>
      <path class="cls-2" d="M130.21,22.23a4.23,4.23,0,0,0-1-2.61c0-.14,0-.28,0-.41a3.78,3.78,0,0,0-3.58-3.83h-.09a3.43,3.43,0,0,0,.37-1.71A4.07,4.07,0,0,0,124,10.29a3.58,3.58,0,0,0-3.31-2.46,3.7,3.7,0,0,0-3.11,1.93,3.35,3.35,0,0,0-2.3-.92A3.73,3.73,0,0,0,112,11.07a3.54,3.54,0,0,0-1.94.48l-.19.12-.09,0A3.77,3.77,0,0,0,106.2,8a2.82,2.82,0,0,0-.65.08,5.12,5.12,0,0,0-.88-1.36,4.23,4.23,0,0,0-5.31-.79,3.9,3.9,0,0,0-.65.48h0a3.76,3.76,0,0,0-3.59,3.82,4.89,4.89,0,0,0,.11.78,3.77,3.77,0,0,0-1.88,3.34,4.15,4.15,0,0,0,.12.87A3.85,3.85,0,0,0,94,22.78a3.75,3.75,0,0,0,3.57-3.46,3.38,3.38,0,0,0,2.67,1.32,3.44,3.44,0,0,0,2.11-.77,3.32,3.32,0,0,0,2.12.77,3.52,3.52,0,0,0,2.36-1,3.34,3.34,0,0,0,2.35,1,3.69,3.69,0,0,0,3-1.76,9.45,9.45,0,0,0,1.51-.72,2.62,2.62,0,0,0,.65-.5,3.38,3.38,0,0,0,2.48,1.1,3.89,3.89,0,0,0,.47,0A3.68,3.68,0,0,0,118.33,20a3.64,3.64,0,0,0,0,.74,3.77,3.77,0,0,0,3.58,3.82,3.41,3.41,0,0,0,1.67-.46,3.47,3.47,0,0,0,3.1,2A3.75,3.75,0,0,0,130.21,22.23Z"/>
      <path class="cls-2" d="M42.9,148.61a3.34,3.34,0,0,0-2.28,3.32,3.51,3.51,0,0,0,.29,1.28,4.23,4.23,0,0,0-2.44,1.95,2.6,2.6,0,0,0,1.41,3.7l.77.21.12.16a2.53,2.53,0,0,0-1.37,2.26,15.29,15.29,0,0,0,.14,2.35l-.12.12a4.69,4.69,0,0,0-.55,5.23A7,7,0,0,0,42,172.1a2.17,2.17,0,0,0,1.88,1,2.47,2.47,0,0,0,2.35-2.51,2.64,2.64,0,0,0-1-2.08,1.66,1.66,0,0,0-.25-.34,3.45,3.45,0,0,0,.46-2.19,4,4,0,0,0-1-2.24l-.09-.09v0c0-.07,0-.13,0-.2a2.48,2.48,0,0,0,1.62-2.36,2.53,2.53,0,0,0-.12-.77,2.34,2.34,0,0,0,2.21-1.82,2.72,2.72,0,0,0-1.11-2.86c0-.1,0-.19,0-.29a3.29,3.29,0,0,0,2.65-1,3.52,3.52,0,0,0,.06-4.64,3.37,3.37,0,0,0-3.9-.85A3.43,3.43,0,0,0,42.9,148.61Z"/>
      <path class="cls-2" d="M49.07,158.31a2.61,2.61,0,0,0,1.67,2.42,11.68,11.68,0,0,0-.91,1.41,2.5,2.5,0,0,0-1.67,2.39,2.68,2.68,0,0,0,.37,1.32,11,11,0,0,0-.13,2.81,2.57,2.57,0,0,0,1.72,2.42,2.46,2.46,0,0,0,.6.07,2.5,2.5,0,0,0-.35,1,2.52,2.52,0,0,0-1.24,3.37,2.55,2.55,0,0,0,.8,4.75A6.77,6.77,0,0,0,50.4,185a4.43,4.43,0,0,0,3.78,2.32l.28,0a5.25,5.25,0,0,0,1.07.59,2.36,2.36,0,0,0,2.9-1.75,2.57,2.57,0,0,0-.65-2.43,3.89,3.89,0,0,0-1.6-3.63,2,2,0,0,0-.81-.31,2.18,2.18,0,0,0,.55-.71c0-.06.12-.27.17-.4s.3-.36.39-.38q-.37.3-.06.06l.29-.18,0,0h0l.33-.1h.22c.25,0,.23,0,0,0h-.06a3.94,3.94,0,0,1,.82.15,4.76,4.76,0,0,0,.84.07,5.18,5.18,0,0,0,3-1.11v.3a2.89,2.89,0,0,0-1.83,1.07,3.62,3.62,0,0,0-.44,3.9,2.29,2.29,0,0,0,2.65,1.16,6.81,6.81,0,0,0,4.08-8.18,2.42,2.42,0,0,0-2.73-1.81,2.55,2.55,0,0,0,0-.39,4.5,4.5,0,0,0-2-3.5,3,3,0,0,0-.8-.37,4.22,4.22,0,0,0-2.34-1.8l-.08,0a2.58,2.58,0,0,0,.28-1.19,2.67,2.67,0,0,0-1.25-2.22l0-.15a5.83,5.83,0,0,0-1.32-5.31,2.6,2.6,0,0,0-1.63-.73,1.79,1.79,0,0,0-.83-.21,2.37,2.37,0,0,0-2.26-1.85A2.48,2.48,0,0,0,49.07,158.31Z"/>
      <g>
        <path class="cls-2" d="M186.59,88.33l-.11,0h0a.69.69,0,0,0,.18,0Z"/>
        <path class="cls-2" d="M186.39,88.38h0Z"/>
        <path class="cls-2" d="M191.3,86.74a2.38,2.38,0,0,0,2.4-.69,3.17,3.17,0,0,0,.43-3.28l1.61-1a3.09,3.09,0,0,0,1.47-1.63,3.71,3.71,0,0,0,.17-.94,2.55,2.55,0,0,0,3.12-.43,3.08,3.08,0,0,0,.71-2,3.27,3.27,0,0,0,.44,0c1.18-.22,2.08-1.63,2.53-2.72a8.84,8.84,0,0,0,.66-3.24,8.65,8.65,0,0,0-3.15-6.68,3.26,3.26,0,0,0-.88-2.31,2.81,2.81,0,0,0-3.63-.49,2.16,2.16,0,0,0-.27-.33,2.71,2.71,0,0,0-3.94-.2,3.46,3.46,0,0,0-.22.31,3.26,3.26,0,0,0-.79-1.47,2.7,2.7,0,0,0-3.94-.19,2.94,2.94,0,0,0-.6,1.18,2.62,2.62,0,0,0-3.49.2,3.2,3.2,0,0,0,.18,4.22l.28.25a5.49,5.49,0,0,0-.21.51,2.44,2.44,0,0,0-2.68.61,3.19,3.19,0,0,0,.18,4.21,3.27,3.27,0,0,0,1,.72,10.41,10.41,0,0,0-2.21,2.58,8.9,8.9,0,0,0-1,2.31,4.74,4.74,0,0,0-.75-.06,5.64,5.64,0,0,0-5.3,3.49,7.8,7.8,0,0,0,.39,6.78,8.78,8.78,0,0,0,2.38,2.77A5.94,5.94,0,0,0,180.06,94a2.55,2.55,0,0,0,3.31-2,3.79,3.79,0,0,0,0-1,2.48,2.48,0,0,0,2.86-2c0-.2.09-.44.06-.4a.47.47,0,0,0,0-.1l0,0,.07-.08,0,0h0l-.15.12c0-.07.09-.12.18-.15l0,0h0l0,0h.17s0,0,0,0h.12l0,0,.47.33a2.53,2.53,0,0,0,3.54-.62A2.72,2.72,0,0,0,191.3,86.74Z"/>
      </g>
      <path class="cls-2" d="M201.12,121.18a3.1,3.1,0,0,0,.7-1.89,7.22,7.22,0,0,0,2.16-2.76,2.22,2.22,0,0,0,1.38-.74,3.15,3.15,0,0,0,.56-3,2.12,2.12,0,0,0,.92-.63,3.18,3.18,0,0,0,0-4,2.55,2.55,0,0,0,.43-.38,3.21,3.21,0,0,0-.18-4.22l-.08-.07a3.23,3.23,0,0,0-.8-3l0,0a2.58,2.58,0,0,0,.61-.49,3.21,3.21,0,0,0-.19-4.22l-.19-.18a2.31,2.31,0,0,0,2.08-.75,3.18,3.18,0,0,0-.18-4.21,3.45,3.45,0,0,0-.67-.54,6,6,0,0,0-1-5.14,6.4,6.4,0,0,0-1.88-1.73,3.25,3.25,0,0,0-.65-3.42,3.8,3.8,0,0,0-.49-.41,3.22,3.22,0,0,0-.3-4.06,2.89,2.89,0,0,0-3.32-.7,2.34,2.34,0,0,0-2.09.75,3.14,3.14,0,0,0-.28,3.58,2.37,2.37,0,0,0-2.21.73,3.19,3.19,0,0,0-.26.38L194,79.52c-1.37-.67-3.08-.59-3.75.93-.57,1.27-.25,3.4,1.22,4.11l.92.46a1.79,1.79,0,0,0-.44.39,3.19,3.19,0,0,0,.18,4.21,3.06,3.06,0,0,0,1.18.77,3.27,3.27,0,0,0,.88,2.34,3.2,3.2,0,0,0,1,.7,3.19,3.19,0,0,0,.13,3.09,3.13,3.13,0,0,0-.41,2.32,2.49,2.49,0,0,0-2.93.51,3.08,3.08,0,0,0-.68,2.38,3.38,3.38,0,0,0-.64-1,3,3,0,0,0-2.37-1,3.31,3.31,0,0,0-.83-1.59,2.71,2.71,0,0,0-3.94-.2,3.21,3.21,0,0,0,.18,4.22,3,3,0,0,0,2.38,1,3.17,3.17,0,0,0,.82,1.59,3.07,3.07,0,0,0,.85.64,3.25,3.25,0,0,0,.61,3.54h0a3.27,3.27,0,0,0,.86,2.66,3.12,3.12,0,0,0,1.66.91,3.36,3.36,0,0,0,.54.79,3.15,3.15,0,0,0,1.51.88,3.55,3.55,0,0,0,0,1.55,5.89,5.89,0,0,0,.32,1,2.17,2.17,0,0,0-.73.56,3.19,3.19,0,0,0,.18,4.21,2.71,2.71,0,0,0,3.95.19,3.42,3.42,0,0,0,.45-.73l.06.07A2.69,2.69,0,0,0,201.12,121.18Zm-9.59-18.35a2.28,2.28,0,0,0,0-.26,1.89,1.89,0,0,0,.11.25Z"/>
      <path class="cls-2" d="M54.85,154.85a2.52,2.52,0,1,0,2.35,2.51A2.45,2.45,0,0,0,54.85,154.85Z"/>
      <path class="cls-1" d="M170.76,155.81a2.13,2.13,0,0,0,3-.71,2.57,2.57,0,0,0-.05-2.57,2.59,2.59,0,0,0,.16-1.48,2.37,2.37,0,0,0,.58-.6,1.67,1.67,0,0,0,.52.47,2.1,2.1,0,0,0,3-.71,2.47,2.47,0,0,0,.27-1.77l.12-.18a2.44,2.44,0,0,0-.67-3.19,2.16,2.16,0,0,0-2.22-.06l0-.14a2.56,2.56,0,0,0-.09-2.21,2.07,2.07,0,0,0,.46-.55,1.4,1.4,0,0,0,.15-.3,2.1,2.1,0,0,0,.73-.75,2.43,2.43,0,0,0-.66-3.19,2.12,2.12,0,0,0-3,.71,1.77,1.77,0,0,0-.15.31,2,2,0,0,0-.73.75,2.35,2.35,0,0,0-.32,1,2.07,2.07,0,0,0-1.94,1,2.55,2.55,0,0,0-.23,1.95,2.41,2.41,0,0,0-.5.59,2.54,2.54,0,0,0,0,2.57,2.62,2.62,0,0,0,0,2,2.18,2.18,0,0,0-.54.62,2.53,2.53,0,0,0,0,2.39,2.31,2.31,0,0,0,1,2.09l.21.11A2.25,2.25,0,0,0,170.76,155.81Zm3.47-8.31a.53.53,0,0,0,.15-.08l0,.14-.06.08Z"/>
      <path class="cls-2" d="M161,167.21a2.12,2.12,0,0,0,2.46-.11,2,2,0,0,0,1.84-.24,2,2,0,0,0,1.18-.72,2.12,2.12,0,0,0,3-.72,2.44,2.44,0,0,0-.67-3.2,2.34,2.34,0,0,0-.61-.26s0-.05,0-.07a2.12,2.12,0,0,0,1.29-1,2.54,2.54,0,0,0-.19-2.76,2.17,2.17,0,0,0,.14-2.32,5.79,5.79,0,0,0-.45-.62,2.12,2.12,0,0,0,1.67-1.3,2.46,2.46,0,0,0,.17-1.3,2.09,2.09,0,0,0,1.08-.54,2.07,2.07,0,0,0,2-1,2.4,2.4,0,0,0,.32-1.29,2.18,2.18,0,0,0,1-.87,2.62,2.62,0,0,0,.19-2.07,1.68,1.68,0,0,0,.41.43,2.44,2.44,0,0,0,.68,3.17,2.19,2.19,0,0,0,.74.29,1.93,1.93,0,0,1,0,.24,2.34,2.34,0,0,0-.85,1.1,2.62,2.62,0,0,0-.44.44,3,3,0,0,0-.36,3.16,2.05,2.05,0,0,0-.83.8,2.43,2.43,0,0,0,.66,3.19,2,2,0,0,0,.44.21,2.61,2.61,0,0,0-.18.78,2.21,2.21,0,0,0-.68,0,2.09,2.09,0,0,0-2.35,1,2.43,2.43,0,0,0,.66,3.19,2.22,2.22,0,0,0,1.59.3,2.1,2.1,0,0,0,2.35-1,2.47,2.47,0,0,0,.32-1.06,2.08,2.08,0,0,0,2.08-1,1.09,1.09,0,0,0,.08-.15,1.92,1.92,0,0,0,2-1,7.94,7.94,0,0,0,.74-4.44h0a2,2,0,0,0-.1-.91c-.11-.71-.25-1.42-.41-2.14-.12-.56-.22-1.11-.3-1.68,0-.17-.05-.34-.07-.51V151a4.36,4.36,0,0,0,1.2-.36,2.41,2.41,0,0,0,.93-3.12,2.49,2.49,0,0,0-.68-.81,5.11,5.11,0,0,0,1.65-4,4.43,4.43,0,0,0-2.27-3.91,2.34,2.34,0,0,0-1-2.4,2.12,2.12,0,0,0-2.41.07,2,2,0,0,0-.6-.6,2.12,2.12,0,0,0-3,.72,2.51,2.51,0,0,0-.31,1.5l-.22.12a4.32,4.32,0,0,0-.71.17,4.89,4.89,0,0,0-3,2.6,4.29,4.29,0,0,0-.3.92,2.26,2.26,0,0,0-.51.59,2.55,2.55,0,0,0,0,2.48,2.1,2.1,0,0,0-.47.55,2.59,2.59,0,0,0,0,2.53,2.13,2.13,0,0,0-1.34,1,2.31,2.31,0,0,0-.29.86,2.12,2.12,0,0,0-2.71.4,4.14,4.14,0,0,0-1.7,1.9,3.52,3.52,0,0,0-.47,3.33,2.14,2.14,0,0,0-.89.83,2.43,2.43,0,0,0,.66,3.19,2.16,2.16,0,0,0,.61.26c0,.33,0,.65-.06,1l-.06.26c0,.2-.1.4-.17.6s-.14.34-.17.43-.16.29-.17.32c-.11.18-.24.34-.33.52l0,.05,0,0a2.1,2.1,0,0,0-2.43,1A2.43,2.43,0,0,0,161,167.21Zm16.26-12.34a1.1,1.1,0,0,1,.31-.43A4.25,4.25,0,0,0,177.24,154.87Z"/>
      <path class="cls-2" d="M166.83,154.71a2.14,2.14,0,0,0,2.71-.33,2.09,2.09,0,0,0,1.79-1,2.58,2.58,0,0,0,.27-1.77,2.1,2.1,0,0,0,1.37-1,2.43,2.43,0,0,0-.66-3.19,2.12,2.12,0,0,0-3,.72,2,2,0,0,0-.25.63,2.09,2.09,0,0,0-2,1,2.35,2.35,0,0,0-.32,1.13,2,2,0,0,0-.57.64A2.43,2.43,0,0,0,166.83,154.71Z"/>
      <g>
        <ellipse class="cls-1" cx="18.86" cy="139.48" rx="6.42" ry="6.86"/>
        <ellipse class="cls-1" cx="20.85" cy="148.51" rx="5.3" ry="6.35"/>
        <ellipse class="cls-1" cx="26.16" cy="139.52" rx="6.06" ry="6.48"/>
        <path class="cls-2" d="M30.57,139.83a2.44,2.44,0,0,0-1-1.91,2.15,2.15,0,0,0,.07-.62A2.22,2.22,0,0,0,27.52,135a2.13,2.13,0,0,0-1.5.67h-.19a2.23,2.23,0,0,0-2.07,1.76,1.81,1.81,0,0,0-.63-.37,2.11,2.11,0,0,0-2-1.52,1.9,1.9,0,0,0-.58.09,2.05,2.05,0,0,0-1.85-1.22,2.22,2.22,0,0,0-2.11,2.08,2.12,2.12,0,0,0-.57-.08,2.2,2.2,0,0,0-2.11,2.26,2.4,2.4,0,0,0,1.12,2,1.34,1.34,0,0,0,0,.2,2.22,2.22,0,0,0,2.11,2.26,2.22,2.22,0,0,0,2.06-1.69,2,2,0,0,0,1.59.83,2.06,2.06,0,0,0,.72.59,2.1,2.1,0,0,0-.25,1.08,2.55,2.55,0,0,0,.58,1.53,2.3,2.3,0,0,0-.5,1.07,2.22,2.22,0,0,0-2.08,2.26c0,.07,0,.15,0,.22a2.2,2.2,0,0,0-1,1.91,2.22,2.22,0,0,0,2.11,2.26h.14a2,2,0,0,0,1.48.67,2.22,2.22,0,0,0,2-1.67A2.24,2.24,0,0,0,25.71,150a2.59,2.59,0,0,0-.64-1.6,2.17,2.17,0,0,0,.51-1.46,2.5,2.5,0,0,0-.58-1.53,2.25,2.25,0,0,0,.52-1.28,1.66,1.66,0,0,0,.33,0,2.07,2.07,0,0,0,.8-.18,2,2,0,0,0,.82.18,2.22,2.22,0,0,0,2.11-2.26,1.36,1.36,0,0,0,0-.2A2.2,2.2,0,0,0,30.57,139.83Z"/>
      </g>
      <g>
        <ellipse class="cls-1" cx="73.08" cy="9.92" rx="4.31" ry="4.61"/>
        <ellipse class="cls-1" cx="75.58" cy="4.29" rx="4.19" ry="3.63" transform="translate(39.52 70.85) rotate(-64.8)"/>
        <ellipse class="cls-1" cx="69.27" cy="6.63" rx="4.07" ry="4.35"/>
        <path class="cls-2" d="M67.08,4.49a1.68,1.68,0,0,0-.23,1.45,1.54,1.54,0,0,0-.28.29,1.63,1.63,0,0,0,.22,2.14,1.38,1.38,0,0,0,1,.31.28.28,0,0,0,.1.09,1.38,1.38,0,0,0,1.77,0,1.66,1.66,0,0,0,.19.48,1.57,1.57,0,0,0,.44,1.68,1.2,1.2,0,0,0,.34.21,1.54,1.54,0,0,0,.49,1.48,1.38,1.38,0,0,0,1.93-.15,1.22,1.22,0,0,0,.26.3,1.37,1.37,0,0,0,2-.24A1.7,1.7,0,0,0,75.55,11l.08-.11a1.63,1.63,0,0,0-.22-2.14,1.41,1.41,0,0,0-1.75,0,1.51,1.51,0,0,0-.5-1.15A1.66,1.66,0,0,0,73,6.94a1.38,1.38,0,0,0,.56-.46,1.74,1.74,0,0,0,.29-1.06,1.3,1.3,0,0,0,.68-.34,1.38,1.38,0,0,0,2-.25l.08-.12a1.33,1.33,0,0,0,1.28-.55A1.62,1.62,0,0,0,77.66,2L77.59,2a1.51,1.51,0,0,0-.52-1,1.38,1.38,0,0,0-1.73,0,1.37,1.37,0,0,0-1.71.42,1.71,1.71,0,0,0-.29,1.13,1.32,1.32,0,0,0-.85.54,1.74,1.74,0,0,0-.29,1.06,1.3,1.3,0,0,0-.78.43l-.16-.16a1.29,1.29,0,0,0-.49-.26,1.35,1.35,0,0,0-.36-.47,1.37,1.37,0,0,0-2,.24l-.07.11A1.31,1.31,0,0,0,67.08,4.49Z"/>
      </g>
      <ellipse class="cls-1" cx="191.17" cy="53.51" rx="12.44" ry="14.67"/>
      <ellipse class="cls-1" cx="178.4" cy="59.13" rx="10.19" ry="10.89"/>
      <ellipse class="cls-1" cx="181.41" cy="121.5" rx="7.19" ry="7.68"/>
      <ellipse class="cls-1" cx="44.73" cy="38.26" rx="11.26" ry="8.6"/>
      <ellipse class="cls-1" cx="53.42" cy="27.37" rx="8.58" ry="9.17"/>
      <ellipse class="cls-1" cx="62.22" cy="37" rx="6.65" ry="5.96"/>
      <ellipse class="cls-1" cx="63.4" cy="34.14" rx="6.33" ry="6.76"/>
      <ellipse class="cls-1" cx="65.65" cy="25.77" rx="4.93" ry="5.27"/>
      <ellipse class="cls-1" cx="156.41" cy="23.02" rx="6.01" ry="6.42"/>
      <ellipse class="cls-1" cx="164.88" cy="30.58" rx="5.26" ry="5.73"/>
      <ellipse class="cls-1" cx="164.35" cy="22.56" rx="4.72" ry="5.04"/>
      <path class="cls-1" d="M97.57,183.83a5.07,5.07,0,0,1-1.24.15,4.63,4.63,0,0,1-.65,0,5,5,0,0,1-1.14-.28,1.87,1.87,0,0,1-.14-.71,2.24,2.24,0,0,1,.9-1.71,6.31,6.31,0,0,1,1.46,1.32A6.22,6.22,0,0,1,97.57,183.83Z"/>
      <path class="cls-1" d="M98.15,185.59a4.61,4.61,0,0,1-2.87-.94,2.58,2.58,0,0,1-.74-1,1.87,1.87,0,0,1-.14-.71,2.24,2.24,0,0,1,.9-1.71,6.31,6.31,0,0,1,1.46,1.32,6.22,6.22,0,0,1,.81,1.27A6.5,6.5,0,0,1,98.15,185.59Z"/>
      <path class="cls-1" d="M109.66,186.6l-.22,0c0-.11,0-.23-.07-.34C109.47,186.39,109.56,186.49,109.66,186.6Z"/>
      <path class="cls-1" d="M115.19,180c0,.2,0,.39-.07.58a7,7,0,0,0-.93-.22,10.4,10.4,0,0,1,1-1.72A7.71,7.71,0,0,1,115.19,180Z"/>
      <path class="cls-1" d="M98.15,185.59a4.61,4.61,0,0,1-2.87-.94,8.13,8.13,0,0,1,.4-.71,8,8,0,0,1,1.08-1.38,6.22,6.22,0,0,1,.81,1.27A6.5,6.5,0,0,1,98.15,185.59Z"/>
      <path class="cls-1" d="M109.66,186.6l-.22,0c0-.11,0-.23-.07-.34C109.47,186.39,109.56,186.49,109.66,186.6Z"/>
      <path class="cls-1" d="M115.19,180c0,.2,0,.39-.07.58a7,7,0,0,0-.93-.22,10.4,10.4,0,0,1,1-1.72A7.71,7.71,0,0,1,115.19,180Z"/>
      <path class="cls-1" d="M134.32,179.63h0Z"/>
      <path class="cls-1" d="M98.15,185.59a4.61,4.61,0,0,1-2.87-.94,2.58,2.58,0,0,1-.74-1,1.87,1.87,0,0,1-.14-.71,2.24,2.24,0,0,1,.9-1.71,6.31,6.31,0,0,1,1.46,1.32,6.22,6.22,0,0,1,.81,1.27A6.5,6.5,0,0,1,98.15,185.59Z"/>
      <path class="cls-1" d="M109.66,186.6l-.22,0c0-.11,0-.23-.07-.34C109.47,186.39,109.56,186.49,109.66,186.6Z"/>
      <path class="cls-1" d="M134.32,179.63h0Z"/>
      <path class="cls-1" d="M139.78,173.89a5.31,5.31,0,0,0-1.87.35,7,7,0,0,0,.05-.81,6.67,6.67,0,0,0-6.44-6.88,6.48,6.48,0,0,0-6.11,4.73,7.3,7.3,0,0,0-5.37-2.2c-3.58,0-6.51,2.31-6.74,5.23a6.75,6.75,0,0,0-4.35-2.23,6.88,6.88,0,0,0-7.11,5,5.7,5.7,0,0,0-5.51-5,5.78,5.78,0,0,0-5.58,6,6.41,6.41,0,0,0,.46,2.37A6.42,6.42,0,0,0,86,186.85a6.33,6.33,0,0,0,6.12,6.53,5.75,5.75,0,0,0,3.21-1,7.55,7.55,0,0,0,6.66,4.18,7.19,7.19,0,0,0,3.47-.89,2.8,2.8,0,0,0,2.21,1.35,2.16,2.16,0,0,0,1.15-.33,6.52,6.52,0,0,0,5.83,3.08c3.49,0,6.33-2.26,6.33-5a1.27,1.27,0,0,0,0-.2,9.6,9.6,0,0,0,1.94.2,9.2,9.2,0,0,0,4.11-1,4.53,4.53,0,0,0,4.26,3.25,4.66,4.66,0,0,0,4.5-4.81,5.34,5.34,0,0,0-.11-1.08,5.79,5.79,0,0,0,4.19-5.58,5.86,5.86,0,0,0-.11-11.69Zm-44.5,10.76a2.58,2.58,0,0,1-.74-1,1.87,1.87,0,0,1-.14-.71,2.24,2.24,0,0,1,.9-1.71,6.31,6.31,0,0,1,1.46,1.32,6.22,6.22,0,0,1,.81,1.27,6.5,6.5,0,0,1,.58,1.76A4.61,4.61,0,0,1,95.28,184.65Zm19.93-6,0,0a7.71,7.71,0,0,1,0,1.36c0,.2,0,.39-.07.58a7,7,0,0,0-.93-.22,10.4,10.4,0,0,1,1-1.72.22.22,0,0,0,0-.08Zm-5.55,8-.22,0c0-.11,0-.23-.07-.34C109.47,186.39,109.56,186.49,109.66,186.6Zm22-6.2,0-.09h.21Zm2.62-.77Z"/>
      <path class="cls-1" d="M134.32,179.63h0Z"/>
      <path class="cls-2" d="M202.7,55.43l0-.06a4.44,4.44,0,0,0-.49-2.74l-2.82-5.18a4,4,0,0,0-4.85-1.93l-2.08-2.45A4,4,0,0,0,186,44l-2.8,6.45a3.89,3.89,0,0,0-2.75,1l-.08,0a4,4,0,0,0-4.6,2,4.76,4.76,0,0,0,.19,4.67c-1.47,1.65-1.69,4.75,0,6.25a6.68,6.68,0,0,0,5,1.83c.1.09.13.13,0,0h0l.2.2a4.28,4.28,0,0,0-1.51,2.78A5.25,5.25,0,0,0,181,73.42a5.13,5.13,0,0,0,2.41,1.42A4.06,4.06,0,0,0,186.77,78c1.79.26,4.18-1,4.47-3.12l.72-5.42c.34,0,.68-.06,1-.12a2.76,2.76,0,0,0,1.32-.64,3.63,3.63,0,0,0,3,1.42,4.28,4.28,0,0,0,4.08-4.35v-.21a5.45,5.45,0,0,0,1-.88A7.7,7.7,0,0,0,202.7,55.43Z"/>
      <path class="cls-2" d="M168.4,28.08A2.3,2.3,0,0,0,167.05,27a4.09,4.09,0,0,0,0-.61,4.25,4.25,0,0,0,1.34-3.2,4.3,4.3,0,0,0-4.08-4.36,3.94,3.94,0,0,0-2.49,1,2.37,2.37,0,0,0-.61-.07A2.35,2.35,0,0,0,160,20a3.85,3.85,0,0,0-3.05-1.53,4.36,4.36,0,0,0,0,8.71,4.21,4.21,0,0,0,3.49-2.11l.3.08a4.48,4.48,0,0,0,1.38,1.66,2.63,2.63,0,0,0,1.77,2.68.91.91,0,0,0,0,.17,3,3,0,0,0,1.09,3.88,2.32,2.32,0,0,0,2.19,1.38c1.95,0,2.76-1.92,2.4-3.49A3,3,0,0,0,168.4,28.08Z"/>
      <ellipse class="cls-1" cx="156.03" cy="186.7" rx="3.24" ry="3.47"/>
      <ellipse class="cls-1" cx="160.74" cy="182.79" rx="2.89" ry="3.04" transform="matrix(1, -0.09, 0.09, 1, -15.25, 14.64)"/>
      <ellipse class="cls-1" cx="156.72" cy="182.17" rx="2.55" ry="2.72"/>
      <path class="cls-2" d="M159.91,180.52a1.3,1.3,0,0,0-.69.64l-.31,0a2.09,2.09,0,0,0-1.42-1.13,2.25,2.25,0,0,0-2.62,1.8,2.53,2.53,0,0,0,.18,1.51,1.69,1.69,0,0,0-.11.34,1.73,1.73,0,0,0,0,.72,2.24,2.24,0,0,0-1.1,1.54,2.38,2.38,0,0,0,1.68,2.8,2.24,2.24,0,0,0,2.62-1.79,2.56,2.56,0,0,0-.64-2.21,1.11,1.11,0,0,0,.07-.16,2.25,2.25,0,0,0,1-.59,1.3,1.3,0,0,0,1.53-.68l.08,0a1.39,1.39,0,0,0,2-.17,1.31,1.31,0,0,0,.94-1.07,1.43,1.43,0,0,0-1.45-1.76A1.39,1.39,0,0,0,159.91,180.52Z"/>
      <path class="cls-2" d="M138.43,179a4.43,4.43,0,0,0-3.22-4.25,3.21,3.21,0,0,0,0-.82,4.08,4.08,0,1,0-8.15,0c0,.16,0,.31,0,.46l-.16.25a3.91,3.91,0,0,0-3.31-1.89,3.81,3.81,0,0,0-1.59.36,3.81,3.81,0,0,0-3-1.42,4.36,4.36,0,0,0,0,8.71,3.8,3.8,0,0,0,1.58-.36,3.86,3.86,0,0,0,3,1.42,4.08,4.08,0,0,0,2.91-1.34,16.51,16.51,0,0,0,1.46,2.71,4.1,4.1,0,0,0-.1.48l-.19.23-.33,0a4.19,4.19,0,0,0-3.42,2,4,4,0,0,0-3.5-2.2,4.28,4.28,0,0,0-4.06,3.83,4.06,4.06,0,0,0-.51.65,3.62,3.62,0,0,0-1.36-.26,3.51,3.51,0,0,0-1.19.21,3.7,3.7,0,0,0-2.36-.84,3.52,3.52,0,0,0-1,.14,5.07,5.07,0,0,0-3.28-3.11,37.46,37.46,0,0,0-5.3-1,2.41,2.41,0,0,0,0-.38,4.08,4.08,0,1,0-8.15,0c0,.05,0,.1,0,.15a4.39,4.39,0,0,0,.7,8.65,4.06,4.06,0,0,0,2.8-1.22,3.08,3.08,0,0,0,1.84,1.1l.92.16a4,4,0,0,0,3.73,2.7,3.71,3.71,0,0,0,1.71-.43,3.6,3.6,0,0,0,2.63-.06,4.57,4.57,0,0,0,.45.61,4.11,4.11,0,0,0,3.9,3.26,4,4,0,0,0,2.86-1.28,4.2,4.2,0,0,0,3.1-1.93,3.83,3.83,0,0,0,1.36.26,4.29,4.29,0,0,0,4.06-3.84,4.63,4.63,0,0,0,.55-.69,4,4,0,0,0,2.53,2.07,3.8,3.8,0,0,0,2.94,1.4,4.29,4.29,0,0,0,4.07-3.9,4.31,4.31,0,0,0,1.54-2.66,4.27,4.27,0,0,0,.93-1.79,4.88,4.88,0,0,0,.91-2.74A4.28,4.28,0,0,0,138.43,179Z"/>
      <path class="cls-2" d="M68.85,28.62a4.17,4.17,0,0,0,1.4-3.25,4.05,4.05,0,0,0-7.85-1.69,4.64,4.64,0,0,0-.87,1.1,4.17,4.17,0,0,0-4-3.47,3.86,3.86,0,0,0-2.13.67,3.92,3.92,0,0,0-3.29-1.85,4.27,4.27,0,0,0-4.07,4.36,4.86,4.86,0,0,0,1.08,2.9,4.31,4.31,0,0,0-3.37,4.29,4.26,4.26,0,0,0,.13.94,4.32,4.32,0,0,0-1.46,1.16A3.7,3.7,0,0,0,42.22,33a3.27,3.27,0,0,0-1,.14,3.73,3.73,0,0,0-1-.14,4.36,4.36,0,0,0,0,8.71l.36,0c0,.13,0,.26,0,.4a4.06,4.06,0,0,0,8,1.28,3.52,3.52,0,0,0,1,.14,4.27,4.27,0,0,0,4.07-4.36,5.13,5.13,0,0,0-.35-1.67,3.71,3.71,0,0,0,2.08.64A3.57,3.57,0,0,0,56.49,38a4.15,4.15,0,0,0,3.92,3.29,3.8,3.8,0,0,0,2-.6,3.76,3.76,0,0,0,2.27.76,4.36,4.36,0,0,0,0-8.71,3.82,3.82,0,0,0-1.77.46A4,4,0,0,0,63.47,31v0a3.76,3.76,0,0,0,1.61.36A4.26,4.26,0,0,0,68.85,28.62Z"/>
    </g>
  </g>
</svg>
